<svg xmlns="http://www.w3.org/2000/svg" viewBox="1161 291 1540 1406">
<path fill="#5A0A90" fill-rule="evenodd" d="M 2456.7855 382.1912 C 2458.0466 382.5933 2459.3854 382.8167 2460.7769 382.8167 C 2460.8922 382.8167 2461.015 382.8167 2461.1329 382.8167 L 2462.0505 374.6467 L 2458.8062 375.8606 L 2456.7855 382.1984 L 2456.7855 382.1912 Z M 2465.1518 373.4773 L 2464.1439 382.3772 C 2468.1579 381.3049 2471.4096 378.3705 2472.9164 374.5572 C 2473.4454 373.2093 2473.7639 371.7569 2473.814 370.2376 L 2465.1518 373.4848 L 2465.1518 373.4773 Z M 2454.0928 380.9697 L 2455.3013 377.1714 L 2451.2597 378.6907 C 2452.0921 379.577 2453.0423 380.3514 2454.0928 380.9772 L 2454.0928 380.9697 Z M 2461.1178 356.7499 L 2460.7769 356.7499 C 2453.5763 356.7499 2447.7397 362.5813 2447.7397 369.7758 C 2447.7397 372.1368 2448.369 374.3486 2449.4646 376.2628 L 2456.4169 373.6561 L 2461.7973 356.7798 C 2461.5741 356.7647 2461.341 356.7499 2461.1103 356.7424 L 2461.1178 356.7499 Z M 2462.414 371.4142 L 2463.6149 360.7716 L 2459.9294 372.3454 L 2462.414 371.4142 Z M 2472.9164 365.0092 C 2471.7707 362.0972 2469.607 359.6991 2466.8692 358.2542 L 2465.5128 370.2524 L 2473.5683 367.236 C 2473.4154 366.4691 2473.1972 365.7242 2472.9164 365.0167 L 2472.9164 365.0092 Z M 1311.8768 454.9116 L 1311.5759 454.9116 L 1311.5759 456.6739 L 1311.8768 456.6739 C 1312.3005 456.6739 1312.491 456.2499 1312.491 455.7891 C 1312.491 455.2699 1312.3005 454.9116 1311.8768 454.9116 Z M 1326.7943 447.6065 C 1326.4583 447.6065 1326.2678 448.0087 1326.2678 449.7271 C 1326.2678 451.4455 1326.4583 451.8476 1326.7943 451.8476 C 1327.1302 451.8476 1327.3208 451.4455 1327.3208 449.7271 C 1327.3208 448.0087 1327.1302 447.6065 1326.7943 447.6065 Z M 1319.2252 455.1237 C 1319.2177 455.226 1319.1801 455.5331 1319.1299 455.8696 L 1318.8516 457.8001 L 1319.6063 457.8001 L 1319.328 455.8696 C 1319.2829 455.5918 1319.2403 455.226 1319.2327 455.1237 L 1319.2252 455.1237 Z M 1314.3187 448.6157 C 1314.2736 448.3376 1314.231 447.9793 1314.2235 447.8698 C 1314.2159 447.9721 1314.1783 448.2792 1314.1282 448.6157 L 1313.8499 450.5462 L 1314.6045 450.5462 L 1314.3263 448.6157 L 1314.3187 448.6157 Z M 1318.611 439.9868 C 1311.3428 439.9868 1305.4485 445.8806 1305.4485 453.1493 C 1305.4485 460.418 1311.3428 466.3118 1318.611 466.3118 C 1325.8792 466.3118 1331.7735 460.418 1331.7735 453.1493 C 1331.7735 445.8806 1325.8792 439.9868 1318.611 439.9868 Z M 1322.7653 446.4949 C 1323.8534 446.4949 1324.3072 447.3358 1324.5278 448.1037 L 1323.3795 448.5497 C 1323.1163 447.8259 1322.9684 447.6065 1322.7578 447.6065 C 1322.3616 447.6065 1322.2087 448.133 1322.2087 449.7125 C 1322.2087 451.292 1322.3767 451.8258 1322.7728 451.8258 C 1323.1364 451.8258 1323.3119 451.1604 1323.3119 450.5752 L 1323.3119 450.4948 L 1322.6475 450.4948 L 1322.6475 449.3249 L 1324.5404 449.3249 L 1324.5404 452.8495 L 1323.555 452.8495 L 1323.4748 452.3302 C 1323.2391 452.7544 1322.9258 452.9518 1322.487 452.9518 C 1321.4114 452.9518 1320.7746 451.6796 1320.7746 449.7271 C 1320.7746 447.7745 1321.3688 446.5021 1322.7728 446.5021 L 1322.7653 446.4949 Z M 1316.6729 446.6192 L 1318.1797 446.6192 L 1319.0121 449.5734 C 1319.0948 449.8514 1319.1751 450.1952 1319.2026 450.2974 C 1319.1951 450.1804 1319.1876 449.888 1319.1876 449.5443 L 1319.1876 446.6192 L 1320.4612 446.6192 L 1320.4612 452.8422 L 1318.992 452.8422 L 1318.1221 449.7416 C 1318.0418 449.4638 1317.9591 449.1201 1317.9315 449.0178 C 1317.939 449.1346 1317.9466 449.4272 1317.9466 449.7709 L 1317.9466 452.8495 L 1316.6729 452.8495 L 1316.6729 446.6192 Z M 1315.2038 446.6192 L 1316.3671 452.8422 L 1314.933 452.8422 L 1314.765 451.7233 L 1313.6744 451.7233 L 1313.5064 452.8422 L 1312.1751 452.8422 L 1313.3309 446.6192 L 1315.2038 446.6192 Z M 1310.4201 446.6192 L 1310.7862 448.2281 C 1310.8589 448.5058 1310.9266 448.8568 1310.9341 448.9667 C 1310.9391 448.8641 1311.0143 448.5643 1311.0945 448.2281 L 1311.4882 446.6192 L 1312.9072 446.6192 L 1311.591 450.6851 L 1311.591 452.8422 L 1310.2095 452.8422 L 1310.2095 450.6778 L 1308.8933 446.6192 L 1310.4201 446.6192 Z M 1312.0799 457.7196 L 1311.5834 457.7196 L 1311.5834 460.0961 L 1310.202 460.0961 L 1310.202 453.8731 L 1312.1826 453.8731 C 1313.1404 453.8731 1313.8349 454.7068 1313.8349 455.8036 C 1313.8349 456.9005 1313.1329 457.7196 1312.0799 457.7196 Z M 1316.9061 460.0961 L 1314.1056 460.0961 L 1314.1056 453.8731 L 1315.4896 453.8731 L 1315.4896 458.919 L 1316.9061 458.919 L 1316.9061 460.0961 Z M 1319.9272 460.0961 L 1319.7592 458.9774 L 1318.6686 458.9774 L 1318.5006 460.0961 L 1317.1694 460.0961 L 1318.3251 453.8731 L 1320.1905 453.8731 L 1321.3538 460.0961 L 1319.9197 460.0961 L 1319.9272 460.0961 Z M 1323.3043 457.939 L 1323.3043 460.0961 L 1321.9229 460.0961 L 1321.9229 457.9317 L 1320.6066 453.8731 L 1322.1285 453.8731 L 1322.4945 455.4892 C 1322.5672 455.7673 1322.6324 456.1183 1322.6399 456.2278 C 1322.6475 456.1256 1322.7202 455.8257 1322.8004 455.4892 L 1323.1965 453.8731 L 1324.6156 453.8731 L 1323.2993 457.939 L 1323.3043 457.939 Z M 1326.7943 452.9593 C 1325.5507 452.9593 1324.8337 451.8915 1324.8337 449.7271 C 1324.8337 447.5627 1325.5507 446.4949 1326.7943 446.4949 C 1328.0378 446.4949 1328.7524 447.5627 1328.7524 449.7271 C 1328.7524 451.8915 1328.0378 452.9593 1326.7943 452.9593 Z M 1228.507 621.6511 L 1228.2062 621.6511 L 1228.2062 623.4134 L 1228.507 623.4134 C 1228.9307 623.4134 1229.1213 622.9894 1229.1213 622.5286 C 1229.1213 622.0094 1228.9307 621.6511 1228.507 621.6511 Z M 1243.4245 614.3461 C 1243.0886 614.3461 1242.898 614.7482 1242.898 616.4666 C 1242.898 618.185 1243.0886 618.5871 1243.4245 618.5871 C 1243.7605 618.5871 1243.951 618.185 1243.951 616.4666 C 1243.951 614.7482 1243.7605 614.3461 1243.4245 614.3461 Z M 1235.8555 621.8632 C 1235.8479 621.9655 1235.8103 622.2726 1235.7602 622.6091 L 1235.4819 624.5396 L 1236.2365 624.5396 L 1235.9583 622.6091 C 1235.9131 622.3313 1235.8705 621.9655 1235.863 621.8632 L 1235.8555 621.8632 Z M 1230.949 615.3552 C 1230.9039 615.0771 1230.8612 614.7189 1230.8537 614.6093 C 1230.8462 614.7116 1230.8086 615.0187 1230.7584 615.3552 L 1230.4801 617.2857 L 1231.2348 617.2857 L 1230.9565 615.3552 L 1230.949 615.3552 Z M 1235.2412 606.7264 C 1227.973 606.7264 1222.0787 612.6201 1222.0787 619.8889 C 1222.0787 627.1576 1227.973 633.0514 1235.2412 633.0514 C 1242.5094 633.0514 1248.4037 627.1576 1248.4037 619.8889 C 1248.4037 612.6201 1242.5094 606.7264 1235.2412 606.7264 Z M 1239.3955 613.2344 C 1240.4836 613.2344 1240.9374 614.0753 1241.1581 614.8432 L 1240.0098 615.2893 C 1239.7465 614.5654 1239.5986 614.3461 1239.388 614.3461 C 1238.9919 614.3461 1238.839 614.8726 1238.839 616.4521 C 1238.839 618.0316 1239.0069 618.5653 1239.4031 618.5653 C 1239.7666 618.5653 1239.9421 617.8999 1239.9421 617.3148 L 1239.9421 617.2343 L 1239.2777 617.2343 L 1239.2777 616.0645 L 1241.1706 616.0645 L 1241.1706 619.589 L 1240.1853 619.589 L 1240.1051 619.0698 C 1239.8694 619.494 1239.556 619.6913 1239.1173 619.6913 C 1238.0417 619.6913 1237.4049 618.4192 1237.4049 616.4666 C 1237.4049 614.514 1237.9991 613.2417 1239.4031 613.2417 L 1239.3955 613.2344 Z M 1233.3032 613.3588 L 1234.81 613.3588 L 1235.6424 616.3129 C 1235.7251 616.591 1235.8053 616.9347 1235.8329 617.037 C 1235.8254 616.9199 1235.8179 616.6276 1235.8179 616.2838 L 1235.8179 613.3588 L 1237.0915 613.3588 L 1237.0915 619.5817 L 1235.6223 619.5817 L 1234.7523 616.4811 C 1234.6721 616.2034 1234.5894 615.8596 1234.5618 615.7573 C 1234.5693 615.8742 1234.5768 616.1668 1234.5768 616.5105 L 1234.5768 619.589 L 1233.3032 619.589 L 1233.3032 613.3588 Z M 1231.834 613.3588 L 1232.9973 619.5817 L 1231.5632 619.5817 L 1231.3953 618.4628 L 1230.3046 618.4628 L 1230.1367 619.5817 L 1228.8054 619.5817 L 1229.9612 613.3588 L 1231.834 613.3588 Z M 1227.0504 613.3588 L 1227.4164 614.9676 C 1227.4891 615.2454 1227.5568 615.5964 1227.5643 615.7062 C 1227.5694 615.6036 1227.6446 615.3038 1227.7248 614.9676 L 1228.1184 613.3588 L 1229.5375 613.3588 L 1228.2212 617.4246 L 1228.2212 619.5817 L 1226.8398 619.5817 L 1226.8398 617.4173 L 1225.5235 613.3588 L 1227.0504 613.3588 Z M 1228.7101 624.4591 L 1228.2137 624.4591 L 1228.2137 626.8356 L 1226.8323 626.8356 L 1226.8323 620.6127 L 1228.8129 620.6127 C 1229.7706 620.6127 1230.4651 621.4463 1230.4651 622.5432 C 1230.4651 623.64 1229.7631 624.4591 1228.7101 624.4591 Z M 1233.5364 626.8356 L 1230.7359 626.8356 L 1230.7359 620.6127 L 1232.1198 620.6127 L 1232.1198 625.6585 L 1233.5364 625.6585 L 1233.5364 626.8356 Z M 1236.5575 626.8356 L 1236.3895 625.717 L 1235.2989 625.717 L 1235.1309 626.8356 L 1233.7996 626.8356 L 1234.9554 620.6127 L 1236.8207 620.6127 L 1237.984 626.8356 L 1236.5499 626.8356 L 1236.5575 626.8356 Z M 1239.9346 624.6785 L 1239.9346 626.8356 L 1238.5531 626.8356 L 1238.5531 624.6712 L 1237.2369 620.6127 L 1238.7587 620.6127 L 1239.1248 622.2288 C 1239.1975 622.5068 1239.2627 622.8578 1239.2702 622.9674 C 1239.2777 622.8651 1239.3504 622.5652 1239.4306 622.2288 L 1239.8268 620.6127 L 1241.2458 620.6127 L 1239.9296 624.6785 L 1239.9346 624.6785 Z M 1243.4245 619.6988 C 1242.181 619.6988 1241.4639 618.631 1241.4639 616.4666 C 1241.4639 614.3022 1242.181 613.2344 1243.4245 613.2344 C 1244.6681 613.2344 1245.3826 614.3022 1245.3826 616.4666 C 1245.3826 618.631 1244.6681 619.6988 1243.4245 619.6988 Z M 2632.8265 698.7029 C 2632.4128 698.2641 2631.9264 697.9425 2631.3398 697.7524 C 2630.7756 697.5621 2630.1388 697.4671 2629.4418 697.4671 L 2628.7323 697.4671 L 2628.7323 708.9844 L 2629.2187 708.9844 L 2629.2187 709.0062 C 2629.9508 709.0062 2630.6227 708.8746 2631.2244 708.6259 C 2631.8261 708.3774 2632.3326 708.0044 2632.7613 707.529 C 2633.195 707.0391 2633.5134 706.4321 2633.7516 705.6938 C 2633.9773 704.9552 2634.1076 704.0995 2634.1076 703.1197 C 2634.1076 702.0594 2633.9923 701.1671 2633.7667 700.4506 C 2633.5435 699.7341 2633.2226 699.1416 2632.8114 698.7101 L 2632.8265 698.7029 Z M 2627.5164 690.0961 C 2620.3158 690.0961 2614.4792 695.9899 2614.4792 703.2586 C 2614.4792 710.5273 2620.3158 716.4211 2627.5164 716.4211 C 2634.7169 716.4211 2640.5535 710.5273 2640.5535 703.2586 C 2640.5535 695.9899 2634.7169 690.0961 2627.5164 690.0961 Z M 2623.5551 711.1488 L 2620.8323 711.1488 L 2620.8323 695.3538 L 2623.5551 695.3538 L 2623.5551 711.1488 Z M 2636.3089 706.6004 C 2635.9328 707.5877 2635.4264 708.4213 2634.7745 709.1013 C 2634.1152 709.7814 2633.3329 710.2931 2632.4279 710.6369 C 2631.5278 710.9806 2630.5149 711.1706 2629.4418 711.1706 L 2626.0096 711.1706 L 2626.0096 695.3538 L 2629.6675 695.3538 C 2630.6954 695.3538 2631.6531 695.4855 2632.5357 695.7705 C 2633.4182 696.0338 2634.1653 696.4873 2634.8021 697.094 C 2635.4389 697.701 2635.9479 698.5128 2636.3014 699.4999 C 2636.6775 700.4872 2636.8454 701.7157 2636.8454 703.1709 C 2636.8454 704.4578 2636.6574 705.5913 2636.3014 706.6004 L 2636.3089 706.6004 Z M 2234.302 1455.1222 C 2235.9467 1456.8772 2237.6767 1458.3178 2239.2286 1459.1587 C 2240.9008 1460.0655 2241.9288 1460.0362 2242.1745 1459.7875 C 2242.3851 1459.5681 2242.4227 1458.6906 2241.6605 1456.9065 C 2241.0237 1455.3709 2239.8077 1453.5206 2238.3812 1451.8315 C 2238.5893 1451.6415 2234.0338 1455.3415 2234.3096 1455.1222 L 2234.302 1455.1222 Z M 2235.6785 1440.424 C 2228.478 1440.424 2222.6413 1446.3178 2222.6413 1453.5865 C 2222.6413 1460.8553 2228.478 1466.749 2235.6785 1466.749 C 2242.879 1466.749 2248.7156 1460.8553 2248.7156 1453.5865 C 2248.7156 1446.3178 2242.879 1440.424 2235.6785 1440.424 Z M 2242.9943 1460.5115 C 2242.9642 1460.5772 2242.899 1460.6359 2242.8414 1460.7016 L 2242.8138 1460.7309 L 2242.696 1460.8625 C 2238.8375 1464.526 2232.7301 1464.2775 2229.1449 1460.2994 C 2225.7402 1456.5116 2225.8053 1450.5885 2229.1749 1446.8664 C 2231.6946 1444.0145 2235.8891 1442.9833 2239.4166 1444.2996 C 2240.264 1444.5849 2241.0588 1445.0237 2241.7834 1445.5502 C 2242.2973 1445.923 2242.7837 1446.3617 2243.24 1446.8664 C 2243.24 1446.8664 2243.754 1447.4295 2239.1032 1451.2173 L 2239.1985 1451.3417 C 2242.4503 1455.166 2244.0874 1459.0782 2242.9943 1460.5188 L 2242.9943 1460.5115 Z M 2127.2976 1523.9192 C 2120.0971 1523.9192 2114.2605 1529.7568 2114.2605 1536.9563 C 2114.2605 1544.1558 2120.0971 1549.9934 2127.2976 1549.9934 C 2134.4981 1549.9934 2140.3348 1544.1558 2140.3348 1536.9563 C 2140.3348 1529.7568 2134.4981 1523.9192 2127.2976 1523.9192 Z M 2135.6263 1542.461 C 2135.6263 1542.7506 2135.5837 1543.0477 2135.4684 1543.3154 C 2135.3506 1543.5834 2135.2001 1543.8369 2134.9895 1544.0325 C 2134.7864 1544.2353 2134.5407 1544.3947 2134.265 1544.5033 C 2133.9967 1544.6191 2133.7009 1544.6843 2133.4025 1544.6843 L 2121.1852 1544.6843 C 2120.8868 1544.6843 2120.5985 1544.6191 2120.3227 1544.5033 C 2120.0545 1544.3875 2119.8013 1544.2353 2119.5982 1544.0325 C 2119.3951 1543.8299 2119.2146 1543.5834 2119.1193 1543.3154 C 2119.0341 1543.0477 2118.9614 1542.7506 2118.9614 1542.461 L 2118.9614 1533.3132 C 2118.9614 1532.9509 2119.0491 1532.5889 2119.2071 1532.2775 C 2119.3675 1531.9661 2119.6132 1531.6908 2119.9091 1531.488 L 2125.3997 1527.6566 C 2125.9438 1527.2509 2126.6157 1527.0481 2127.2976 1527.0481 C 2127.9796 1527.0481 2128.6515 1527.2509 2129.1955 1527.6566 L 2134.6636 1531.488 C 2134.9594 1531.6908 2135.2076 1531.9588 2135.3656 1532.2775 C 2135.5261 1532.5961 2135.6113 1532.9509 2135.6113 1533.3132 L 2135.6113 1542.461 L 2135.6263 1542.461 Z M 2125.1164 1534.8052 C 2124.5949 1534.7834 2124.1035 1534.9646 2123.7199 1535.2976 C 2123.3363 1535.638 2123.1107 1536.1089 2123.0906 1536.6304 L 2123.0906 1536.8766 C 2123.0906 1537.1012 2123.2912 1537.2822 2123.5168 1537.2822 C 2123.5168 1537.2822 2123.5244 1537.275 2123.5394 1537.2604 C 2123.7851 1537.2389 2123.9656 1537.036 2123.9431 1536.7898 L 2123.9431 1536.6522 C 2123.9656 1536.3842 2124.1035 1536.1089 2124.3066 1535.9279 C 2124.5097 1535.7469 2124.7855 1535.6599 2125.0738 1535.6599 C 2125.6604 1535.7032 2126.1167 1536.2032 2126.0892 1536.7826 C 2126.0666 1537.0069 2126.2471 1537.2098 2126.4928 1537.2316 C 2126.7185 1537.2316 2126.9215 1537.0721 2126.9416 1536.8259 C 2127.0068 1535.7684 2126.1744 1534.8631 2125.1114 1534.7979 L 2125.1164 1534.8052 Z M 2129.7521 1534.8052 C 2128.6665 1534.7618 2127.7614 1535.5729 2127.6962 1536.6304 L 2127.6962 1536.8766 C 2127.6962 1537.1012 2127.8993 1537.2822 2128.1225 1537.2822 C 2128.1225 1537.2822 2128.145 1537.2822 2128.1676 1537.2604 C 2128.4133 1537.2389 2128.5938 1537.036 2128.5712 1536.7898 L 2128.5712 1536.6522 C 2128.6164 1536.0655 2129.1153 1535.638 2129.702 1535.6599 C 2130.0003 1535.6817 2130.2661 1535.8191 2130.4491 1536.0219 C 2130.6296 1536.2247 2130.7449 1536.4927 2130.7174 1536.7898 C 2130.6948 1537.0142 2130.8753 1537.217 2131.121 1537.2389 C 2131.3692 1537.2389 2131.5497 1537.0794 2131.5698 1536.8332 C 2131.5923 1536.3117 2131.4118 1535.8191 2131.0709 1535.4352 C 2130.7299 1535.0514 2130.2611 1534.827 2129.7396 1534.8052 L 2129.7521 1534.8052 Z M 1818.8296 1607.1635 C 1811.6291 1607.1635 1805.7924 1613.0573 1805.7924 1620.326 C 1805.7924 1627.5948 1811.6291 1633.4886 1818.8296 1633.4886 C 1826.0301 1633.4886 1831.8667 1627.5948 1831.8667 1620.326 C 1831.8667 1613.0573 1826.0301 1607.1635 1818.8296 1607.1635 Z M 1825.0247 1629.2254 L 1812.7172 1629.2254 L 1812.7172 1611.4267 L 1818.8597 1616.2823 L 1825.0298 1611.4412 L 1825.0298 1620.0921 L 1814.6928 1620.0773 C 1814.6878 1620.2017 1814.6803 1620.3188 1814.6803 1620.4504 L 1814.6803 1620.5893 C 1814.6803 1623.3389 1816.4603 1625.1668 1818.8597 1625.1668 C 1820.0606 1625.1668 1821.1988 1624.5747 1821.9284 1623.2436 C 1822.7407 1624.5747 1823.8263 1625.1668 1825.0222 1625.1668 L 1825.0247 1629.2327 L 1825.0247 1629.2254 Z M 1820.908 1621.4595 C 1820.8152 1622.9879 1820.0756 1623.6605 1818.8647 1623.6605 C 1817.6562 1623.6605 1816.7136 1622.8342 1816.518 1621.4595 L 1820.908 1621.4595 Z M 1825.0072 1623.6605 C 1823.7987 1623.6605 1823.0591 1622.9804 1822.9664 1621.4595 L 1827.404 1621.4595 C 1827.2085 1622.8342 1826.1805 1623.6605 1825.0072 1623.6605 Z M 2043.928 356.0902 C 2051.4863 356.0902 2057.6173 362.2151 2057.6173 369.7795 C 2057.6173 377.344 2051.4925 383.4688 2043.928 383.4688 C 2036.3635 383.4688 2030.2387 377.344 2030.2387 369.7795 C 2030.2387 362.2151 2036.3635 356.0902 2043.928 356.0902 Z M 2044.5175 361.1912 C 2040.1551 361.1912 2037.8528 363.4438 2037.8528 366.7451 C 2037.8528 369.3886 2039.1188 370.9524 2041.3651 372.5596 L 2037.4556 378.3743 L 2040.6887 378.3743 L 2045.0326 371.8585 L 2043.5183 370.8408 C 2041.6877 369.6121 2040.8004 368.6502 2040.8004 366.5713 C 2040.8004 364.7407 2042.0849 363.5121 2044.5361 363.5121 L 2045.8764 363.5121 L 2045.8764 378.368 L 2048.8613 378.368 L 2048.8613 361.1912 L 2044.5175 361.1912 Z M 1902.1993 439.46 C 1909.7577 439.46 1915.8886 445.5848 1915.8886 453.1493 C 1915.8886 460.7138 1909.7638 466.8386 1902.1993 466.8386 C 1894.6349 466.8386 1888.51 460.7138 1888.51 453.1493 C 1888.51 445.5848 1894.6349 439.46 1902.1993 439.46 Z M 1902.7889 444.561 C 1898.4264 444.561 1896.1242 446.8136 1896.1242 450.1149 C 1896.1242 452.7584 1897.3901 454.3222 1899.6365 455.9294 L 1895.727 461.744 L 1898.9601 461.744 L 1903.304 455.2283 L 1901.7897 454.2106 C 1899.9591 452.9819 1899.0718 452.02 1899.0718 449.9411 C 1899.0718 448.1105 1900.3563 446.8819 1902.8075 446.8819 L 1904.1478 446.8819 L 1904.1478 461.7378 L 1907.1326 461.7378 L 1907.1326 444.561 L 1902.7889 444.561 Z M 1307.1511 1036.7377 C 1307.1511 1044.2253 1301.0808 1050.2966 1293.5974 1050.2966 C 1286.1113 1050.2966 1280.0411 1044.2253 1280.0411 1036.7377 C 1280.0411 1029.25 1286.1113 1023.1788 1293.5974 1023.1788 C 1295.0576 1023.1788 1296.4656 1023.4124 1297.7902 1023.8416 L 1294.7029 1033.3479 L 1285.681 1033.3479 L 1284.5833 1036.7377 L 1293.6026 1036.7377 L 1290.9612 1044.873 L 1294.6873 1044.873 L 1297.3313 1036.7377 L 1307.1589 1036.7377 L 1307.1511 1036.7377 Z M 1306.7208 1033.3479 L 1298.4238 1033.3479 L 1301.0131 1025.3857 C 1303.8005 1027.2089 1305.8708 1030.0336 1306.7208 1033.3479 Z M 1375.5382 1205.0744 C 1377.2487 1206.8996 1379.0479 1208.3979 1380.6619 1209.2724 C 1382.4011 1210.2156 1383.4702 1210.185 1383.7257 1209.9264 C 1383.9447 1209.6982 1383.9839 1208.7856 1383.1912 1206.9301 C 1382.5289 1205.333 1381.2643 1203.4087 1379.7806 1201.6521 C 1379.997 1201.4544 1375.2592 1205.3025 1375.546 1205.0744 L 1375.5382 1205.0744 Z M 1376.9697 1189.788 C 1369.481 1189.788 1363.4108 1195.9177 1363.4108 1203.4773 C 1363.4108 1211.0369 1369.481 1217.1666 1376.9697 1217.1666 C 1384.4584 1217.1666 1390.5286 1211.0369 1390.5286 1203.4773 C 1390.5286 1195.9177 1384.4584 1189.788 1376.9697 1189.788 Z M 1384.5784 1210.6794 C 1384.5471 1210.7477 1384.4793 1210.8088 1384.4193 1210.8771 L 1384.3906 1210.9076 L 1384.2681 1211.0445 C 1380.2552 1214.8545 1373.9033 1214.5961 1370.1746 1210.4588 C 1366.6337 1206.5194 1366.7015 1200.3593 1370.2059 1196.4882 C 1372.8264 1193.5222 1377.1888 1192.4497 1380.8575 1193.8186 C 1381.7388 1194.1154 1382.5654 1194.5717 1383.319 1195.1193 C 1383.8535 1195.507 1384.3593 1195.9633 1384.8339 1196.4882 C 1384.8339 1196.4882 1385.3684 1197.0738 1380.5316 1201.0132 L 1380.6306 1201.1426 C 1384.0125 1205.12 1385.7152 1209.1887 1384.5784 1210.687 L 1384.5784 1210.6794 Z M 1808.1064 371.629 L 1794.9094 370.7459 L 1806.9964 375.5749 C 1807.5459 374.3418 1807.9251 373.0166 1808.1064 371.629 Z M 1805.3972 378.3003 C 1802.7815 381.8003 1798.5968 384.0674 1793.8791 384.0674 C 1785.9548 384.0674 1779.5308 377.6705 1779.5308 369.7795 C 1779.5308 361.8885 1785.9548 355.4917 1793.8791 355.4917 C 1798.605 355.4917 1802.798 357.7673 1805.411 361.2786 L 1793.4257 367.6674 L 1801.1384 359.7781 L 1796.863 359.7781 L 1791.6122 367.0366 L 1791.6122 359.7781 L 1788.1392 359.7781 L 1788.1392 379.781 L 1791.6122 379.781 L 1791.6122 372.5343 L 1796.863 379.781 L 1801.1384 379.781 L 1793.6263 372.1395 L 1805.3972 378.3003 Z M 1806.9964 363.9839 L 1794.9946 368.7788 L 1808.1064 367.9298 C 1807.9251 366.5423 1807.5459 365.2171 1806.9964 363.9839 Z M 1235.2412 772.3406 C 1243.2067 772.3406 1249.6664 778.7382 1249.6664 786.6284 C 1249.6664 794.5186 1243.2067 800.9162 1235.2412 800.9162 C 1227.2757 800.9162 1220.816 794.5186 1220.816 786.6284 C 1220.816 778.7382 1227.2757 772.3406 1235.2412 772.3406 Z M 1237.4943 779.6274 L 1231.6116 774.9679 L 1231.0977 775.1028 L 1235.6259 780.7545 L 1226.6355 777.77 L 1226.2097 778.2305 L 1234.2466 782.7548 L 1223.1955 783.6835 L 1223.0828 784.3424 L 1234.5845 785.5807 L 1224.976 793.3992 L 1225.4156 793.9946 L 1236.8046 787.811 L 1234.5598 798.6541 L 1235.2495 798.6541 L 1239.6485 788.4463 L 1242.3109 796.4235 L 1242.7753 796.0663 L 1241.7724 788.0731 L 1245.8362 792.6452 L 1246.0835 792.1847 L 1243.0638 786.5331 L 1247.3501 788.0333 L 1247.3996 787.5651 L 1243.8249 784.7155 L 1247.1743 783.9613 L 1247.1111 783.4771 L 1243.1105 782.5484 L 1245.1795 779.5004 L 1244.9377 779.1669 L 1241.7174 780.7308 L 1242.0691 776.4681 L 1241.7174 776.2937 L 1239.7199 779.7148 L 1237.3652 774.5711 L 1236.9255 774.5711 L 1237.5025 779.6114 L 1237.4943 779.6274 Z M 2404.3084 1280.8044 C 2403.2203 1281.7501 2401.6074 1281.7501 2400.5221 1280.8044 C 2397.7992 1278.4403 2394.0843 1282.1909 2396.4253 1284.9396 C 2397.3623 1286.0376 2397.3623 1287.6645 2396.4253 1288.7624 C 2394.0843 1291.5112 2397.7992 1295.2617 2400.5221 1292.8977 C 2401.6074 1291.9519 2403.2203 1291.9519 2404.3084 1292.8977 C 2407.0285 1295.2617 2410.7434 1291.5112 2408.4024 1288.7624 C 2407.4654 1287.6645 2407.4654 1286.0376 2408.4024 1284.9396 C 2410.7434 1282.1909 2407.0285 1278.4403 2404.3084 1280.8044 Z M 2402.418 1289.5637 C 2400.9342 1289.5637 2399.728 1288.3456 2399.728 1286.847 C 2399.728 1285.3485 2400.9342 1284.1304 2402.418 1284.1304 C 2403.9017 1284.1304 2405.1079 1285.3485 2405.1079 1286.847 C 2405.1079 1288.3456 2403.9017 1289.5637 2402.418 1289.5637 Z M 2402.418 1272.4218 C 2394.5267 1272.4218 2388.1301 1278.881 2388.1301 1286.847 C 2388.1301 1294.8131 2394.5267 1301.2723 2402.418 1301.2723 C 2410.3092 1301.2723 2416.7058 1294.8131 2416.7058 1286.847 C 2416.7058 1278.881 2410.3092 1272.4218 2402.418 1272.4218 Z M 2411.3726 1293.9074 C 2410.8863 1294.7169 2410.2131 1295.398 2409.4108 1295.8868 C 2408.0287 1296.7284 2406.1575 1296.7284 2402.418 1296.7284 C 2398.6784 1296.7284 2396.8073 1296.7284 2395.4252 1295.8868 C 2394.6229 1295.398 2393.9497 1294.7169 2393.4634 1293.9074 C 2392.6308 1292.513 2392.6308 1290.6218 2392.6308 1286.847 C 2392.6308 1283.0726 2392.6308 1281.1811 2393.4634 1279.7867 C 2393.9497 1278.9772 2394.6229 1278.2961 2395.4252 1277.8073 C 2396.8073 1276.9656 2398.6784 1276.9659 2402.418 1276.9659 C 2406.1575 1276.9659 2408.0287 1276.9656 2409.4108 1277.8073 C 2410.2131 1278.2961 2410.8863 1278.9772 2411.3726 1279.7867 C 2412.2051 1281.1811 2412.2051 1283.0726 2412.2051 1286.847 C 2412.2051 1290.6218 2412.2051 1292.513 2411.3726 1293.9074 Z M 2550.0845 1031.6433 C 2549.6219 1031.1527 2549.078 1030.793 2548.4219 1030.5805 C 2547.7911 1030.3677 2547.079 1030.2614 2546.2996 1030.2614 L 2545.5062 1030.2614 L 2545.5062 1043.1405 L 2546.0501 1043.1405 L 2546.0501 1043.1649 C 2546.8688 1043.1649 2547.6201 1043.0177 2548.293 1042.7396 C 2548.9658 1042.4617 2549.5321 1042.0446 2550.0116 1041.513 C 2550.4966 1040.9652 2550.8526 1040.2864 2551.119 1039.4608 C 2551.3713 1038.6348 2551.5171 1037.678 2551.5171 1036.5824 C 2551.5171 1035.3967 2551.3881 1034.3989 2551.1358 1033.5977 C 2550.8863 1032.7964 2550.5274 1032.1339 2550.0676 1031.6514 L 2550.0845 1031.6433 Z M 2544.1465 1022.0189 C 2536.0946 1022.0189 2529.5679 1028.6095 2529.5679 1036.7377 C 2529.5679 1044.8658 2536.0946 1051.4564 2544.1465 1051.4564 C 2552.1983 1051.4564 2558.7251 1044.8658 2558.7251 1036.7377 C 2558.7251 1028.6095 2552.1983 1022.0189 2544.1465 1022.0189 Z M 2539.7168 1045.5608 L 2536.6722 1045.5608 L 2536.6722 1027.8983 L 2539.7168 1027.8983 L 2539.7168 1045.5608 Z M 2553.9786 1040.4746 C 2553.5581 1041.5786 2552.9918 1042.5108 2552.2628 1043.2711 C 2551.5255 1044.0317 2550.6508 1044.6039 2549.6387 1044.9883 C 2548.6322 1045.3727 2547.4996 1045.5852 2546.2996 1045.5852 L 2542.4615 1045.5852 L 2542.4615 1027.8983 L 2546.552 1027.8983 C 2547.7014 1027.8983 2548.7724 1028.0455 2549.7592 1028.3642 C 2550.7461 1028.6586 2551.5816 1029.1658 2552.2937 1029.8442 C 2553.0058 1030.523 2553.5749 1031.4308 2553.9702 1032.5346 C 2554.3907 1033.6386 2554.5786 1035.0124 2554.5786 1036.6395 C 2554.5786 1038.0786 2554.3683 1039.3461 2553.9702 1040.4746 L 2553.9786 1040.4746 Z M 2460.7769 1188.7585 C 2468.9036 1188.7585 2475.4956 1195.3439 2475.4956 1203.4773 C 2475.4956 1211.6106 2468.9102 1218.1961 2460.7769 1218.1961 C 2452.6435 1218.1961 2446.0581 1211.6106 2446.0581 1203.4773 C 2446.0581 1195.3439 2452.6435 1188.7585 2460.7769 1188.7585 Z M 2461.4107 1194.2431 C 2456.7202 1194.2431 2454.2448 1196.6651 2454.2448 1200.2147 C 2454.2448 1203.057 2455.606 1204.7383 2458.0213 1206.4664 L 2453.8178 1212.7183 L 2457.294 1212.7183 L 2461.9645 1205.7126 L 2460.3364 1204.6184 C 2458.3681 1203.2972 2457.4141 1202.263 2457.4141 1200.0278 C 2457.4141 1198.0596 2458.7952 1196.7385 2461.4307 1196.7385 L 2462.8718 1196.7385 L 2462.8718 1212.7116 L 2466.0811 1212.7116 L 2466.0811 1194.2431 L 2461.4107 1194.2431 Z M 1543.7094 1355.498 C 1535.5818 1355.498 1528.9906 1362.0887 1528.9906 1370.2168 C 1528.9906 1378.3449 1535.5818 1384.9356 1543.7094 1384.9356 C 1551.8369 1384.9356 1558.4281 1378.3449 1558.4281 1370.2168 C 1558.4281 1362.0887 1551.8369 1355.498 1543.7094 1355.498 Z M 1551.3967 1364.4518 L 1554.7414 1364.4518 L 1554.2592 1365.7193 L 1550.9145 1365.7193 L 1551.3967 1364.4518 Z M 1536.2687 1375.0168 L 1538.9909 1368.0743 L 1537.1602 1368.0743 L 1534.3314 1375.2374 L 1531.8446 1375.5318 L 1535.5229 1366.1199 L 1542.1225 1366.1199 L 1538.747 1374.7387 L 1536.2603 1375.0168 L 1536.2687 1375.0168 Z M 1543.9785 1374.2071 C 1543.129 1374.5587 1541.8029 1374.6406 1541.0936 1373.9699 C 1540.3086 1373.234 1540.4236 1371.9012 1540.7011 1370.9118 L 1542.9748 1370.9118 C 1542.8767 1371.2715 1542.5963 1372.2528 1543.0477 1372.4327 C 1543.6365 1372.6699 1544.2336 1371.4843 1544.4299 1371.1081 C 1544.4775 1371.0181 1544.5196 1370.9037 1544.5196 1370.8955 L 1543.2692 1370.8955 L 1543.9056 1369.2765 L 1545.1392 1369.2765 C 1545.2541 1368.974 1545.5092 1367.9762 1545.0663 1367.9027 C 1544.528 1367.8209 1544.085 1368.5649 1543.8159 1368.9658 L 1541.559 1368.9658 C 1541.559 1368.9658 1541.5422 1368.9493 1541.5422 1368.9412 C 1541.5422 1368.9249 1541.5842 1368.8593 1541.5927 1368.8268 C 1542.4001 1366.9868 1543.8411 1365.7112 1545.826 1365.8912 C 1548.0689 1366.0955 1547.8138 1368.4343 1547.2166 1370.1431 C 1546.6363 1371.8031 1545.5905 1373.5284 1543.9701 1374.199 L 1543.9785 1374.2071 Z M 1552.8182 1373.1443 L 1551.3211 1373.324 L 1551.3463 1372.3018 L 1551.2005 1372.3018 C 1550.6286 1373.0462 1549.8576 1373.7493 1548.8679 1373.8065 C 1547.1101 1373.9127 1546.7512 1372.5227 1547.2839 1371.1081 L 1549.2296 1366.1199 L 1551.6014 1366.1199 C 1551.6014 1366.1199 1550.365 1369.1946 1549.9249 1370.3968 C 1549.7511 1370.8709 1549.4258 1371.7624 1550.2753 1371.7133 C 1550.9622 1371.6724 1551.3211 1370.879 1551.5425 1370.3231 L 1553.1854 1366.1199 L 1555.5573 1366.1199 L 1552.8182 1373.1443 Z M 1654.1144 1447.1156 C 1652.9492 1448.1283 1651.2219 1448.1283 1650.0597 1447.1156 C 1647.1437 1444.5839 1643.1656 1448.6003 1645.6725 1451.5439 C 1646.6759 1452.7197 1646.6759 1454.4619 1645.6725 1455.6377 C 1643.1656 1458.5813 1647.1437 1462.5977 1650.0597 1460.0661 C 1651.2219 1459.0533 1652.9492 1459.0533 1654.1144 1460.0661 C 1657.0274 1462.5977 1661.0055 1458.5813 1658.4986 1455.6377 C 1657.4952 1454.4619 1657.4952 1452.7197 1658.4986 1451.5439 C 1661.0055 1448.6003 1657.0274 1444.5839 1654.1144 1447.1156 Z M 1652.09 1456.4957 C 1650.5011 1456.4957 1649.2093 1455.1913 1649.2093 1453.5865 C 1649.2093 1451.9817 1650.5011 1450.6774 1652.09 1450.6774 C 1653.6789 1450.6774 1654.9706 1451.9817 1654.9706 1453.5865 C 1654.9706 1455.1913 1653.6789 1456.4957 1652.09 1456.4957 Z M 1652.09 1438.1388 C 1643.6393 1438.1388 1636.7893 1445.0559 1636.7893 1453.5865 C 1636.7893 1462.1172 1643.6393 1469.0343 1652.09 1469.0343 C 1660.5406 1469.0343 1667.3906 1462.1172 1667.3906 1453.5865 C 1667.3906 1445.0559 1660.5406 1438.1388 1652.09 1438.1388 Z M 1661.6793 1461.1474 C 1661.1585 1462.0143 1660.4376 1462.7437 1659.5785 1463.2671 C 1658.0984 1464.1684 1656.0946 1464.1684 1652.09 1464.1684 C 1648.0853 1464.1684 1646.0815 1464.1684 1644.6015 1463.2671 C 1643.7423 1462.7437 1643.0214 1462.0143 1642.5006 1461.1474 C 1641.609 1459.6541 1641.609 1457.6289 1641.609 1453.5865 C 1641.609 1449.5445 1641.609 1447.519 1642.5006 1446.0257 C 1643.0214 1445.1588 1643.7423 1444.4294 1644.6015 1443.906 C 1646.0815 1443.0047 1648.0853 1443.005 1652.09 1443.005 C 1656.0946 1443.005 1658.0984 1443.0047 1659.5785 1443.906 C 1660.4376 1444.4294 1661.1585 1445.1588 1661.6793 1446.0257 C 1662.5709 1447.519 1662.5709 1449.5445 1662.5709 1453.5865 C 1662.5709 1457.6289 1662.5709 1459.6541 1661.6793 1461.1474 Z M 1977.6657 1622.3943 L 1977.3126 1622.3943 L 1977.3126 1624.4625 L 1977.6657 1624.4625 C 1978.163 1624.4625 1978.3866 1623.965 1978.3866 1623.4241 C 1978.3866 1622.8148 1978.163 1622.3943 1977.6657 1622.3943 Z M 1995.1732 1613.8209 C 1994.7789 1613.8209 1994.5553 1614.2929 1994.5553 1616.3096 C 1994.5553 1618.3264 1994.7789 1618.7983 1995.1732 1618.7983 C 1995.5675 1618.7983 1995.7911 1618.3264 1995.7911 1616.3096 C 1995.7911 1614.2929 1995.5675 1613.8209 1995.1732 1613.8209 Z M 1986.29 1622.6432 C 1986.2812 1622.7633 1986.237 1623.1237 1986.1782 1623.5186 L 1985.8516 1625.7843 L 1986.7372 1625.7843 L 1986.4106 1623.5186 C 1986.3577 1623.1926 1986.3076 1622.7633 1986.2988 1622.6432 L 1986.29 1622.6432 Z M 1980.5317 1615.0053 C 1980.4787 1614.6789 1980.4287 1614.2585 1980.4198 1614.1299 C 1980.411 1614.2499 1980.3669 1614.6104 1980.308 1615.0053 L 1979.9814 1617.2709 L 1980.8671 1617.2709 L 1980.5405 1615.0053 L 1980.5317 1615.0053 Z M 1985.5691 1604.8783 C 1977.039 1604.8783 1970.1213 1611.7954 1970.1213 1620.326 C 1970.1213 1628.8567 1977.039 1635.7738 1985.5691 1635.7738 C 1994.0992 1635.7738 2001.0169 1628.8567 2001.0169 1620.326 C 2001.0169 1611.7954 1994.0992 1604.8783 1985.5691 1604.8783 Z M 1990.4447 1612.5162 C 1991.7217 1612.5162 1992.2543 1613.5031 1992.5132 1614.4044 L 1991.1656 1614.9279 C 1990.8566 1614.0784 1990.683 1613.8209 1990.4359 1613.8209 C 1989.971 1613.8209 1989.7915 1614.4388 1989.7915 1616.2926 C 1989.7915 1618.1463 1989.9886 1618.7727 1990.4535 1618.7727 C 1990.8802 1618.7727 1991.0861 1617.9918 1991.0861 1617.3051 L 1991.0861 1617.2106 L 1990.3064 1617.2106 L 1990.3064 1615.8377 L 1992.5279 1615.8377 L 1992.5279 1619.9741 L 1991.3716 1619.9741 L 1991.2774 1619.3648 C 1991.0008 1619.8626 1990.633 1620.0942 1990.1181 1620.0942 C 1988.8558 1620.0942 1988.1084 1618.6012 1988.1084 1616.3096 C 1988.1084 1614.0181 1988.8058 1612.5248 1990.4535 1612.5248 L 1990.4447 1612.5162 Z M 1983.2946 1612.6622 L 1985.063 1612.6622 L 1986.0399 1616.1293 C 1986.137 1616.4556 1986.2311 1616.859 1986.2635 1616.979 C 1986.2547 1616.8416 1986.2459 1616.4985 1986.2459 1616.0951 L 1986.2459 1612.6622 L 1987.7406 1612.6622 L 1987.7406 1619.9656 L 1986.0163 1619.9656 L 1984.9953 1616.3267 C 1984.9012 1616.0007 1984.8041 1615.5973 1984.7717 1615.4772 C 1984.7805 1615.6143 1984.7893 1615.9577 1984.7893 1616.3611 L 1984.7893 1619.9741 L 1983.2946 1619.9741 L 1983.2946 1612.6622 Z M 1981.5703 1612.6622 L 1982.9356 1619.9656 L 1981.2525 1619.9656 L 1981.0554 1618.6524 L 1979.7754 1618.6524 L 1979.5783 1619.9656 L 1978.0159 1619.9656 L 1979.3723 1612.6622 L 1981.5703 1612.6622 Z M 1975.9562 1612.6622 L 1976.3858 1614.5504 C 1976.4711 1614.8764 1976.5505 1615.2883 1976.5594 1615.4172 C 1976.5653 1615.2968 1976.6535 1614.9449 1976.7477 1614.5504 L 1977.2096 1612.6622 L 1978.8751 1612.6622 L 1977.3303 1617.4339 L 1977.3303 1619.9656 L 1975.709 1619.9656 L 1975.709 1617.4254 L 1974.1642 1612.6622 L 1975.9562 1612.6622 Z M 1977.9041 1625.6898 L 1977.3215 1625.6898 L 1977.3215 1628.4789 L 1975.7002 1628.4789 L 1975.7002 1621.1755 L 1978.0247 1621.1755 C 1979.1487 1621.1755 1979.9638 1622.1539 1979.9638 1623.4412 C 1979.9638 1624.7285 1979.1399 1625.6898 1977.9041 1625.6898 Z M 1983.5682 1628.4789 L 1980.2815 1628.4789 L 1980.2815 1621.1755 L 1981.9058 1621.1755 L 1981.9058 1627.0975 L 1983.5682 1627.0975 L 1983.5682 1628.4789 Z M 1987.1139 1628.4789 L 1986.9167 1627.166 L 1985.6368 1627.166 L 1985.4396 1628.4789 L 1983.8772 1628.4789 L 1985.2337 1621.1755 L 1987.4228 1621.1755 L 1988.7881 1628.4789 L 1987.105 1628.4789 L 1987.1139 1628.4789 Z M 1991.0773 1625.9473 L 1991.0773 1628.4789 L 1989.456 1628.4789 L 1989.456 1625.9387 L 1987.9113 1621.1755 L 1989.6973 1621.1755 L 1990.1269 1623.0722 C 1990.2122 1623.3985 1990.2888 1623.8105 1990.2976 1623.9391 C 1990.3064 1623.819 1990.3917 1623.4671 1990.4859 1623.0722 L 1990.9508 1621.1755 L 1992.6162 1621.1755 L 1991.0714 1625.9473 L 1991.0773 1625.9473 Z M 1995.1732 1620.103 C 1993.7137 1620.103 1992.8722 1618.8498 1992.8722 1616.3096 C 1992.8722 1613.7694 1993.7137 1612.5162 1995.1732 1612.5162 C 1996.6326 1612.5162 1997.4712 1613.7694 1997.4712 1616.3096 C 1997.4712 1618.8498 1996.6326 1620.103 1995.1732 1620.103 Z M 2567.5202 955.1946 C 2569.4766 957.2821 2571.5343 958.9957 2573.3804 959.996 C 2575.3695 961.0747 2576.5923 961.0398 2576.8845 960.7439 C 2577.135 960.483 2577.1798 959.4392 2576.2731 957.317 C 2575.5157 955.4904 2574.0693 953.2895 2572.3723 951.2803 C 2572.6199 951.0543 2567.2011 955.4555 2567.5292 955.1946 L 2567.5202 955.1946 Z M 2569.1575 937.711 C 2560.5924 937.711 2553.6497 944.7217 2553.6497 953.3679 C 2553.6497 962.0141 2560.5924 969.0248 2569.1575 969.0248 C 2577.7225 969.0248 2584.6652 962.0141 2584.6652 953.3679 C 2584.6652 944.7217 2577.7225 937.711 2569.1575 937.711 Z M 2577.8597 961.6052 C 2577.8239 961.6834 2577.7464 961.7531 2577.6778 961.8313 L 2577.645 961.8662 L 2577.5048 962.0227 C 2572.9151 966.3804 2565.6503 966.0849 2561.3857 961.3529 C 2557.3358 956.8473 2557.4133 949.8017 2561.4215 945.3743 C 2564.4187 941.9819 2569.408 940.7553 2573.604 942.321 C 2574.612 942.6604 2575.5574 943.1823 2576.4193 943.8086 C 2577.0306 944.252 2577.6092 944.7739 2578.152 945.3743 C 2578.152 945.3743 2578.7633 946.0441 2573.2312 950.5497 L 2573.3446 950.6976 C 2577.2126 955.2467 2579.16 959.9003 2577.8597 961.6139 L 2577.8597 961.6052 Z M 1458.6817 371.6292 C 1460.6627 373.743 1462.7464 375.4782 1464.6156 376.491 C 1466.6298 377.5832 1467.8679 377.5479 1468.1638 377.2484 C 1468.4175 376.9841 1468.4628 375.9272 1467.5448 373.7783 C 1466.7778 371.9287 1465.3132 369.7001 1463.5949 367.6657 C 1463.8456 367.4368 1458.3586 371.8934 1458.6908 371.6292 L 1458.6817 371.6292 Z M 1460.3396 353.9257 C 1451.6668 353.9257 1444.6368 361.0246 1444.6368 369.7795 C 1444.6368 378.5345 1451.6668 385.6334 1460.3396 385.6334 C 1469.0124 385.6334 1476.0424 378.5345 1476.0424 369.7795 C 1476.0424 361.0246 1469.0124 353.9257 1460.3396 353.9257 Z M 1469.1513 378.1205 C 1469.1151 378.1996 1469.0366 378.2702 1468.9671 378.3494 L 1468.9339 378.3847 L 1468.792 378.5432 C 1464.1445 382.9557 1456.7883 382.6565 1452.4701 377.865 C 1448.3692 373.3027 1448.4477 366.1685 1452.5063 361.6853 C 1455.5412 358.2503 1460.5933 357.0083 1464.8421 358.5937 C 1465.8628 358.9373 1466.82 359.4658 1467.6928 360.1 C 1468.3118 360.549 1468.8976 361.0775 1469.4472 361.6853 C 1469.4472 361.6853 1470.0663 362.3636 1464.4646 366.9259 L 1464.5794 367.0756 C 1468.496 371.682 1470.4679 376.3941 1469.1513 378.1292 L 1469.1513 378.1205 Z M 1293.6 520.6653 C 1284.8456 520.6653 1277.7462 527.7642 1277.7462 536.5191 C 1277.7462 545.274 1284.8456 552.3729 1293.6 552.3729 C 1302.3543 552.3729 1309.4538 545.274 1309.4538 536.5191 C 1309.4538 527.7642 1302.3543 520.6653 1293.6 520.6653 Z M 1301.8802 530.3095 L 1305.4828 530.3095 L 1304.9634 531.6748 L 1301.3608 531.6748 L 1301.8802 530.3095 Z M 1285.5855 541.6893 L 1288.5177 534.2114 L 1286.5458 534.2114 L 1283.4988 541.9269 L 1280.8203 542.244 L 1284.7822 532.1063 L 1291.8908 532.1063 L 1288.255 541.3897 L 1285.5764 541.6893 L 1285.5855 541.6893 Z M 1293.8899 540.8172 C 1292.9749 541.1958 1291.5465 541.284 1290.7825 540.5617 C 1289.937 539.769 1290.0608 538.3334 1290.3598 537.2677 L 1292.8088 537.2677 C 1292.7031 537.6551 1292.4011 538.7121 1292.8873 538.9059 C 1293.5215 539.1614 1294.1647 537.8843 1294.3761 537.4791 C 1294.4274 537.3822 1294.4727 537.2589 1294.4727 537.2502 L 1293.1259 537.2502 L 1293.8114 535.5063 L 1295.1401 535.5063 C 1295.2639 535.1804 1295.5387 534.1057 1295.0615 534.0266 C 1294.4818 533.9384 1294.0046 534.7399 1293.7147 535.1717 L 1291.2838 535.1717 C 1291.2838 535.1717 1291.2657 535.1539 1291.2657 535.1451 C 1291.2657 535.1276 1291.311 535.0569 1291.32 535.0219 C 1292.1897 533.04 1293.7419 531.666 1295.8799 531.8599 C 1298.2957 532.08 1298.0209 534.5991 1297.3777 536.4397 C 1296.7526 538.2277 1295.6262 540.0861 1293.8808 540.8084 L 1293.8899 540.8172 Z M 1303.4112 539.6724 L 1301.7987 539.8659 L 1301.8258 538.7649 L 1301.6688 538.7649 C 1301.0528 539.5667 1300.2223 540.324 1299.1564 540.3856 C 1297.263 540.5001 1296.8764 539.0029 1297.4502 537.4791 L 1299.5459 532.1063 L 1302.1006 532.1063 C 1302.1006 532.1063 1300.7689 535.4181 1300.2948 536.713 C 1300.1076 537.2236 1299.7573 538.1839 1300.6723 538.1311 C 1301.4121 538.087 1301.7987 537.2324 1302.0372 536.6336 L 1303.8068 532.1063 L 1306.3615 532.1063 L 1303.4112 539.6724 Z M 2379.5545 362.9148 C 2378.3184 363.9892 2376.4862 363.9892 2375.2532 362.9148 C 2372.1598 360.2291 2367.9396 364.4899 2370.5991 367.6126 C 2371.6635 368.86 2371.6635 370.7082 2370.5991 371.9555 C 2367.9396 375.0782 2372.1598 379.339 2375.2532 376.6533 C 2376.4862 375.5789 2378.3184 375.5789 2379.5545 376.6533 C 2382.6448 379.339 2386.865 375.0782 2384.2055 371.9555 C 2383.1411 370.7082 2383.1411 368.86 2384.2055 367.6126 C 2386.865 364.4899 2382.6448 360.2291 2379.5545 362.9148 Z M 2377.407 372.8657 C 2375.7214 372.8657 2374.3511 371.482 2374.3511 369.7795 C 2374.3511 368.0771 2375.7214 366.6934 2377.407 366.6934 C 2379.0926 366.6934 2380.4629 368.0771 2380.4629 369.7795 C 2380.4629 371.482 2379.0926 372.8657 2377.407 372.8657 Z M 2377.407 353.3919 C 2368.4422 353.3919 2361.1754 360.7298 2361.1754 369.7795 C 2361.1754 378.8293 2368.4422 386.1672 2377.407 386.1672 C 2386.3718 386.1672 2393.6385 378.8293 2393.6385 369.7795 C 2393.6385 360.7298 2386.3718 353.3919 2377.407 353.3919 Z M 2387.5798 377.8004 C 2387.0273 378.72 2386.2625 379.4938 2385.3511 380.0491 C 2383.781 381.0052 2381.6553 381.0052 2377.407 381.0052 C 2373.1587 381.0052 2371.033 381.0052 2369.4629 380.0491 C 2368.5514 379.4938 2367.7867 378.72 2367.2342 377.8004 C 2366.2884 376.2163 2366.2884 374.0678 2366.2884 369.7795 C 2366.2884 365.4916 2366.2884 363.3428 2367.2342 361.7587 C 2367.7867 360.8391 2368.5514 360.0653 2369.4629 359.51 C 2371.033 358.5539 2373.1587 358.5542 2377.407 358.5542 C 2381.6553 358.5542 2383.781 358.5539 2385.3511 359.51 C 2386.2625 360.0653 2387.0273 360.8391 2387.5798 361.7587 C 2388.5256 363.3428 2388.5256 365.4916 2388.5256 369.7795 C 2388.5256 374.0678 2388.5256 376.2163 2387.5798 377.8004 Z M 1977.1849 455.3434 L 1976.8103 455.3434 L 1976.8103 457.5375 L 1977.1849 457.5375 C 1977.7124 457.5375 1977.9496 457.0096 1977.9496 456.4359 C 1977.9496 455.7894 1977.7124 455.3434 1977.1849 455.3434 Z M 1995.7575 446.2484 C 1995.3392 446.2484 1995.102 446.7491 1995.102 448.8885 C 1995.102 451.028 1995.3392 451.5287 1995.7575 451.5287 C 1996.1758 451.5287 1996.413 451.028 1996.413 448.8885 C 1996.413 446.7491 1996.1758 446.2484 1995.7575 446.2484 Z M 1986.3338 455.6075 C 1986.3245 455.7348 1986.2777 456.1172 1986.2152 456.5361 L 1985.8688 458.9396 L 1986.8083 458.9396 L 1986.4618 456.5361 C 1986.4056 456.1902 1986.3526 455.7348 1986.3432 455.6075 L 1986.3338 455.6075 Z M 1980.2252 447.5048 C 1980.169 447.1586 1980.1159 446.7126 1980.1065 446.5762 C 1980.0972 446.7035 1980.0504 447.0859 1979.9879 447.5048 L 1979.6415 449.9083 L 1980.581 449.9083 L 1980.2345 447.5048 L 1980.2252 447.5048 Z M 1985.5691 436.7617 C 1976.52 436.7617 1969.1815 444.0996 1969.1815 453.1493 C 1969.1815 462.199 1976.52 469.537 1985.5691 469.537 C 1994.6182 469.537 2001.9567 462.199 2001.9567 453.1493 C 2001.9567 444.0996 1994.6182 436.7617 1985.5691 436.7617 Z M 1990.7413 444.8644 C 1992.0961 444.8644 1992.661 445.9113 1992.9357 446.8674 L 1991.5061 447.4227 C 1991.1783 446.5215 1990.9942 446.2484 1990.732 446.2484 C 1990.2388 446.2484 1990.0484 446.9039 1990.0484 448.8704 C 1990.0484 450.8369 1990.2575 451.5015 1990.7507 451.5015 C 1991.2033 451.5015 1991.4218 450.6731 1991.4218 449.9445 L 1991.4218 449.8443 L 1990.5946 449.8443 L 1990.5946 448.3879 L 1992.9513 448.3879 L 1992.9513 452.776 L 1991.7246 452.776 L 1991.6247 452.1295 C 1991.3313 452.6577 1990.9411 452.9034 1990.3949 452.9034 C 1989.0558 452.9034 1988.2629 451.3195 1988.2629 448.8885 C 1988.2629 446.4575 1989.0027 444.8734 1990.7507 444.8734 L 1990.7413 444.8644 Z M 1983.1562 445.0192 L 1985.0322 445.0192 L 1986.0685 448.6972 C 1986.1715 449.0434 1986.2714 449.4713 1986.3058 449.5987 C 1986.2964 449.4529 1986.287 449.0889 1986.287 448.661 L 1986.287 445.0192 L 1987.8727 445.0192 L 1987.8727 452.7669 L 1986.0436 452.7669 L 1984.9604 448.9066 C 1984.8605 448.5608 1984.7575 448.1328 1984.7232 448.0055 C 1984.7325 448.1509 1984.7419 448.5152 1984.7419 448.9432 L 1984.7419 452.776 L 1983.1562 452.776 L 1983.1562 445.0192 Z M 1981.327 445.0192 L 1982.7754 452.7669 L 1980.9899 452.7669 L 1980.7808 451.3738 L 1979.4229 451.3738 L 1979.2138 452.7669 L 1977.5563 452.7669 L 1978.9953 445.0192 L 1981.327 445.0192 Z M 1975.3713 445.0192 L 1975.827 447.0222 C 1975.9176 447.3681 1976.0018 447.8051 1976.0112 447.9418 C 1976.0174 447.8141 1976.1111 447.4408 1976.211 447.0222 L 1976.701 445.0192 L 1978.4678 445.0192 L 1976.829 450.0812 L 1976.829 452.7669 L 1975.1091 452.7669 L 1975.1091 450.0722 L 1973.4703 445.0192 L 1975.3713 445.0192 Z M 1977.4377 458.8394 L 1976.8197 458.8394 L 1976.8197 461.7982 L 1975.0997 461.7982 L 1975.0997 454.0505 L 1977.5657 454.0505 C 1978.7581 454.0505 1979.6227 455.0884 1979.6227 456.454 C 1979.6227 457.8196 1978.7487 458.8394 1977.4377 458.8394 Z M 1983.4465 461.7982 L 1979.9598 461.7982 L 1979.9598 454.0505 L 1981.6829 454.0505 L 1981.6829 460.3327 L 1983.4465 460.3327 L 1983.4465 461.7982 Z M 1987.2079 461.7982 L 1986.9987 460.4055 L 1985.6409 460.4055 L 1985.4317 461.7982 L 1983.7743 461.7982 L 1985.2132 454.0505 L 1987.5356 454.0505 L 1988.984 461.7982 L 1987.1985 461.7982 L 1987.2079 461.7982 Z M 1991.4125 459.1125 L 1991.4125 461.7982 L 1989.6925 461.7982 L 1989.6925 459.1035 L 1988.0538 454.0505 L 1989.9485 454.0505 L 1990.4042 456.0626 C 1990.4947 456.4087 1990.5759 456.8457 1990.5853 456.9822 C 1990.5946 456.8548 1990.6852 456.4815 1990.785 456.0626 L 1991.2782 454.0505 L 1993.045 454.0505 L 1991.4062 459.1125 L 1991.4125 459.1125 Z M 1995.7575 452.9127 C 1994.2093 452.9127 1993.3165 451.5833 1993.3165 448.8885 C 1993.3165 446.1938 1994.2093 444.8644 1995.7575 444.8644 C 1997.3058 444.8644 1998.1954 446.1938 1998.1954 448.8885 C 1998.1954 451.5833 1997.3058 452.9127 1995.7575 452.9127 Z M 2477.4034 1122.3015 L 2477.0288 1122.3015 L 2477.0288 1124.4956 L 2477.4034 1124.4956 C 2477.9309 1124.4956 2478.1681 1123.9677 2478.1681 1123.394 C 2478.1681 1122.7475 2477.9309 1122.3015 2477.4034 1122.3015 Z M 2495.976 1113.2065 C 2495.5577 1113.2065 2495.3205 1113.7072 2495.3205 1115.8466 C 2495.3205 1117.9861 2495.5577 1118.4868 2495.976 1118.4868 C 2496.3943 1118.4868 2496.6315 1117.9861 2496.6315 1115.8466 C 2496.6315 1113.7072 2496.3943 1113.2065 2495.976 1113.2065 Z M 2486.5524 1122.5656 C 2486.543 1122.6929 2486.4962 1123.0753 2486.4337 1123.4942 L 2486.0873 1125.8977 L 2487.0268 1125.8977 L 2486.6803 1123.4942 C 2486.6241 1123.1483 2486.5711 1122.6929 2486.5617 1122.5656 L 2486.5524 1122.5656 Z M 2480.4437 1114.4629 C 2480.3875 1114.1167 2480.3344 1113.6707 2480.3251 1113.5343 C 2480.3157 1113.6616 2480.2689 1114.044 2480.2064 1114.4629 L 2479.86 1116.8664 L 2480.7995 1116.8664 L 2480.453 1114.4629 L 2480.4437 1114.4629 Z M 2485.7876 1103.7198 C 2476.7385 1103.7198 2469.4 1111.0577 2469.4 1120.1074 C 2469.4 1129.1571 2476.7385 1136.4951 2485.7876 1136.4951 C 2494.8367 1136.4951 2502.1752 1129.1571 2502.1752 1120.1074 C 2502.1752 1111.0577 2494.8367 1103.7198 2485.7876 1103.7198 Z M 2490.9598 1111.8225 C 2492.3146 1111.8225 2492.8795 1112.8694 2493.1542 1113.8255 L 2491.7246 1114.3808 C 2491.3969 1113.4796 2491.2127 1113.2065 2490.9505 1113.2065 C 2490.4573 1113.2065 2490.2669 1113.862 2490.2669 1115.8285 C 2490.2669 1117.795 2490.476 1118.4596 2490.9692 1118.4596 C 2491.4218 1118.4596 2491.6403 1117.6312 2491.6403 1116.9026 L 2491.6403 1116.8024 L 2490.8131 1116.8024 L 2490.8131 1115.346 L 2493.1698 1115.346 L 2493.1698 1119.7341 L 2491.9431 1119.7341 L 2491.8432 1119.0876 C 2491.5498 1119.6158 2491.1596 1119.8615 2490.6134 1119.8615 C 2489.2743 1119.8615 2488.4814 1118.2776 2488.4814 1115.8466 C 2488.4814 1113.4156 2489.2212 1111.8315 2490.9692 1111.8315 L 2490.9598 1111.8225 Z M 2483.3747 1111.9773 L 2485.2507 1111.9773 L 2486.287 1115.6553 C 2486.39 1116.0015 2486.4899 1116.4294 2486.5243 1116.5568 C 2486.5149 1116.411 2486.5055 1116.047 2486.5055 1115.6191 L 2486.5055 1111.9773 L 2488.0912 1111.9773 L 2488.0912 1119.725 L 2486.2621 1119.725 L 2485.1789 1115.8647 C 2485.079 1115.5189 2484.976 1115.0909 2484.9417 1114.9636 C 2484.951 1115.109 2484.9604 1115.4733 2484.9604 1115.9013 L 2484.9604 1119.7341 L 2483.3747 1119.7341 L 2483.3747 1111.9773 Z M 2481.5455 1111.9773 L 2482.9939 1119.725 L 2481.2084 1119.725 L 2480.9993 1118.3319 L 2479.6415 1118.3319 L 2479.4323 1119.725 L 2477.7748 1119.725 L 2479.2138 1111.9773 L 2481.5455 1111.9773 Z M 2475.5898 1111.9773 L 2476.0455 1113.9803 C 2476.1361 1114.3262 2476.2203 1114.7632 2476.2297 1114.8999 C 2476.2359 1114.7722 2476.3296 1114.3989 2476.4295 1113.9803 L 2476.9195 1111.9773 L 2478.6863 1111.9773 L 2477.0475 1117.0393 L 2477.0475 1119.725 L 2475.3276 1119.725 L 2475.3276 1117.0303 L 2473.6888 1111.9773 L 2475.5898 1111.9773 Z M 2477.6562 1125.7975 L 2477.0382 1125.7975 L 2477.0382 1128.7563 L 2475.3182 1128.7563 L 2475.3182 1121.0086 L 2477.7842 1121.0086 C 2478.9766 1121.0086 2479.8412 1122.0465 2479.8412 1123.4121 C 2479.8412 1124.7777 2478.9672 1125.7975 2477.6562 1125.7975 Z M 2483.665 1128.7563 L 2480.1783 1128.7563 L 2480.1783 1121.0086 L 2481.9014 1121.0086 L 2481.9014 1127.2908 L 2483.665 1127.2908 L 2483.665 1128.7563 Z M 2487.4264 1128.7563 L 2487.2172 1127.3636 L 2485.8594 1127.3636 L 2485.6503 1128.7563 L 2483.9928 1128.7563 L 2485.4318 1121.0086 L 2487.7541 1121.0086 L 2489.2025 1128.7563 L 2487.417 1128.7563 L 2487.4264 1128.7563 Z M 2491.631 1126.0706 L 2491.631 1128.7563 L 2489.911 1128.7563 L 2489.911 1126.0616 L 2488.2723 1121.0086 L 2490.167 1121.0086 L 2490.6227 1123.0207 C 2490.7133 1123.3668 2490.7944 1123.8038 2490.8038 1123.9403 C 2490.8131 1123.8129 2490.9037 1123.4396 2491.0035 1123.0207 L 2491.4967 1121.0086 L 2493.2635 1121.0086 L 2491.6247 1126.0706 L 2491.631 1126.0706 Z M 2495.976 1119.8708 C 2494.4278 1119.8708 2493.535 1118.5414 2493.535 1115.8466 C 2493.535 1113.1519 2494.4278 1111.8225 2495.976 1111.8225 C 2497.5243 1111.8225 2498.4139 1113.1519 2498.4139 1115.8466 C 2498.4139 1118.5414 2497.5243 1119.8708 2495.976 1119.8708 Z M 2300.6486 1364.5448 C 2300.1336 1363.9985 2299.528 1363.5981 2298.7976 1363.3615 C 2298.0952 1363.1245 2297.3024 1363.0062 2296.4346 1363.0062 L 2295.5513 1363.0062 L 2295.5513 1377.3456 L 2296.1568 1377.3456 L 2296.1568 1377.3727 C 2297.0683 1377.3727 2297.9048 1377.2089 2298.654 1376.8992 C 2299.4031 1376.5899 2300.0337 1376.1254 2300.5674 1375.5336 C 2301.1074 1374.9236 2301.5039 1374.1679 2301.8004 1373.2487 C 2302.0813 1372.3291 2302.2437 1371.2637 2302.2437 1370.0439 C 2302.2437 1368.7238 2302.1001 1367.6129 2301.8191 1366.7208 C 2301.5413 1365.8287 2301.1418 1365.0911 2300.6299 1364.5539 L 2300.6486 1364.5448 Z M 2294.0374 1353.8292 C 2285.0725 1353.8292 2277.8058 1361.1671 2277.8058 1370.2168 C 2277.8058 1379.2665 2285.0725 1386.6044 2294.0374 1386.6044 C 2303.0022 1386.6044 2310.2689 1379.2665 2310.2689 1370.2168 C 2310.2689 1361.1671 2303.0022 1353.8292 2294.0374 1353.8292 Z M 2289.1055 1380.0403 L 2285.7156 1380.0403 L 2285.7156 1360.3752 L 2289.1055 1360.3752 L 2289.1055 1380.0403 Z M 2304.9843 1374.3774 C 2304.5161 1375.6066 2303.8855 1376.6445 2303.074 1377.491 C 2302.253 1378.3379 2301.2791 1378.975 2300.1523 1379.4029 C 2299.0317 1379.8309 2297.7706 1380.0675 2296.4346 1380.0675 L 2292.1614 1380.0675 L 2292.1614 1360.3752 L 2296.7156 1360.3752 C 2297.9954 1360.3752 2299.1878 1360.539 2300.2865 1360.8939 C 2301.3853 1361.2217 2302.3154 1361.7864 2303.1083 1362.5418 C 2303.9011 1363.2975 2304.5348 1364.3082 2304.9749 1365.5371 C 2305.4431 1366.7663 2305.6523 1368.2959 2305.6523 1370.1075 C 2305.6523 1371.7098 2305.4182 1373.121 2304.9749 1374.3774 L 2304.9843 1374.3774 Z M 2134.0984 363.9449 C 2133.5686 363.383 2132.9457 362.971 2132.1943 362.7276 C 2131.4719 362.4839 2130.6563 362.3622 2129.7636 362.3622 L 2128.8549 362.3622 L 2128.8549 377.1127 L 2129.4778 377.1127 L 2129.4778 377.1407 C 2130.4154 377.1407 2131.276 376.9721 2132.0466 376.6536 C 2132.8172 376.3353 2133.4659 375.8576 2134.0149 375.2488 C 2134.5704 374.6213 2134.9782 373.844 2135.2833 372.8983 C 2135.5722 371.9524 2135.7392 370.8565 2135.7392 369.6017 C 2135.7392 368.2437 2135.5915 367.101 2135.3025 366.1833 C 2135.0167 365.2656 2134.6057 364.5068 2134.0791 363.9542 L 2134.0984 363.9449 Z M 2127.2976 352.922 C 2118.0757 352.922 2110.6006 360.4703 2110.6006 369.7795 C 2110.6006 379.0887 2118.0757 386.6371 2127.2976 386.6371 C 2136.5195 386.6371 2143.9946 379.0887 2143.9946 369.7795 C 2143.9946 360.4703 2136.5195 352.922 2127.2976 352.922 Z M 2122.2243 379.8847 L 2118.7372 379.8847 L 2118.7372 359.6557 L 2122.2243 359.6557 L 2122.2243 379.8847 Z M 2138.5584 374.0594 C 2138.0768 375.3239 2137.4282 376.3915 2136.5933 377.2624 C 2135.7488 378.1335 2134.747 378.7888 2133.5879 379.2291 C 2132.4351 379.6693 2131.1379 379.9127 2129.7636 379.9127 L 2125.3678 379.9127 L 2125.3678 359.6557 L 2130.0526 359.6557 C 2131.3691 359.6557 2132.5957 359.8243 2133.7259 360.1894 C 2134.8562 360.5265 2135.8131 361.1074 2136.6286 361.8844 C 2137.4442 362.6618 2138.0961 363.7015 2138.5488 364.9657 C 2139.0304 366.2302 2139.2456 367.8035 2139.2456 369.6672 C 2139.2456 371.3153 2139.0048 372.767 2138.5488 374.0594 L 2138.5584 374.0594 Z M 1727.2804 369.7795 C 1727.2804 379.0798 1719.7407 386.6208 1710.4456 386.6208 C 1701.1473 386.6208 1693.6076 379.0798 1693.6076 369.7795 C 1693.6076 360.4793 1701.1473 352.9383 1710.4456 352.9383 C 1712.2593 352.9383 1714.0082 353.2285 1715.6534 353.7616 L 1711.8188 365.5692 L 1700.6129 365.5692 L 1699.2494 369.7795 L 1710.4521 369.7795 L 1707.1713 379.8843 L 1711.7994 379.8843 L 1715.0834 369.7795 L 1727.2901 369.7795 L 1727.2804 369.7795 Z M 1726.746 365.5692 L 1716.4404 365.5692 L 1719.6565 355.6795 C 1723.1187 357.944 1725.6902 361.4525 1726.746 365.5692 Z M 2492.6472 447.2643 C 2492.1128 446.6975 2491.4845 446.282 2490.7266 446.0365 C 2489.9979 445.7907 2489.1753 445.6679 2488.2749 445.6679 L 2487.3584 445.6679 L 2487.3584 460.5459 L 2487.9867 460.5459 L 2487.9867 460.574 C 2488.9324 460.574 2489.8003 460.404 2490.5776 460.0827 C 2491.3549 459.7618 2492.0091 459.2799 2492.563 458.6658 C 2493.1233 458.033 2493.5346 457.2489 2493.8422 456.2951 C 2494.1337 455.341 2494.3021 454.2356 2494.3021 452.9699 C 2494.3021 451.6003 2494.1532 450.4476 2493.8617 449.522 C 2493.5734 448.5964 2493.1589 447.8311 2492.6277 447.2737 L 2492.6472 447.2643 Z M 2485.7876 436.1461 C 2476.486 436.1461 2468.9464 443.7597 2468.9464 453.1493 C 2468.9464 462.539 2476.486 470.1525 2485.7876 470.1525 C 2495.0891 470.1525 2502.6288 462.539 2502.6288 453.1493 C 2502.6288 443.7597 2495.0891 436.1461 2485.7876 436.1461 Z M 2480.6705 463.3418 L 2477.1532 463.3418 L 2477.1532 442.938 L 2480.6705 442.938 L 2480.6705 463.3418 Z M 2497.1457 457.4662 C 2496.6599 458.7416 2496.0057 459.8185 2495.1636 460.6968 C 2494.3119 461.5755 2493.3014 462.2365 2492.1322 462.6805 C 2490.9695 463.1245 2489.6611 463.37 2488.2749 463.37 L 2483.8411 463.37 L 2483.8411 442.938 L 2488.5664 442.938 C 2489.8943 442.938 2491.1315 443.1081 2492.2715 443.4763 C 2493.4115 443.8164 2494.3766 444.4022 2495.1993 445.186 C 2496.0219 445.9701 2496.6793 447.0188 2497.136 448.2939 C 2497.6218 449.5693 2497.8388 451.1562 2497.8388 453.036 C 2497.8388 454.6984 2497.5959 456.1626 2497.136 457.4662 L 2497.1457 457.4662 Z M 2539.2917 530.4281 C 2538.4205 529.8762 2537.2804 529.7544 2536.27 530.213 C 2535.6838 530.475 2535.2303 530.8961 2534.9162 531.3919 C 2535.049 531.2047 2535.2109 531.1017 2535.4473 531.0081 C 2536.0789 530.7464 2537.3646 531.1953 2538.0545 532.3276 C 2538.5176 532.075 2538.9969 531.8129 2539.4989 531.5603 C 2539.7159 531.4479 2539.9232 531.345 2540.1499 531.2329 C 2539.9232 530.9055 2539.6026 530.6247 2539.3014 530.4281 L 2539.2917 530.4281 Z M 2540.8203 528.3323 C 2540.3021 528.5662 2539.8941 528.9405 2539.6415 529.3898 C 2539.7645 529.1932 2539.9038 529.0714 2540.0852 528.9872 C 2540.7847 528.6597 2541.8502 529.165 2542.4267 530.1849 C 2542.4073 530.1849 2542.3911 530.2036 2542.3717 530.213 C 2543.0032 529.9322 2543.638 529.6702 2544.2501 529.4364 C 2543.5991 528.2669 2542.0964 527.7804 2540.8203 528.3417 L 2540.8203 528.3323 Z M 2544.1465 519.6779 C 2534.7575 519.6779 2527.1433 527.2189 2527.1433 536.5191 C 2527.1433 545.8194 2534.7575 553.3603 2544.1465 553.3603 C 2553.5355 553.3603 2561.1497 545.8194 2561.1497 536.5191 C 2561.1497 527.2189 2553.5355 519.6779 2544.1465 519.6779 Z M 2554.3775 537.7446 C 2552.8554 539.2043 2550.6466 540.402 2548.1625 541.1317 L 2546.9415 541.4873 L 2548.0491 542.0861 C 2549.296 542.7598 2550.9186 544.0135 2552.0068 545.0333 C 2550.9186 546.2028 2549.228 547.4193 2547.1585 548.149 C 2547.1585 548.149 2547.0646 547.9899 2546.8573 547.6437 C 2544.7521 544.2285 2542.1353 541.5997 2539.1977 539.3073 C 2539.1977 539.3073 2541.0211 539.4757 2541.8988 539.4757 C 2547.5083 539.4757 2553.244 537.5014 2556.0779 535.1064 C 2555.9062 535.9484 2555.3297 536.8278 2554.3775 537.7356 L 2554.3775 537.7446 Z M 2556.5669 533.7963 C 2554.2545 536.6687 2544.9983 540.2054 2537.7598 538.4746 C 2537.5071 538.4092 2537.3452 538.7366 2537.5719 538.8863 C 2542.5304 542.0673 2545.1764 545.8378 2546.5755 548.2986 C 2543.0227 549.4214 2538.3006 549.1313 2534.5308 546.0344 C 2534.9162 544.6405 2535.5413 543.3864 2536.3639 542.3199 C 2534.2555 541.7117 2532.7916 540.6358 2532.4321 539.1761 C 2532.1698 538.0908 2532.5843 536.9401 2533.4426 535.8267 C 2532.4321 533.2538 2533.0863 530.5499 2535.1364 529.4176 C 2536.0044 528.9405 2537.0051 528.8097 2538.0059 528.9781 C 2538.3168 528.3699 2538.78 527.874 2539.3953 527.5278 C 2541.1507 526.5546 2543.5408 527.2564 2545.1019 529.0808 C 2550.5591 527.032 2555.3135 527.3406 2556.6155 529.7732 C 2557.7102 531.8223 2556.6446 533.7027 2556.6155 533.7403 L 2556.5863 533.7779 L 2556.5669 533.7963 Z M 1487.5972 1279.6654 C 1486.304 1280.7894 1484.3871 1280.7894 1483.0972 1279.6654 C 1479.8611 1276.8558 1475.446 1281.3132 1478.2283 1284.5801 C 1479.3418 1285.885 1479.3418 1287.8185 1478.2283 1289.1235 C 1475.446 1292.3903 1479.8611 1296.8478 1483.0972 1294.0381 C 1484.3871 1292.9141 1486.304 1292.9141 1487.5972 1294.0381 C 1490.8301 1296.8478 1495.2451 1292.3903 1492.4628 1289.1235 C 1491.3493 1287.8185 1491.3493 1285.885 1492.4628 1284.5801 C 1495.2451 1281.3132 1490.8301 1276.8558 1487.5972 1279.6654 Z M 1485.3505 1290.0757 C 1483.5871 1290.0757 1482.1535 1288.6281 1482.1535 1286.847 C 1482.1535 1285.066 1483.5871 1283.6184 1485.3505 1283.6184 C 1487.1139 1283.6184 1488.5474 1285.066 1488.5474 1286.847 C 1488.5474 1288.6281 1487.1139 1290.0757 1485.3505 1290.0757 Z M 1485.3505 1269.7029 C 1475.9718 1269.7029 1468.3696 1277.3795 1468.3696 1286.847 C 1468.3696 1296.3145 1475.9718 1303.9912 1485.3505 1303.9912 C 1494.7291 1303.9912 1502.3314 1296.3145 1502.3314 1286.847 C 1502.3314 1277.3795 1494.7291 1269.7029 1485.3505 1269.7029 Z M 1495.9929 1295.2382 C 1495.4149 1296.2002 1494.6148 1297.0098 1493.6613 1297.5907 C 1492.0187 1298.591 1489.7949 1298.591 1485.3505 1298.591 C 1480.906 1298.591 1478.6822 1298.591 1477.0396 1297.5907 C 1476.0861 1297.0098 1475.286 1296.2002 1474.708 1295.2382 C 1473.7186 1293.5809 1473.7186 1291.3333 1473.7186 1286.847 C 1473.7186 1282.3612 1473.7186 1280.1131 1474.708 1278.4559 C 1475.286 1277.4938 1476.0861 1276.6843 1477.0396 1276.1034 C 1478.6822 1275.1031 1480.906 1275.1035 1485.3505 1275.1035 C 1489.7949 1275.1035 1492.0187 1275.1031 1493.6613 1276.1034 C 1494.6148 1276.6843 1495.4149 1277.4938 1495.9929 1278.4559 C 1496.9824 1280.1131 1496.9824 1282.3612 1496.9824 1286.847 C 1496.9824 1291.3333 1496.9824 1293.5809 1495.9929 1295.2382 Z M 1793.8186 1519.8121 C 1803.2845 1519.8121 1810.9628 1527.4827 1810.9628 1536.9563 C 1810.9628 1546.4299 1803.2922 1554.1005 1793.8186 1554.1005 C 1784.345 1554.1005 1776.6744 1546.4299 1776.6744 1536.9563 C 1776.6744 1527.4827 1784.345 1519.8121 1793.8186 1519.8121 Z M 1794.5569 1526.2004 C 1789.0935 1526.2004 1786.2102 1529.0216 1786.2102 1533.1561 C 1786.2102 1536.4667 1787.7956 1538.4251 1790.609 1540.438 L 1785.7128 1547.7201 L 1789.7618 1547.7201 L 1795.202 1539.5599 L 1793.3056 1538.2854 C 1791.013 1536.7466 1789.9017 1535.5419 1789.9017 1532.9384 C 1789.9017 1530.6458 1791.5104 1529.1071 1794.5802 1529.1071 L 1796.2588 1529.1071 L 1796.2588 1547.7123 L 1799.9969 1547.7123 L 1799.9969 1526.2004 L 1794.5569 1526.2004 Z M 1904.446 1613.1444 C 1903.1529 1614.2684 1901.236 1614.2684 1899.9461 1613.1444 C 1896.7099 1610.3348 1892.2949 1614.7922 1895.0772 1618.0591 C 1896.1907 1619.364 1896.1907 1621.2976 1895.0772 1622.6025 C 1892.2949 1625.8693 1896.7099 1630.3268 1899.9461 1627.5171 C 1901.236 1626.3931 1903.1529 1626.3931 1904.446 1627.5171 C 1907.6789 1630.3268 1912.094 1625.8693 1909.3117 1622.6025 C 1908.1982 1621.2976 1908.1982 1619.364 1909.3117 1618.0591 C 1912.094 1614.7922 1907.6789 1610.3348 1904.446 1613.1444 Z M 1902.1993 1623.5547 C 1900.4359 1623.5547 1899.0024 1622.1071 1899.0024 1620.326 C 1899.0024 1618.545 1900.4359 1617.0974 1902.1993 1617.0974 C 1903.9627 1617.0974 1905.3963 1618.545 1905.3963 1620.326 C 1905.3963 1622.1071 1903.9627 1623.5547 1902.1993 1623.5547 Z M 1902.1993 1603.1819 C 1892.8207 1603.1819 1885.2185 1610.8586 1885.2185 1620.326 C 1885.2185 1629.7935 1892.8207 1637.4702 1902.1993 1637.4702 C 1911.578 1637.4702 1919.1802 1629.7935 1919.1802 1620.326 C 1919.1802 1610.8586 1911.578 1603.1819 1902.1993 1603.1819 Z M 1912.8418 1628.7172 C 1912.2638 1629.6793 1911.4637 1630.4888 1910.5102 1631.0697 C 1908.8676 1632.07 1906.6438 1632.07 1902.1993 1632.07 C 1897.7549 1632.07 1895.5311 1632.07 1893.8885 1631.0697 C 1892.935 1630.4888 1892.1349 1629.6793 1891.5569 1628.7172 C 1890.5674 1627.06 1890.5674 1624.8123 1890.5674 1620.326 C 1890.5674 1615.8402 1890.5674 1613.5921 1891.5569 1611.9349 C 1892.1349 1610.9728 1892.935 1610.1633 1893.8885 1609.5824 C 1895.5311 1608.5821 1897.7549 1608.5825 1902.1993 1608.5825 C 1906.6438 1608.5825 1908.8676 1608.5821 1910.5102 1609.5824 C 1911.4637 1610.1633 1912.2638 1610.9728 1912.8418 1611.9349 C 1913.8312 1613.5921 1913.8312 1615.8402 1913.8312 1620.326 C 1913.8312 1624.8123 1913.8312 1627.06 1912.8418 1628.7172 Z M 2569.1575 602.6411 C 2559.6314 602.6411 2551.9097 610.3641 2551.9097 619.8889 C 2551.9097 629.4136 2559.6314 637.1366 2569.1575 637.1366 C 2578.6835 637.1366 2586.4052 629.4136 2586.4052 619.8889 C 2586.4052 610.3641 2578.6835 602.6411 2569.1575 602.6411 Z M 2580.1761 627.1714 C 2580.1761 627.5545 2580.1197 627.9475 2579.9672 628.3018 C 2579.8113 628.6564 2579.6123 628.9917 2579.3336 629.2504 C 2579.065 629.5187 2578.7399 629.7297 2578.3751 629.8733 C 2578.0202 630.0266 2577.6288 630.1128 2577.2341 630.1128 L 2561.0709 630.1128 C 2560.6762 630.1128 2560.2948 630.0266 2559.9299 629.8733 C 2559.575 629.7201 2559.24 629.5187 2558.9713 629.2504 C 2558.7027 628.9824 2558.4639 628.6564 2558.3378 628.3018 C 2558.225 627.9475 2558.1289 627.5545 2558.1289 627.1714 L 2558.1289 615.0691 C 2558.1289 614.5898 2558.2449 614.1109 2558.4539 613.6989 C 2558.6662 613.2869 2558.9912 612.9228 2559.3826 612.6544 L 2566.6466 607.5856 C 2567.3664 607.0489 2568.2553 606.7806 2569.1575 606.7806 C 2570.0597 606.7806 2570.9486 607.0489 2571.6683 607.5856 L 2578.9025 612.6544 C 2579.2938 612.9228 2579.6222 613.2773 2579.8312 613.6989 C 2580.0435 614.1205 2580.1562 614.5898 2580.1562 615.0691 L 2580.1562 627.1714 L 2580.1761 627.1714 Z M 2566.2718 617.043 C 2565.5819 617.0141 2564.9318 617.2539 2564.4243 617.6944 C 2563.9168 618.1448 2563.6183 618.7678 2563.5918 619.4577 L 2563.5918 619.7834 C 2563.5918 620.0806 2563.8571 620.32 2564.1556 620.32 C 2564.1556 620.32 2564.1656 620.3104 2564.1855 620.2912 C 2564.5105 620.2627 2564.7493 619.9943 2564.7195 619.6686 L 2564.7195 619.4865 C 2564.7493 619.1319 2564.9318 618.7678 2565.2004 618.5283 C 2565.4691 618.2888 2565.834 618.1737 2566.2154 618.1737 C 2566.9916 618.2311 2567.5952 618.8925 2567.5587 619.659 C 2567.5289 619.9559 2567.7677 620.2242 2568.0928 620.253 C 2568.3913 620.253 2568.6599 620.0421 2568.6865 619.7164 C 2568.7727 618.3173 2567.6715 617.1196 2566.2652 617.0334 L 2566.2718 617.043 Z M 2572.4047 617.043 C 2570.9685 616.9856 2569.7711 618.0586 2569.6849 619.4577 L 2569.6849 619.7834 C 2569.6849 620.0806 2569.9535 620.32 2570.2487 620.32 C 2570.2487 620.32 2570.2786 620.32 2570.3084 620.2912 C 2570.6335 620.2627 2570.8723 619.9943 2570.8424 619.6686 L 2570.8424 619.4865 C 2570.9021 618.7104 2571.5622 618.1448 2572.3384 618.1737 C 2572.7331 618.2026 2573.0847 618.3843 2573.3268 618.6527 C 2573.5656 618.921 2573.7182 619.2756 2573.6817 619.6686 C 2573.6518 619.9655 2573.8907 620.2338 2574.2157 620.2627 C 2574.5441 620.2627 2574.7829 620.0517 2574.8094 619.726 C 2574.8393 619.0361 2574.6005 618.3843 2574.1494 617.8765 C 2573.6983 617.3687 2573.078 617.0718 2572.3881 617.043 L 2572.4047 617.043 Z M 1538.5622 363.3217 C 1537.6385 362.7366 1536.4298 362.6075 1535.3585 363.0937 C 1534.737 363.3715 1534.2563 363.8179 1533.9232 364.3436 C 1534.064 364.1451 1534.2357 364.0359 1534.4863 363.9367 C 1535.1559 363.6592 1536.5191 364.1352 1537.2505 365.3356 C 1537.7415 365.0678 1538.2497 364.79 1538.7819 364.5221 C 1539.012 364.403 1539.2318 364.2938 1539.4721 364.175 C 1539.2318 363.8278 1538.8918 363.5301 1538.5725 363.3217 L 1538.5622 363.3217 Z M 1540.1829 361.0997 C 1539.6335 361.3477 1539.2009 361.7446 1538.933 362.2209 C 1539.0635 362.0124 1539.2112 361.8833 1539.4034 361.794 C 1540.1451 361.4469 1541.2748 361.9826 1541.886 363.0638 C 1541.8654 363.0638 1541.8483 363.0838 1541.8277 363.0937 C 1542.4972 362.796 1543.1703 362.5182 1543.8192 362.2703 C 1543.129 361.0304 1541.5358 360.5146 1540.1829 361.1097 L 1540.1829 361.0997 Z M 1543.7094 351.9241 C 1533.7549 351.9241 1525.6822 359.9192 1525.6822 369.7795 C 1525.6822 379.6399 1533.7549 387.635 1543.7094 387.635 C 1553.6638 387.635 1561.7365 379.6399 1561.7365 369.7795 C 1561.7365 359.9192 1553.6638 351.9241 1543.7094 351.9241 Z M 1554.5565 371.0789 C 1552.9427 372.6265 1550.6009 373.8963 1547.9672 374.6699 L 1546.6727 375.0469 L 1547.847 375.6818 C 1549.169 376.396 1550.8893 377.7252 1552.043 378.8065 C 1550.8893 380.0464 1549.0969 381.3361 1546.9027 382.1098 C 1546.9027 382.1098 1546.8031 381.9412 1546.5834 381.5741 C 1544.3515 377.9532 1541.577 375.166 1538.4626 372.7356 C 1538.4626 372.7356 1540.3958 372.9142 1541.3263 372.9142 C 1547.2736 372.9142 1553.3547 370.821 1556.3592 368.2817 C 1556.1773 369.1745 1555.5661 370.1068 1554.5565 371.0693 L 1554.5565 371.0789 Z M 1556.8777 366.8928 C 1554.426 369.9382 1544.6124 373.6878 1536.938 371.8528 C 1536.6702 371.7835 1536.4985 372.1306 1536.7389 372.2893 C 1541.9959 375.6619 1544.8013 379.6594 1546.2847 382.2684 C 1542.5178 383.4589 1537.5115 383.1512 1533.5146 379.8679 C 1533.9232 378.39 1534.5859 377.0604 1535.4581 375.9297 C 1533.2227 375.2849 1531.6707 374.1442 1531.2895 372.5966 C 1531.0114 371.4459 1531.4509 370.2259 1532.3608 369.0454 C 1531.2895 366.3176 1531.9831 363.4508 1534.1567 362.2504 C 1535.0769 361.7446 1536.138 361.6059 1537.199 361.7844 C 1537.5286 361.1396 1538.0196 360.6139 1538.6721 360.2468 C 1540.5331 359.215 1543.0672 359.959 1544.7223 361.8933 C 1550.5082 359.7211 1555.5489 360.0483 1556.9292 362.6274 C 1558.0898 364.7999 1556.9601 366.7936 1556.9292 366.8334 L 1556.8983 366.8732 L 1556.8777 366.8928 Z M 2152.3086 1435.5594 C 2162.262 1435.5594 2170.3357 1443.625 2170.3357 1453.5865 C 2170.3357 1463.548 2162.2701 1471.6137 2152.3086 1471.6137 C 2142.3471 1471.6137 2134.2815 1463.548 2134.2815 1453.5865 C 2134.2815 1443.625 2142.3471 1435.5594 2152.3086 1435.5594 Z M 2153.085 1442.2767 C 2147.3401 1442.2767 2144.3083 1445.2432 2144.3083 1449.5906 C 2144.3083 1453.0717 2145.9754 1455.131 2148.9336 1457.2476 L 2143.7853 1464.9047 L 2148.0428 1464.9047 L 2153.7632 1456.3243 L 2151.7691 1454.9841 C 2149.3585 1453.366 2148.19 1452.0993 2148.19 1449.3617 C 2148.19 1446.951 2149.8815 1445.3331 2153.1094 1445.3331 L 2154.8745 1445.3331 L 2154.8745 1464.8965 L 2158.8051 1464.8965 L 2158.8051 1442.2767 L 2153.085 1442.2767 Z M 2061.7834 1539.2675 L 2045.2912 1538.1639 L 2060.3962 1544.1987 C 2061.0829 1542.6577 2061.5568 1541.0016 2061.7834 1539.2675 Z M 2058.3978 1547.6047 C 2055.1288 1551.9786 2049.8993 1554.8117 2044.0035 1554.8117 C 2034.1006 1554.8117 2026.0725 1546.8177 2026.0725 1536.9563 C 2026.0725 1527.0949 2034.1006 1519.1009 2044.0035 1519.1009 C 2049.9096 1519.1009 2055.1494 1521.9447 2058.4149 1526.3327 L 2043.437 1534.3168 L 2053.0755 1524.4575 L 2047.7326 1524.4575 L 2041.1707 1533.5284 L 2041.1707 1524.4575 L 2036.8304 1524.4575 L 2036.8304 1549.4551 L 2041.1707 1549.4551 L 2041.1707 1540.399 L 2047.7326 1549.4551 L 2053.0755 1549.4551 L 2043.6876 1539.9055 L 2058.3978 1547.6047 Z M 2060.3962 1529.7135 L 2045.3976 1535.7057 L 2061.7834 1534.6447 C 2061.5568 1532.9107 2061.0829 1531.2546 2060.3962 1529.7135 Z M 2201.3861 372.2084 L 2200.9714 372.2084 L 2200.9714 374.6373 L 2201.3861 374.6373 C 2201.97 374.6373 2202.2327 374.0529 2202.2327 373.4178 C 2202.2327 372.7022 2201.97 372.2084 2201.3861 372.2084 Z M 2221.9462 362.1402 C 2221.4831 362.1402 2221.2205 362.6944 2221.2205 365.0628 C 2221.2205 367.4312 2221.4831 367.9855 2221.9462 367.9855 C 2222.4092 367.9855 2222.6718 367.4312 2222.6718 365.0628 C 2222.6718 362.6944 2222.4092 362.1402 2221.9462 362.1402 Z M 2211.5141 372.5007 C 2211.5037 372.6417 2211.4519 373.065 2211.3828 373.5287 L 2210.9992 376.1895 L 2212.0393 376.1895 L 2211.6557 373.5287 C 2211.5935 373.1459 2211.5348 372.6417 2211.5244 372.5007 L 2211.5141 372.5007 Z M 2204.7517 363.531 C 2204.6895 363.1478 2204.6308 362.654 2204.6204 362.503 C 2204.61 362.644 2204.5582 363.0673 2204.4891 363.531 L 2204.1055 366.1917 L 2205.1456 366.1917 L 2204.7621 363.531 L 2204.7517 363.531 Z M 2210.6675 351.6383 C 2200.6501 351.6383 2192.5262 359.7614 2192.5262 369.7795 C 2192.5262 379.7977 2200.6501 387.9208 2210.6675 387.9208 C 2220.6849 387.9208 2228.8087 379.7977 2228.8087 369.7795 C 2228.8087 359.7614 2220.6849 351.6383 2210.6675 351.6383 Z M 2216.3932 360.608 C 2217.8929 360.608 2218.5183 361.767 2218.8224 362.8254 L 2217.2398 363.4401 C 2216.877 362.4425 2216.6731 362.1402 2216.3828 362.1402 C 2215.8369 362.1402 2215.6261 362.8658 2215.6261 365.0428 C 2215.6261 367.2197 2215.8576 367.9554 2216.4036 367.9554 C 2216.9046 367.9554 2217.1465 367.0383 2217.1465 366.2318 L 2217.1465 366.1209 L 2216.2308 366.1209 L 2216.2308 364.5086 L 2218.8397 364.5086 L 2218.8397 369.3663 L 2217.4817 369.3663 L 2217.3711 368.6506 C 2217.0463 369.2353 2216.6144 369.5072 2216.0096 369.5072 C 2214.5272 369.5072 2213.6496 367.7539 2213.6496 365.0628 C 2213.6496 362.3717 2214.4685 360.618 2216.4036 360.618 L 2216.3932 360.608 Z M 2207.9964 360.7794 L 2210.0731 360.7794 L 2211.2204 364.851 C 2211.3344 365.2342 2211.445 365.708 2211.483 365.8489 C 2211.4726 365.6876 2211.4622 365.2847 2211.4622 364.8109 L 2211.4622 360.7794 L 2213.2176 360.7794 L 2213.2176 369.3562 L 2211.1927 369.3562 L 2209.9937 365.0829 C 2209.8831 364.7 2209.7691 364.2262 2209.731 364.0853 C 2209.7414 364.2463 2209.7518 364.6495 2209.7518 365.1233 L 2209.7518 369.3663 L 2207.9964 369.3663 L 2207.9964 360.7794 Z M 2205.9715 360.7794 L 2207.5748 369.3562 L 2205.5983 369.3562 L 2205.3668 367.8141 L 2203.8636 367.8141 L 2203.6321 369.3562 L 2201.7973 369.3562 L 2203.3902 360.7794 L 2205.9715 360.7794 Z M 2199.3784 360.7794 L 2199.8829 362.9968 C 2199.9831 363.3797 2200.0764 363.8634 2200.0868 364.0148 C 2200.0937 363.8734 2200.1974 363.4602 2200.308 362.9968 L 2200.8505 360.7794 L 2202.8063 360.7794 L 2200.9921 366.3832 L 2200.9921 369.3562 L 2199.0882 369.3562 L 2199.0882 366.3731 L 2197.2741 360.7794 L 2199.3784 360.7794 Z M 2201.666 376.0785 L 2200.9818 376.0785 L 2200.9818 379.354 L 2199.0778 379.354 L 2199.0778 370.7771 L 2201.8076 370.7771 C 2203.1276 370.7771 2204.0848 371.9261 2204.0848 373.4379 C 2204.0848 374.9496 2203.1173 376.0785 2201.666 376.0785 Z M 2208.3178 379.354 L 2204.458 379.354 L 2204.458 370.7771 L 2206.3654 370.7771 L 2206.3654 377.7316 L 2208.3178 377.7316 L 2208.3178 379.354 Z M 2212.4816 379.354 L 2212.2501 377.8121 L 2210.747 377.8121 L 2210.5154 379.354 L 2208.6806 379.354 L 2210.2736 370.7771 L 2212.8444 370.7771 L 2214.4478 379.354 L 2212.4712 379.354 L 2212.4816 379.354 Z M 2217.1361 376.3809 L 2217.1361 379.354 L 2215.2322 379.354 L 2215.2322 376.3709 L 2213.418 370.7771 L 2215.5155 370.7771 L 2216.02 373.0045 C 2216.1202 373.3877 2216.2101 373.8715 2216.2204 374.0225 C 2216.2308 373.8815 2216.331 373.4683 2216.4416 373.0045 L 2216.9875 370.7771 L 2218.9433 370.7771 L 2217.1292 376.3809 L 2217.1361 376.3809 Z M 2221.9462 369.5176 C 2220.2322 369.5176 2219.244 368.0459 2219.244 365.0628 C 2219.244 362.0797 2220.2322 360.608 2221.9462 360.608 C 2223.6601 360.608 2224.6449 362.0797 2224.6449 365.0628 C 2224.6449 368.0459 2223.6601 369.5176 2221.9462 369.5176 Z M 2301.3561 363.5006 C 2300.7859 362.8959 2300.1155 362.4525 2299.307 362.1906 C 2298.5295 361.9284 2297.6518 361.7974 2296.6912 361.7974 L 2295.7133 361.7974 L 2295.7133 377.6712 L 2296.3836 377.6712 L 2296.3836 377.7012 C 2297.3926 377.7012 2298.3187 377.5198 2299.148 377.177 C 2299.9773 376.8346 2300.6753 376.3204 2301.2662 375.6653 C 2301.864 374.9901 2302.3029 374.1535 2302.6311 373.1358 C 2302.9421 372.1179 2303.1218 370.9385 2303.1218 369.5881 C 2303.1218 368.1268 2302.9628 366.897 2302.6519 365.9094 C 2302.3443 364.9218 2301.902 364.1053 2301.3353 363.5106 L 2301.3561 363.5006 Z M 2294.0374 351.6383 C 2284.1132 351.6383 2276.0689 359.7614 2276.0689 369.7795 C 2276.0689 379.7977 2284.1132 387.9208 2294.0374 387.9208 C 2303.9615 387.9208 2312.0058 379.7977 2312.0058 369.7795 C 2312.0058 359.7614 2303.9615 351.6383 2294.0374 351.6383 Z M 2288.5777 380.6543 L 2284.8251 380.6543 L 2284.8251 358.8848 L 2288.5777 358.8848 L 2288.5777 380.6543 Z M 2306.1557 374.3853 C 2305.6374 375.7461 2304.9394 376.8951 2304.041 377.8322 C 2303.1322 378.7697 2302.0541 379.4749 2300.8066 379.9487 C 2299.5661 380.4224 2298.1701 380.6843 2296.6912 380.6843 L 2291.9606 380.6843 L 2291.9606 358.8848 L 2297.0022 358.8848 C 2298.4189 358.8848 2299.7389 359.0662 2300.9552 359.4591 C 2302.1715 359.8219 2303.2013 360.447 2304.079 361.2832 C 2304.9567 362.1198 2305.6581 363.2387 2306.1453 364.5991 C 2306.6637 365.9599 2306.8952 367.653 2306.8952 369.6586 C 2306.8952 371.4323 2306.636 372.9945 2306.1453 374.3853 L 2306.1557 374.3853 Z M 1627.0791 351.4861 C 1616.9755 351.4861 1608.7857 359.6773 1608.7857 369.7795 C 1608.7857 379.8817 1616.9755 388.073 1627.0791 388.073 C 1637.1827 388.073 1645.3725 379.8817 1645.3725 369.7795 C 1645.3725 359.6773 1637.1827 351.4861 1627.0791 351.4861 Z M 1638.7658 377.5036 C 1638.7658 377.9099 1638.706 378.3268 1638.5442 378.7025 C 1638.3788 379.0786 1638.1677 379.4343 1637.8722 379.7087 C 1637.5873 379.9933 1637.2425 380.217 1636.8555 380.3693 C 1636.4791 380.5319 1636.064 380.6233 1635.6454 380.6233 L 1618.5023 380.6233 C 1618.0837 380.6233 1617.6791 380.5319 1617.2921 380.3693 C 1616.9157 380.2068 1616.5604 379.9933 1616.2754 379.7087 C 1615.9905 379.4244 1615.7372 379.0786 1615.6035 378.7025 C 1615.4839 378.3268 1615.3819 377.9099 1615.3819 377.5036 L 1615.3819 364.6676 C 1615.3819 364.1592 1615.505 363.6512 1615.7266 363.2143 C 1615.9518 362.7774 1616.2965 362.3911 1616.7116 362.1065 L 1624.416 356.7303 C 1625.1794 356.1611 1626.1222 355.8765 1627.0791 355.8765 C 1628.036 355.8765 1628.9788 356.1611 1629.7422 356.7303 L 1637.4149 362.1065 C 1637.83 362.3911 1638.1783 362.7672 1638.3999 363.2143 C 1638.6251 363.6614 1638.7447 364.1592 1638.7447 364.6676 L 1638.7447 377.5036 L 1638.7658 377.5036 Z M 1624.0185 366.7611 C 1623.2867 366.7305 1622.5972 366.9849 1622.059 367.4521 C 1621.5207 367.9298 1621.2041 368.5905 1621.1759 369.3222 L 1621.1759 369.6677 C 1621.1759 369.9829 1621.4574 370.2369 1621.774 370.2369 C 1621.774 370.2369 1621.7846 370.2267 1621.8057 370.2063 C 1622.1504 370.176 1622.4037 369.8914 1622.3721 369.5459 L 1622.3721 369.3528 C 1622.4037 368.9767 1622.5972 368.5905 1622.8822 368.3365 C 1623.1671 368.0825 1623.5541 367.9604 1623.9587 367.9604 C 1624.7819 368.0213 1625.4221 368.7227 1625.3834 369.5357 C 1625.3518 369.8506 1625.6051 370.1352 1625.9498 370.1658 C 1626.2665 370.1658 1626.5514 369.9421 1626.5795 369.5966 C 1626.671 368.1127 1625.5031 366.8424 1624.0114 366.7509 L 1624.0185 366.7611 Z M 1630.5232 366.7611 C 1628.9999 366.7003 1627.7299 367.8383 1627.6385 369.3222 L 1627.6385 369.6677 C 1627.6385 369.9829 1627.9234 370.2369 1628.2365 370.2369 C 1628.2365 370.2369 1628.2682 370.2369 1628.2998 370.2063 C 1628.6446 370.176 1628.8979 369.8914 1628.8662 369.5459 L 1628.8662 369.3528 C 1628.9296 368.5296 1629.6296 367.9298 1630.4528 367.9604 C 1630.8715 367.991 1631.2444 368.1838 1631.5012 368.4684 C 1631.7545 368.753 1631.9163 369.1291 1631.8776 369.5459 C 1631.846 369.8608 1632.0992 370.1454 1632.444 370.176 C 1632.7923 370.176 1633.0456 369.9523 1633.0737 369.6068 C 1633.1054 368.8751 1632.8521 368.1838 1632.3736 367.6452 C 1631.8952 367.1066 1631.2373 366.7917 1630.5056 366.7611 L 1630.5232 366.7611 Z M 1407.9667 435.3453 C 1415.4026 437.8442 1420.7589 444.8709 1420.7589 453.149 C 1420.7589 463.5201 1412.3515 471.9275 1401.9804 471.9275 C 1401.7117 471.9275 1401.4445 471.9216 1401.1785 471.9104 L 1409.7821 450.1461 L 1410.4691 450.3901 L 1408.8513 462.9124 L 1413.1732 464.4858 L 1413.1732 444.3172 L 1409.5384 442.9652 L 1396.6393 457.0168 L 1395.9522 456.7729 L 1407.9667 435.3453 Z M 1401.9807 434.3708 C 1402.2565 434.3708 1402.5305 434.377 1402.8033 434.3889 L 1394.1791 456.1303 L 1393.4921 455.8865 L 1395.1098 443.3863 L 1390.788 441.8128 L 1390.788 461.9811 L 1394.4227 463.3331 L 1407.3218 449.2594 L 1408.0089 449.5034 L 1395.9817 470.949 C 1388.5525 468.4463 1383.2022 461.4228 1383.2022 453.1493 C 1383.2022 442.7783 1391.6097 434.3708 1401.9807 434.3708 Z M 1824.8783 435.1586 C 1832.3922 437.6837 1837.8047 444.7841 1837.8047 453.149 C 1837.8047 463.6288 1829.3091 472.1244 1818.8293 472.1244 C 1818.5578 472.1244 1818.2878 472.1185 1818.019 472.1071 L 1826.7127 450.1146 L 1827.407 450.3611 L 1825.7722 463.0148 L 1830.1394 464.6047 L 1830.1394 444.2246 L 1826.4665 442.8585 L 1813.4322 457.0573 L 1812.7379 456.8109 L 1824.8783 435.1586 Z M 1818.8296 434.1739 C 1819.1083 434.1739 1819.3851 434.1802 1819.6608 434.1921 L 1810.9462 456.1616 L 1810.2519 455.9152 L 1811.8866 443.2839 L 1807.5195 441.6939 L 1807.5195 462.0737 L 1811.1924 463.4399 L 1824.2267 449.2186 L 1824.921 449.4651 L 1812.7677 471.1356 C 1805.2606 468.6067 1799.8542 461.5095 1799.8542 453.1493 C 1799.8542 442.6696 1808.3499 434.1739 1818.8296 434.1739 Z M 1316.6267 955.5817 C 1318.9977 958.1118 1321.4916 960.1886 1323.7289 961.4008 C 1326.1397 962.7082 1327.6216 962.6659 1327.9758 962.3073 C 1328.2794 961.9911 1328.3336 960.726 1327.2348 958.1541 C 1326.3168 955.9403 1324.5638 953.2729 1322.5072 950.8379 C 1322.8072 950.5639 1316.2399 955.898 1316.6375 955.5817 L 1316.6267 955.5817 Z M 1318.611 934.3925 C 1308.2305 934.3925 1299.8163 942.8892 1299.8163 953.3679 C 1299.8163 963.8467 1308.2305 972.3433 1318.611 972.3433 C 1328.9914 972.3433 1337.4057 963.8467 1337.4057 953.3679 C 1337.4057 942.8892 1328.9914 934.3925 1318.611 934.3925 Z M 1329.1577 963.3512 C 1329.1143 963.4458 1329.0203 963.5304 1328.9372 963.6251 L 1328.8974 963.6674 L 1328.7276 963.8572 C 1323.1651 969.1385 1314.3605 968.7803 1309.1919 963.0454 C 1304.2836 957.5848 1304.3776 949.0459 1309.2353 943.68 C 1312.8677 939.5686 1318.9146 938.0821 1324 939.9796 C 1325.2216 940.3909 1326.3674 941.0234 1327.4119 941.7824 C 1328.1529 942.3199 1328.8541 942.9524 1329.5119 943.68 C 1329.5119 943.68 1330.2528 944.4918 1323.5482 949.9523 L 1323.6855 950.1316 C 1328.3734 955.645 1330.7335 961.2848 1329.1577 963.3616 L 1329.1577 963.3512 Z M 2569.1575 767.4627 C 2558.5744 767.4627 2549.9918 776.0446 2549.9918 786.6284 C 2549.9918 797.2123 2558.5744 805.7941 2569.1575 805.7941 C 2579.7406 805.7941 2588.3232 797.2123 2588.3232 786.6284 C 2588.3232 776.0446 2579.7406 767.4627 2569.1575 767.4627 Z M 2579.1674 779.1217 L 2583.5226 779.1217 L 2582.8947 780.7721 L 2578.5395 780.7721 L 2579.1674 779.1217 Z M 2559.4688 792.8786 L 2563.0135 783.8386 L 2560.6296 783.8386 L 2556.9462 793.1659 L 2553.7081 793.5492 L 2558.4977 781.2938 L 2567.0912 781.2938 L 2562.6959 792.5165 L 2559.4578 792.8786 L 2559.4688 792.8786 Z M 2569.5079 791.8243 C 2568.4018 792.2821 2566.6751 792.3887 2565.7515 791.5155 C 2564.7293 790.5572 2564.879 788.8217 2565.2404 787.5334 L 2568.201 787.5334 C 2568.0732 788.0018 2567.7082 789.2795 2568.2959 789.5139 C 2569.0626 789.8227 2569.8401 788.2789 2570.0957 787.7889 C 2570.1577 787.6718 2570.2125 787.5228 2570.2125 787.5122 L 2568.5843 787.5122 L 2569.413 785.404 L 2571.0193 785.404 C 2571.169 785.0101 2571.5012 783.7109 2570.9244 783.6152 C 2570.2234 783.5086 2569.6467 784.4775 2569.2962 784.9995 L 2566.3575 784.9995 C 2566.3575 784.9995 2566.3355 784.978 2566.3355 784.9674 C 2566.3355 784.9462 2566.3903 784.8608 2566.4013 784.8184 C 2567.4526 782.4225 2569.329 780.7615 2571.9137 780.9959 C 2574.8342 781.262 2574.502 784.3074 2573.7244 786.5324 C 2572.9687 788.6939 2571.607 790.9405 2569.497 791.8137 L 2569.5079 791.8243 Z M 2581.0183 790.4404 L 2579.0689 790.6744 L 2579.1017 789.3434 L 2578.9119 789.3434 C 2578.1672 790.3126 2577.1633 791.2282 2575.8746 791.3027 C 2573.5857 791.441 2573.1184 789.631 2573.812 787.7889 L 2576.3455 781.2938 L 2579.4339 781.2938 C 2579.4339 781.2938 2577.824 785.2974 2577.2509 786.8628 C 2577.0245 787.4801 2576.6011 788.641 2577.7072 788.5771 C 2578.6016 788.5238 2579.0689 787.4907 2579.3573 786.7668 L 2581.4965 781.2938 L 2584.585 781.2938 L 2581.0183 790.4404 Z M 1296.1116 861.9697 C 1294.666 863.2263 1292.523 863.2263 1291.0811 861.9697 C 1287.4633 858.8288 1282.5277 863.8118 1285.638 867.4639 C 1286.8829 868.9227 1286.8829 871.0842 1285.638 872.543 C 1282.5277 876.1951 1287.4633 881.1782 1291.0811 878.0372 C 1292.523 876.7806 1294.666 876.7806 1296.1116 878.0372 C 1299.7257 881.1782 1304.6613 876.1951 1301.551 872.543 C 1300.3061 871.0842 1300.3061 868.9227 1301.551 867.4639 C 1304.6613 863.8118 1299.7257 858.8288 1296.1116 861.9697 Z M 1293.6 873.6075 C 1291.6286 873.6075 1290.026 871.9892 1290.026 869.9982 C 1290.026 868.0071 1291.6286 866.3888 1293.6 866.3888 C 1295.5713 866.3888 1297.1739 868.0071 1297.1739 869.9982 C 1297.1739 871.9892 1295.5713 873.6075 1293.6 873.6075 Z M 1293.6 850.8325 C 1283.1154 850.8325 1274.6168 859.4143 1274.6168 869.9982 C 1274.6168 880.582 1283.1154 889.1639 1293.6 889.1639 C 1304.0845 889.1639 1312.5831 880.582 1312.5831 869.9982 C 1312.5831 859.4143 1304.0845 850.8325 1293.6 850.8325 Z M 1305.4973 879.3788 C 1304.8512 880.4542 1303.9568 881.3592 1302.8908 882.0087 C 1301.0545 883.1269 1298.5685 883.1269 1293.6 883.1269 C 1288.6315 883.1269 1286.1454 883.1269 1284.3092 882.0087 C 1283.2432 881.3592 1282.3488 880.4542 1281.7026 879.3788 C 1280.5965 877.5261 1280.5965 875.0134 1280.5965 869.9982 C 1280.5965 864.9833 1280.5965 862.4702 1281.7026 860.6176 C 1282.3488 859.5421 1283.2432 858.6371 1284.3092 857.9877 C 1286.1454 856.8695 1288.6315 856.8698 1293.6 856.8698 C 1298.5685 856.8698 1301.0545 856.8695 1302.8908 857.9877 C 1303.9568 858.6371 1304.8512 859.5421 1305.4973 860.6176 C 1306.6034 862.4702 1306.6034 864.9833 1306.6034 869.9982 C 1306.6034 875.0134 1306.6034 877.5261 1305.4973 879.3788 Z M 1409.8591 1113.3483 C 1409.2453 1112.6974 1408.5237 1112.2201 1407.6533 1111.9382 C 1406.8164 1111.6558 1405.8715 1111.5149 1404.8375 1111.5149 L 1403.7848 1111.5149 L 1403.7848 1128.6025 L 1404.5064 1128.6025 L 1404.5064 1128.6349 C 1405.5926 1128.6349 1406.5895 1128.4396 1407.4822 1128.0706 C 1408.3749 1127.702 1409.1263 1127.1485 1409.7624 1126.4432 C 1410.4059 1125.7164 1410.8783 1124.8159 1411.2317 1123.7204 C 1411.5664 1122.6246 1411.7599 1121.355 1411.7599 1119.9013 C 1411.7599 1118.3283 1411.5888 1117.0044 1411.254 1115.9413 C 1410.9229 1114.8782 1410.4468 1113.9993 1409.8368 1113.3591 L 1409.8591 1113.3483 Z M 1401.9807 1100.5789 C 1391.2977 1100.5789 1382.6381 1109.3232 1382.6381 1120.1074 C 1382.6381 1130.8917 1391.2977 1139.636 1401.9807 1139.636 C 1412.6638 1139.636 1421.3233 1130.8917 1421.3233 1120.1074 C 1421.3233 1109.3232 1412.6638 1100.5789 1401.9807 1100.5789 Z M 1396.1035 1131.8138 L 1392.0639 1131.8138 L 1392.0639 1108.3795 L 1396.1035 1108.3795 L 1396.1035 1131.8138 Z M 1415.0258 1125.0654 C 1414.4678 1126.5303 1413.7165 1127.7671 1412.7493 1128.7759 C 1411.771 1129.785 1410.6105 1130.5442 1409.2677 1131.0542 C 1407.9323 1131.5642 1406.4295 1131.8461 1404.8375 1131.8461 L 1399.7452 1131.8461 L 1399.7452 1108.3795 L 1405.1722 1108.3795 C 1406.6973 1108.3795 1408.1183 1108.5748 1409.4276 1108.9977 C 1410.7369 1109.3883 1411.8454 1110.0612 1412.7902 1110.9614 C 1413.735 1111.8619 1414.4902 1113.0664 1415.0146 1114.5308 C 1415.5726 1115.9956 1415.8218 1117.8183 1415.8218 1119.9772 C 1415.8218 1121.8866 1415.5428 1123.5683 1415.0146 1125.0654 L 1415.0258 1125.0654 Z M 1313.6686 703.2586 C 1313.6686 714.3475 1304.6788 723.3388 1293.5961 723.3388 C 1282.5095 723.3388 1273.5198 714.3475 1273.5198 703.2586 C 1273.5198 692.1697 1282.5095 683.1784 1293.5961 683.1784 C 1295.7586 683.1784 1297.8438 683.5244 1299.8055 684.16 L 1295.2334 698.2386 L 1281.8724 698.2386 L 1280.2467 703.2586 L 1293.6038 703.2586 L 1289.6921 715.3067 L 1295.2103 715.3067 L 1299.1259 703.2586 L 1313.6801 703.2586 L 1313.6686 703.2586 Z M 1313.0314 698.2386 L 1300.7439 698.2386 L 1304.5784 686.4469 C 1308.7064 689.1469 1311.7725 693.3301 1313.0314 698.2386 Z M 2544.1465 849.918 C 2555.3412 849.918 2564.4197 858.9093 2564.4197 869.9982 C 2564.4197 881.0871 2555.3412 890.0783 2544.1465 890.0783 C 2532.9518 890.0783 2523.8732 881.0871 2523.8732 869.9982 C 2523.8732 858.9093 2532.9518 849.918 2544.1465 849.918 Z M 2547.313 860.1589 L 2539.0453 853.6104 L 2538.3232 853.8 L 2544.6871 861.7429 L 2532.052 857.5485 L 2531.4535 858.1957 L 2542.7486 864.5541 L 2527.2174 865.8593 L 2527.059 866.7853 L 2543.2236 868.5258 L 2529.7197 879.5139 L 2530.3375 880.3507 L 2546.3437 871.6602 L 2543.1888 886.8991 L 2544.1581 886.8991 L 2550.3404 872.553 L 2554.0823 883.7643 L 2554.7349 883.2623 L 2553.3254 872.0286 L 2559.0367 878.4542 L 2559.3842 877.807 L 2555.1404 869.8642 L 2561.1644 871.9726 L 2561.2339 871.3146 L 2556.21 867.3097 L 2560.9173 866.2497 L 2560.8285 865.5693 L 2555.206 864.2641 L 2558.1138 859.9805 L 2557.774 859.5117 L 2553.2482 861.7097 L 2553.7425 855.7189 L 2553.2482 855.4736 L 2550.4408 860.2817 L 2547.1315 853.0528 L 2546.5136 853.0528 L 2547.3246 860.1365 L 2547.313 860.1589 Z M 1460.3396 1183.1265 C 1449.2068 1183.1265 1440.1826 1192.239 1440.1826 1203.4773 C 1440.1826 1214.7156 1449.2068 1223.8281 1460.3396 1223.8281 C 1471.4724 1223.8281 1480.4966 1214.7156 1480.4966 1203.4773 C 1480.4966 1192.239 1471.4724 1183.1265 1460.3396 1183.1265 Z M 1469.918 1217.2367 L 1450.8891 1217.2367 L 1450.8891 1189.7178 L 1460.3861 1197.2251 L 1469.9258 1189.7403 L 1469.9258 1203.1156 L 1453.9436 1203.0928 C 1453.9359 1203.285 1453.9243 1203.4661 1453.9243 1203.6696 L 1453.9243 1203.8843 C 1453.9243 1208.1355 1456.6765 1210.9617 1460.3861 1210.9617 C 1462.2429 1210.9617 1464.0027 1210.0461 1465.1308 1207.9882 C 1466.3867 1210.0461 1468.0651 1210.9617 1469.9142 1210.9617 L 1469.918 1217.248 L 1469.918 1217.2367 Z M 1463.5531 1205.2298 C 1463.4097 1207.5928 1462.2661 1208.6328 1460.3939 1208.6328 C 1458.5255 1208.6328 1457.068 1207.3552 1456.7656 1205.2298 L 1463.5531 1205.2298 Z M 1469.8909 1208.6328 C 1468.0225 1208.6328 1466.879 1207.5812 1466.7356 1205.2298 L 1473.5967 1205.2298 C 1473.2943 1207.3552 1471.705 1208.6328 1469.8909 1208.6328 Z M 2316.92 1289.2213 C 2319.4629 1291.9347 2322.1375 1294.1621 2324.537 1295.4622 C 2327.1225 1296.8643 2328.7118 1296.8189 2329.0917 1296.4344 C 2329.4173 1296.0952 2329.4754 1294.7385 2328.297 1291.9801 C 2327.3124 1289.6058 2325.4324 1286.7451 2323.2268 1284.1336 C 2323.5485 1283.8398 2316.5052 1289.5605 2316.9316 1289.2213 L 2316.92 1289.2213 Z M 2319.0481 1266.4963 C 2307.9153 1266.4963 2298.8911 1275.6088 2298.8911 1286.847 C 2298.8911 1298.0853 2307.9153 1307.1978 2319.0481 1307.1978 C 2330.1809 1307.1978 2339.2051 1298.0853 2339.2051 1286.847 C 2339.2051 1275.6088 2330.1809 1266.4963 2319.0481 1266.4963 Z M 2330.3593 1297.5539 C 2330.3127 1297.6554 2330.212 1297.7461 2330.1228 1297.8477 L 2330.0802 1297.8931 L 2329.898 1298.0966 C 2323.9323 1303.7607 2314.4895 1303.3765 2308.9464 1297.2259 C 2303.6823 1291.3696 2303.7831 1282.2117 2308.9929 1276.4569 C 2312.8886 1272.0476 2319.3737 1270.4532 2324.8277 1272.4883 C 2326.1379 1272.9294 2327.3667 1273.6078 2328.487 1274.4218 C 2329.2816 1274.9982 2330.0336 1275.6766 2330.7391 1276.4569 C 2330.7391 1276.4569 2331.5338 1277.3275 2324.3432 1283.1839 L 2324.4905 1283.3762 C 2329.5181 1289.2891 2332.0493 1295.3378 2330.3593 1297.5651 L 2330.3593 1297.5539 Z M 1627.0791 1349.866 C 1615.9463 1349.866 1606.9221 1358.9785 1606.9221 1370.2168 C 1606.9221 1381.4551 1615.9463 1390.5676 1627.0791 1390.5676 C 1638.2119 1390.5676 1647.2361 1381.4551 1647.2361 1370.2168 C 1647.2361 1358.9785 1638.2119 1349.866 1627.0791 1349.866 Z M 1636.6575 1383.9762 L 1617.6286 1383.9762 L 1617.6286 1356.4573 L 1627.1256 1363.9647 L 1636.6653 1356.4798 L 1636.6653 1369.8551 L 1620.6831 1369.8323 C 1620.6754 1370.0245 1620.6638 1370.2056 1620.6638 1370.4091 L 1620.6638 1370.6238 C 1620.6638 1374.875 1623.416 1377.7012 1627.1256 1377.7012 C 1628.9824 1377.7012 1630.7422 1376.7856 1631.8703 1374.7277 C 1633.1262 1376.7856 1634.8046 1377.7012 1636.6537 1377.7012 L 1636.6575 1383.9875 L 1636.6575 1383.9762 Z M 1630.2926 1371.9693 C 1630.1492 1374.3323 1629.0056 1375.3723 1627.1334 1375.3723 C 1625.265 1375.3723 1623.8075 1374.0947 1623.5051 1371.9693 L 1630.2926 1371.9693 Z M 1636.6304 1375.3723 C 1634.762 1375.3723 1633.6185 1374.3207 1633.4751 1371.9693 L 1640.3362 1371.9693 C 1640.0338 1374.0947 1638.4445 1375.3723 1636.6304 1375.3723 Z M 1735.4598 1433.2358 C 1746.6962 1433.2358 1755.8106 1442.341 1755.8106 1453.5865 C 1755.8106 1464.832 1746.7053 1473.9373 1735.4598 1473.9373 C 1724.2143 1473.9373 1715.1091 1464.832 1715.1091 1453.5865 C 1715.1091 1442.341 1724.2143 1433.2358 1735.4598 1433.2358 Z M 1736.3363 1440.8189 C 1729.851 1440.8189 1726.4284 1444.1677 1726.4284 1449.0755 C 1726.4284 1453.0054 1728.3104 1455.3301 1731.6499 1457.7195 L 1725.8379 1466.3636 L 1730.6443 1466.3636 L 1737.102 1456.6772 L 1734.8508 1455.1642 C 1732.1294 1453.3376 1730.8104 1451.9076 1730.8104 1448.8172 C 1730.8104 1446.0957 1732.7199 1444.2692 1736.3639 1444.2692 L 1738.3564 1444.2692 L 1738.3564 1466.3543 L 1742.7938 1466.3543 L 1742.7938 1440.8189 L 1736.3363 1440.8189 Z M 1318.611 599.3109 C 1329.9727 599.3109 1339.1889 608.5178 1339.1889 619.8889 C 1339.1889 631.2599 1329.982 640.4668 1318.611 640.4668 C 1307.2399 640.4668 1298.033 631.2599 1298.033 619.8889 C 1298.033 608.5178 1307.2399 599.3109 1318.611 599.3109 Z M 1319.4972 606.9787 C 1312.9395 606.9787 1309.4787 610.3649 1309.4787 615.3275 C 1309.4787 619.3012 1311.3817 621.6519 1314.7585 624.0679 L 1308.8817 632.8085 L 1313.7416 632.8085 L 1320.2714 623.014 L 1317.9952 621.4842 C 1315.2434 619.6371 1313.9096 618.1912 1313.9096 615.0662 C 1313.9096 612.3144 1315.8405 610.4675 1319.5251 610.4675 L 1321.5399 610.4675 L 1321.5399 632.7991 L 1326.0267 632.7991 L 1326.0267 606.9787 L 1319.4972 606.9787 Z M 2068.939 432.2095 C 2057.3762 432.2095 2047.9992 441.5858 2047.9992 453.1493 C 2047.9992 464.7129 2057.3762 474.0891 2068.939 474.0891 C 2080.5017 474.0891 2089.8788 464.7129 2089.8788 453.1493 C 2089.8788 441.5858 2080.5017 432.2095 2068.939 432.2095 Z M 2079.8755 444.9477 L 2084.6338 444.9477 L 2083.9478 446.7509 L 2079.1895 446.7509 L 2079.8755 444.9477 Z M 2058.3534 459.9781 L 2062.2263 450.1013 L 2059.6217 450.1013 L 2055.5973 460.292 L 2052.0595 460.7108 L 2057.2924 447.3209 L 2066.6815 447.3209 L 2061.8793 459.5824 L 2058.3414 459.9781 L 2058.3534 459.9781 Z M 2069.3219 458.8262 C 2068.1133 459.3264 2066.2268 459.4428 2065.2177 458.4888 C 2064.1009 457.4418 2064.2644 455.5456 2064.6593 454.1381 L 2067.894 454.1381 C 2067.7544 454.6498 2067.3555 456.0458 2067.9977 456.3019 C 2068.8353 456.6393 2069.6848 454.9525 2069.964 454.4173 C 2070.0318 454.2892 2070.0917 454.1265 2070.0917 454.1149 L 2068.3128 454.1149 L 2069.2182 451.8116 L 2070.9731 451.8116 C 2071.1366 451.3812 2071.4996 449.9617 2070.8694 449.8572 C 2070.1036 449.7407 2069.4734 450.7993 2069.0905 451.3696 L 2065.8798 451.3696 C 2065.8798 451.3696 2065.8558 451.3461 2065.8558 451.3345 C 2065.8558 451.3114 2065.9157 451.2181 2065.9276 451.1718 C 2067.0763 448.5541 2069.1264 446.7393 2071.9503 446.9954 C 2075.1411 447.2862 2074.7782 450.6134 2073.9286 453.0444 C 2073.103 455.406 2071.6153 457.8606 2069.3099 458.8146 L 2069.3219 458.8262 Z M 2081.8977 457.3142 L 2079.7678 457.5698 L 2079.8037 456.1156 L 2079.5963 456.1156 C 2078.7827 457.1746 2077.6858 458.1749 2076.2779 458.2562 C 2073.7771 458.4074 2073.2665 456.4299 2074.0243 454.4173 L 2076.7924 447.3209 L 2080.1667 447.3209 C 2080.1667 447.3209 2078.4077 451.6951 2077.7815 453.4054 C 2077.5343 454.0798 2077.0716 455.3482 2078.2801 455.2784 C 2079.2573 455.2202 2079.7678 454.0914 2080.0829 453.3005 L 2082.4202 447.3209 L 2085.7945 447.3209 L 2081.8977 457.3142 Z M 1376.9697 1015.7979 C 1365.407 1015.7979 1356.0299 1025.1741 1356.0299 1036.7377 C 1356.0299 1048.3012 1365.407 1057.6775 1376.9697 1057.6775 C 1388.5325 1057.6775 1397.9095 1048.3012 1397.9095 1036.7377 C 1397.9095 1025.1741 1388.5325 1015.7979 1376.9697 1015.7979 Z M 1387.9063 1028.536 L 1392.6646 1028.536 L 1391.9786 1030.3393 L 1387.2203 1030.3393 L 1387.9063 1028.536 Z M 1366.3842 1043.5664 L 1370.257 1033.6896 L 1367.6525 1033.6896 L 1363.6281 1043.8803 L 1360.0902 1044.2991 L 1365.3232 1030.9092 L 1374.7122 1030.9092 L 1369.91 1043.1708 L 1366.3722 1043.5664 L 1366.3842 1043.5664 Z M 1377.3526 1042.4146 C 1376.1441 1042.9147 1374.2575 1043.0312 1373.2484 1042.0771 C 1372.1316 1041.0301 1372.2952 1039.134 1372.69 1037.7264 L 1375.9247 1037.7264 C 1375.7851 1038.2382 1375.3863 1039.6341 1376.0284 1039.8902 C 1376.866 1040.2276 1377.7156 1038.5409 1377.9948 1038.0056 C 1378.0626 1037.8776 1378.1224 1037.7149 1378.1224 1037.7033 L 1376.3435 1037.7033 L 1377.2489 1035.3999 L 1379.0039 1035.3999 C 1379.1674 1034.9696 1379.5304 1033.55 1378.9002 1033.4455 C 1378.1344 1033.3291 1377.5042 1034.3876 1377.1213 1034.958 L 1373.9105 1034.958 C 1373.9105 1034.958 1373.8866 1034.9345 1373.8866 1034.9229 C 1373.8866 1034.8998 1373.9464 1034.8064 1373.9584 1034.7602 C 1375.1071 1032.1425 1377.1572 1030.3277 1379.9811 1030.5838 C 1383.1719 1030.8745 1382.8089 1034.2018 1381.9594 1036.6328 C 1381.1338 1038.9944 1379.646 1041.4489 1377.3407 1042.403 L 1377.3526 1042.4146 Z M 1389.9285 1040.9025 L 1387.7986 1041.1582 L 1387.8345 1039.7039 L 1387.6271 1039.7039 C 1386.8134 1040.7629 1385.7166 1041.7632 1384.3086 1041.8446 C 1381.8078 1041.9958 1381.2973 1040.0182 1382.0551 1038.0056 L 1384.8232 1030.9092 L 1388.1975 1030.9092 C 1388.1975 1030.9092 1386.4385 1035.2835 1385.8123 1036.9937 C 1385.565 1037.6682 1385.1023 1038.9365 1386.3109 1038.8668 C 1387.2881 1038.8085 1387.7986 1037.6798 1388.1137 1036.8888 L 1390.451 1030.9092 L 1393.8253 1030.9092 L 1389.9285 1040.9025 Z M 2385.9386 1196.1577 C 2385.274 1195.4528 2384.4925 1194.936 2383.5499 1194.6306 C 2382.6436 1194.3249 2381.6204 1194.1722 2380.5006 1194.1722 L 2379.3606 1194.1722 L 2379.3606 1212.6768 L 2380.1421 1212.6768 L 2380.1421 1212.7119 C 2381.3183 1212.7119 2382.3979 1212.5004 2383.3646 1212.1008 C 2384.3314 1211.7016 2385.1451 1211.1022 2385.8339 1210.3385 C 2386.5308 1209.5514 2387.0424 1208.5761 2387.425 1207.3899 C 2387.7876 1206.2032 2387.997 1204.8283 2387.997 1203.2541 C 2387.997 1201.5506 2387.8117 1200.117 2387.4492 1198.9657 C 2387.0907 1197.8145 2386.5751 1196.8626 2385.9145 1196.1694 L 2385.9386 1196.1577 Z M 2377.407 1182.3294 C 2365.8381 1182.3294 2356.4605 1191.7988 2356.4605 1203.4773 C 2356.4605 1215.1558 2365.8381 1224.6252 2377.407 1224.6252 C 2388.9759 1224.6252 2398.3535 1215.1558 2398.3535 1203.4773 C 2398.3535 1191.7988 2388.9759 1182.3294 2377.407 1182.3294 Z M 2371.0425 1216.1543 L 2366.6679 1216.1543 L 2366.6679 1190.7769 L 2371.0425 1190.7769 L 2371.0425 1216.1543 Z M 2391.5338 1208.8464 C 2390.9295 1210.4327 2390.1158 1211.7721 2389.0685 1212.8645 C 2388.0091 1213.9574 2386.7523 1214.7795 2385.2982 1215.3318 C 2383.852 1215.884 2382.2247 1216.1894 2380.5006 1216.1894 L 2374.9861 1216.1894 L 2374.9861 1190.7769 L 2380.8631 1190.7769 C 2382.5147 1190.7769 2384.0535 1190.9884 2385.4714 1191.4464 C 2386.8893 1191.8693 2388.0897 1192.598 2389.1128 1193.5728 C 2390.136 1194.5481 2390.9537 1195.8524 2391.5217 1197.4383 C 2392.1259 1199.0246 2392.3958 1200.9984 2392.3958 1203.3363 C 2392.3958 1205.404 2392.0937 1207.2251 2391.5217 1208.8464 L 2391.5338 1208.8464 Z M 2217.4087 1350.1663 C 2225.7829 1352.9805 2231.815 1360.8939 2231.815 1370.2164 C 2231.815 1381.8961 2222.3467 1391.3643 2210.6671 1391.3643 C 2210.3646 1391.3643 2210.0636 1391.3577 2209.764 1391.3451 L 2219.4532 1366.8347 L 2220.2269 1367.1094 L 2218.405 1381.2117 L 2223.2722 1382.9837 L 2223.2722 1360.2703 L 2219.1787 1358.7477 L 2204.6521 1374.5722 L 2203.8783 1374.2976 L 2217.4087 1350.1663 Z M 2210.6675 1349.0689 C 2210.9781 1349.0689 2211.2866 1349.0759 2211.5939 1349.0892 L 2201.8815 1373.574 L 2201.1078 1373.2993 L 2202.9296 1359.2219 L 2198.0625 1357.4499 L 2198.0625 1380.1629 L 2202.1559 1381.6855 L 2216.6825 1365.8361 L 2217.4563 1366.1108 L 2203.9116 1390.2623 C 2195.545 1387.4439 2189.5196 1379.5341 2189.5196 1370.2168 C 2189.5196 1358.5372 2198.9879 1349.0689 2210.6675 1349.0689 Z"/>
</svg>