<svg xmlns="http://www.w3.org/2000/svg" viewBox="1161 291 1540 1406">
<path fill="#9A35A0" fill-rule="evenodd" d="M 2377.407 1008.9205 C 2362.1897 1008.9205 2349.8548 1021.3763 2349.8548 1036.7377 C 2349.8548 1052.0991 2362.1897 1064.5548 2377.407 1064.5548 C 2392.6243 1064.5548 2404.9592 1052.0991 2404.9592 1036.7377 C 2404.9592 1021.3763 2392.6243 1008.9205 2377.407 1008.9205 Z M 2390.4996 1055.5452 L 2364.4892 1055.5452 L 2364.4892 1017.9301 L 2377.4706 1028.1917 L 2390.5102 1017.9608 L 2390.5102 1036.2433 L 2368.6645 1036.2121 C 2368.6539 1036.4749 2368.638 1036.7223 2368.638 1037.0005 L 2368.638 1037.294 C 2368.638 1043.1049 2372.3999 1046.968 2377.4706 1046.968 C 2380.0085 1046.968 2382.4141 1045.7165 2383.9559 1042.9035 C 2385.6726 1045.7165 2387.9669 1046.968 2390.4943 1046.968 L 2390.4996 1055.5606 L 2390.4996 1055.5452 Z M 2381.7994 1039.1331 C 2381.6034 1042.3631 2380.0403 1043.7847 2377.4812 1043.7847 C 2374.9273 1043.7847 2372.935 1042.0383 2372.5218 1039.1331 L 2381.7994 1039.1331 Z M 2390.4625 1043.7847 C 2387.9086 1043.7847 2386.3456 1042.3472 2386.1495 1039.1331 L 2395.5279 1039.1331 C 2395.1146 1042.0383 2392.9422 1043.7847 2390.4625 1043.7847 Z M 2369.44 526.5234 C 2368.0103 525.6177 2366.1394 525.4179 2364.4812 526.1705 C 2363.5192 526.6005 2362.7751 527.2914 2362.2596 528.1051 C 2362.4775 527.7979 2362.7432 527.6289 2363.1312 527.4753 C 2364.1676 527.0459 2366.2776 527.7825 2367.4097 529.6406 C 2368.1697 529.226 2368.9563 528.796 2369.7801 528.3815 C 2370.1362 528.1971 2370.4764 528.028 2370.8484 527.8441 C 2370.4764 527.3068 2369.9502 526.846 2369.4559 526.5234 L 2369.44 526.5234 Z M 2371.9486 523.0841 C 2371.0982 523.4679 2370.4285 524.0823 2370.014 524.8194 C 2370.2159 524.4968 2370.4445 524.297 2370.7421 524.1588 C 2371.8901 523.6215 2373.6387 524.4506 2374.5848 526.1243 C 2374.5529 526.1243 2374.5263 526.1551 2374.4944 526.1705 C 2375.5308 525.7097 2376.5725 525.2797 2377.5771 524.896 C 2376.5088 522.9768 2374.0427 522.1785 2371.9486 523.0995 L 2371.9486 523.0841 Z M 2377.407 508.8817 C 2361.9991 508.8817 2349.5038 521.2569 2349.5038 536.5191 C 2349.5038 551.7813 2361.9991 564.1565 2377.407 564.1565 C 2392.8148 564.1565 2405.3101 551.7813 2405.3101 536.5191 C 2405.3101 521.2569 2392.8148 508.8817 2377.407 508.8817 Z M 2394.1967 538.5303 C 2391.6987 540.9257 2388.074 542.8911 2383.9974 544.0886 L 2381.9937 544.6721 L 2383.8114 545.6549 C 2385.8577 546.7604 2388.5204 548.8177 2390.3062 550.4914 C 2388.5204 552.4106 2385.746 554.4069 2382.3498 555.6043 C 2382.3498 555.6043 2382.1957 555.3434 2381.8555 554.7752 C 2378.4009 549.1707 2374.1064 544.8566 2369.2858 541.0947 C 2369.2858 541.0947 2372.2781 541.3711 2373.7185 541.3711 C 2382.9238 541.3711 2392.3365 538.1311 2396.987 534.2008 C 2396.7053 535.5826 2395.7593 537.0256 2394.1967 538.5154 L 2394.1967 538.5303 Z M 2397.7896 532.0509 C 2393.9947 536.7647 2378.8048 542.5685 2366.926 539.7282 C 2366.5115 539.6209 2366.2457 540.1582 2366.6178 540.4038 C 2374.7549 545.624 2379.0971 551.8116 2381.3931 555.8499 C 2375.5627 557.6925 2367.8136 557.2163 2361.6271 552.1342 C 2362.2596 549.8467 2363.2853 547.7888 2364.6353 546.0386 C 2361.1753 545.0405 2358.773 543.2749 2358.183 540.8794 C 2357.7525 539.0984 2358.4328 537.21 2359.8413 535.3828 C 2358.183 531.1606 2359.2566 526.7232 2362.621 524.8652 C 2364.0454 524.0823 2365.6877 523.8675 2367.33 524.1439 C 2367.8402 523.1458 2368.6002 522.3321 2369.61 521.7639 C 2372.4907 520.1668 2376.4131 521.3185 2378.9749 524.3124 C 2387.9305 520.9502 2395.7327 521.4567 2397.8693 525.4487 C 2399.6657 528.8115 2397.9171 531.8973 2397.8693 531.9589 L 2397.8215 532.0206 L 2397.7896 532.0509 Z M 2464.4335 691.5701 C 2462.3288 693.3995 2459.209 693.3995 2457.1096 691.5701 C 2451.8425 686.9972 2444.6568 694.252 2449.1851 699.569 C 2450.9975 701.6928 2450.9975 704.8398 2449.1851 706.9636 C 2444.6568 712.2806 2451.8425 719.5354 2457.1096 714.9625 C 2459.209 713.1331 2462.3288 713.1331 2464.4335 714.9625 C 2469.6952 719.5354 2476.881 712.2806 2472.3527 706.9636 C 2470.5403 704.8398 2470.5403 701.6928 2472.3527 699.569 C 2476.881 694.252 2469.6952 686.9972 2464.4335 691.5701 Z M 2460.7769 708.5134 C 2457.9068 708.5134 2455.5736 706.1573 2455.5736 703.2586 C 2455.5736 700.3599 2457.9068 698.0038 2460.7769 698.0038 C 2463.6469 698.0038 2465.9801 700.3599 2465.9801 703.2586 C 2465.9801 706.1573 2463.6469 708.5134 2460.7769 708.5134 Z M 2460.7769 675.3555 C 2445.5125 675.3555 2433.1394 687.8497 2433.1394 703.2586 C 2433.1394 718.6675 2445.5125 731.1618 2460.7769 731.1618 C 2476.0412 731.1618 2488.4143 718.6675 2488.4143 703.2586 C 2488.4143 687.8497 2476.0412 675.3555 2460.7769 675.3555 Z M 2478.0981 716.9157 C 2477.1573 718.4815 2475.8552 719.7991 2474.3032 720.7446 C 2471.6299 722.3725 2468.0104 722.3725 2460.7769 722.3725 C 2453.5433 722.3725 2449.9239 722.3725 2447.2505 720.7446 C 2445.6985 719.7991 2444.3964 718.4815 2443.4556 716.9157 C 2441.8452 714.2184 2441.8452 710.5602 2441.8452 703.2586 C 2441.8452 695.9575 2441.8452 692.2988 2443.4556 689.6015 C 2444.3964 688.0357 2445.6985 686.7181 2447.2505 685.7726 C 2449.9239 684.1447 2453.5433 684.1452 2460.7769 684.1452 C 2468.0104 684.1452 2471.6299 684.1447 2474.3032 685.7726 C 2475.8552 686.7181 2477.1573 688.0357 2478.0981 689.6015 C 2479.7085 692.2988 2479.7085 695.9575 2479.7085 703.2586 C 2479.7085 710.5602 2479.7085 714.2184 2478.0981 716.9157 Z M 1913.502 1443.8897 C 1912.6215 1442.9558 1911.5862 1442.2711 1910.3374 1441.8666 C 1909.1367 1441.4616 1907.7813 1441.2593 1906.2977 1441.2593 L 1904.7875 1441.2593 L 1904.7875 1465.774 L 1905.8228 1465.774 L 1905.8228 1465.8204 C 1907.381 1465.8204 1908.8112 1465.5402 1910.092 1465.0108 C 1911.3727 1464.482 1912.4507 1463.6879 1913.3632 1462.6761 C 1914.2864 1461.6334 1914.9642 1460.3414 1915.4711 1458.7699 C 1915.9514 1457.1977 1916.2289 1455.3764 1916.2289 1453.2909 C 1916.2289 1451.0341 1915.9834 1449.1349 1915.5031 1447.6097 C 1915.0282 1446.0845 1914.3451 1444.8235 1913.47 1443.9051 L 1913.502 1443.8897 Z M 1902.1993 1425.5701 C 1886.873 1425.5701 1874.4497 1438.1151 1874.4497 1453.5865 C 1874.4497 1469.058 1886.873 1481.603 1902.1993 1481.603 C 1917.5257 1481.603 1929.949 1469.058 1929.949 1453.5865 C 1929.949 1438.1151 1917.5257 1425.5701 1902.1993 1425.5701 Z M 1893.7677 1470.3809 L 1887.9723 1470.3809 L 1887.9723 1436.7612 L 1893.7677 1436.7612 L 1893.7677 1470.3809 Z M 1920.9143 1460.6995 C 1920.1139 1462.801 1919.0359 1464.5754 1917.6484 1466.0226 C 1916.2449 1467.4704 1914.5799 1468.5596 1912.6535 1469.2912 C 1910.7377 1470.0229 1908.5818 1470.4274 1906.2977 1470.4274 L 1898.9921 1470.4274 L 1898.9921 1436.7612 L 1906.778 1436.7612 C 1908.966 1436.7612 1911.0045 1437.0414 1912.8829 1437.6481 C 1914.7614 1438.2085 1916.3516 1439.1738 1917.7071 1440.4653 C 1919.0626 1441.7572 1920.1459 1443.4852 1920.8983 1445.5861 C 1921.6988 1447.6876 1922.0563 1450.3025 1922.0563 1453.3998 C 1922.0563 1456.139 1921.6561 1458.5516 1920.8983 1460.6995 L 1920.9143 1460.6995 Z M 1902.1993 591.8443 C 1886.7134 591.8443 1874.1548 604.4019 1874.1548 619.8889 C 1874.1548 635.3758 1886.7134 647.9334 1902.1993 647.9334 C 1917.6853 647.9334 1930.2439 635.3758 1930.2439 619.8889 C 1930.2439 604.4019 1917.6853 591.8443 1902.1993 591.8443 Z M 1916.8466 608.9045 L 1923.2194 608.9045 L 1922.3006 611.3195 L 1915.9278 611.3195 L 1916.8466 608.9045 Z M 1888.0222 629.0346 L 1893.2091 615.8066 L 1889.7209 615.8066 L 1884.331 629.455 L 1879.5928 630.0159 L 1886.6012 612.0829 L 1899.1759 612.0829 L 1892.7443 628.5047 L 1888.0061 629.0346 L 1888.0222 629.0346 Z M 1902.7122 627.4919 C 1901.0936 628.1617 1898.5669 628.3177 1897.2154 627.0399 C 1895.7197 625.6377 1895.9387 623.0982 1896.4676 621.2131 L 1900.7998 621.2131 C 1900.6128 621.8984 1900.0786 623.7681 1900.9387 624.111 C 1902.0605 624.5629 1903.1983 622.3039 1903.5722 621.587 C 1903.663 621.4155 1903.7431 621.1976 1903.7431 621.1821 L 1901.3607 621.1821 L 1902.5733 618.0972 L 1904.9237 618.0972 C 1905.1427 617.5208 1905.6288 615.6197 1904.7848 615.4797 C 1903.7591 615.3237 1902.9151 616.7415 1902.4023 617.5053 L 1898.1022 617.5053 C 1898.1022 617.5053 1898.0701 617.4738 1898.0701 617.4583 C 1898.0701 617.4273 1898.1502 617.3023 1898.1663 617.2404 C 1899.7047 613.7346 1902.4504 611.304 1906.2324 611.647 C 1910.5059 612.0364 1910.0198 616.4925 1908.8819 619.7484 C 1907.7762 622.9113 1905.7837 626.1986 1902.6961 627.4764 L 1902.7122 627.4919 Z M 1919.5549 625.4668 L 1916.7024 625.8092 L 1916.7504 623.8616 L 1916.4727 623.8616 C 1915.3829 625.2798 1913.9139 626.6195 1912.0283 626.7285 C 1908.679 626.931 1907.9952 624.2825 1909.0102 621.587 L 1912.7174 612.0829 L 1917.2365 612.0829 C 1917.2365 612.0829 1914.8808 617.9412 1914.0421 620.2318 C 1913.7109 621.1351 1913.0913 622.8338 1914.7099 622.7403 C 1916.0186 622.6623 1916.7024 621.1506 1917.1244 620.0913 L 1920.2547 612.0829 L 1924.7738 612.0829 L 1919.5549 625.4668 Z M 2328.0496 1093.3344 C 2339.2314 1097.0922 2347.286 1107.6587 2347.286 1120.107 C 2347.286 1135.7025 2334.6432 1148.3453 2319.0476 1148.3453 C 2318.6436 1148.3453 2318.2418 1148.3365 2317.8418 1148.3196 L 2330.7795 1115.5913 L 2331.8126 1115.9582 L 2329.3799 1134.7888 L 2335.8789 1137.1548 L 2335.8789 1106.8261 L 2330.413 1104.793 L 2311.0159 1125.9231 L 2309.9826 1125.5564 L 2328.0496 1093.3344 Z M 2319.0481 1091.869 C 2319.4628 1091.869 2319.8748 1091.8784 2320.2851 1091.8961 L 2307.3164 1124.5902 L 2306.2832 1124.2234 L 2308.7159 1105.4261 L 2302.2169 1103.06 L 2302.2169 1133.3883 L 2307.6827 1135.4214 L 2327.0798 1114.2579 L 2328.1131 1114.6247 L 2310.0271 1146.8738 C 2298.8552 1143.1104 2290.8097 1132.5487 2290.8097 1120.1074 C 2290.8097 1104.5119 2303.4526 1091.869 2319.0481 1091.869 Z M 1982.5936 623.2085 C 1986.149 627.0025 1989.8887 630.1167 1993.2437 631.9346 C 1996.8587 633.895 1999.0809 633.8315 1999.612 633.2939 C 2000.0673 632.8196 2000.1486 630.9227 1998.501 627.0659 C 1997.1243 623.7462 1994.4957 619.7463 1991.4117 616.0949 C 1991.8616 615.6841 1982.0136 623.6828 1982.6098 623.2085 L 1982.5936 623.2085 Z M 1985.5691 591.4344 C 1970.0031 591.4344 1957.3856 604.1755 1957.3856 619.8889 C 1957.3856 635.6022 1970.0031 648.3433 1985.5691 648.3433 C 2001.135 648.3433 2013.7526 635.6022 2013.7526 619.8889 C 2013.7526 604.1755 2001.135 591.4344 1985.5691 591.4344 Z M 2001.3843 634.8592 C 2001.3193 635.0012 2001.1784 635.128 2001.0537 635.27 L 2000.9941 635.3334 L 2000.7394 635.6179 C 1992.3982 643.5375 1979.1953 643.0004 1971.4448 634.4006 C 1964.0846 626.2122 1964.2255 613.4077 1971.5099 605.3614 C 1976.9569 599.1962 1986.0244 596.967 1993.6502 599.8125 C 1995.4821 600.4293 1997.2002 601.3777 1998.7665 602.5159 C 1999.8776 603.3219 2000.9291 604.2703 2001.9155 605.3614 C 2001.9155 605.3614 2003.0266 606.5787 1992.9727 614.7671 L 1993.1786 615.0359 C 2000.2082 623.3034 2003.7474 631.7606 2001.3843 634.8749 L 2001.3843 634.8592 Z M 1399.0052 789.9481 C 1402.5606 793.742 1406.3004 796.8563 1409.6553 798.6741 C 1413.2704 800.6345 1415.4925 800.5711 1416.0237 800.0334 C 1416.4789 799.5592 1416.5602 797.6622 1414.9126 793.8054 C 1413.5359 790.4858 1410.9073 786.4859 1407.8234 782.8345 C 1408.2732 782.4237 1398.4253 790.4223 1399.0214 789.9481 L 1399.0052 789.9481 Z M 1401.9807 758.174 C 1386.4148 758.174 1373.7973 770.9151 1373.7973 786.6284 C 1373.7973 802.3418 1386.4148 815.0829 1401.9807 815.0829 C 1417.5467 815.0829 1430.1642 802.3418 1430.1642 786.6284 C 1430.1642 770.9151 1417.5467 758.174 1401.9807 758.174 Z M 1417.796 801.5987 C 1417.7309 801.7407 1417.59 801.8675 1417.4654 802.0095 L 1417.4057 802.073 L 1417.151 802.3575 C 1408.8098 810.2771 1395.6069 809.7399 1387.8565 801.1402 C 1380.4962 792.9518 1380.6372 780.1473 1387.9215 772.1009 C 1393.3685 765.9358 1402.436 763.7066 1410.0618 766.552 C 1411.8937 767.1688 1413.6118 768.1173 1415.1782 769.2555 C 1416.2892 770.0614 1417.3407 771.0099 1418.3271 772.1009 C 1418.3271 772.1009 1419.4382 773.3182 1409.3843 781.5066 L 1409.5902 781.7754 C 1416.6199 790.043 1420.159 798.5002 1417.796 801.6144 L 1417.796 801.5987 Z M 1793.8186 1341.7357 C 1809.5439 1341.7357 1822.2997 1354.4786 1822.2997 1370.2168 C 1822.2997 1385.955 1809.5568 1398.6979 1793.8186 1398.6979 C 1778.0804 1398.6979 1765.3375 1385.955 1765.3375 1370.2168 C 1765.3375 1354.4786 1778.0804 1341.7357 1793.8186 1341.7357 Z M 1795.0452 1352.3484 C 1785.9689 1352.3484 1781.179 1357.0351 1781.179 1363.9036 C 1781.179 1369.4034 1783.8128 1372.6569 1788.4865 1376.0008 L 1780.3527 1388.0984 L 1787.0792 1388.0984 L 1796.1168 1374.5421 L 1792.9663 1372.4248 C 1789.1577 1369.8684 1787.3116 1367.8671 1787.3116 1363.542 C 1787.3117 1359.7334 1789.9841 1357.1771 1795.0839 1357.1771 L 1797.8724 1357.1771 L 1797.8724 1388.0853 L 1804.0825 1388.0853 L 1804.0825 1352.3484 L 1795.0452 1352.3484 Z M 2112.4885 540.3945 L 2111.8268 540.3945 L 2111.8268 544.2699 L 2112.4885 544.2699 C 2113.4202 544.2699 2113.8393 543.3376 2113.8393 542.3242 C 2113.8393 541.1824 2113.4202 540.3945 2112.4885 540.3945 Z M 2145.2935 524.33 C 2144.5547 524.33 2144.1357 525.2143 2144.1357 528.9932 C 2144.1357 532.7722 2144.5547 533.6565 2145.2935 533.6565 C 2146.0323 533.6565 2146.4514 532.7722 2146.4514 528.9932 C 2146.4514 525.2143 2146.0323 524.33 2145.2935 524.33 Z M 2128.6484 540.861 C 2128.6319 541.0859 2128.5492 541.7613 2128.4389 542.5012 L 2127.8269 546.7466 L 2129.4864 546.7466 L 2128.8745 542.5012 C 2128.7752 541.8903 2128.6815 541.0859 2128.6649 540.861 L 2128.6484 540.861 Z M 2117.8586 526.5491 C 2117.7593 525.9377 2117.6656 525.1498 2117.6491 524.9089 C 2117.6325 525.1338 2117.5498 525.8092 2117.4395 526.5491 L 2116.8276 530.7945 L 2118.4871 530.7945 L 2117.8751 526.5491 L 2117.8586 526.5491 Z M 2127.2976 507.5735 C 2111.3141 507.5735 2098.352 520.5345 2098.352 536.5191 C 2098.352 552.5037 2111.3141 565.4648 2127.2976 565.4648 C 2143.2811 565.4648 2156.2433 552.5037 2156.2433 536.5191 C 2156.2433 520.5345 2143.2811 507.5735 2127.2976 507.5735 Z M 2136.4334 521.8853 C 2138.8262 521.8853 2139.8242 523.7345 2140.3094 525.4233 L 2137.7842 526.4041 C 2137.2053 524.8124 2136.88 524.33 2136.4169 524.33 C 2135.5457 524.33 2135.2094 525.4878 2135.2094 528.9613 C 2135.2094 532.4347 2135.5788 533.6086 2136.4499 533.6086 C 2137.2494 533.6086 2137.6353 532.1453 2137.6353 530.8584 L 2137.6353 530.6815 L 2136.1743 530.6815 L 2136.1743 528.1089 L 2140.3369 528.1089 L 2140.3369 535.8597 L 2138.1701 535.8597 L 2137.9937 534.7179 C 2137.4754 535.6507 2136.7863 536.0846 2135.8214 536.0846 C 2133.4561 536.0846 2132.0557 533.2871 2132.0557 528.9932 C 2132.0557 524.6994 2133.3624 521.9013 2136.4499 521.9013 L 2136.4334 521.8853 Z M 2123.0357 522.1588 L 2126.3493 522.1588 L 2128.1798 528.6553 C 2128.3617 529.2667 2128.5381 530.0226 2128.5988 530.2475 C 2128.5822 529.9901 2128.5657 529.3472 2128.5657 528.5913 L 2128.5657 522.1588 L 2131.3665 522.1588 L 2131.3665 535.8437 L 2128.1357 535.8437 L 2126.2225 529.0252 C 2126.0461 528.4143 2125.8641 527.6584 2125.8035 527.4335 C 2125.82 527.6904 2125.8365 528.3338 2125.8365 529.0897 L 2125.8365 535.8597 L 2123.0357 535.8597 L 2123.0357 522.1588 Z M 2119.8048 522.1588 L 2122.3631 535.8437 L 2119.2094 535.8437 L 2118.84 533.383 L 2116.4416 533.383 L 2116.0722 535.8437 L 2113.1446 535.8437 L 2115.6863 522.1588 L 2119.8048 522.1588 Z M 2109.2851 522.1588 L 2110.0901 525.6967 C 2110.25 526.3076 2110.3989 527.0795 2110.4154 527.321 C 2110.4264 527.0955 2110.5918 526.4361 2110.7683 525.6967 L 2111.6339 522.1588 L 2114.7545 522.1588 L 2111.8599 531.0999 L 2111.8599 535.8437 L 2108.822 535.8437 L 2108.822 531.0839 L 2105.9274 522.1588 L 2109.2851 522.1588 Z M 2112.9351 546.5696 L 2111.8434 546.5696 L 2111.8434 551.7958 L 2108.8055 551.7958 L 2108.8055 538.1108 L 2113.1611 538.1108 C 2115.2672 538.1108 2116.7945 539.9441 2116.7945 542.3562 C 2116.7945 544.7683 2115.2507 546.5696 2112.9351 546.5696 Z M 2123.5485 551.7958 L 2117.3899 551.7958 L 2117.3899 538.1108 L 2120.4334 538.1108 L 2120.4334 549.2072 L 2123.5485 549.2072 L 2123.5485 551.7958 Z M 2130.1922 551.7958 L 2129.8228 549.3357 L 2127.4244 549.3357 L 2127.055 551.7958 L 2124.1274 551.7958 L 2126.6691 538.1108 L 2130.7711 538.1108 L 2133.3293 551.7958 L 2130.1756 551.7958 L 2130.1922 551.7958 Z M 2137.6188 547.052 L 2137.6188 551.7958 L 2134.5809 551.7958 L 2134.5809 547.036 L 2131.6863 538.1108 L 2135.033 538.1108 L 2135.838 541.6648 C 2135.9978 542.2763 2136.1412 543.0481 2136.1577 543.2891 C 2136.1743 543.0641 2136.3342 542.4047 2136.5106 541.6648 L 2137.3817 538.1108 L 2140.5023 538.1108 L 2137.6078 547.052 L 2137.6188 547.052 Z M 2145.2935 536.1012 C 2142.5589 536.1012 2140.982 533.753 2140.982 528.9932 C 2140.982 524.2335 2142.5589 521.8853 2145.2935 521.8853 C 2148.0282 521.8853 2149.5995 524.2335 2149.5995 528.9932 C 2149.5995 533.753 2148.0282 536.1012 2145.2935 536.1012 Z M 2411.6449 925.9243 C 2423.1068 929.7762 2431.3631 940.6074 2431.3631 953.3674 C 2431.3631 969.3536 2418.4037 982.3131 2402.4175 982.3131 C 2402.0034 982.3131 2401.5915 982.304 2401.1814 982.2867 L 2414.4431 948.7387 L 2415.5022 949.1147 L 2413.0085 968.417 L 2419.6703 970.8423 L 2419.6703 939.7539 L 2414.0675 937.6699 L 2394.1846 959.3293 L 2393.1255 958.9534 L 2411.6449 925.9243 Z M 2402.418 924.4223 C 2402.8431 924.4223 2403.2654 924.4319 2403.686 924.4501 L 2390.3924 957.9629 L 2389.3334 957.587 L 2391.8269 938.3189 L 2385.1652 935.8935 L 2385.1652 966.9814 L 2390.7679 969.0654 L 2410.6509 947.3719 L 2411.71 947.7479 L 2393.171 980.8047 C 2381.7194 976.947 2373.4723 966.1208 2373.4723 953.3679 C 2373.4723 937.3818 2386.4319 924.4223 2402.418 924.4223 Z M 2043.928 1341.5468 C 2059.9115 1341.5468 2072.8736 1354.3844 2072.8736 1370.2168 C 2072.8736 1386.0492 2059.9115 1398.8868 2043.928 1398.8868 C 2027.9445 1398.8868 2014.9823 1386.0492 2014.9823 1370.2168 C 2014.9823 1354.3844 2027.9445 1341.5468 2043.928 1341.5468 Z M 2048.449 1356.1685 L 2036.6447 1346.8188 L 2035.6137 1347.0895 L 2044.6999 1358.4301 L 2026.6598 1352.4414 L 2025.8052 1353.3655 L 2041.9321 1362.4439 L 2019.757 1364.3075 L 2019.5309 1365.6296 L 2042.6103 1368.1145 L 2023.3297 1383.8031 L 2024.2119 1384.9978 L 2047.0651 1372.5898 L 2042.5606 1394.3475 L 2043.9445 1394.3475 L 2052.7716 1373.8645 L 2058.1141 1389.8717 L 2059.0459 1389.155 L 2057.0335 1373.1158 L 2065.1879 1382.2902 L 2065.6841 1381.3661 L 2059.6248 1370.0255 L 2068.2258 1373.0358 L 2068.325 1372.0963 L 2061.152 1366.3783 L 2067.8729 1364.8649 L 2067.7461 1363.8934 L 2059.7185 1362.0299 L 2063.8702 1355.9138 L 2063.385 1355.2445 L 2056.9232 1358.3827 L 2057.6289 1349.8291 L 2056.9232 1349.479 L 2052.9149 1356.3438 L 2048.1899 1346.0226 L 2047.3077 1346.0226 L 2048.4656 1356.1365 L 2048.449 1356.1685 Z M 2161.5752 1259.2854 C 2173.0863 1263.1539 2181.3782 1274.0317 2181.3782 1286.8466 C 2181.3782 1302.9015 2168.363 1315.9167 2152.3081 1315.9167 C 2151.8922 1315.9167 2151.4785 1315.9075 2151.0667 1315.8902 L 2164.3855 1282.198 L 2165.4491 1282.5756 L 2162.9447 1301.9608 L 2169.6351 1304.3966 L 2169.6351 1273.1745 L 2164.0082 1271.0816 L 2144.0398 1292.834 L 2142.9761 1292.4565 L 2161.5752 1259.2854 Z M 2152.3086 1257.777 C 2152.7355 1257.777 2153.1597 1257.7866 2153.5821 1257.8049 L 2140.2313 1291.4618 L 2139.1677 1291.0843 L 2141.672 1271.7333 L 2134.9817 1269.2975 L 2134.9817 1300.5191 L 2140.6085 1302.612 L 2160.5769 1280.8253 L 2161.6406 1281.2029 L 2143.0219 1314.4018 C 2131.521 1310.5275 2123.2385 1299.6547 2123.2385 1286.847 C 2123.2385 1270.7922 2136.2538 1257.777 2152.3086 1257.777 Z M 1739.3948 536.5191 C 1739.3948 552.5132 1726.4284 565.4818 1710.4433 565.4818 C 1694.4526 565.4818 1681.4862 552.5132 1681.4862 536.5191 C 1681.4862 520.525 1694.4526 507.5565 1710.4433 507.5565 C 1713.5623 507.5565 1716.57 508.0555 1719.3994 508.9723 L 1712.8049 529.2784 L 1693.5336 529.2784 L 1691.1887 536.5191 L 1710.4544 536.5191 L 1704.8123 553.8967 L 1712.7714 553.8967 L 1718.4192 536.5191 L 1739.4115 536.5191 L 1739.3948 536.5191 Z M 1738.4758 529.2784 L 1720.7529 529.2784 L 1726.2836 512.2707 C 1732.2377 516.165 1736.6601 522.1987 1738.4758 529.2784 Z M 1598.057 1123.9048 L 1570.96 1122.0916 L 1595.7778 1132.0069 C 1596.9061 1129.4749 1597.6847 1126.7539 1598.057 1123.9048 Z M 1592.4943 1137.6029 C 1587.1234 1144.7893 1578.5311 1149.4442 1568.8443 1149.4442 C 1552.5737 1149.4442 1539.3834 1136.3098 1539.3834 1120.1074 C 1539.3834 1103.905 1552.5737 1090.7706 1568.8443 1090.7706 C 1578.548 1090.7706 1587.1573 1095.4431 1592.5225 1102.6526 L 1567.9135 1115.7707 L 1583.7497 1099.5717 L 1574.9712 1099.5717 L 1564.1899 1114.4753 L 1564.1899 1099.5717 L 1557.0588 1099.5717 L 1557.0588 1140.6432 L 1564.1899 1140.6432 L 1564.1899 1125.7638 L 1574.9712 1140.6432 L 1583.7497 1140.6432 L 1568.3253 1124.9531 L 1592.4943 1137.6029 Z M 1595.7778 1108.2074 L 1571.1349 1118.0527 L 1598.057 1116.3094 C 1597.6847 1113.4604 1596.9061 1110.7394 1595.7778 1108.2074 Z M 1618.0975 1231.4065 C 1620.9353 1232.3114 1623.948 1232.8141 1627.0791 1232.8141 C 1627.3386 1232.8141 1627.6151 1232.8141 1627.8802 1232.8141 L 1629.9451 1214.4295 L 1622.6447 1217.1612 L 1618.0975 1231.4229 L 1618.0975 1231.4065 Z M 1636.9239 1211.7982 L 1634.6559 1231.8251 C 1643.6882 1229.4122 1651.0055 1222.8091 1654.3962 1214.2281 C 1655.5866 1211.1951 1656.3031 1207.9269 1656.4159 1204.508 L 1636.9239 1211.8152 L 1636.9239 1211.7982 Z M 1612.0383 1228.6579 L 1614.7576 1220.1107 L 1605.6632 1223.5296 C 1607.5363 1225.5239 1609.6745 1227.2666 1612.0383 1228.6748 L 1612.0383 1228.6579 Z M 1627.8464 1174.1574 L 1627.0791 1174.1574 C 1610.8762 1174.1574 1597.7423 1187.2794 1597.7423 1203.4688 C 1597.7423 1208.7816 1599.1584 1213.7587 1601.6238 1218.0661 L 1617.2682 1212.2005 L 1629.3753 1174.2246 C 1628.8732 1174.1907 1628.3485 1174.1574 1627.8294 1174.1405 L 1627.8464 1174.1574 Z M 1630.7631 1207.1557 L 1633.4655 1183.2073 L 1625.1722 1209.251 L 1630.7631 1207.1557 Z M 1654.3962 1192.7428 C 1651.8179 1186.19 1646.9491 1180.7937 1640.7884 1177.5424 L 1637.7363 1204.5413 L 1655.863 1197.7538 C 1655.5189 1196.028 1655.028 1194.3519 1654.3962 1192.7598 L 1654.3962 1192.7428 Z M 1810.3661 609.2703 C 1808.8473 608.3082 1806.8599 608.0959 1805.0983 608.8954 C 1804.0764 609.3521 1803.2859 610.0861 1802.7383 610.9505 C 1802.9698 610.6242 1803.2521 610.4447 1803.6642 610.2815 C 1804.7652 609.8253 1807.0067 610.6078 1808.2093 612.5817 C 1809.0167 612.1413 1809.8523 611.6845 1810.7275 611.2441 C 1811.1058 611.0482 1811.4671 610.8687 1811.8623 610.6733 C 1811.4671 610.1025 1810.9081 609.613 1810.3831 609.2703 L 1810.3661 609.2703 Z M 1813.0311 605.6167 C 1812.1277 606.0243 1811.4163 606.677 1810.9759 607.4601 C 1811.1904 607.1174 1811.4332 606.9051 1811.7494 606.7583 C 1812.969 606.1875 1814.8265 607.0683 1815.8315 608.8463 C 1815.7976 608.8463 1815.7694 608.879 1815.7355 608.8954 C 1816.8365 608.4059 1817.9432 607.9491 1819.0103 607.5414 C 1817.8754 605.5026 1815.2556 604.6546 1813.0311 605.6331 L 1813.0311 605.6167 Z M 1818.8296 590.5292 C 1802.4616 590.5292 1789.1877 603.6756 1789.1877 619.8889 C 1789.1877 636.1021 1802.4616 649.2485 1818.8296 649.2485 C 1835.1976 649.2485 1848.4715 636.1021 1848.4715 619.8889 C 1848.4715 603.6756 1835.1976 590.5292 1818.8296 590.5292 Z M 1836.6656 622.0253 C 1834.0119 624.57 1830.1613 626.6579 1825.8307 627.93 L 1823.7022 628.5499 L 1825.6331 629.5939 C 1827.8069 630.7683 1830.6355 632.9539 1832.5326 634.7318 C 1830.6355 636.7706 1827.6883 638.8913 1824.0804 640.1634 C 1824.0804 640.1634 1823.9167 639.8861 1823.5554 639.2826 C 1819.8854 633.3288 1815.3234 628.7459 1810.2024 624.7496 C 1810.2024 624.7496 1813.3811 625.0432 1814.9112 625.0432 C 1824.6902 625.0432 1834.6894 621.6013 1839.6297 617.426 C 1839.3305 618.894 1838.3255 620.4269 1836.6656 622.0095 L 1836.6656 622.0253 Z M 1840.4823 615.1422 C 1836.451 620.1497 1820.3145 626.3152 1807.6955 623.298 C 1807.2551 623.1839 1806.9728 623.7547 1807.3681 624.0156 C 1816.0122 629.5612 1820.625 636.1343 1823.0641 640.4242 C 1816.8704 642.3817 1808.6384 641.8758 1802.0664 636.477 C 1802.7383 634.047 1803.828 631.8608 1805.2621 630.0015 C 1801.5865 628.9412 1799.0344 627.0656 1798.4077 624.5209 C 1797.9504 622.6289 1798.6731 620.6228 1800.1693 618.6817 C 1798.4077 614.1965 1799.5482 609.4826 1803.1222 607.5087 C 1804.6353 606.677 1806.38 606.4489 1808.1246 606.7425 C 1808.6666 605.6822 1809.474 604.8178 1810.5468 604.2142 C 1813.607 602.5176 1817.7738 603.7411 1820.4952 606.9215 C 1830.0088 603.3498 1838.2973 603.8879 1840.567 608.1286 C 1842.4754 611.7009 1840.6178 614.979 1840.567 615.0445 L 1840.5162 615.11 L 1840.4823 615.1422 Z M 1547.641 523.9516 C 1545.378 525.9186 1542.0236 525.9186 1539.7663 523.9516 C 1534.1032 519.0348 1526.3771 526.8352 1531.2459 532.5521 C 1533.1945 534.8356 1533.1945 538.2192 1531.2459 540.5027 C 1526.3771 546.2196 1534.1032 554.02 1539.7663 549.1032 C 1542.0236 547.1362 1545.378 547.1362 1547.641 549.1032 C 1553.2984 554.02 1561.0245 546.2196 1556.1557 540.5027 C 1554.207 538.2192 1554.207 534.8356 1556.1557 532.5521 C 1561.0245 526.8352 1553.2984 519.0348 1547.641 523.9516 Z M 1543.7094 542.1691 C 1540.6235 542.1691 1538.1148 539.6358 1538.1148 536.5191 C 1538.1148 533.4024 1540.6235 530.8691 1543.7094 530.8691 C 1546.7952 530.8691 1549.3039 533.4024 1549.3039 536.5191 C 1549.3039 539.6358 1546.7952 542.1691 1543.7094 542.1691 Z M 1543.7094 506.5176 C 1527.2971 506.5176 1513.9936 519.9514 1513.9936 536.5191 C 1513.9936 553.0868 1527.2971 566.5206 1543.7094 566.5206 C 1560.1216 566.5206 1573.4251 553.0868 1573.4251 536.5191 C 1573.4251 519.9514 1560.1216 506.5176 1543.7094 506.5176 Z M 1562.3331 551.2033 C 1561.3216 552.8868 1559.9216 554.3034 1558.2529 555.32 C 1555.3785 557.0704 1551.4869 557.0704 1543.7094 557.0704 C 1535.9318 557.0704 1532.0402 557.0704 1529.1658 555.32 C 1527.4971 554.3034 1526.0971 552.8868 1525.0856 551.2033 C 1523.3541 548.3031 1523.3541 544.3698 1523.3541 536.5191 C 1523.3541 528.669 1523.3541 524.7351 1525.0856 521.835 C 1526.0971 520.1514 1527.4971 518.7348 1529.1658 517.7182 C 1532.0402 515.9678 1535.9318 515.9684 1543.7094 515.9684 C 1551.4869 515.9684 1555.3785 515.9678 1558.2529 517.7182 C 1559.9216 518.7348 1561.3216 520.1514 1562.3331 521.835 C 1564.0646 524.7351 1564.0646 528.669 1564.0646 536.5191 C 1564.0646 544.3698 1564.0646 548.3031 1562.3331 551.2033 Z M 2210.6675 1173.302 C 2194.1602 1173.302 2180.7796 1186.8136 2180.7796 1203.4773 C 2180.7796 1220.1409 2194.1602 1233.6526 2210.6675 1233.6526 C 2227.1748 1233.6526 2240.5554 1220.1409 2240.5554 1203.4773 C 2240.5554 1186.8136 2227.1748 1173.302 2210.6675 1173.302 Z M 2224.87 1223.8792 L 2196.6547 1223.8792 L 2196.6547 1183.0754 L 2210.7365 1194.2069 L 2224.8815 1183.1087 L 2224.8815 1202.941 L 2201.1838 1202.9071 C 2201.1723 1203.1922 2201.1551 1203.4606 2201.1551 1203.7624 L 2201.1551 1204.0808 C 2201.1551 1210.3843 2205.2359 1214.5749 2210.7365 1214.5749 C 2213.4896 1214.5749 2216.099 1213.2173 2217.7716 1210.1659 C 2219.6338 1213.2173 2222.1226 1214.5749 2224.8642 1214.5749 L 2224.87 1223.8959 L 2224.87 1223.8792 Z M 2215.4323 1206.0758 C 2215.2196 1209.5796 2213.5241 1211.1217 2210.7479 1211.1217 C 2207.9776 1211.1217 2205.8164 1209.2273 2205.3681 1206.0758 L 2215.4323 1206.0758 Z M 2224.8297 1211.1217 C 2222.0594 1211.1217 2220.3638 1209.5624 2220.1511 1206.0758 L 2230.3245 1206.0758 C 2229.8762 1209.2273 2227.5197 1211.1217 2224.8297 1211.1217 Z M 2402.418 589.9797 C 2419.0923 589.9797 2432.6147 603.3721 2432.6147 619.8889 C 2432.6147 636.4056 2419.0923 649.798 2402.418 649.798 C 2385.7436 649.798 2372.2212 636.4056 2372.2212 619.8889 C 2372.2212 603.3721 2385.7436 589.9797 2402.418 589.9797 Z M 2407.1344 605.2334 L 2394.8199 595.4795 L 2393.7443 595.762 L 2403.2232 607.5927 L 2384.4035 601.3452 L 2383.5119 602.3092 L 2400.3358 611.78 L 2377.2023 613.7241 L 2376.9664 615.1034 L 2401.0433 617.6957 L 2380.9294 634.0623 L 2381.8497 635.3087 L 2405.6907 622.3644 L 2400.9915 645.0626 L 2402.4352 645.0626 L 2411.6438 623.6942 L 2417.2172 640.3933 L 2418.1893 639.6456 L 2416.0899 622.9131 L 2424.5967 632.4841 L 2425.1144 631.5201 L 2418.7932 619.6893 L 2427.766 622.8297 L 2427.8695 621.8496 L 2420.3865 615.8845 L 2427.3979 614.3056 L 2427.2656 613.2922 L 2418.891 611.3481 L 2423.2221 604.9676 L 2422.7159 604.2694 L 2415.9749 607.5433 L 2416.7111 598.62 L 2415.9749 598.2548 L 2411.7933 605.4163 L 2406.8641 594.649 L 2405.9438 594.649 L 2407.1517 605.2 L 2407.1344 605.2334 Z M 2214.6551 523.7726 C 2212.3599 525.7676 2208.9577 525.7676 2206.6683 523.7726 C 2200.9244 518.7857 2193.0883 526.6972 2198.0264 532.4955 C 2200.0029 534.8116 2200.0029 538.2434 2198.0264 540.5595 C 2193.0883 546.3578 2200.9244 554.2693 2206.6683 549.2824 C 2208.9577 547.2875 2212.3599 547.2875 2214.6551 549.2824 C 2220.3931 554.2693 2228.2293 546.3578 2223.2911 540.5595 C 2221.3147 538.2434 2221.3147 534.8116 2223.2911 532.4955 C 2228.2293 526.6972 2220.3931 518.7857 2214.6551 523.7726 Z M 2210.6675 542.2496 C 2207.5376 542.2496 2204.9932 539.6802 2204.9932 536.5191 C 2204.9932 533.358 2207.5376 530.7886 2210.6675 530.7886 C 2213.7973 530.7886 2216.3418 533.358 2216.3418 536.5191 C 2216.3418 539.6802 2213.7973 542.2496 2210.6675 542.2496 Z M 2210.6675 506.0902 C 2194.0214 506.0902 2180.5284 519.7154 2180.5284 536.5191 C 2180.5284 553.3228 2194.0214 566.948 2210.6675 566.948 C 2227.3136 566.948 2240.8066 553.3228 2240.8066 536.5191 C 2240.8066 519.7154 2227.3136 506.0902 2210.6675 506.0902 Z M 2229.5566 551.4125 C 2228.5307 553.12 2227.1107 554.5568 2225.4183 555.5879 C 2222.5029 557.3632 2218.5558 557.3632 2210.6675 557.3632 C 2202.7791 557.3632 2198.8321 557.3632 2195.9167 555.5879 C 2194.2243 554.5568 2192.8043 553.12 2191.7784 551.4125 C 2190.0222 548.471 2190.0222 544.4816 2190.0222 536.5191 C 2190.0222 528.5572 2190.0222 524.5672 2191.7784 521.6257 C 2192.8043 519.9182 2194.2243 518.4814 2195.9167 517.4503 C 2198.8321 515.675 2202.7791 515.6756 2210.6675 515.6756 C 2218.5558 515.6756 2222.5029 515.675 2225.4183 517.4503 C 2227.1107 518.4814 2228.5307 519.9182 2229.5566 521.6257 C 2231.3128 524.5672 2231.3128 528.5572 2231.3128 536.5191 C 2231.3128 544.4816 2231.3128 548.471 2229.5566 551.4125 Z M 2303.7371 507.6692 C 2315.7863 511.7185 2324.4658 523.1047 2324.4658 536.5186 C 2324.4658 553.324 2310.8422 566.9475 2294.0368 566.9475 C 2293.6015 566.9475 2293.1685 566.938 2292.7374 566.9198 L 2306.6787 531.6527 L 2307.792 532.048 L 2305.1706 552.3393 L 2312.1738 554.8889 L 2312.1738 522.2075 L 2306.2839 520.0167 L 2285.382 542.7859 L 2284.2687 542.3908 L 2303.7371 507.6692 Z M 2294.0374 506.0902 C 2294.4843 506.0902 2294.9282 506.1003 2295.3703 506.1194 L 2281.3956 541.3496 L 2280.2823 540.9544 L 2282.9036 520.6989 L 2275.9005 518.1493 L 2275.9005 550.8302 L 2281.7903 553.021 L 2302.6922 530.2159 L 2303.8055 530.6111 L 2284.3165 565.3619 C 2272.2781 561.3065 2263.6084 549.9255 2263.6084 536.5191 C 2263.6084 519.7138 2277.2321 506.0902 2294.0374 506.0902 Z M 1735.4598 1256.4181 C 1752.2607 1256.4181 1765.8888 1270.0325 1765.8888 1286.847 C 1765.8888 1303.6616 1752.2744 1317.276 1735.4598 1317.276 C 1718.6453 1317.276 1705.0309 1303.6616 1705.0309 1286.847 C 1705.0309 1270.0325 1718.6453 1256.4181 1735.4598 1256.4181 Z M 1736.7703 1267.7566 C 1727.0733 1267.7566 1721.9558 1272.7638 1721.9558 1280.1021 C 1721.9558 1285.978 1724.7698 1289.454 1729.7631 1293.0267 L 1721.073 1305.9516 L 1728.2595 1305.9516 L 1737.9152 1291.4682 L 1734.5493 1289.206 C 1730.4801 1286.4748 1728.5078 1284.3367 1728.5078 1279.7158 C 1728.5079 1275.6466 1731.3631 1272.9156 1736.8116 1272.9156 L 1739.7909 1272.9156 L 1739.7909 1305.9376 L 1746.4257 1305.9376 L 1746.4257 1267.7566 L 1736.7703 1267.7566 Z M 1611.4793 540.6014 L 1610.7824 540.6014 L 1610.7824 544.6837 L 1611.4793 544.6837 C 1612.4608 544.6837 1612.9022 543.7016 1612.9022 542.6342 C 1612.9022 541.4314 1612.4608 540.6014 1611.4793 540.6014 Z M 1646.0358 523.6792 C 1645.2576 523.6792 1644.8162 524.6107 1644.8162 528.5914 C 1644.8162 532.5721 1645.2576 533.5037 1646.0358 533.5037 C 1646.8141 533.5037 1647.2555 532.5721 1647.2555 528.5914 C 1647.2555 524.6107 1646.8141 523.6792 1646.0358 523.6792 Z M 1628.502 541.0928 C 1628.4846 541.3297 1628.3975 542.0412 1628.2813 542.8206 L 1627.6367 547.2926 L 1629.3848 547.2926 L 1628.7401 542.8206 C 1628.6356 542.1771 1628.5369 541.3297 1628.5194 541.0928 L 1628.502 541.0928 Z M 1617.1361 526.0168 C 1617.0316 525.3727 1616.9328 524.5428 1616.9154 524.289 C 1616.898 524.526 1616.8109 525.2374 1616.6947 526.0168 L 1616.05 530.4888 L 1617.7982 530.4888 L 1617.1535 526.0168 L 1617.1361 526.0168 Z M 1627.0791 506.028 C 1610.2422 506.028 1596.588 519.6811 1596.588 536.5191 C 1596.588 553.3571 1610.2422 567.0102 1627.0791 567.0102 C 1643.916 567.0102 1657.5702 553.3571 1657.5702 536.5191 C 1657.5702 519.6811 1643.916 506.028 1627.0791 506.028 Z M 1636.7027 521.104 C 1639.2233 521.104 1640.2745 523.0519 1640.7856 524.8309 L 1638.1256 525.8641 C 1637.5158 524.1874 1637.1731 523.6792 1636.6852 523.6792 C 1635.7676 523.6792 1635.4133 524.8988 1635.4133 528.5577 C 1635.4133 532.2167 1635.8024 533.4532 1636.7201 533.4532 C 1637.5622 533.4532 1637.9688 531.9118 1637.9688 530.5562 L 1637.9688 530.3698 L 1636.4297 530.3698 L 1636.4297 527.6599 L 1640.8146 527.6599 L 1640.8146 535.8245 L 1638.5321 535.8245 L 1638.3463 534.6217 C 1637.8003 535.6044 1637.0744 536.0614 1636.058 536.0614 C 1633.5664 536.0614 1632.0913 533.1146 1632.0913 528.5914 C 1632.0913 524.0683 1633.4677 521.1208 1636.7201 521.1208 L 1636.7027 521.104 Z M 1622.5897 521.3921 L 1626.0802 521.3921 L 1628.0084 528.2354 C 1628.2 528.8795 1628.3859 529.6757 1628.4497 529.9127 C 1628.4323 529.6415 1628.4149 528.9643 1628.4149 528.168 L 1628.4149 521.3921 L 1631.3653 521.3921 L 1631.3653 535.8076 L 1627.9619 535.8076 L 1625.9466 528.6251 C 1625.7607 527.9816 1625.5691 527.1854 1625.5052 526.9484 C 1625.5226 527.219 1625.54 527.8968 1625.54 528.6931 L 1625.54 535.8245 L 1622.5897 535.8245 L 1622.5897 521.3921 Z M 1619.1863 521.3921 L 1621.8811 535.8076 L 1618.559 535.8076 L 1618.1699 533.2156 L 1615.6435 533.2156 L 1615.2544 535.8076 L 1612.1704 535.8076 L 1614.8478 521.3921 L 1619.1863 521.3921 Z M 1608.1049 521.3921 L 1608.9529 525.1189 C 1609.1213 525.7624 1609.2781 526.5755 1609.2956 526.8299 C 1609.3072 526.5924 1609.4814 525.8978 1609.6673 525.1189 L 1610.5791 521.3921 L 1613.8663 521.3921 L 1610.8172 530.8106 L 1610.8172 535.8076 L 1607.6171 535.8076 L 1607.6171 530.7938 L 1604.568 521.3921 L 1608.1049 521.3921 Z M 1611.9497 547.1062 L 1610.7998 547.1062 L 1610.7998 552.6114 L 1607.5997 552.6114 L 1607.5997 538.1958 L 1612.1878 538.1958 C 1614.4064 538.1958 1616.0152 540.1269 1616.0152 542.6678 C 1616.0152 545.2088 1614.389 547.1062 1611.9497 547.1062 Z M 1623.1298 552.6114 L 1616.6424 552.6114 L 1616.6424 538.1958 L 1619.8484 538.1958 L 1619.8484 549.8846 L 1623.1298 549.8846 L 1623.1298 552.6114 Z M 1630.1282 552.6114 L 1629.7391 550.02 L 1627.2127 550.02 L 1626.8236 552.6114 L 1623.7396 552.6114 L 1626.417 538.1958 L 1630.738 538.1958 L 1633.4329 552.6114 L 1630.1108 552.6114 L 1630.1282 552.6114 Z M 1637.9513 547.6144 L 1637.9513 552.6114 L 1634.7512 552.6114 L 1634.7512 547.5975 L 1631.7021 538.1958 L 1635.2275 538.1958 L 1636.0754 541.9395 C 1636.2438 542.5836 1636.3948 543.3967 1636.4123 543.6505 C 1636.4297 543.4136 1636.5981 542.719 1636.784 541.9395 L 1637.7016 538.1958 L 1640.9888 538.1958 L 1637.9397 547.6144 L 1637.9513 547.6144 Z M 1646.0358 536.0789 C 1643.1552 536.0789 1641.4941 533.6053 1641.4941 528.5914 C 1641.4941 523.5775 1643.1552 521.104 1646.0358 521.104 C 1648.9165 521.104 1650.5717 523.5775 1650.5717 528.5914 C 1650.5717 533.6053 1648.9165 536.0789 1646.0358 536.0789 Z M 2099.4988 623.8446 L 2071.2721 621.9558 L 2097.1246 632.2844 C 2098.2999 629.6469 2099.1109 626.8124 2099.4988 623.8446 Z M 2093.7042 638.1137 C 2088.1094 645.5997 2079.1589 650.4487 2069.0683 650.4487 C 2052.1193 650.4487 2038.3791 636.7667 2038.3791 619.8889 C 2038.3791 603.011 2052.1193 589.329 2069.0683 589.329 C 2079.1765 589.329 2088.1447 594.1962 2093.7336 601.7063 L 2068.0986 615.3713 L 2084.595 598.497 L 2075.4506 598.497 L 2064.2198 614.0219 L 2064.2198 598.497 L 2056.7914 598.497 L 2056.7914 641.2808 L 2064.2198 641.2808 L 2064.2198 625.781 L 2075.4506 641.2808 L 2084.595 641.2808 L 2068.5276 624.9365 L 2093.7042 638.1137 Z M 2097.1246 607.4927 L 2071.4543 617.7485 L 2099.4988 615.9325 C 2099.1109 612.9647 2098.2999 610.1303 2097.1246 607.4927 Z M 1476.502 942.2663 C 1474.9141 941.2605 1472.8363 941.0385 1470.9946 941.8744 C 1469.9262 942.3519 1469.0998 943.1193 1468.5272 944.023 C 1468.7692 943.6819 1469.0644 943.4941 1469.4953 943.3236 C 1470.6463 942.8466 1472.9898 943.6647 1474.2471 945.7284 C 1475.0912 945.268 1475.9649 944.7904 1476.8798 944.33 C 1477.2753 944.1252 1477.6531 943.9375 1478.0663 943.7332 C 1477.6531 943.1364 1477.0687 942.6246 1476.5197 942.2663 L 1476.502 942.2663 Z M 1479.2882 938.4466 C 1478.3437 938.8728 1477.6 939.5551 1477.1395 940.3739 C 1477.3638 940.0156 1477.6177 939.7936 1477.9482 939.6401 C 1479.2233 939.0434 1481.1653 939.9642 1482.216 941.823 C 1482.1806 941.823 1482.1511 941.8573 1482.1157 941.8744 C 1483.2667 941.3626 1484.4237 940.8851 1485.5394 940.4589 C 1484.3529 938.3273 1481.6139 937.4407 1479.2882 938.4637 L 1479.2882 938.4466 Z M 1485.3505 922.6729 C 1468.238 922.6729 1454.3603 936.4172 1454.3603 953.3679 C 1454.3603 970.3187 1468.238 984.063 1485.3505 984.063 C 1502.463 984.063 1516.3407 970.3187 1516.3407 953.3679 C 1516.3407 936.4172 1502.463 922.6729 1485.3505 922.6729 Z M 1503.9977 955.6016 C 1501.2234 958.262 1497.1976 960.4449 1492.6701 961.7748 L 1490.4447 962.423 L 1492.4635 963.5144 C 1494.7361 964.7422 1497.6934 967.0272 1499.6768 968.886 C 1497.6934 971.0176 1494.6121 973.2347 1490.8402 974.5646 C 1490.8402 974.5646 1490.669 974.2748 1490.2912 973.6438 C 1486.4543 967.4192 1481.6848 962.6278 1476.3308 958.4497 C 1476.3308 958.4497 1479.6542 958.7567 1481.2539 958.7567 C 1491.4777 958.7567 1501.9317 955.1583 1507.0967 950.7931 C 1506.7839 952.3278 1505.7332 953.9305 1503.9977 955.585 L 1503.9977 955.6016 Z M 1507.9881 948.4054 C 1503.7734 953.6406 1486.9029 960.0866 1473.71 956.9321 C 1473.2495 956.8129 1472.9544 957.4096 1473.3676 957.6823 C 1482.4049 963.4802 1487.2276 970.3523 1489.7776 974.8373 C 1483.3022 976.8839 1474.6957 976.355 1467.8248 970.7106 C 1468.5272 968.17 1469.6665 965.8844 1471.1658 963.9406 C 1467.323 962.832 1464.6549 960.8711 1463.9997 958.2107 C 1463.5216 956.2326 1464.2771 954.1353 1465.8414 952.1059 C 1463.9997 947.4166 1465.1921 942.4883 1468.9286 940.4246 C 1470.5106 939.5551 1472.3346 939.3167 1474.1586 939.6236 C 1474.7252 938.5151 1475.5694 937.6113 1476.6909 936.9803 C 1479.8903 935.2065 1484.2466 936.4856 1487.0918 939.8107 C 1497.0382 936.0766 1505.7037 936.6391 1508.0766 941.0728 C 1510.0718 944.8075 1508.1297 948.2348 1508.0766 948.3032 L 1508.0235 948.3717 L 1507.9881 948.4054 Z M 1553.6846 1007.0683 C 1566.0761 1011.2326 1575.0021 1022.9423 1575.0021 1036.7371 C 1575.0021 1054.0199 1560.9916 1068.0304 1543.7088 1068.0304 C 1543.2611 1068.0304 1542.8158 1068.0206 1542.3725 1068.0019 L 1556.7098 1031.733 L 1557.8547 1032.1395 L 1555.1588 1053.0072 L 1562.361 1055.6293 L 1562.361 1022.0195 L 1556.3037 1019.7665 L 1534.8082 1043.1825 L 1533.6632 1042.7761 L 1553.6846 1007.0683 Z M 1543.7094 1005.4444 C 1544.1689 1005.4444 1544.6255 1005.4548 1545.0802 1005.4745 L 1530.7085 1041.7054 L 1529.5636 1041.299 L 1532.2594 1020.4681 L 1525.0573 1017.846 L 1525.0573 1051.4553 L 1531.1144 1053.7083 L 1552.61 1030.2554 L 1553.755 1030.6619 L 1533.7124 1066.3997 C 1521.332 1062.2292 1512.4161 1050.5249 1512.4161 1036.7377 C 1512.4161 1019.455 1526.4267 1005.4444 1543.7094 1005.4444 Z M 1491.3901 869.9982 C 1491.3901 887.1551 1477.481 901.0666 1460.3336 901.0666 C 1443.1803 901.0666 1429.2712 887.1551 1429.2712 869.9982 C 1429.2712 852.8412 1443.1803 838.9298 1460.3336 838.9298 C 1463.6795 838.9298 1466.9058 839.4651 1469.9409 840.4485 L 1462.8669 862.2311 L 1442.1945 862.2311 L 1439.6791 869.9982 L 1460.3456 869.9982 L 1454.2932 888.6392 L 1462.831 888.6392 L 1468.8894 869.9982 L 1491.408 869.9982 L 1491.3901 869.9982 Z M 1490.4042 862.2311 L 1471.3928 862.2311 L 1477.3256 843.9868 C 1483.7126 848.1643 1488.4565 854.6366 1490.4042 862.2311 Z M 2399.1302 790.2965 C 2403.0588 794.4885 2407.1909 797.9296 2410.8979 799.9381 C 2414.8923 802.1042 2417.3476 802.0342 2417.9345 801.4401 C 2418.4375 800.9161 2418.5274 798.8201 2416.7068 794.5586 C 2415.1857 790.8905 2412.2812 786.4709 2408.8737 782.4364 C 2409.3708 781.9824 2398.4894 790.8205 2399.1482 790.2965 L 2399.1302 790.2965 Z M 2402.418 755.1881 C 2385.2186 755.1881 2371.2771 769.2662 2371.2771 786.6284 C 2371.2771 803.9906 2385.2186 818.0687 2402.418 818.0687 C 2419.6173 818.0687 2433.5588 803.9906 2433.5588 786.6284 C 2433.5588 769.2662 2419.6173 755.1881 2402.418 755.1881 Z M 2419.8928 803.1696 C 2419.8209 803.3265 2419.6652 803.4666 2419.5275 803.6235 L 2419.4616 803.6936 L 2419.1801 804.008 C 2409.9636 812.7586 2395.3753 812.1651 2386.8116 802.663 C 2378.6791 793.6153 2378.8348 779.4672 2386.8835 770.5765 C 2392.902 763.7644 2402.921 761.3013 2411.347 764.4453 C 2413.3712 765.1269 2415.2696 766.1749 2417.0003 767.4325 C 2418.2279 768.323 2419.3897 769.371 2420.4797 770.5765 C 2420.4797 770.5765 2421.7073 771.9216 2410.5984 780.9692 L 2410.826 781.2662 C 2418.5932 790.4013 2422.5038 799.7459 2419.8928 803.187 L 2419.8928 803.1696 Z M 1873.9006 1373.8848 C 1877.8291 1378.0769 1881.9613 1381.5179 1885.6682 1383.5265 C 1889.6627 1385.6926 1892.118 1385.6225 1892.7049 1385.0285 C 1893.2079 1384.5045 1893.2978 1382.4084 1891.4772 1378.1469 C 1889.9561 1374.4789 1887.0516 1370.0593 1883.6441 1366.0248 C 1884.1411 1365.5708 1873.2598 1374.4088 1873.9186 1373.8848 L 1873.9006 1373.8848 Z M 1877.1884 1338.7765 C 1859.989 1338.7765 1846.0475 1352.8546 1846.0475 1370.2168 C 1846.0475 1387.579 1859.989 1401.6571 1877.1884 1401.6571 C 1894.3877 1401.6571 1908.3292 1387.579 1908.3292 1370.2168 C 1908.3292 1352.8546 1894.3877 1338.7765 1877.1884 1338.7765 Z M 1894.6632 1386.758 C 1894.5913 1386.9149 1894.4356 1387.055 1894.2979 1387.2119 L 1894.232 1387.282 L 1893.9505 1387.5964 C 1884.734 1396.347 1870.1457 1395.7535 1861.582 1386.2513 C 1853.4494 1377.2037 1853.6051 1363.0556 1861.6539 1354.1649 C 1867.6724 1347.3528 1877.6914 1344.8897 1886.1174 1348.0337 C 1888.1416 1348.7152 1890.0399 1349.7632 1891.7707 1351.0209 C 1892.9983 1351.9114 1894.1601 1352.9594 1895.2501 1354.1649 C 1895.2501 1354.1649 1896.4777 1355.5099 1885.3688 1364.5575 L 1885.5964 1364.8546 C 1893.3636 1373.9896 1897.2742 1383.3343 1894.6632 1386.7753 L 1894.6632 1386.758 Z M 2226.0527 1150.0399 C 2229.094 1151.0097 2232.3227 1151.5485 2235.6785 1151.5485 C 2235.9566 1151.5485 2236.2529 1151.5485 2236.537 1151.5485 L 2238.75 1131.8452 L 2230.926 1134.7728 L 2226.0527 1150.0574 L 2226.0527 1150.0399 Z M 2246.2294 1129.0252 L 2243.7987 1150.4885 C 2253.4789 1147.9025 2261.321 1140.8259 2264.9549 1131.6293 C 2266.2307 1128.3788 2266.9986 1124.8762 2267.1195 1121.2121 L 2246.2294 1129.0433 L 2246.2294 1129.0252 Z M 2219.5589 1147.0941 L 2222.4732 1137.9339 L 2212.7265 1141.598 C 2214.7339 1143.7354 2217.0255 1145.6031 2219.5589 1147.1122 L 2219.5589 1147.0941 Z M 2236.5008 1088.6845 L 2235.6785 1088.6845 C 2218.3133 1088.6845 2204.2374 1102.7477 2204.2374 1120.0984 C 2204.2374 1125.7922 2205.7551 1131.1263 2208.3973 1135.7427 L 2225.1639 1129.4563 L 2238.1393 1088.7565 C 2237.6012 1088.7202 2237.0389 1088.6845 2236.4826 1088.6664 L 2236.5008 1088.6845 Z M 2239.6267 1124.0496 L 2242.5229 1098.3835 L 2233.6348 1126.2953 L 2239.6267 1124.0496 Z M 2264.9549 1108.603 C 2262.1917 1101.5802 2256.9737 1095.7969 2250.3711 1092.3123 L 2247.1 1121.2478 L 2266.527 1113.9734 C 2266.1581 1112.1238 2265.6321 1110.3274 2264.9549 1108.6212 L 2264.9549 1108.603 Z M 1960.5581 1338.3694 C 1978.1421 1338.3694 1992.4055 1352.6184 1992.4055 1370.2168 C 1992.4055 1387.8151 1978.1564 1402.0642 1960.5581 1402.0642 C 1942.9597 1402.0642 1928.7107 1387.8151 1928.7107 1370.2168 C 1928.7107 1352.6184 1942.9597 1338.3694 1960.5581 1338.3694 Z M 1961.9297 1350.2365 C 1951.7806 1350.2365 1946.4245 1355.4771 1946.4245 1363.1574 C 1946.4246 1369.3073 1949.3697 1372.9453 1954.5958 1376.6845 L 1945.5006 1390.2119 L 1953.0221 1390.2119 L 1963.1279 1375.0534 L 1959.6051 1372.6858 C 1955.3463 1369.8272 1953.282 1367.5894 1953.282 1362.7531 C 1953.2821 1358.4943 1956.2704 1355.6359 1961.9729 1355.6359 L 1965.091 1355.6359 L 1965.091 1390.1973 L 1972.0351 1390.1973 L 1972.0351 1350.2365 L 1961.9297 1350.2365 Z M 1498.2672 608.8071 C 1497.261 607.7399 1496.0779 606.9574 1494.6508 606.4952 C 1493.2786 606.0323 1491.7296 605.8012 1490.0342 605.8012 L 1488.3083 605.8012 L 1488.3083 633.8168 L 1489.4914 633.8168 L 1489.4914 633.8698 C 1491.2722 633.8698 1492.9066 633.5497 1494.3703 632.9447 C 1495.8339 632.3403 1497.0658 631.4328 1498.1087 630.2766 C 1499.1637 629.0849 1499.9383 627.6084 1500.5176 625.8124 C 1501.0665 624.0158 1501.3836 621.9343 1501.3836 619.551 C 1501.3836 616.9719 1501.1031 614.8014 1500.5542 613.0585 C 1500.0114 611.3155 1499.2308 609.8744 1498.2307 608.8248 L 1498.2672 608.8071 Z M 1485.3505 587.8713 C 1467.8354 587.8713 1453.6379 602.2079 1453.6379 619.8889 C 1453.6379 637.5698 1467.8354 651.9064 1485.3505 651.9064 C 1502.8656 651.9064 1517.063 637.5698 1517.063 619.8889 C 1517.063 602.2079 1502.8656 587.8713 1485.3505 587.8713 Z M 1475.7147 639.0817 L 1469.0917 639.0817 L 1469.0917 600.6607 L 1475.7147 600.6607 L 1475.7147 639.0817 Z M 1506.7382 628.0176 C 1505.8234 630.4193 1504.5915 632.447 1503.0058 634.101 C 1501.4019 635.7555 1499.4992 637.0002 1497.2976 637.8363 C 1495.1082 638.6725 1492.6444 639.1347 1490.0342 639.1347 L 1481.6852 639.1347 L 1481.6852 600.6607 L 1490.583 600.6607 C 1493.0835 600.6607 1495.4131 600.9808 1497.5598 601.6742 C 1499.7065 602.3146 1501.5239 603.4178 1503.0729 604.8937 C 1504.622 606.3701 1505.86 608.3449 1506.7199 610.7459 C 1507.6347 613.1475 1508.0433 616.1358 1508.0433 619.6754 C 1508.0433 622.8058 1507.5859 625.563 1506.7199 628.0176 L 1506.7382 628.0176 Z M 2377.407 838.2856 C 2359.8919 838.2856 2345.6944 852.4855 2345.6944 869.9982 C 2345.6944 887.5108 2359.8919 901.7107 2377.407 901.7107 C 2394.9221 901.7107 2409.1196 887.5108 2409.1196 869.9982 C 2409.1196 852.4855 2394.9221 838.2856 2377.407 838.2856 Z M 2397.6664 883.3882 C 2397.6664 884.0926 2397.5628 884.8153 2397.2822 885.4666 C 2396.9956 886.1185 2396.6297 886.7351 2396.1174 887.2108 C 2395.6234 887.7042 2395.0258 888.092 2394.3549 888.3561 C 2393.7024 888.6378 2392.9827 888.7964 2392.257 888.7964 L 2362.5387 888.7964 C 2361.8129 888.7964 2361.1116 888.6378 2360.4408 888.3561 C 2359.7882 888.0743 2359.1722 887.7042 2358.6783 887.2108 C 2358.1843 886.718 2357.7452 886.1185 2357.5134 885.4666 C 2357.3061 884.8153 2357.1292 884.0926 2357.1292 883.3882 L 2357.1292 861.1363 C 2357.1292 860.2551 2357.3427 859.3745 2357.7269 858.617 C 2358.1172 857.8596 2358.7149 857.1899 2359.4345 856.6966 L 2372.7904 847.3767 C 2374.1138 846.39 2375.7482 845.8966 2377.407 845.8966 C 2379.0658 845.8966 2380.7002 846.39 2382.0236 847.3767 L 2395.3246 856.6966 C 2396.0442 857.1899 2396.648 857.8419 2397.0322 858.617 C 2397.4225 859.3921 2397.6299 860.2551 2397.6299 861.1363 L 2397.6299 883.3882 L 2397.6664 883.3882 Z M 2372.1012 864.7656 C 2370.8327 864.7125 2369.6374 865.1535 2368.7043 865.9634 C 2367.7712 866.7915 2367.2224 867.9369 2367.1736 869.2054 L 2367.1736 869.8042 C 2367.1736 870.3507 2367.6615 870.791 2368.2103 870.791 C 2368.2103 870.791 2368.2286 870.7733 2368.2652 870.7379 C 2368.8629 870.6855 2369.302 870.1921 2369.2471 869.5932 L 2369.2471 869.2584 C 2369.302 868.6065 2369.6374 867.9369 2370.1314 867.4965 C 2370.6254 867.0562 2371.2962 866.8446 2371.9975 866.8446 C 2373.4246 866.9501 2374.5346 868.1662 2374.4675 869.5755 C 2374.4126 870.1214 2374.8517 870.6147 2375.4493 870.6678 C 2375.9982 870.6678 2376.4922 870.2799 2376.541 869.681 C 2376.6995 867.1087 2374.6748 864.9065 2372.089 864.7479 L 2372.1012 864.7656 Z M 2383.3775 864.7656 C 2380.7368 864.6601 2378.5352 866.633 2378.3767 869.2054 L 2378.3767 869.8042 C 2378.3767 870.3507 2378.8706 870.791 2379.4134 870.791 C 2379.4134 870.791 2379.4683 870.791 2379.5232 870.7379 C 2380.1208 870.6855 2380.5599 870.1921 2380.5051 869.5932 L 2380.5051 869.2584 C 2380.6148 867.8313 2381.8284 866.7915 2383.2555 866.8446 C 2383.9812 866.8977 2384.6277 867.2319 2385.0729 867.7252 C 2385.512 868.2186 2385.7925 868.8705 2385.7254 869.5932 C 2385.6705 870.139 2386.1096 870.6324 2386.7073 870.6855 C 2387.3111 870.6855 2387.7502 870.2976 2387.799 869.6987 C 2387.8538 868.4302 2387.4147 867.2319 2386.5853 866.2982 C 2385.7559 865.3645 2384.6155 864.8187 2383.347 864.7656 L 2383.3775 864.7656 Z M 2100.814 1286.847 C 2100.814 1304.4596 2086.5356 1318.7405 2068.9328 1318.7405 C 2051.324 1318.7405 2037.0455 1304.4596 2037.0455 1286.847 C 2037.0455 1269.2345 2051.324 1254.9536 2068.9328 1254.9536 C 2072.3675 1254.9536 2075.6795 1255.5032 2078.7953 1256.5127 L 2071.5334 1278.8737 L 2050.312 1278.8737 L 2047.7298 1286.847 L 2068.9451 1286.847 L 2062.732 1305.9831 L 2071.4966 1305.9831 L 2077.7158 1286.847 L 2100.8324 1286.847 L 2100.814 1286.847 Z M 2099.802 1278.8737 L 2080.2857 1278.8737 L 2086.3761 1260.1449 C 2092.9326 1264.4333 2097.8025 1271.0776 2099.802 1278.8737 Z M 1451.1271 691.7002 C 1449.4739 690.653 1447.3105 690.4219 1445.3931 691.2922 C 1444.2807 691.7893 1443.4203 692.5883 1442.8241 693.5292 C 1443.0761 693.174 1443.3834 692.9786 1443.832 692.8009 C 1445.0305 692.3044 1447.4703 693.1562 1448.7794 695.3047 C 1449.6582 694.8254 1450.5678 694.3282 1451.5204 693.8488 C 1451.9322 693.6355 1452.3255 693.4401 1452.7557 693.2275 C 1452.3255 692.6061 1451.7171 692.0733 1451.1455 691.7002 L 1451.1271 691.7002 Z M 1454.0279 687.7233 C 1453.0446 688.167 1452.2702 688.8775 1451.7908 689.7299 C 1452.0244 689.3568 1452.2886 689.1258 1452.6328 688.966 C 1453.9603 688.3446 1455.9822 689.3034 1457.0762 691.2387 C 1457.0393 691.2387 1457.0086 691.2743 1456.9717 691.2922 C 1458.1701 690.7593 1459.3747 690.2621 1460.5363 689.8184 C 1459.301 687.5992 1456.4493 686.6761 1454.0279 687.7411 L 1454.0279 687.7233 Z M 1460.3396 671.3005 C 1442.523 671.3005 1428.0742 685.6104 1428.0742 703.2586 C 1428.0742 720.9068 1442.523 735.2167 1460.3396 735.2167 C 1478.1562 735.2167 1492.605 720.9068 1492.605 703.2586 C 1492.605 685.6104 1478.1562 671.3005 1460.3396 671.3005 Z M 1479.7541 705.5842 C 1476.8656 708.3541 1472.6742 710.6268 1467.9604 712.0114 L 1465.6434 712.6862 L 1467.7453 713.8226 C 1470.1114 715.1009 1473.1904 717.4799 1475.2554 719.4153 C 1473.1904 721.6345 1469.9823 723.9429 1466.0552 725.3275 C 1466.0552 725.3275 1465.8769 725.0257 1465.4836 724.3688 C 1461.4889 717.888 1456.5231 712.8995 1450.9488 708.5495 C 1450.9488 708.5495 1454.4089 708.8691 1456.0744 708.8691 C 1466.7189 708.8691 1477.6031 705.1226 1482.9807 700.5778 C 1482.6549 702.1757 1481.561 703.8443 1479.7541 705.567 L 1479.7541 705.5842 Z M 1483.9087 698.0918 C 1479.5206 703.5425 1461.9559 710.2537 1448.2201 706.9694 C 1447.7407 706.8453 1447.4335 707.4666 1447.8637 707.7506 C 1457.2729 713.7869 1462.294 720.9419 1464.9489 725.6114 C 1458.207 727.7422 1449.2465 727.1915 1442.0928 721.3149 C 1442.8241 718.6698 1444.0103 716.2901 1445.5713 714.2663 C 1441.5704 713.1121 1438.7925 711.0705 1438.1103 708.3006 C 1437.6125 706.2412 1438.3992 704.0576 1440.0278 701.9446 C 1438.1103 697.0624 1439.3518 691.9313 1443.242 689.7827 C 1444.8891 688.8775 1446.7881 688.6292 1448.6872 688.9488 C 1449.2772 687.7946 1450.156 686.8537 1451.3237 686.1967 C 1454.6548 684.3499 1459.1903 685.6817 1462.1526 689.1436 C 1472.5082 685.2558 1481.5303 685.8415 1484.0009 690.4576 C 1486.0781 694.346 1484.0562 697.9142 1484.0009 697.9855 L 1483.9456 698.0568 L 1483.9087 698.0918 Z M 2307.106 1025.5256 C 2306.088 1024.4458 2304.8909 1023.6542 2303.4471 1023.1865 C 2302.0587 1022.7181 2300.4915 1022.4843 2298.7761 1022.4843 L 2297.0299 1022.4843 L 2297.0299 1050.8294 L 2298.227 1050.8294 L 2298.227 1050.8831 C 2300.0287 1050.8831 2301.6824 1050.5591 2303.1632 1049.9471 C 2304.6441 1049.3356 2305.8905 1048.4174 2306.9456 1047.2475 C 2308.0131 1046.0419 2308.7967 1044.548 2309.3829 1042.7309 C 2309.9382 1040.9131 2310.2591 1038.8072 2310.2591 1036.3958 C 2310.2591 1033.7864 2309.9752 1031.5904 2309.4199 1029.8269 C 2308.8708 1028.0635 2308.081 1026.6054 2307.069 1025.5435 L 2307.106 1025.5256 Z M 2294.0374 1004.3436 C 2276.3163 1004.3436 2261.9518 1018.8487 2261.9518 1036.7377 C 2261.9518 1054.6266 2276.3163 1069.1317 2294.0374 1069.1317 C 2311.7585 1069.1317 2326.1229 1054.6266 2326.1229 1036.7377 C 2326.1229 1018.8487 2311.7585 1004.3436 2294.0374 1004.3436 Z M 2284.2883 1056.1562 L 2277.5873 1056.1562 L 2277.5873 1017.2833 L 2284.2883 1017.2833 L 2284.2883 1056.1562 Z M 2315.6766 1044.9621 C 2314.7511 1047.3919 2313.5047 1049.4436 2311.9004 1051.1169 C 2310.2776 1052.7909 2308.3525 1054.0503 2306.125 1054.8962 C 2303.9098 1055.7422 2301.417 1056.2099 2298.7761 1056.2099 L 2290.329 1056.2099 L 2290.329 1017.2833 L 2299.3315 1017.2833 C 2301.8613 1017.2833 2304.2183 1017.6073 2306.3903 1018.3088 C 2308.5622 1018.9567 2310.401 1020.0729 2311.9682 1021.5661 C 2313.5355 1023.06 2314.7881 1025.0579 2315.6581 1027.4872 C 2316.5836 1029.917 2316.997 1032.9405 2316.997 1036.5217 C 2316.997 1039.6889 2316.5343 1042.4785 2315.6581 1044.9621 L 2315.6766 1044.9621 Z M 1735.4598 587.2289 C 1717.4253 587.2289 1702.7999 601.8531 1702.7999 619.8889 C 1702.7999 637.9246 1717.4253 652.5488 1735.4598 652.5488 C 1753.4944 652.5488 1768.1198 637.9246 1768.1198 619.8889 C 1768.1198 601.8531 1753.4944 587.2289 1735.4598 587.2289 Z M 1752.5177 607.0967 L 1759.9393 607.0967 L 1758.8693 609.9092 L 1751.4477 609.9092 L 1752.5177 607.0967 Z M 1718.9495 630.5397 L 1724.99 615.1348 L 1720.9277 615.1348 L 1714.6508 631.0293 L 1709.1328 631.6825 L 1717.2947 610.7982 L 1731.9388 610.7982 L 1724.4488 629.9226 L 1718.9308 630.5397 L 1718.9495 630.5397 Z M 1736.057 628.7431 C 1734.1721 629.5232 1731.2296 629.7049 1729.6557 628.2168 C 1727.9138 626.5838 1728.1689 623.6264 1728.7848 621.431 L 1733.83 621.431 C 1733.6122 622.2292 1732.9901 624.4065 1733.9917 624.8059 C 1735.2981 625.3322 1736.6232 622.7013 1737.0586 621.8665 C 1737.1644 621.6668 1737.2577 621.413 1737.2577 621.3949 L 1734.4832 621.3949 L 1735.8953 617.8023 L 1738.6325 617.8023 C 1738.8876 617.1311 1739.4537 614.9171 1738.4708 614.7541 C 1737.2764 614.5724 1736.2934 616.2235 1735.6962 617.1131 L 1730.6884 617.1131 C 1730.6884 617.1131 1730.651 617.0764 1730.651 617.0583 C 1730.651 617.0222 1730.7444 616.8767 1730.763 616.8045 C 1732.5547 612.7217 1735.7522 609.8912 1740.1567 610.2906 C 1745.1334 610.7441 1744.5673 615.9336 1743.2422 619.7252 C 1741.9545 623.4087 1739.6341 627.237 1736.0384 628.7251 L 1736.057 628.7431 Z M 1755.6717 626.3848 L 1752.3497 626.7835 L 1752.4057 624.5154 L 1752.0822 624.5154 C 1750.8131 626.167 1749.1024 627.7272 1746.9064 627.8542 C 1743.0058 628.0899 1742.2096 625.0056 1743.3915 621.8665 L 1747.7089 610.7982 L 1752.9718 610.7982 C 1752.9718 610.7982 1750.2284 617.6207 1749.2517 620.2882 C 1748.866 621.3402 1748.1443 623.3185 1750.0293 623.2096 C 1751.5534 623.1188 1752.3497 621.3582 1752.8412 620.1246 L 1756.4866 610.7982 L 1761.7496 610.7982 L 1755.6717 626.3848 Z M 2377.407 670.3575 C 2359.4085 670.3575 2344.8192 685.0897 2344.8192 703.2586 C 2344.8192 721.4276 2359.4085 736.1597 2377.407 736.1597 C 2395.4055 736.1597 2409.9948 721.4276 2409.9948 703.2586 C 2409.9948 685.0897 2395.4055 670.3575 2377.407 670.3575 Z M 2392.8925 725.5035 L 2362.1283 725.5035 L 2362.1283 681.0137 L 2377.4822 693.1507 L 2392.905 681.05 L 2392.905 702.6739 L 2367.0666 702.6369 C 2367.0541 702.9478 2367.0353 703.2404 2367.0353 703.5694 L 2367.0353 703.9166 C 2367.0353 710.7895 2371.4848 715.3587 2377.4822 715.3587 C 2380.484 715.3587 2383.3292 713.8785 2385.1529 710.5514 C 2387.1833 713.8785 2389.8969 715.3587 2392.8862 715.3587 L 2392.8925 725.5217 L 2392.8925 725.5035 Z M 2382.6022 706.0919 C 2382.3704 709.9122 2380.5216 711.5936 2377.4947 711.5936 C 2374.4741 711.5936 2372.1177 709.528 2371.6289 706.0919 L 2382.6022 706.0919 Z M 2392.8486 711.5936 C 2389.8279 711.5936 2387.9792 709.8934 2387.7473 706.0919 L 2398.8397 706.0919 C 2398.3509 709.528 2395.7815 711.5936 2392.8486 711.5936 Z"/>
</svg>