<svg xmlns="http://www.w3.org/2000/svg" viewBox="1161 291 1540 1406">
<path fill="#FFB040" fill-rule="evenodd" d="M 1832.3294 1036.7377 C 1832.3294 1058.0168 1815.0785 1075.2707 1793.8112 1075.2707 C 1772.5365 1075.2707 1755.2855 1058.0168 1755.2855 1036.7377 C 1755.2855 1015.4585 1772.5365 998.2046 1793.8112 998.2046 C 1797.9609 998.2046 1801.9624 998.8685 1805.7268 1000.0883 L 1796.9531 1027.1044 L 1771.3138 1027.1044 L 1768.1941 1036.7377 L 1793.826 1036.7377 L 1786.3195 1059.8575 L 1796.9087 1059.8575 L 1804.4226 1036.7377 L 1832.3517 1036.7377 L 1832.3294 1036.7377 Z M 1831.1068 1027.1044 L 1807.5275 1027.1044 L 1814.8858 1004.4766 C 1822.8073 1009.6578 1828.691 1017.6853 1831.1068 1027.1044 Z M 2043.928 831.0789 C 2022.6373 831.0789 2005.3793 848.5058 2005.3793 869.9982 C 2005.3793 891.4905 2022.6373 908.9175 2043.928 908.9175 C 2065.2187 908.9175 2082.4766 891.4905 2082.4766 869.9982 C 2082.4766 848.5058 2065.2187 831.0789 2043.928 831.0789 Z M 2062.246 896.3121 L 2025.8546 896.3121 L 2025.8546 843.6843 L 2044.0169 858.0414 L 2062.2608 843.7273 L 2062.2608 869.3065 L 2031.6962 869.2628 C 2031.6814 869.6305 2031.6591 869.9767 2031.6591 870.3659 L 2031.6591 870.7766 C 2031.6591 878.9066 2036.9225 884.3116 2044.0169 884.3116 C 2047.5679 884.3116 2050.9335 882.5606 2053.0907 878.6249 C 2055.4926 882.5606 2058.7025 884.3116 2062.2386 884.3116 L 2062.246 896.3336 L 2062.246 896.3121 Z M 2050.0735 873.3497 C 2049.7992 877.8688 2047.6123 879.8577 2044.0318 879.8577 C 2040.4586 879.8577 2037.6712 877.4143 2037.093 873.3497 L 2050.0735 873.3497 Z M 2062.1941 879.8577 C 2058.6209 879.8577 2056.434 877.8465 2056.1598 873.3497 L 2069.2811 873.3497 C 2068.7029 877.4143 2065.6635 879.8577 2062.1941 879.8577 Z M 1735.4598 914.779 C 1756.9732 914.779 1774.4198 932.0579 1774.4198 953.3679 C 1774.4198 974.6779 1756.9732 991.9569 1735.4598 991.9569 C 1713.9465 991.9569 1696.4998 974.6779 1696.4998 953.3679 C 1696.4998 932.0579 1713.9465 914.779 1735.4598 914.779 Z M 1741.545 934.4593 L 1725.6568 921.8749 L 1724.269 922.2393 L 1736.4988 937.5034 L 1712.2174 929.4428 L 1711.0672 930.6865 L 1732.7735 942.9059 L 1702.9264 945.4141 L 1702.6221 947.1937 L 1733.6862 950.5383 L 1707.7352 971.6546 L 1708.9225 973.2627 L 1739.6824 956.5619 L 1733.6194 985.8472 L 1735.4821 985.8472 L 1747.363 958.2776 L 1754.5539 979.8229 L 1755.8081 978.8581 L 1753.0994 957.2699 L 1764.075 969.6183 L 1764.7429 968.3746 L 1756.5873 953.1104 L 1768.164 957.1623 L 1768.2975 955.8977 L 1758.6429 948.2015 L 1767.689 946.1644 L 1767.5183 944.8568 L 1756.7134 942.3486 L 1762.3014 934.1165 L 1761.6484 933.2156 L 1752.951 937.4396 L 1753.9009 925.9267 L 1752.951 925.4555 L 1747.556 934.6953 L 1741.1962 920.8033 L 1740.0089 920.8033 L 1741.5673 934.4163 L 1741.545 934.4593 Z M 1798.9252 853.6749 C 1795.9859 856.2297 1791.629 856.2297 1788.6972 853.6749 C 1781.3416 847.2887 1771.3066 857.4202 1777.6304 864.8456 C 1780.1614 867.8115 1780.1614 872.2063 1777.6304 875.1723 C 1771.3066 882.5976 1781.3416 892.7292 1788.6972 886.343 C 1791.629 883.7882 1795.9859 883.7882 1798.9252 886.343 C 1806.2733 892.7292 1816.3084 882.5976 1809.9845 875.1723 C 1807.4535 872.2063 1807.4535 867.8115 1809.9845 864.8456 C 1816.3084 857.4202 1806.2733 847.2887 1798.9252 853.6749 Z M 1793.8186 877.3367 C 1789.8105 877.3367 1786.5521 874.0463 1786.5521 869.9982 C 1786.5521 865.95 1789.8105 862.6597 1793.8186 862.6597 C 1797.8267 862.6597 1801.0851 865.95 1801.0851 869.9982 C 1801.0851 874.0463 1797.8267 877.3367 1793.8186 877.3367 Z M 1793.8186 831.0307 C 1772.5016 831.0307 1755.2223 848.4792 1755.2223 869.9982 C 1755.2223 891.5171 1772.5016 908.9656 1793.8186 908.9656 C 1815.1356 908.9656 1832.4149 891.5171 1832.4149 869.9982 C 1832.4149 848.4792 1815.1356 831.0307 1793.8186 831.0307 Z M 1818.0081 889.0707 C 1816.6943 891.2573 1814.8759 893.0973 1812.7085 894.4178 C 1808.9751 896.6912 1803.9204 896.6912 1793.8186 896.6912 C 1783.7168 896.6912 1778.6621 896.6912 1774.9287 894.4178 C 1772.7613 893.0973 1770.9429 891.2573 1769.6291 889.0707 C 1767.3801 885.3038 1767.3801 880.195 1767.3801 869.9982 C 1767.3801 859.8021 1767.3801 854.6925 1769.6291 850.9257 C 1770.9429 848.739 1772.7613 846.899 1774.9287 845.5786 C 1778.6621 843.3051 1783.7168 843.3059 1793.8186 843.3059 C 1803.9204 843.3059 1808.9751 843.3051 1812.7085 845.5786 C 1814.8759 846.899 1816.6943 848.739 1818.0081 850.9257 C 1820.2571 854.6925 1820.2571 859.8021 1820.2571 869.9982 C 1820.2571 880.195 1820.2571 885.3038 1818.0081 889.0707 Z M 2043.928 998.0778 C 2065.4809 998.0778 2082.9596 1015.3885 2082.9596 1036.7377 C 2082.9596 1058.0868 2065.4809 1075.3975 2043.928 1075.3975 C 2022.3751 1075.3975 2004.8964 1058.0868 2004.8964 1036.7377 C 2004.8964 1015.3885 2022.3751 998.0778 2043.928 998.0778 Z M 2050.0243 1017.7943 L 2034.1069 1005.1867 L 2032.7166 1005.5518 L 2044.9688 1020.844 L 2020.6428 1012.7685 L 2019.4905 1014.0146 L 2041.2367 1026.2564 L 2011.3347 1028.7693 L 2011.0299 1030.5521 L 2042.1511 1033.9029 L 2016.1523 1055.058 L 2017.3419 1056.6691 L 2048.1583 1039.9375 L 2042.0842 1069.2767 L 2043.9503 1069.2767 L 2055.8531 1041.6564 L 2063.0572 1063.2412 L 2064.3136 1062.2748 L 2061.6 1040.6468 L 2072.5958 1053.0179 L 2073.2649 1051.7719 L 2065.0943 1036.4797 L 2076.6922 1040.539 L 2076.826 1039.2721 L 2067.1536 1031.5617 L 2076.2164 1029.5209 L 2076.0454 1028.2109 L 2065.2207 1025.698 L 2070.8189 1017.4509 L 2070.1647 1016.5483 L 2061.4513 1020.7801 L 2062.4029 1009.246 L 2061.4513 1008.7739 L 2056.0464 1018.0308 L 2049.6749 1004.1132 L 2048.4854 1004.1132 L 2050.0466 1017.7512 L 2050.0243 1017.7943 Z M 1891.0497 1106.1187 C 1889.0489 1104.8513 1886.4307 1104.5716 1884.11 1105.6248 C 1882.7637 1106.2266 1881.7224 1107.1935 1881.0009 1108.3323 C 1881.3059 1107.9023 1881.6778 1107.6658 1882.2208 1107.4509 C 1883.6712 1106.8499 1886.6241 1107.8808 1888.2084 1110.4811 C 1889.272 1109.9009 1890.3729 1109.2992 1891.5258 1108.719 C 1892.0241 1108.4609 1892.5001 1108.2244 1893.0208 1107.9671 C 1892.5001 1107.2151 1891.7638 1106.5702 1891.072 1106.1187 L 1891.0497 1106.1187 Z M 1894.5605 1101.3056 C 1893.3704 1101.8426 1892.4332 1102.7024 1891.853 1103.7341 C 1892.1357 1103.2826 1892.4555 1103.0029 1892.872 1102.8095 C 1894.4787 1102.0575 1896.9258 1103.2179 1898.2497 1105.5601 C 1898.2051 1105.5601 1898.1679 1105.6032 1898.1233 1105.6248 C 1899.5737 1104.9799 1901.0316 1104.3782 1902.4374 1103.8412 C 1900.9423 1101.1553 1897.4911 1100.0381 1894.5605 1101.3271 L 1894.5605 1101.3056 Z M 1902.1993 1081.4296 C 1880.6365 1081.4296 1863.1496 1098.7484 1863.1496 1120.1074 C 1863.1496 1141.4665 1880.6365 1158.7852 1902.1993 1158.7852 C 1923.7622 1158.7852 1941.249 1141.4665 1941.249 1120.1074 C 1941.249 1098.7484 1923.7622 1081.4296 1902.1993 1081.4296 Z M 1925.6961 1122.922 C 1922.2002 1126.2743 1917.1275 1129.0249 1911.4225 1130.7007 L 1908.6184 1131.5174 L 1911.1622 1132.8927 C 1914.0258 1134.4398 1917.7523 1137.319 1920.2515 1139.6613 C 1917.7523 1142.3472 1913.8696 1145.1409 1909.1167 1146.8167 C 1909.1167 1146.8167 1908.901 1146.4515 1908.425 1145.6563 C 1903.5903 1137.8129 1897.5803 1131.7755 1890.834 1126.5108 C 1890.834 1126.5108 1895.0216 1126.8976 1897.0373 1126.8976 C 1909.92 1126.8976 1923.0928 1122.3634 1929.6011 1116.8629 C 1929.2069 1118.7968 1927.8829 1120.8163 1925.6961 1122.9011 L 1925.6961 1122.922 Z M 1930.7242 1113.8543 C 1925.4135 1120.4511 1904.1555 1128.5734 1887.5315 1124.5985 C 1886.9514 1124.4483 1886.5795 1125.2002 1887.1001 1125.5439 C 1898.4878 1132.8495 1904.5646 1141.5089 1907.7779 1147.1603 C 1899.6183 1149.7391 1888.7737 1149.0726 1880.1158 1141.9604 C 1881.0009 1138.759 1882.4365 1135.879 1884.3257 1133.4297 C 1879.4836 1132.0328 1876.1216 1129.5619 1875.296 1126.2096 C 1874.6935 1123.7171 1875.6455 1121.0744 1877.6166 1118.5172 C 1875.296 1112.6084 1876.7984 1106.3984 1881.5067 1103.798 C 1883.5001 1102.7024 1885.7985 1102.4019 1888.0968 1102.7887 C 1888.8109 1101.3918 1889.8745 1100.2531 1891.2877 1099.4579 C 1895.3192 1097.2228 1900.8084 1098.8346 1904.3936 1103.0245 C 1916.9267 1098.3192 1927.8457 1099.028 1930.8358 1104.6147 C 1933.3498 1109.3208 1930.9027 1113.6393 1930.8358 1113.7256 L 1930.7688 1113.8119 L 1930.7242 1113.8543 Z M 1698.5568 906.9777 C 1702.3142 908.1759 1706.3031 908.8415 1710.4489 908.8415 C 1710.7925 908.8415 1711.1585 908.8415 1711.5096 908.8415 L 1714.2435 884.4994 L 1704.5775 888.1163 L 1698.5568 906.9994 L 1698.5568 906.9777 Z M 1723.4838 881.0155 L 1720.4809 907.532 C 1732.4401 904.3371 1742.1286 895.5944 1746.6179 884.2327 C 1748.1941 880.2169 1749.1428 875.8897 1749.2922 871.3629 L 1723.4838 881.0379 L 1723.4838 881.0155 Z M 1690.5342 903.3384 L 1694.1347 892.0216 L 1682.0932 896.5483 C 1684.5732 899.1889 1687.4043 901.4964 1690.5342 903.3608 L 1690.5342 903.3384 Z M 1711.4648 831.1773 L 1710.4489 831.1773 C 1688.9954 831.1773 1671.6055 848.5514 1671.6055 869.987 C 1671.6055 877.0213 1673.4805 883.6113 1676.7448 889.3145 L 1697.4588 881.5481 L 1713.4891 831.2662 C 1712.8243 831.2213 1712.1296 831.1773 1711.4423 831.1549 L 1711.4648 831.1773 Z M 1715.3267 874.8685 L 1718.9047 843.1597 L 1707.924 877.6428 L 1715.3267 874.8685 Z M 1746.6179 855.7853 C 1743.2042 847.109 1736.7577 839.9641 1728.6006 835.6592 L 1724.5594 871.407 L 1748.5601 862.42 C 1748.1045 860.135 1747.4546 857.9157 1746.6179 855.8077 L 1746.6179 855.7853 Z M 2127.2976 830.7238 C 2148.9823 830.7238 2166.572 848.2958 2166.572 869.9982 C 2166.572 891.7005 2149 909.2725 2127.2976 909.2725 C 2105.5952 909.2725 2088.0232 891.7005 2088.0232 869.9982 C 2088.0232 848.2958 2105.5952 830.7238 2127.2976 830.7238 Z M 2128.989 845.3584 C 2116.4732 845.3584 2109.868 851.821 2109.868 861.2925 C 2109.868 868.8766 2113.5 873.363 2119.9449 877.9741 L 2108.7286 894.6562 L 2118.0041 894.6562 L 2130.4667 875.9626 L 2126.1223 873.0429 C 2120.8704 869.5177 2118.3247 866.758 2118.3247 860.7939 C 2118.3248 855.5419 2122.01 852.0169 2129.0424 852.0169 L 2132.8877 852.0169 L 2132.8877 894.6382 L 2141.4511 894.6382 L 2141.4511 845.3584 L 2128.989 845.3584 Z M 2081.4937 916.0264 C 2097.0895 921.2676 2108.3236 936.0052 2108.3236 953.3673 C 2108.3236 975.1191 2090.6901 992.7525 2068.9383 992.7525 C 2068.3748 992.7525 2067.8144 992.7402 2067.2564 992.7167 L 2085.3012 947.0692 L 2086.7422 947.5808 L 2083.3491 973.8446 L 2092.4136 977.1447 L 2092.4136 934.8438 L 2084.7901 932.0082 L 2057.7361 961.4793 L 2056.295 960.9678 L 2081.4937 916.0264 Z M 2068.939 913.9827 C 2069.5174 913.9827 2070.092 913.9957 2070.6643 914.0205 L 2052.5762 959.6202 L 2051.1352 959.1087 L 2054.5282 932.8913 L 2045.4638 929.5912 L 2045.4638 971.8913 L 2053.0872 974.7269 L 2080.1412 945.2094 L 2081.5823 945.721 L 2056.3569 990.7002 C 2040.7751 985.4512 2029.5537 970.7203 2029.5537 953.3679 C 2029.5537 931.6162 2047.1873 913.9827 2068.939 913.9827 Z M 1877.1884 997.2717 C 1855.5986 997.2717 1838.0982 1014.9434 1838.0982 1036.7377 C 1838.0982 1058.5319 1855.5986 1076.2036 1877.1884 1076.2036 C 1898.7781 1076.2036 1916.2785 1058.5319 1916.2785 1036.7377 C 1916.2785 1014.9434 1898.7781 997.2717 1877.1884 997.2717 Z M 1895.7637 1063.4212 L 1858.8611 1063.4212 L 1858.8611 1010.0542 L 1877.2786 1024.613 L 1895.7787 1010.0978 L 1895.7787 1036.0363 L 1864.7848 1035.992 C 1864.7697 1036.3648 1864.7472 1036.7159 1864.7472 1037.1105 L 1864.7472 1037.527 C 1864.7472 1045.7712 1870.0845 1051.2521 1877.2786 1051.2521 C 1880.8794 1051.2521 1884.2922 1049.4765 1886.4798 1045.4856 C 1888.9154 1049.4765 1892.1704 1051.2521 1895.7562 1051.2521 L 1895.7637 1063.443 L 1895.7637 1063.4212 Z M 1883.4202 1040.1363 C 1883.1421 1044.7188 1880.9245 1046.7357 1877.2936 1046.7357 C 1873.6702 1046.7357 1870.8437 1044.258 1870.2574 1040.1363 L 1883.4202 1040.1363 Z M 1895.7111 1046.7357 C 1892.0877 1046.7357 1889.8701 1044.6963 1889.5919 1040.1363 L 1902.8976 1040.1363 C 1902.3113 1044.258 1899.2292 1046.7357 1895.7111 1046.7357 Z M 1976.4871 1023.0716 C 1975.2462 1021.7555 1973.7872 1020.7906 1972.0273 1020.2205 C 1970.3351 1019.6497 1968.4249 1019.3646 1966.3341 1019.3646 L 1964.2057 1019.3646 L 1964.2057 1053.9137 L 1965.6647 1053.9137 L 1965.6647 1053.9791 C 1967.8608 1053.9791 1969.8764 1053.5842 1971.6814 1052.8382 C 1973.4863 1052.0929 1975.0055 1050.9738 1976.2916 1049.5478 C 1977.5927 1048.0783 1978.5478 1046.2575 1979.2623 1044.0426 C 1979.9392 1041.827 1980.3303 1039.2601 1980.3303 1036.321 C 1980.3303 1033.1405 1979.9843 1030.4638 1979.3074 1028.3144 C 1978.6381 1026.1649 1977.6754 1024.3878 1976.442 1023.0935 L 1976.4871 1023.0716 Z M 1960.5581 997.2535 C 1938.9584 997.2535 1921.45 1014.9334 1921.45 1036.7377 C 1921.45 1058.5419 1938.9584 1076.2218 1960.5581 1076.2218 C 1982.1578 1076.2218 1999.6662 1058.5419 1999.6662 1036.7377 C 1999.6662 1014.9334 1982.1578 997.2535 1960.5581 997.2535 Z M 1948.6753 1060.4064 L 1940.5077 1060.4064 L 1940.5077 1013.0254 L 1948.6753 1013.0254 L 1948.6753 1060.4064 Z M 1986.9335 1046.7621 C 1985.8054 1049.7238 1984.2862 1052.2245 1982.3308 1054.2641 C 1980.3528 1056.3045 1978.0063 1057.8395 1975.2913 1058.8706 C 1972.5914 1059.9017 1969.553 1060.4718 1966.3341 1060.4718 L 1956.0381 1060.4718 L 1956.0381 1013.0254 L 1967.0109 1013.0254 C 1970.0945 1013.0254 1972.9674 1013.4202 1975.6147 1014.2753 C 1978.262 1015.065 1980.5032 1016.4255 1982.4135 1018.2456 C 1984.3238 1020.0663 1985.8505 1022.5016 1986.911 1025.4625 C 1988.0391 1028.4242 1988.543 1032.1094 1988.543 1036.4744 C 1988.543 1040.3349 1987.9789 1043.735 1986.911 1046.7621 L 1986.9335 1046.7621 Z M 1857.9394 958.4304 L 1821.8155 956.0131 L 1854.9009 969.2315 C 1856.4051 965.856 1857.443 962.2286 1857.9394 958.4304 Z M 1850.5236 976.6917 C 1843.3635 986.2721 1831.9088 992.4778 1818.9951 992.4778 C 1797.3041 992.4778 1779.7197 974.9678 1779.7197 953.3679 C 1779.7197 931.768 1797.3041 914.2581 1818.9951 914.2581 C 1831.9314 914.2581 1843.4086 920.4871 1850.5612 930.0983 L 1817.7541 947.5864 L 1838.8659 925.991 L 1827.163 925.991 L 1812.7901 945.8596 L 1812.7901 925.991 L 1803.2834 925.991 L 1803.2834 980.7448 L 1812.7901 980.7448 L 1812.7901 960.9086 L 1827.163 980.7448 L 1838.8659 980.7448 L 1818.3031 959.8278 L 1850.5236 976.6917 Z M 1854.9009 937.5036 L 1822.0486 950.6287 L 1857.9394 948.3047 C 1857.443 944.5065 1856.4051 940.8791 1854.9009 937.5036 Z M 1902.1993 913.8809 C 1880.5981 913.8809 1863.0884 931.5621 1863.0884 953.3679 C 1863.0884 975.1738 1880.5981 992.8549 1902.1993 992.8549 C 1923.8006 992.8549 1941.3103 975.1738 1941.3103 953.3679 C 1941.3103 931.5621 1923.8006 913.8809 1902.1993 913.8809 Z M 1920.7846 980.0656 L 1883.8623 980.0656 L 1883.8623 926.6702 L 1902.2896 941.2368 L 1920.7996 926.7138 L 1920.7996 952.6662 L 1889.7891 952.6218 C 1889.7741 952.9949 1889.7515 953.3461 1889.7515 953.741 L 1889.7515 954.1577 C 1889.7515 962.4063 1895.0917 967.8901 1902.2896 967.8901 C 1905.8923 967.8901 1909.307 966.1136 1911.4957 962.1205 C 1913.9326 966.1136 1917.1894 967.8901 1920.777 967.8901 L 1920.7846 980.0875 L 1920.7846 980.0656 Z M 1908.4345 956.7683 C 1908.1562 961.3533 1905.9374 963.3713 1902.3046 963.3713 C 1898.6794 963.3713 1895.8513 960.8923 1895.2647 956.7683 L 1908.4345 956.7683 Z M 1920.7319 963.3713 C 1917.1066 963.3713 1914.8878 961.3308 1914.6095 956.7683 L 1927.9223 956.7683 C 1927.3356 960.8923 1924.2519 963.3713 1920.7319 963.3713 Z M 1965.3665 958.6547 L 1964.464 958.6547 L 1964.464 963.9415 L 1965.3665 963.9415 C 1966.6377 963.9415 1967.2093 962.6697 1967.2093 961.2872 C 1967.2093 959.7295 1966.6377 958.6547 1965.3665 958.6547 Z M 2010.119 936.7395 C 2009.1112 936.7395 2008.5395 937.946 2008.5395 943.1012 C 2008.5395 948.2564 2009.1112 949.4628 2010.119 949.4628 C 2011.1269 949.4628 2011.6985 948.2564 2011.6985 943.1012 C 2011.6985 937.946 2011.1269 936.7395 2010.119 936.7395 Z M 1987.4118 959.291 C 1987.3893 959.5979 1987.2765 960.5193 1987.126 961.5287 L 1986.2911 967.3202 L 1988.5551 967.3202 L 1987.7202 961.5287 C 1987.5848 960.6953 1987.457 959.5979 1987.4344 959.291 L 1987.4118 959.291 Z M 1972.6924 939.7669 C 1972.557 938.9328 1972.4292 937.858 1972.4066 937.5293 C 1972.384 937.8362 1972.2712 938.7575 1972.1208 939.7669 L 1971.2859 945.5584 L 1973.5498 945.5584 L 1972.715 939.7669 L 1972.6924 939.7669 Z M 1985.5691 913.8804 C 1963.7645 913.8804 1946.0816 931.5618 1946.0816 953.3679 C 1946.0816 975.174 1963.7645 992.8554 1985.5691 992.8554 C 2007.3737 992.8554 2025.0566 975.174 2025.0566 953.3679 C 2025.0566 931.5618 2007.3737 913.8804 1985.5691 913.8804 Z M 1998.0321 933.4045 C 2001.2964 933.4045 2002.6578 935.9272 2003.3197 938.231 L 1999.8748 939.5691 C 1999.0851 937.3977 1998.6413 936.7395 1998.0095 936.7395 C 1996.8211 936.7395 1996.3623 938.319 1996.3623 943.0575 C 1996.3623 947.796 1996.8663 949.3974 1998.0547 949.3974 C 1999.1453 949.3974 1999.6718 947.4012 1999.6718 945.6457 L 1999.6718 945.4042 L 1997.6786 945.4042 L 1997.6786 941.8947 L 2003.3573 941.8947 L 2003.3573 952.4684 L 2000.4013 952.4684 L 2000.1607 950.9107 C 1999.4536 952.1833 1998.5135 952.7752 1997.1972 952.7752 C 1993.9705 952.7752 1992.0601 948.9589 1992.0601 943.1012 C 1992.0601 937.2435 1993.8427 933.4264 1998.0547 933.4264 L 1998.0321 933.4045 Z M 1979.755 933.7776 L 1984.2754 933.7776 L 1986.7725 942.6401 C 1987.0207 943.4742 1987.2614 944.5054 1987.3441 944.8123 C 1987.3216 944.461 1987.299 943.584 1987.299 942.5529 L 1987.299 933.7776 L 1991.1199 933.7776 L 1991.1199 952.4465 L 1986.7123 952.4465 L 1984.1024 943.1448 C 1983.8617 942.3114 1983.6135 941.2802 1983.5308 940.9734 C 1983.5533 941.3239 1983.5759 942.2016 1983.5759 943.2328 L 1983.5759 952.4684 L 1979.755 952.4684 L 1979.755 933.7776 Z M 1975.3475 933.7776 L 1978.8374 952.4465 L 1974.5352 952.4465 L 1974.0312 949.0897 L 1970.7594 949.0897 L 1970.2555 952.4465 L 1966.2616 952.4465 L 1969.729 933.7776 L 1975.3475 933.7776 Z M 1960.9966 933.7776 L 1962.0947 938.6041 C 1962.3128 939.4375 1962.5159 940.4905 1962.5385 940.8199 C 1962.5535 940.5123 1962.7792 939.6127 1963.0198 938.6041 L 1964.2007 933.7776 L 1968.4578 933.7776 L 1964.5091 945.9751 L 1964.5091 952.4465 L 1960.3648 952.4465 L 1960.3648 945.9533 L 1956.416 933.7776 L 1960.9966 933.7776 Z M 1965.9758 967.0787 L 1964.4865 967.0787 L 1964.4865 974.2083 L 1960.3422 974.2083 L 1960.3422 955.5394 L 1966.2841 955.5394 C 1969.1573 955.5394 1971.2408 958.0402 1971.2408 961.3309 C 1971.2408 964.6215 1969.1348 967.0787 1965.9758 967.0787 Z M 1980.4545 974.2083 L 1972.0531 974.2083 L 1972.0531 955.5394 L 1976.2049 955.5394 L 1976.2049 970.677 L 1980.4545 970.677 L 1980.4545 974.2083 Z M 1989.5178 974.2083 L 1989.0139 970.8522 L 1985.7421 970.8522 L 1985.2381 974.2083 L 1981.2443 974.2083 L 1984.7116 955.5394 L 1990.3076 955.5394 L 1993.7975 974.2083 L 1989.4953 974.2083 L 1989.5178 974.2083 Z M 1999.6492 967.7369 L 1999.6492 974.2083 L 1995.5049 974.2083 L 1995.5049 967.715 L 1991.5561 955.5394 L 1996.1217 955.5394 L 1997.2198 960.3877 C 1997.4379 961.2218 1997.6335 962.2748 1997.656 962.6035 C 1997.6786 962.2966 1997.8967 961.397 1998.1374 960.3877 L 1999.3258 955.5394 L 2003.5829 955.5394 L 1999.6342 967.7369 L 1999.6492 967.7369 Z M 2010.119 952.7978 C 2006.3884 952.7978 2004.2373 949.5944 2004.2373 943.1012 C 2004.2373 936.6079 2006.3884 933.4045 2010.119 933.4045 C 2013.8497 933.4045 2015.9933 936.6079 2015.9933 943.1012 C 2015.9933 949.5944 2013.8497 952.7978 2010.119 952.7978 Z"/>
</svg>