<svg xmlns="http://www.w3.org/2000/svg" viewBox="1161 291 1540 1406">
<path fill="#FF7050" fill-rule="evenodd" d="M 1902.1993 749.8333 C 1881.8814 749.8333 1865.4042 766.3091 1865.4042 786.6284 C 1865.4042 806.9477 1881.8814 823.4235 1902.1993 823.4235 C 1922.5172 823.4235 1938.9944 806.9477 1938.9944 786.6284 C 1938.9944 766.3091 1922.5172 749.8333 1902.1993 749.8333 Z M 1921.4169 772.2167 L 1929.7781 772.2167 L 1928.5727 775.3852 L 1920.2114 775.3852 L 1921.4169 772.2167 Z M 1883.5985 798.6278 L 1890.4039 781.2725 L 1885.8273 781.2725 L 1878.7556 799.1794 L 1872.539 799.9153 L 1881.7343 776.3868 L 1898.2325 776.3868 L 1889.7941 797.9326 L 1883.5775 798.6278 L 1883.5985 798.6278 Z M 1902.8722 796.6037 C 1900.7486 797.4826 1897.4335 797.6873 1895.6603 796.0108 C 1893.6979 794.1711 1893.9853 790.8392 1894.6791 788.3658 L 1900.3631 788.3658 C 1900.1178 789.265 1899.4169 791.7181 1900.5453 792.168 C 1902.0171 792.7609 1903.5099 789.797 1904.0005 788.8564 C 1904.1197 788.6315 1904.2248 788.3455 1904.2248 788.3252 L 1901.099 788.3252 L 1902.6899 784.2777 L 1905.7737 784.2777 C 1906.0611 783.5215 1906.6989 781.0272 1905.5915 780.8435 C 1904.2458 780.6389 1903.1385 782.499 1902.4657 783.5012 L 1896.8238 783.5012 C 1896.8238 783.5012 1896.7817 783.4598 1896.7817 783.4395 C 1896.7817 783.3989 1896.8868 783.2349 1896.9079 783.1536 C 1898.9263 778.5538 1902.5287 775.3649 1907.4908 775.8149 C 1913.0977 776.3258 1912.4599 782.1724 1910.9671 786.4441 C 1909.5163 790.5939 1906.9021 794.907 1902.8511 796.5834 L 1902.8722 796.6037 Z M 1924.9702 793.9468 L 1921.2277 794.396 L 1921.2907 791.8407 L 1920.9263 791.8407 C 1919.4965 793.7015 1917.5692 795.4592 1915.0951 795.6022 C 1910.7008 795.8678 1909.8037 792.393 1911.1353 788.8564 L 1915.9993 776.3868 L 1921.9285 776.3868 C 1921.9285 776.3868 1918.8377 784.0731 1917.7374 787.0784 C 1917.3029 788.2635 1916.4899 790.4923 1918.6135 790.3696 C 1920.3306 790.2673 1921.2277 788.2838 1921.7813 786.894 L 1925.8884 776.3868 L 1931.8176 776.3868 L 1924.9702 793.9468 Z M 1985.5691 750.0806 C 2005.9445 750.0806 2022.4683 766.4456 2022.4683 786.6284 C 2022.4683 806.8113 2005.9445 823.1763 1985.5691 823.1763 C 1965.1937 823.1763 1948.6698 806.8113 1948.6698 786.6284 C 1948.6698 766.4456 1965.1937 750.0806 1985.5691 750.0806 Z M 1991.3324 768.72 L 1976.2845 756.8012 L 1974.9702 757.1463 L 1986.5531 771.603 L 1963.556 763.9688 L 1962.4666 765.1467 L 1983.0248 776.7197 L 1954.7565 779.0953 L 1954.4683 780.7808 L 1983.8893 783.9485 L 1959.3109 803.9479 L 1960.4354 805.4709 L 1989.5683 789.6535 L 1983.826 817.3897 L 1985.5902 817.3897 L 1996.8427 791.2784 L 2003.6532 811.6841 L 2004.841 810.7704 L 2002.2757 790.324 L 2012.6707 802.0193 L 2013.3033 800.8413 L 2005.579 786.3845 L 2016.5434 790.2221 L 2016.6699 789.0244 L 2007.5259 781.7352 L 2016.0936 779.8059 L 2015.9319 778.5675 L 2005.6985 776.1919 L 2010.9909 768.3953 L 2010.3724 767.542 L 2002.1351 771.5426 L 2003.0347 760.6387 L 2002.1351 760.1924 L 1997.0254 768.9435 L 1991.0021 755.7863 L 1989.8775 755.7863 L 1991.3535 768.6792 L 1991.3324 768.72 Z M 1855.6671 786.6284 C 1855.6671 806.983 1839.1657 823.4872 1818.8225 823.4872 C 1798.4722 823.4872 1781.9708 806.983 1781.9708 786.6284 C 1781.9708 766.2739 1798.4722 749.7696 1818.8225 749.7696 C 1822.7919 749.7696 1826.6196 750.4047 1830.2204 751.5714 L 1821.8279 777.4137 L 1797.3026 777.4137 L 1794.3185 786.6284 L 1818.8367 786.6284 L 1811.6563 808.7437 L 1821.7854 808.7437 L 1828.9729 786.6284 L 1855.6884 786.6284 L 1855.6671 786.6284 Z M 1854.4976 777.4137 L 1831.9428 777.4137 L 1838.9814 755.7691 C 1846.5588 760.7252 1852.1868 768.4039 1854.4976 777.4137 Z M 1641.4297 939.9932 C 1639.5167 938.7814 1637.0134 938.514 1634.7946 939.521 C 1633.5074 940.0963 1632.5118 941.0208 1631.822 942.1096 C 1632.1136 941.6985 1632.4692 941.4724 1632.9883 941.2669 C 1634.3751 940.6923 1637.1983 941.6779 1638.7131 944.1641 C 1639.7301 943.6094 1640.7826 943.0341 1641.8849 942.4794 C 1642.3613 942.2326 1642.8165 942.0065 1643.3143 941.7604 C 1642.8165 941.0414 1642.1124 940.4249 1641.4511 939.9932 L 1641.4297 939.9932 Z M 1644.7864 935.3913 C 1643.6485 935.9048 1642.7525 936.7269 1642.1978 937.7132 C 1642.468 937.2816 1642.7738 937.0142 1643.1721 936.8293 C 1644.7082 936.1103 1647.0479 937.2197 1648.3137 939.4591 C 1648.2711 939.4591 1648.2355 939.5004 1648.1928 939.521 C 1649.5796 938.9044 1650.9734 938.3291 1652.3175 937.8156 C 1650.8881 935.2476 1647.5883 934.1795 1644.7864 935.4119 L 1644.7864 935.3913 Z M 1652.09 916.3878 C 1631.4735 916.3878 1614.7542 932.9463 1614.7542 953.3679 C 1614.7542 973.7895 1631.4735 990.3481 1652.09 990.3481 C 1672.7064 990.3481 1689.4257 973.7895 1689.4257 953.3679 C 1689.4257 932.9463 1672.7064 916.3878 1652.09 916.3878 Z M 1674.5554 956.0589 C 1671.213 959.2641 1666.3629 961.894 1660.9083 963.4962 L 1658.2272 964.2771 L 1660.6594 965.592 C 1663.3974 967.0712 1666.9603 969.8241 1669.3497 972.0635 C 1666.9603 974.6315 1663.248 977.3026 1658.7037 978.9048 C 1658.7037 978.9048 1658.4975 978.5557 1658.0423 977.7954 C 1653.4198 970.2963 1647.6737 964.5238 1641.2235 959.4903 C 1641.2235 959.4903 1645.2273 959.8601 1647.1545 959.8601 C 1659.4718 959.8601 1672.0664 955.5249 1678.289 950.2659 C 1677.9121 952.1149 1676.6462 954.0457 1674.5554 956.039 L 1674.5554 956.0589 Z M 1679.3628 947.3892 C 1674.2852 953.6965 1653.9603 961.4623 1638.066 957.6619 C 1637.5113 957.5182 1637.1557 958.2372 1637.6535 958.5658 C 1648.5413 965.5507 1654.3514 973.83 1657.4236 979.2334 C 1649.6223 981.699 1639.2536 981.0618 1630.9757 974.2617 C 1631.822 971.2009 1633.1945 968.4473 1635.0009 966.1054 C 1630.3712 964.7699 1627.1568 962.4074 1626.3674 959.2022 C 1625.7914 956.8192 1626.7017 954.2924 1628.5862 951.8475 C 1626.3674 946.198 1627.804 940.2606 1632.3056 937.7744 C 1634.2115 936.7269 1636.409 936.4395 1638.6064 936.8093 C 1639.2891 935.4738 1640.3061 934.385 1641.6573 933.6248 C 1645.5118 931.4878 1650.7601 933.0288 1654.1879 937.0348 C 1666.1709 932.536 1676.6106 933.2137 1679.4695 938.5552 C 1681.8732 943.0547 1679.5335 947.1837 1679.4695 947.2662 L 1679.4055 947.3487 L 1679.3628 947.3892 Z M 2068.939 1082.7717 C 2089.5533 1082.7717 2106.2747 1099.4763 2106.2747 1120.1074 C 2106.2747 1140.7385 2089.5701 1157.4431 2068.939 1157.4431 C 2048.3078 1157.4431 2031.6032 1140.7385 2031.6032 1120.1074 C 2031.6032 1099.4763 2048.3078 1082.7717 2068.939 1082.7717 Z M 2070.5469 1096.6839 C 2058.6489 1096.6839 2052.3697 1102.8275 2052.3697 1111.8315 C 2052.3697 1119.0412 2055.8225 1123.3062 2061.9492 1127.6897 L 2051.2865 1143.5483 L 2060.1042 1143.5483 L 2071.9516 1125.7775 L 2067.8217 1123.0019 C 2062.829 1119.6507 2060.409 1117.0272 2060.409 1111.3575 C 2060.409 1106.3647 2063.9123 1103.0138 2070.5976 1103.0138 L 2074.2531 1103.0138 L 2074.2531 1143.5312 L 2082.3938 1143.5312 L 2082.3938 1096.6839 L 2070.5469 1096.6839 Z M 1725.5208 1023.807 C 1724.3466 1022.5616 1722.9661 1021.6486 1721.3009 1021.1092 C 1719.6998 1020.5691 1717.8923 1020.2994 1715.914 1020.2994 L 1713.9002 1020.2994 L 1713.9002 1052.9895 L 1715.2807 1052.9895 L 1715.2807 1053.0514 C 1717.3586 1053.0514 1719.2657 1052.6778 1720.9736 1051.9719 C 1722.6815 1051.2667 1724.1189 1050.2078 1725.3358 1048.8586 C 1726.5669 1047.4681 1727.4706 1045.7453 1728.1467 1043.6496 C 1728.7871 1041.5532 1729.1571 1039.1244 1729.1571 1036.3434 C 1729.1571 1033.334 1728.8298 1030.8014 1728.1894 1028.7676 C 1727.556 1026.7338 1726.6452 1025.0523 1725.4781 1023.8276 L 1725.5208 1023.807 Z M 1710.4489 999.378 C 1690.0113 999.378 1673.445 1016.1066 1673.445 1036.7377 C 1673.445 1057.3687 1690.0113 1074.0973 1710.4489 1074.0973 C 1730.8864 1074.0973 1747.4527 1057.3687 1747.4527 1036.7377 C 1747.4527 1016.1066 1730.8864 999.378 1710.4489 999.378 Z M 1699.2054 1059.1328 L 1691.4773 1059.1328 L 1691.4773 1014.3012 L 1699.2054 1014.3012 L 1699.2054 1059.1328 Z M 1735.4051 1046.2228 C 1734.3377 1049.0251 1732.9002 1051.3912 1731.05 1053.3211 C 1729.1785 1055.2517 1726.9583 1056.7041 1724.3893 1057.6797 C 1721.8347 1058.6553 1718.9597 1059.1947 1715.914 1059.1947 L 1706.1721 1059.1947 L 1706.1721 1014.3012 L 1716.5545 1014.3012 C 1719.4721 1014.3012 1722.1905 1014.6748 1724.6953 1015.4839 C 1727.2002 1016.2311 1729.3208 1017.5184 1731.1283 1019.2405 C 1732.9358 1020.9634 1734.3804 1023.2676 1735.3838 1026.0692 C 1736.4512 1028.8715 1736.928 1032.3584 1736.928 1036.4886 C 1736.928 1040.1413 1736.3943 1043.3585 1735.3838 1046.2228 L 1735.4051 1046.2228 Z M 1914.308 1208.2822 L 1880.0223 1205.9879 L 1911.4241 1218.5336 C 1912.8518 1215.3299 1913.8369 1211.887 1914.308 1208.2822 Z M 1907.2696 1225.6142 C 1900.4738 1234.7071 1889.602 1240.597 1877.3454 1240.597 C 1856.7582 1240.597 1840.0687 1223.9781 1840.0687 1203.4773 C 1840.0687 1182.9765 1856.7582 1166.3576 1877.3454 1166.3576 C 1889.6235 1166.3576 1900.5167 1172.2696 1907.3053 1181.3918 L 1876.1676 1197.99 L 1896.2051 1177.4935 L 1885.0977 1177.4935 L 1871.4562 1196.351 L 1871.4562 1177.4935 L 1862.4333 1177.4935 L 1862.4333 1229.4611 L 1871.4562 1229.4611 L 1871.4562 1210.6343 L 1885.0977 1229.4611 L 1896.2051 1229.4611 L 1876.6887 1209.6085 L 1907.2696 1225.6142 Z M 1911.4241 1188.4203 L 1880.2436 1200.8775 L 1914.308 1198.6717 C 1913.8369 1195.0668 1912.8518 1191.624 1911.4241 1188.4203 Z M 2058.2175 773.1769 C 2056.2935 771.9581 2053.7758 771.6892 2051.5443 772.7019 C 2050.2497 773.2806 2049.2484 774.2104 2048.5546 775.3054 C 2048.8478 774.892 2049.2054 774.6646 2049.7276 774.4579 C 2051.1223 773.8799 2053.9618 774.8713 2055.4853 777.3718 C 2056.5081 776.8139 2057.5666 776.2352 2058.6752 775.6773 C 2059.1545 775.4292 2059.6122 775.2017 2060.1129 774.9542 C 2059.6122 774.2311 2058.9041 773.611 2058.2389 773.1769 L 2058.2175 773.1769 Z M 2061.5934 768.5485 C 2060.449 769.0649 2059.5478 769.8918 2058.9899 770.8838 C 2059.2617 770.4496 2059.5693 770.1807 2059.9698 769.9947 C 2061.5148 769.2716 2063.8679 770.3874 2065.141 772.6397 C 2065.0981 772.6397 2065.0624 772.6812 2065.0194 772.7019 C 2066.4142 772.0818 2067.816 771.5032 2069.1678 770.9868 C 2067.7302 768.404 2064.4115 767.3298 2061.5934 768.5693 L 2061.5934 768.5485 Z M 2068.939 749.4358 C 2048.2041 749.4358 2031.3888 766.0895 2031.3888 786.6284 C 2031.3888 807.1673 2048.2041 823.821 2068.939 823.821 C 2089.6738 823.821 2106.4892 807.1673 2106.4892 786.6284 C 2106.4892 766.0895 2089.6738 749.4358 2068.939 749.4358 Z M 2091.5335 789.3349 C 2088.1718 792.5585 2083.2939 795.2035 2077.808 796.8149 L 2075.1115 797.6002 L 2077.5576 798.9227 C 2080.3113 800.4104 2083.8947 803.1791 2086.2979 805.4314 C 2083.8947 808.0142 2080.1611 810.7006 2075.5907 812.312 C 2075.5907 812.312 2075.3833 811.9609 2074.9255 811.1963 C 2070.2765 803.654 2064.4973 797.8484 2058.0101 792.7859 C 2058.0101 792.7859 2062.0369 793.1579 2063.9752 793.1579 C 2076.3632 793.1579 2089.0301 788.7977 2095.2885 783.5085 C 2094.9094 785.3682 2093.6363 787.31 2091.5335 789.3149 L 2091.5335 789.3349 Z M 2096.3685 780.6154 C 2091.2617 786.9589 2070.8201 794.7693 2054.8344 790.947 C 2054.2765 790.8026 2053.9189 791.5257 2054.4196 791.8561 C 2065.3699 798.8812 2071.2134 807.2081 2074.3033 812.6425 C 2066.4571 815.1222 2056.0288 814.4814 2047.7034 807.6422 C 2048.5546 804.5638 2049.935 801.7944 2051.7517 799.4391 C 2047.0955 798.0959 2043.8626 795.7199 2043.0687 792.4963 C 2042.4893 790.0995 2043.4048 787.5582 2045.3002 785.0992 C 2043.0687 779.4173 2044.5134 773.4458 2049.0409 770.9453 C 2050.9578 769.8918 2053.1679 769.6028 2055.378 769.9747 C 2056.0646 768.6315 2057.0874 767.5365 2058.4464 766.7719 C 2062.323 764.6226 2067.6015 766.1725 2071.0489 770.2015 C 2083.1008 765.6768 2093.6005 766.3585 2096.4758 771.7306 C 2098.8933 776.256 2096.5402 780.4087 2096.4758 780.4916 L 2096.4114 780.5746 L 2096.3685 780.6154 Z M 2123.3629 1041.1275 C 2128.0645 1046.1445 2133.0098 1050.2628 2137.4463 1052.6666 C 2142.2267 1055.259 2145.1652 1055.1751 2145.8676 1054.4641 C 2146.4697 1053.837 2146.5772 1051.3285 2144.3984 1046.2284 C 2142.5779 1041.8385 2139.1019 1036.5492 2135.0238 1031.7207 C 2135.6186 1031.1774 2122.596 1041.7547 2123.3844 1041.1275 L 2123.3629 1041.1275 Z M 2127.2976 999.1103 C 2106.7136 999.1103 2090.0286 1015.9587 2090.0286 1036.7377 C 2090.0286 1057.5166 2106.7136 1074.3651 2127.2976 1074.3651 C 2147.8816 1074.3651 2164.5667 1057.5166 2164.5667 1036.7377 C 2164.5667 1015.9587 2147.8816 999.1103 2127.2976 999.1103 Z M 2148.2113 1056.534 C 2148.1253 1056.7218 2147.9389 1056.8895 2147.7741 1057.0773 L 2147.6952 1057.1611 L 2147.3584 1057.5374 C 2136.3282 1068.01 2118.8691 1067.2997 2108.6201 1055.9276 C 2098.8871 1045.0996 2099.0735 1028.1672 2108.7061 1017.5269 C 2115.909 1009.3743 2127.8996 1006.4265 2137.9838 1010.1892 C 2140.4063 1011.0048 2142.6783 1012.2591 2144.7496 1013.7642 C 2146.2188 1014.8299 2147.6092 1016.0842 2148.9137 1017.5269 C 2148.9137 1017.5269 2150.3829 1019.1366 2137.0879 1029.9647 L 2137.3602 1030.3202 C 2146.656 1041.253 2151.3361 1052.4365 2148.2113 1056.5548 L 2148.2113 1056.534 Z M 1960.5581 1166.1549 C 1939.9447 1166.1549 1923.2357 1182.8667 1923.2357 1203.4773 C 1923.2357 1224.0879 1939.9447 1240.7997 1960.5581 1240.7997 C 1981.1715 1240.7997 1997.8805 1224.0879 1997.8805 1203.4773 C 1997.8805 1182.8667 1981.1715 1166.1549 1960.5581 1166.1549 Z M 1984.4014 1219.2359 C 1984.4014 1220.0649 1984.2793 1220.9155 1983.9492 1221.682 C 1983.6118 1222.4493 1983.1812 1223.1749 1982.5783 1223.7347 C 1981.9969 1224.3154 1981.2936 1224.7719 1980.504 1225.0826 C 1979.7361 1225.4142 1978.8891 1225.6009 1978.035 1225.6009 L 1943.0597 1225.6009 C 1942.2055 1225.6009 1941.3801 1225.4142 1940.5906 1225.0826 C 1939.8227 1224.751 1939.0977 1224.3154 1938.5164 1223.7347 C 1937.935 1223.1548 1937.4182 1222.4493 1937.1455 1221.682 C 1936.9015 1220.9155 1936.6933 1220.0649 1936.6933 1219.2359 L 1936.6933 1193.0478 C 1936.6933 1192.0107 1936.9445 1190.9743 1937.3967 1190.0829 C 1937.8561 1189.1914 1938.5594 1188.4034 1939.4064 1187.8227 L 1955.1248 1176.8542 C 1956.6823 1175.6929 1958.6059 1175.1123 1960.5581 1175.1123 C 1962.5104 1175.1123 1964.4339 1175.6929 1965.9914 1176.8542 L 1981.6452 1187.8227 C 1982.4922 1188.4034 1983.2027 1189.1706 1983.6549 1190.0829 C 1984.1143 1190.9951 1984.3583 1192.0107 1984.3583 1193.0478 L 1984.3583 1219.2359 L 1984.4014 1219.2359 Z M 1954.3138 1197.3191 C 1952.8209 1197.2567 1951.4141 1197.7756 1950.316 1198.7287 C 1949.2178 1199.7034 1948.5719 1201.0513 1948.5145 1202.5442 L 1948.5145 1203.2491 C 1948.5145 1203.8921 1949.0887 1204.4104 1949.7346 1204.4104 C 1949.7346 1204.4104 1949.7561 1204.3895 1949.7992 1204.3479 C 1950.5026 1204.2862 1951.0194 1203.7055 1950.9548 1203.0007 L 1950.9548 1202.6067 C 1951.0194 1201.8394 1951.4141 1201.0513 1951.9955 1200.5331 C 1952.5769 1200.0149 1953.3664 1199.7659 1954.1918 1199.7659 C 1955.8713 1199.89 1957.1776 1201.3212 1957.0986 1202.9799 C 1957.034 1203.6223 1957.5508 1204.2029 1958.2542 1204.2654 C 1958.9001 1204.2654 1959.4815 1203.8089 1959.5389 1203.1041 C 1959.7255 1200.0767 1957.3426 1197.4849 1954.2994 1197.2983 L 1954.3138 1197.3191 Z M 1967.5848 1197.3191 C 1964.477 1197.1949 1961.8859 1199.5168 1961.6993 1202.5442 L 1961.6993 1203.2491 C 1961.6993 1203.8921 1962.2807 1204.4104 1962.9195 1204.4104 C 1962.9195 1204.4104 1962.9841 1204.4104 1963.0487 1204.3479 C 1963.752 1204.2862 1964.2688 1203.7055 1964.2042 1203.0007 L 1964.2042 1202.6067 C 1964.3334 1200.9272 1965.7617 1199.7034 1967.4412 1199.7659 C 1968.2953 1199.8283 1969.0561 1200.2216 1969.5801 1200.8023 C 1970.0968 1201.3829 1970.427 1202.1502 1970.3481 1203.0007 C 1970.2835 1203.6431 1970.8002 1204.2237 1971.5036 1204.2862 C 1972.2142 1204.2862 1972.7309 1203.8297 1972.7884 1203.1249 C 1972.853 1201.632 1972.3362 1200.2216 1971.3601 1199.1228 C 1970.3839 1198.0239 1969.0418 1197.3815 1967.5489 1197.3191 L 1967.5848 1197.3191 Z M 2215.6152 687.4433 C 2212.7674 689.9186 2208.546 689.9186 2205.7054 687.4433 C 2198.5787 681.2558 2188.856 691.0721 2194.983 698.2663 C 2197.4353 701.14 2197.4353 705.398 2194.983 708.2717 C 2188.856 715.466 2198.5787 725.2823 2205.7054 719.0948 C 2208.546 716.6195 2212.7674 716.6195 2215.6152 719.0948 C 2222.7347 725.2823 2232.4574 715.466 2226.3304 708.2717 C 2223.8781 705.398 2223.8781 701.14 2226.3304 698.2663 C 2232.4574 691.0721 2222.7347 681.2558 2215.6152 687.4433 Z M 2210.6675 710.3687 C 2206.7841 710.3687 2203.6271 707.1808 2203.6271 703.2586 C 2203.6271 699.3364 2206.7841 696.1485 2210.6675 696.1485 C 2214.5508 696.1485 2217.7079 699.3364 2217.7079 703.2586 C 2217.7079 707.1808 2214.5508 710.3687 2210.6675 710.3687 Z M 2210.6675 665.5037 C 2190.0138 665.5037 2173.2722 682.4093 2173.2722 703.2586 C 2173.2722 724.1079 2190.0138 741.0135 2210.6675 741.0135 C 2231.3212 741.0135 2248.0628 724.1079 2248.0628 703.2586 C 2248.0628 682.4093 2231.3212 665.5037 2210.6675 665.5037 Z M 2234.1043 721.7376 C 2232.8314 723.8562 2231.0695 725.639 2228.9696 726.9183 C 2225.3523 729.121 2220.455 729.121 2210.6675 729.121 C 2200.88 729.121 2195.9826 729.121 2192.3654 726.9183 C 2190.2655 725.639 2188.5036 723.8562 2187.2307 721.7376 C 2185.0517 718.088 2185.0517 713.1382 2185.0517 703.2586 C 2185.0517 693.3798 2185.0517 688.4292 2187.2307 684.7796 C 2188.5036 682.661 2190.2655 680.8782 2192.3654 679.5989 C 2195.9826 677.3962 2200.88 677.3969 2210.6675 677.3969 C 2220.455 677.3969 2225.3523 677.3962 2228.9696 679.5989 C 2231.0695 680.8782 2232.8314 682.661 2234.1043 684.7796 C 2236.2833 688.4292 2236.2833 693.3798 2236.2833 703.2586 C 2236.2833 713.1382 2236.2833 718.088 2234.1043 721.7376 Z M 1639.1141 834.2025 C 1654.0643 839.2267 1664.8333 853.3542 1664.8333 869.9975 C 1664.8333 890.8489 1647.9299 907.7524 1627.0785 907.7524 C 1626.5383 907.7524 1626.0011 907.7406 1625.4662 907.718 L 1642.764 863.9602 L 1644.1453 864.4506 L 1640.8927 889.6272 L 1649.582 892.7906 L 1649.582 852.2409 L 1642.274 849.5227 L 1616.34 877.7738 L 1614.9585 877.2835 L 1639.1141 834.2025 Z M 1627.0791 832.2433 C 1627.6336 832.2433 1628.1844 832.2558 1628.733 832.2796 L 1611.3937 875.9916 L 1610.0124 875.5013 L 1613.2649 850.3692 L 1604.5757 847.2057 L 1604.5757 887.7548 L 1611.8835 890.473 L 1637.8176 862.1774 L 1639.199 862.6678 L 1615.0179 905.785 C 1600.0812 900.7533 1589.3242 886.6322 1589.3242 869.9982 C 1589.3242 849.1469 1606.2278 832.2433 1627.0791 832.2433 Z M 1627.0791 665.3971 C 1647.9837 665.3971 1664.9406 682.337 1664.9406 703.2586 C 1664.9406 724.1802 1648.0007 741.1201 1627.0791 741.1201 C 1606.1574 741.1201 1589.2176 724.1802 1589.2176 703.2586 C 1589.2176 682.337 1606.1574 665.3971 1627.0791 665.3971 Z M 1628.7097 679.5052 C 1616.6441 679.5052 1610.2765 685.7354 1610.2765 694.8661 C 1610.2766 702.1773 1613.7779 706.5024 1619.9909 710.9476 L 1609.1781 727.0296 L 1618.12 727.0296 L 1630.1342 709.0085 L 1625.9461 706.1938 C 1620.8831 702.7954 1618.429 700.135 1618.429 694.3855 C 1618.429 689.3224 1621.9817 685.9242 1628.7611 685.9242 L 1632.4681 685.9242 L 1632.4681 727.0123 L 1640.7234 727.0123 L 1640.7234 679.5052 L 1628.7097 679.5052 Z M 2216.2604 791.7099 L 2215.3929 791.7099 L 2215.3929 796.7915 L 2216.2604 796.7915 C 2217.4822 796.7915 2218.0316 795.569 2218.0316 794.2402 C 2218.0316 792.743 2217.4822 791.7099 2216.2604 791.7099 Z M 2259.2751 770.6458 C 2258.3064 770.6458 2257.7569 771.8053 2257.7569 776.7603 C 2257.7569 781.7153 2258.3064 782.8749 2259.2751 782.8749 C 2260.2438 782.8749 2260.7933 781.7153 2260.7933 776.7603 C 2260.7933 771.8053 2260.2438 770.6458 2259.2751 770.6458 Z M 2237.4497 792.3215 C 2237.428 792.6165 2237.3195 793.5021 2237.1749 794.4723 L 2236.3725 800.0389 L 2238.5485 800.0389 L 2237.7461 794.4723 C 2237.6159 793.6713 2237.493 792.6165 2237.4713 792.3215 L 2237.4497 792.3215 Z M 2223.3018 773.5556 C 2223.1717 772.7538 2223.0488 771.7208 2223.0271 771.4048 C 2223.0054 771.6998 2222.897 772.5854 2222.7524 773.5556 L 2221.9499 779.1222 L 2224.126 779.1222 L 2223.3235 773.5556 L 2223.3018 773.5556 Z M 2235.6785 748.6743 C 2214.7206 748.6743 2197.7243 765.6691 2197.7243 786.6284 C 2197.7243 807.5878 2214.7206 824.5826 2235.6785 824.5826 C 2256.6364 824.5826 2273.6326 807.5878 2273.6326 786.6284 C 2273.6326 765.6691 2256.6364 748.6743 2235.6785 748.6743 Z M 2247.6575 767.4403 C 2250.7951 767.4403 2252.1036 769.865 2252.7398 772.0793 L 2249.4287 773.3654 C 2248.6696 771.2783 2248.2431 770.6458 2247.6358 770.6458 C 2246.4936 770.6458 2246.0526 772.1639 2246.0526 776.7184 C 2246.0526 781.2729 2246.537 782.812 2247.6792 782.812 C 2248.7275 782.812 2249.2335 780.8934 2249.2335 779.206 L 2249.2335 778.974 L 2247.3177 778.974 L 2247.3177 775.6008 L 2252.7759 775.6008 L 2252.7759 785.7638 L 2249.9348 785.7638 L 2249.7034 784.2666 C 2249.0239 785.4898 2248.1202 786.0587 2246.8551 786.0587 C 2243.7537 786.0587 2241.9174 782.3906 2241.9174 776.7603 C 2241.9174 771.1301 2243.6308 767.4612 2247.6792 767.4612 L 2247.6575 767.4403 Z M 2230.0902 767.7988 L 2234.435 767.7988 L 2236.8352 776.3172 C 2237.0737 777.1189 2237.3051 778.1101 2237.3846 778.405 C 2237.3629 778.0674 2237.3412 777.2245 2237.3412 776.2333 L 2237.3412 767.7988 L 2241.0137 767.7988 L 2241.0137 785.7428 L 2236.7773 785.7428 L 2234.2687 776.8023 C 2234.0374 776.0013 2233.7988 775.0101 2233.7193 774.7152 C 2233.741 775.052 2233.7627 775.8957 2233.7627 776.8869 L 2233.7627 785.7638 L 2230.0902 785.7638 L 2230.0902 767.7988 Z M 2225.8538 767.7988 L 2229.2082 785.7428 L 2225.073 785.7428 L 2224.5886 782.5164 L 2221.4439 782.5164 L 2220.9595 785.7428 L 2217.1207 785.7428 L 2220.4534 767.7988 L 2225.8538 767.7988 Z M 2212.0602 767.7988 L 2213.1156 772.4379 C 2213.3253 773.2389 2213.5205 774.251 2213.5422 774.5677 C 2213.5566 774.272 2213.7735 773.4074 2214.0048 772.4379 L 2215.1399 767.7988 L 2219.2317 767.7988 L 2215.4363 779.5227 L 2215.4363 785.7428 L 2211.4529 785.7428 L 2211.4529 779.5017 L 2207.6575 767.7988 L 2212.0602 767.7988 Z M 2216.846 799.8068 L 2215.4146 799.8068 L 2215.4146 806.6595 L 2211.4312 806.6595 L 2211.4312 788.7155 L 2217.1424 788.7155 C 2219.904 788.7155 2221.9065 791.1193 2221.9065 794.2821 C 2221.9065 797.445 2219.8823 799.8068 2216.846 799.8068 Z M 2230.7625 806.6595 L 2222.6873 806.6595 L 2222.6873 788.7155 L 2226.6779 788.7155 L 2226.6779 803.2653 L 2230.7625 803.2653 L 2230.7625 806.6595 Z M 2239.4739 806.6595 L 2238.9895 803.4338 L 2235.8447 803.4338 L 2235.3604 806.6595 L 2231.5216 806.6595 L 2234.8543 788.7155 L 2240.233 788.7155 L 2243.5874 806.6595 L 2239.4522 806.6595 L 2239.4739 806.6595 Z M 2249.2118 800.4394 L 2249.2118 806.6595 L 2245.2285 806.6595 L 2245.2285 800.4184 L 2241.433 788.7155 L 2245.8213 788.7155 L 2246.8767 793.3756 C 2247.0864 794.1773 2247.2744 795.1894 2247.296 795.5053 C 2247.3177 795.2104 2247.5274 794.3458 2247.7587 793.3756 L 2248.901 788.7155 L 2252.9928 788.7155 L 2249.1974 800.4394 L 2249.2118 800.4394 Z M 2259.2751 786.0804 C 2255.6893 786.0804 2253.6217 783.0014 2253.6217 776.7603 C 2253.6217 770.5192 2255.6893 767.4403 2259.2751 767.4403 C 2262.8609 767.4403 2264.9212 770.5192 2264.9212 776.7603 C 2264.9212 783.0014 2262.8609 786.0804 2259.2751 786.0804 Z M 1818.8296 1082.0688 C 1797.825 1082.0688 1780.7909 1099.1014 1780.7909 1120.1074 C 1780.7909 1141.1135 1797.825 1158.1461 1818.8296 1158.1461 C 1839.8342 1158.1461 1856.8683 1141.1135 1856.8683 1120.1074 C 1856.8683 1099.1014 1839.8342 1082.0688 1818.8296 1082.0688 Z M 1838.6966 1105.2086 L 1847.3405 1105.2086 L 1846.0943 1108.4843 L 1837.4504 1108.4843 L 1838.6966 1105.2086 Z M 1799.6001 1132.5124 L 1806.6355 1114.5704 L 1801.9042 1114.5704 L 1794.5935 1133.0826 L 1788.1668 1133.8434 L 1797.6728 1109.5196 L 1814.7287 1109.5196 L 1806.0051 1131.7936 L 1799.5784 1132.5124 L 1799.6001 1132.5124 Z M 1819.5252 1130.4199 C 1817.3298 1131.3285 1813.9027 1131.54 1812.0696 1129.8069 C 1810.0408 1127.905 1810.3379 1124.4605 1811.0552 1121.9036 L 1816.9313 1121.9036 C 1816.6777 1122.8332 1815.9531 1125.3691 1817.1197 1125.8342 C 1818.6412 1126.4472 1820.1845 1123.3831 1820.6917 1122.4108 C 1820.8148 1122.1782 1820.9235 1121.8826 1820.9235 1121.8615 L 1817.6921 1121.8615 L 1819.3368 1117.6773 L 1822.5248 1117.6773 C 1822.8218 1116.8955 1823.4812 1114.3169 1822.3364 1114.127 C 1820.9453 1113.9155 1819.8005 1115.8384 1819.1049 1116.8745 L 1813.2723 1116.8745 C 1813.2723 1116.8745 1813.2288 1116.8317 1813.2288 1116.8107 C 1813.2288 1116.7687 1813.3375 1116.5992 1813.3593 1116.5151 C 1815.446 1111.7599 1819.1701 1108.4632 1824.2999 1108.9284 C 1830.0963 1109.4566 1829.4369 1115.5008 1827.8937 1119.9169 C 1826.3938 1124.2069 1823.6913 1128.6658 1819.5034 1130.3989 L 1819.5252 1130.4199 Z M 1842.3701 1127.6731 L 1838.501 1128.1376 L 1838.5662 1125.4959 L 1838.1895 1125.4959 C 1836.7114 1127.4195 1834.7189 1129.2367 1832.1612 1129.3845 C 1827.6183 1129.6591 1826.6909 1126.0668 1828.0676 1122.4108 L 1833.0959 1109.5196 L 1839.2256 1109.5196 C 1839.2256 1109.5196 1836.0303 1117.4657 1834.8928 1120.5726 C 1834.4436 1121.7978 1833.6031 1124.1018 1835.7985 1123.975 C 1837.5736 1123.8693 1838.501 1121.8188 1839.0734 1120.382 L 1843.3192 1109.5196 L 1849.4489 1109.5196 L 1842.3701 1127.6731 Z M 2248.3358 869.9982 C 2248.3358 890.8118 2231.4622 907.6882 2210.6602 907.6882 C 2189.851 907.6882 2172.9774 890.8118 2172.9774 869.9982 C 2172.9774 849.1846 2189.851 832.3081 2210.6602 832.3081 C 2214.7192 832.3081 2218.6331 832.9576 2222.3152 834.1506 L 2213.7334 860.5757 L 2188.655 860.5757 L 2185.6036 869.9982 L 2210.6747 869.9982 L 2203.3324 892.6122 L 2213.6899 892.6122 L 2221.0395 869.9982 L 2248.3575 869.9982 L 2248.3358 869.9982 Z M 2247.1398 860.5757 L 2224.0764 860.5757 L 2231.2738 838.4429 C 2239.022 843.5108 2244.777 851.3626 2247.1398 860.5757 Z M 1735.4598 748.5532 C 1714.6309 748.5532 1697.7472 765.6022 1697.7472 786.6284 C 1697.7472 807.6546 1714.6309 824.7037 1735.4598 824.7037 C 1756.2888 824.7037 1773.1725 807.6546 1773.1725 786.6284 C 1773.1725 765.6022 1756.2888 748.5532 1735.4598 748.5532 Z M 1753.3806 812.3716 L 1717.7784 812.3716 L 1717.7784 760.8852 L 1735.5469 774.931 L 1753.3951 760.9273 L 1753.3951 785.9518 L 1723.4933 785.909 C 1723.4788 786.2687 1723.4571 786.6074 1723.4571 786.9881 L 1723.4571 787.3899 C 1723.4571 795.3437 1728.6063 800.6314 1735.5469 800.6314 C 1739.0208 800.6314 1742.3134 798.9184 1744.4238 795.0681 C 1746.7736 798.9184 1749.9139 800.6314 1753.3733 800.6314 L 1753.3806 812.3927 L 1753.3806 812.3716 Z M 1741.4721 789.9072 C 1741.2038 794.3283 1739.0643 796.2741 1735.5614 796.2741 C 1732.0657 796.2741 1729.3388 793.8837 1728.7731 789.9072 L 1741.4721 789.9072 Z M 1753.3298 796.2741 C 1749.8341 796.2741 1747.6947 794.3066 1747.4263 789.9072 L 1760.2631 789.9072 C 1759.6974 793.8837 1756.724 796.2741 1753.3298 796.2741 Z M 2152.3086 915.3286 C 2131.2992 915.3286 2114.2693 932.3614 2114.2693 953.3679 C 2114.2693 974.3744 2131.2992 991.4073 2152.3086 991.4073 C 2173.318 991.4073 2190.3479 974.3744 2190.3479 953.3679 C 2190.3479 932.3614 2173.318 915.3286 2152.3086 915.3286 Z M 2176.6099 969.4293 C 2176.6099 970.2742 2176.4855 971.1411 2176.149 971.9223 C 2175.8052 972.7043 2175.3663 973.4439 2174.7518 974.0145 C 2174.1593 974.6063 2173.4424 975.0716 2172.6377 975.3883 C 2171.855 975.7263 2170.9918 975.9165 2170.1212 975.9165 L 2134.474 975.9165 C 2133.6035 975.9165 2132.7622 975.7263 2131.9575 975.3883 C 2131.1748 975.0503 2130.436 974.6063 2129.8434 974.0145 C 2129.2509 973.4234 2128.7242 972.7043 2128.4462 971.9223 C 2128.1975 971.1411 2127.9854 970.2742 2127.9854 969.4293 L 2127.9854 942.7381 C 2127.9854 941.6811 2128.2414 940.6247 2128.7023 939.7162 C 2129.1704 938.8076 2129.8873 938.0044 2130.7505 937.4126 L 2146.7709 926.2334 C 2148.3584 925.0498 2150.3188 924.458 2152.3086 924.458 C 2154.2983 924.458 2156.2588 925.0498 2157.8462 926.2334 L 2173.8008 937.4126 C 2174.664 938.0044 2175.3882 938.7864 2175.8491 939.7162 C 2176.3173 940.646 2176.566 941.6811 2176.566 942.7381 L 2176.566 969.4293 L 2176.6099 969.4293 Z M 2145.9443 947.0914 C 2144.4227 947.0278 2142.989 947.5567 2141.8697 948.5281 C 2140.7505 949.5216 2140.0921 950.8954 2140.0336 952.4169 L 2140.0336 953.1353 C 2140.0336 953.7907 2140.6188 954.3189 2141.2772 954.3189 C 2141.2772 954.3189 2141.2991 954.2977 2141.343 954.2553 C 2142.0599 954.1923 2142.5866 953.6005 2142.5208 952.8822 L 2142.5208 952.4806 C 2142.5866 951.6986 2142.989 950.8954 2143.5815 950.3672 C 2144.174 949.839 2144.9787 949.5852 2145.82 949.5852 C 2147.5317 949.7118 2148.8631 951.1704 2148.7826 952.861 C 2148.7168 953.5157 2149.2435 954.1075 2149.9604 954.1711 C 2150.6188 954.1711 2151.2113 953.7059 2151.2698 952.9875 C 2151.46 949.902 2149.0314 947.2604 2145.9297 947.0702 L 2145.9443 947.0914 Z M 2159.4702 947.0914 C 2156.3027 946.9649 2153.6619 949.3314 2153.4717 952.4169 L 2153.4717 953.1353 C 2153.4717 953.7907 2154.0643 954.3189 2154.7153 954.3189 C 2154.7153 954.3189 2154.7812 954.3189 2154.847 954.2553 C 2155.5639 954.1923 2156.0906 953.6005 2156.0247 952.8822 L 2156.0247 952.4806 C 2156.1564 950.7688 2157.6122 949.5216 2159.3239 949.5852 C 2160.1944 949.6488 2160.9699 950.0497 2161.5039 950.6415 C 2162.0306 951.2333 2162.3671 952.0153 2162.2866 952.8822 C 2162.2208 953.5369 2162.7475 954.1287 2163.4644 954.1923 C 2164.1886 954.1923 2164.7153 953.7271 2164.7738 953.0087 C 2164.8396 951.4872 2164.3129 950.0497 2163.3181 948.9298 C 2162.3232 947.8098 2160.9552 947.1551 2159.4337 947.0914 L 2159.4702 947.0914 Z M 2152.3086 748.5149 C 2131.2582 748.5149 2114.195 765.5809 2114.195 786.6284 C 2114.195 807.6759 2131.2582 824.742 2152.3086 824.742 C 2173.359 824.742 2190.4221 807.6759 2190.4221 786.6284 C 2190.4221 765.5809 2173.359 748.5149 2152.3086 748.5149 Z M 2176.6573 802.7211 C 2176.6573 803.5677 2176.5327 804.4362 2176.1955 805.219 C 2175.851 806.0026 2175.4113 806.7436 2174.7956 807.3153 C 2174.2019 807.9082 2173.4836 808.3744 2172.6774 808.6918 C 2171.8931 809.0304 2171.0282 809.221 2170.156 809.221 L 2134.4392 809.221 C 2133.567 809.221 2132.7241 809.0304 2131.9178 808.6918 C 2131.1336 808.3531 2130.3933 807.9082 2129.7996 807.3153 C 2129.2059 806.7231 2128.6782 806.0026 2128.3997 805.219 C 2128.1505 804.4362 2127.9379 803.5677 2127.9379 802.7211 L 2127.9379 775.9779 C 2127.9379 774.9188 2128.1944 773.8604 2128.6562 772.95 C 2129.1253 772.0397 2129.8436 771.2349 2130.7085 770.642 L 2146.7601 759.441 C 2148.3506 758.2551 2150.315 757.6621 2152.3086 757.6621 C 2154.3022 757.6621 2156.2665 758.2551 2157.857 759.441 L 2173.8428 770.642 C 2174.7076 771.2349 2175.4333 772.0185 2175.895 772.95 C 2176.3641 773.8816 2176.6133 774.9188 2176.6133 775.9779 L 2176.6133 802.7211 L 2176.6573 802.7211 Z M 2145.9319 780.3397 C 2144.4074 780.2759 2142.9708 780.8058 2141.8494 781.7792 C 2140.7279 782.7746 2140.0683 784.151 2140.0096 785.6756 L 2140.0096 786.3953 C 2140.0096 787.0521 2140.596 787.5813 2141.2557 787.5813 C 2141.2557 787.5813 2141.2777 787.56 2141.3216 787.5175 C 2142.0399 787.4545 2142.5676 786.8615 2142.5017 786.1417 L 2142.5017 785.7393 C 2142.5676 784.9558 2142.9708 784.151 2143.5645 783.6218 C 2144.1582 783.0927 2144.9644 782.8383 2145.8073 782.8383 C 2147.5224 782.9651 2148.8564 784.4266 2148.7758 786.1205 C 2148.7098 786.7765 2149.2375 787.3694 2149.9558 787.4332 C 2150.6155 787.4332 2151.2092 786.967 2151.2678 786.2473 C 2151.4584 783.1557 2149.025 780.509 2145.9172 780.3184 L 2145.9319 780.3397 Z M 2159.4842 780.3397 C 2156.3105 780.2129 2153.6646 782.584 2153.474 785.6756 L 2153.474 786.3953 C 2153.474 787.0521 2154.0677 787.5813 2154.72 787.5813 C 2154.72 787.5813 2154.786 787.5813 2154.8519 787.5175 C 2155.5702 787.4545 2156.098 786.8615 2156.032 786.1417 L 2156.032 785.7393 C 2156.1639 784.0242 2157.6225 782.7746 2159.3376 782.8383 C 2160.2098 782.9021 2160.9868 783.3037 2161.5218 783.8967 C 2162.0495 784.4897 2162.3867 785.2732 2162.3061 786.1417 C 2162.2401 786.7977 2162.7678 787.3907 2163.4861 787.4545 C 2164.2117 787.4545 2164.7395 786.9883 2164.7981 786.2685 C 2164.8641 784.744 2164.3364 783.3037 2163.3395 782.1816 C 2162.3427 781.0594 2160.9721 780.4034 2159.4476 780.3397 L 2159.4842 780.3397 Z M 1985.5691 1081.4221 C 1964.4064 1081.4221 1947.2522 1098.7443 1947.2522 1120.1074 C 1947.2522 1141.4706 1964.4064 1158.7928 1985.5691 1158.7928 C 2006.7318 1158.7928 2023.886 1141.4706 2023.886 1120.1074 C 2023.886 1098.7443 2006.7318 1081.4221 1985.5691 1081.4221 Z M 2003.777 1146.2632 L 1967.6043 1146.2632 L 1967.6043 1093.9517 L 1985.6575 1108.2225 L 2003.7917 1093.9944 L 2003.7917 1119.4199 L 1973.4108 1119.3765 C 1973.3961 1119.7419 1973.374 1120.0861 1973.374 1120.4729 L 1973.374 1120.8811 C 1973.374 1128.9623 1978.6057 1134.3348 1985.6575 1134.3348 C 1989.1871 1134.3348 1992.5325 1132.5943 1994.6767 1128.6823 C 1997.0642 1132.5943 2000.2548 1134.3348 2003.7696 1134.3348 L 2003.777 1146.2845 L 2003.777 1146.2632 Z M 1991.6777 1123.4388 C 1991.4051 1127.9307 1989.2313 1129.9077 1985.6723 1129.9077 C 1982.1206 1129.9077 1979.35 1127.479 1978.7752 1123.4388 L 1991.6777 1123.4388 Z M 2003.7254 1129.9077 C 2000.1737 1129.9077 1998 1127.9086 1997.7274 1123.4388 L 2010.7698 1123.4388 C 2010.1951 1127.479 2007.1739 1129.9077 2003.7254 1129.9077 Z M 1960.5581 831.6687 C 1939.3884 831.6687 1922.2286 848.8314 1922.2286 869.9982 C 1922.2286 891.1649 1939.3884 908.3277 1960.5581 908.3277 C 1981.7278 908.3277 1998.8876 891.1649 1998.8876 869.9982 C 1998.8876 848.8314 1981.7278 831.6687 1960.5581 831.6687 Z M 1985.0448 886.1821 C 1985.0448 887.0334 1984.9195 887.9069 1984.5804 888.6941 C 1984.2339 889.4821 1983.7917 890.2273 1983.1725 890.8022 C 1982.5755 891.3986 1981.8531 891.8674 1981.0423 892.1865 C 1980.2536 892.5271 1979.3838 892.7187 1978.5066 892.7187 L 1942.5875 892.7187 C 1941.7103 892.7187 1940.8626 892.5271 1940.0518 892.1865 C 1939.2631 891.846 1938.5186 891.3986 1937.9216 890.8022 C 1937.3245 890.2067 1936.7938 889.4821 1936.5137 888.6941 C 1936.2631 887.9069 1936.0493 887.0334 1936.0493 886.1821 L 1936.0493 859.2873 C 1936.0493 858.2222 1936.3073 857.1578 1936.7717 856.2423 C 1937.2434 855.3268 1937.9658 854.5175 1938.8356 853.9212 L 1954.9782 842.6567 C 1956.5777 841.4641 1958.5532 840.8677 1960.5581 840.8677 C 1962.563 840.8677 1964.5385 841.4641 1966.138 842.6567 L 1982.2143 853.9212 C 1983.0841 854.5175 1983.8138 855.3054 1984.2782 856.2423 C 1984.7499 857.1792 1985.0005 858.2222 1985.0005 859.2873 L 1985.0005 886.1821 L 1985.0448 886.1821 Z M 1954.1453 863.6738 C 1952.6121 863.6097 1951.1674 864.1426 1950.0396 865.1215 C 1948.9118 866.1225 1948.2484 867.5068 1948.1895 869.0399 L 1948.1895 869.7638 C 1948.1895 870.4242 1948.7792 870.9564 1949.4425 870.9564 C 1949.4425 870.9564 1949.4647 870.935 1949.5089 870.8923 C 1950.2313 870.8289 1950.762 870.2326 1950.6956 869.5087 L 1950.6956 869.1041 C 1950.762 868.3161 1951.1674 867.5068 1951.7644 866.9746 C 1952.3615 866.4424 1953.1723 866.1866 1954.02 866.1866 C 1955.7448 866.3141 1957.0863 867.7839 1957.0053 869.4874 C 1956.9389 870.1471 1957.4696 870.7434 1958.192 870.8075 C 1958.8554 870.8075 1959.4524 870.3387 1959.5114 869.6149 C 1959.7031 866.5058 1957.2559 863.8441 1954.1305 863.6524 L 1954.1453 863.6738 Z M 1967.7744 863.6738 C 1964.5827 863.5463 1961.9218 865.9308 1961.7301 869.0399 L 1961.7301 869.7638 C 1961.7301 870.4242 1962.3272 870.9564 1962.9832 870.9564 C 1962.9832 870.9564 1963.0495 870.9564 1963.1159 870.8923 C 1963.8382 870.8289 1964.3689 870.2326 1964.3026 869.5087 L 1964.3026 869.1041 C 1964.4353 867.3792 1965.9021 866.1225 1967.627 866.1866 C 1968.5041 866.2507 1969.2854 866.6547 1969.8235 867.251 C 1970.3542 867.8473 1970.6933 868.6353 1970.6122 869.5087 C 1970.5459 870.1684 1971.0766 870.7648 1971.799 870.8289 C 1972.5287 870.8289 1973.0594 870.3601 1973.1184 869.6362 C 1973.1847 868.1031 1972.654 866.6547 1971.6515 865.5261 C 1970.6491 864.3976 1969.2707 863.7379 1967.7375 863.6738 L 1967.7744 863.6738 Z M 1877.1884 831.2844 C 1856.0101 831.2844 1838.8433 848.6193 1838.8433 869.9982 C 1838.8433 891.377 1856.0101 908.7119 1877.1884 908.7119 C 1898.3666 908.7119 1915.5334 891.377 1915.5334 869.9982 C 1915.5334 848.6193 1898.3666 831.2844 1877.1884 831.2844 Z M 1895.4096 896.1731 L 1859.2104 896.1731 L 1859.2104 843.8233 L 1877.2768 858.1046 L 1895.4244 843.866 L 1895.4244 869.3102 L 1865.0212 869.2667 C 1865.0064 869.6324 1864.9843 869.9768 1864.9843 870.3639 L 1864.9843 870.7724 C 1864.9843 878.8596 1870.2199 884.236 1877.2768 884.236 C 1880.809 884.236 1884.1568 882.4942 1886.3027 878.5793 C 1888.6919 882.4942 1891.8848 884.236 1895.4022 884.236 L 1895.4096 896.1945 L 1895.4096 896.1731 Z M 1883.3014 873.332 C 1883.0286 877.8272 1880.8533 879.8057 1877.2916 879.8057 C 1873.7373 879.8057 1870.9647 877.3752 1870.3895 873.332 L 1883.3014 873.332 Z M 1895.358 879.8057 C 1891.8037 879.8057 1889.6284 877.8051 1889.3555 873.332 L 1902.4076 873.332 C 1901.8324 877.3752 1898.8091 879.8057 1895.358 879.8057 Z M 1667.7169 773.2215 C 1666.4995 771.9304 1665.0682 770.9837 1663.3417 770.4245 C 1661.6816 769.8645 1659.8075 769.5848 1657.7564 769.5848 L 1655.6684 769.5848 L 1655.6684 803.4787 L 1657.0997 803.4787 L 1657.0997 803.5429 C 1659.2542 803.5429 1661.2315 803.1555 1663.0023 802.4236 C 1664.773 801.6924 1666.2634 800.5946 1667.5251 799.1957 C 1668.8015 797.754 1669.7385 795.9677 1670.4395 793.7948 C 1671.1035 791.6212 1671.4872 789.1031 1671.4872 786.2197 C 1671.4872 783.0994 1671.1478 780.4735 1670.4837 778.3649 C 1669.8271 776.2562 1668.8827 774.5127 1667.6727 773.2429 L 1667.7169 773.2215 Z M 1652.09 747.893 C 1630.8999 747.893 1613.7235 765.2376 1613.7235 786.6284 C 1613.7235 808.0192 1630.8999 825.3638 1652.09 825.3638 C 1673.2801 825.3638 1690.4565 808.0192 1690.4565 786.6284 C 1690.4565 765.2376 1673.2801 747.893 1652.09 747.893 Z M 1640.4325 809.8483 L 1632.4198 809.8483 L 1632.4198 763.3658 L 1640.4325 763.3658 L 1640.4325 809.8483 Z M 1677.9652 796.4628 C 1676.8585 799.3683 1675.3681 801.8215 1673.4498 803.8225 C 1671.5093 805.8242 1669.2073 807.3301 1666.5438 808.3416 C 1663.895 809.3532 1660.9143 809.9124 1657.7564 809.9124 L 1647.6557 809.9124 L 1647.6557 763.3658 L 1658.4204 763.3658 C 1661.4455 763.3658 1664.2639 763.7531 1666.8611 764.592 C 1669.4582 765.3667 1671.6569 766.7015 1673.5309 768.487 C 1675.405 770.2732 1676.9028 772.6623 1677.9431 775.5671 C 1679.0498 778.4726 1679.5441 782.0879 1679.5441 786.3702 C 1679.5441 790.1574 1678.9908 793.4931 1677.9431 796.4628 L 1677.9652 796.4628 Z"/>
</svg>