<svg xmlns="http://www.w3.org/2000/svg" viewBox="1161 291 1540 1406">
<path fill="#D4547A" fill-rule="evenodd" d="M 1743.2531 1207.7236 L 1712.9533 1205.696 L 1740.7045 1216.7832 C 1741.9662 1213.9519 1742.8367 1210.9093 1743.2531 1207.7236 Z M 1737.0329 1223.0406 C 1731.0272 1231.0764 1721.4194 1236.2815 1710.5876 1236.2815 C 1692.3939 1236.2815 1677.6446 1221.5947 1677.6446 1203.4773 C 1677.6446 1185.3599 1692.3939 1170.673 1710.5876 1170.673 C 1721.4383 1170.673 1731.0651 1175.8978 1737.0645 1183.9594 L 1709.5467 1198.6279 L 1727.2547 1180.5143 L 1717.4387 1180.5143 L 1705.3831 1197.1795 L 1705.3831 1180.5143 L 1697.4092 1180.5143 L 1697.4092 1226.4403 L 1705.3831 1226.4403 L 1705.3831 1209.8022 L 1717.4387 1226.4403 L 1727.2547 1226.4403 L 1710.0073 1208.8957 L 1737.0329 1223.0406 Z M 1740.7045 1190.1708 L 1713.1489 1201.1797 L 1743.2531 1199.2304 C 1742.8367 1196.0446 1741.9662 1193.002 1740.7045 1190.1708 Z M 1964.9114 689.3432 C 1962.4057 691.5211 1958.6915 691.5211 1956.1921 689.3432 C 1949.9216 683.8991 1941.3669 692.5361 1946.7579 698.8661 C 1948.9156 701.3945 1948.9156 705.141 1946.7579 707.6695 C 1941.3669 713.9995 1949.9216 722.6365 1956.1921 717.1923 C 1958.6915 715.0144 1962.4057 715.0144 1964.9114 717.1923 C 1971.1756 722.6365 1979.7304 713.9995 1974.3393 707.6695 C 1972.1817 705.141 1972.1817 701.3945 1974.3393 698.8661 C 1979.7304 692.5361 1971.1756 683.8991 1964.9114 689.3432 Z M 1960.5581 709.5146 C 1957.1413 709.5146 1954.3635 706.7096 1954.3635 703.2586 C 1954.3635 699.8076 1957.1413 697.0026 1960.5581 697.0026 C 1963.9749 697.0026 1966.7527 699.8076 1966.7527 703.2586 C 1966.7527 706.7096 1963.9749 709.5146 1960.5581 709.5146 Z M 1960.5581 670.0394 C 1942.3856 670.0394 1927.6552 684.914 1927.6552 703.2586 C 1927.6552 721.6032 1942.3856 736.4778 1960.5581 736.4778 C 1978.7306 736.4778 1993.461 721.6032 1993.461 703.2586 C 1993.461 684.914 1978.7306 670.0394 1960.5581 670.0394 Z M 1981.1793 719.5177 C 1980.0594 721.3818 1978.5092 722.9503 1976.6615 724.076 C 1973.4788 726.0141 1969.1698 726.0141 1960.5581 726.0141 C 1951.9464 726.0141 1947.6374 726.0141 1944.4547 724.076 C 1942.6071 722.9503 1941.0568 721.3818 1939.9369 719.5177 C 1938.0196 716.3065 1938.0196 711.9513 1938.0196 703.2586 C 1938.0196 694.5666 1938.0196 690.2107 1939.9369 686.9995 C 1941.0568 685.1355 1942.6071 683.5669 1944.4547 682.4412 C 1947.6374 680.5031 1951.9464 680.5037 1960.5581 680.5037 C 1969.1698 680.5037 1973.4788 680.5031 1976.6615 682.4412 C 1978.5092 683.5669 1980.0594 685.1355 1981.1793 686.9995 C 1983.0966 690.2107 1983.0966 694.5666 1983.0966 703.2586 C 1983.0966 711.9513 1983.0966 716.3065 1981.1793 719.5177 Z M 1877.1884 669.9692 C 1858.9774 669.9692 1844.2159 684.8752 1844.2159 703.2586 C 1844.2159 721.642 1858.9774 736.5481 1877.1884 736.5481 C 1895.3993 736.5481 1910.1608 721.642 1910.1608 703.2586 C 1910.1608 684.8752 1895.3993 669.9692 1877.1884 669.9692 Z M 1892.8566 725.7661 L 1861.7294 725.7661 L 1861.7294 680.7511 L 1877.2644 693.0315 L 1892.8693 680.7879 L 1892.8693 702.667 L 1866.726 702.6296 C 1866.7133 702.9441 1866.6942 703.2402 1866.6942 703.5731 L 1866.6942 703.9244 C 1866.6942 710.8784 1871.1963 715.5015 1877.2644 715.5015 C 1880.3017 715.5015 1883.1805 714.0038 1885.0256 710.6375 C 1887.0801 714.0038 1889.8257 715.5015 1892.8503 715.5015 L 1892.8566 725.7845 L 1892.8566 725.7661 Z M 1882.4449 706.1253 C 1882.2103 709.9907 1880.3398 711.6919 1877.2771 711.6919 C 1874.2208 711.6919 1871.8367 709.602 1871.3421 706.1253 L 1882.4449 706.1253 Z M 1892.8122 711.6919 C 1889.7559 711.6919 1887.8854 709.9717 1887.6508 706.1253 L 1898.8741 706.1253 C 1898.3795 709.602 1895.7797 711.6919 1892.8122 711.6919 Z M 1652.09 1086.818 C 1633.7078 1086.818 1618.8005 1101.724 1618.8005 1120.1074 C 1618.8005 1138.4908 1633.7078 1153.3969 1652.09 1153.3969 C 1670.4721 1153.3969 1685.3794 1138.4908 1685.3794 1120.1074 C 1685.3794 1101.724 1670.4721 1086.818 1652.09 1086.818 Z M 1669.4766 1107.0687 L 1677.0412 1107.0687 L 1675.9506 1109.9354 L 1668.3859 1109.9354 L 1669.4766 1107.0687 Z M 1635.2614 1130.9636 L 1641.4183 1115.2617 L 1637.2777 1115.2617 L 1630.8798 1131.4626 L 1625.2555 1132.1284 L 1633.5747 1110.8415 L 1648.501 1110.8415 L 1640.8667 1130.3346 L 1635.2423 1130.9636 L 1635.2614 1130.9636 Z M 1652.6987 1129.1324 C 1650.7774 1129.9275 1647.7782 1130.1126 1646.174 1128.5959 C 1644.3985 1126.9314 1644.6585 1123.917 1645.2862 1121.6793 L 1650.4287 1121.6793 C 1650.2067 1122.4928 1649.5726 1124.7121 1650.5935 1125.1192 C 1651.9251 1125.6557 1653.2757 1122.9741 1653.7196 1122.1232 C 1653.8274 1121.9196 1653.9225 1121.6609 1653.9225 1121.6425 L 1651.0945 1121.6425 L 1652.5338 1117.9807 L 1655.3238 1117.9807 C 1655.5838 1117.2965 1656.1608 1115.0398 1655.1589 1114.8737 C 1653.9415 1114.6885 1652.9396 1116.3714 1652.3309 1117.2781 L 1647.2265 1117.2781 C 1647.2265 1117.2781 1647.1885 1117.2407 1647.1885 1117.2223 C 1647.1885 1117.1856 1647.2836 1117.0372 1647.3026 1116.9636 C 1649.1288 1112.8021 1652.388 1109.917 1656.8773 1110.3241 C 1661.95 1110.7864 1661.373 1116.0759 1660.0224 1119.9407 C 1658.7098 1123.6951 1656.3447 1127.5972 1652.6797 1129.114 L 1652.6987 1129.1324 Z M 1672.6914 1126.7285 L 1669.3054 1127.135 L 1669.3624 1124.8231 L 1669.0327 1124.8231 C 1667.7392 1126.5066 1665.9954 1128.0969 1663.7571 1128.2262 C 1659.7814 1128.4666 1658.9698 1125.3228 1660.1745 1122.1232 L 1664.5751 1110.8415 L 1669.9395 1110.8415 C 1669.9395 1110.8415 1667.1431 1117.7955 1666.1476 1120.5145 C 1665.7545 1121.5867 1665.019 1123.6031 1666.9402 1123.4922 C 1668.4937 1123.3996 1669.3054 1121.6051 1669.8063 1120.3477 L 1673.522 1110.8415 L 1678.8864 1110.8415 L 1672.6914 1126.7285 Z M 1818.8296 1253.5576 C 1800.6187 1253.5576 1785.8572 1268.4637 1785.8572 1286.847 C 1785.8572 1305.2304 1800.6187 1320.1365 1818.8296 1320.1365 C 1837.0405 1320.1365 1851.802 1305.2304 1851.802 1286.847 C 1851.802 1268.4637 1837.0405 1253.5576 1818.8296 1253.5576 Z M 1834.4978 1309.3545 L 1803.3706 1309.3545 L 1803.3706 1264.3396 L 1818.9057 1276.6199 L 1834.5105 1264.3763 L 1834.5105 1286.2554 L 1808.3672 1286.218 C 1808.3545 1286.5325 1808.3355 1286.8287 1808.3355 1287.1616 L 1808.3355 1287.5128 C 1808.3355 1294.4668 1812.8375 1299.09 1818.9057 1299.09 C 1821.9429 1299.09 1824.8217 1297.5922 1826.6669 1294.2259 C 1828.7213 1297.5922 1831.4669 1299.09 1834.4915 1299.09 L 1834.4978 1309.3729 L 1834.4978 1309.3545 Z M 1824.0862 1289.7137 C 1823.8515 1293.5791 1821.981 1295.2804 1818.9184 1295.2804 C 1815.8621 1295.2804 1813.4779 1293.1904 1812.9833 1289.7137 L 1824.0862 1289.7137 Z M 1834.4534 1295.2804 C 1831.3972 1295.2804 1829.5266 1293.5601 1829.292 1289.7137 L 1840.5153 1289.7137 C 1840.0207 1293.1904 1837.421 1295.2804 1834.4534 1295.2804 Z M 1498.8195 775.0729 C 1497.7702 773.96 1496.5365 773.1441 1495.0484 772.6621 C 1493.6176 772.1794 1492.0023 771.9384 1490.2344 771.9384 L 1488.4347 771.9384 L 1488.4347 801.1519 L 1489.6685 801.1519 L 1489.6685 801.2072 C 1491.5254 801.2072 1493.2297 800.8733 1494.7559 800.2425 C 1496.2822 799.6123 1497.5667 798.666 1498.6542 797.4603 C 1499.7544 796.2177 1500.562 794.6781 1501.1661 792.8052 C 1501.7385 790.9318 1502.0691 788.7613 1502.0691 786.2761 C 1502.0691 783.5867 1501.7766 781.3235 1501.2043 779.506 C 1500.6383 777.6885 1499.8243 776.1858 1498.7814 775.0913 L 1498.8195 775.0729 Z M 1485.3505 753.2419 C 1467.0865 753.2419 1452.2819 768.1914 1452.2819 786.6284 C 1452.2819 805.0654 1467.0865 820.0149 1485.3505 820.0149 C 1503.6145 820.0149 1518.419 805.0654 1518.419 786.6284 C 1518.419 768.1914 1503.6145 753.2419 1485.3505 753.2419 Z M 1475.3027 806.6419 L 1468.3965 806.6419 L 1468.3965 766.5781 L 1475.3027 766.5781 L 1475.3027 806.6419 Z M 1507.6526 795.1048 C 1506.6987 797.6091 1505.4142 799.7236 1503.7607 801.4482 C 1502.0882 803.1735 1500.1041 804.4714 1497.8084 805.3433 C 1495.5254 806.2152 1492.9562 806.6972 1490.2344 806.6972 L 1481.5285 806.6972 L 1481.5285 766.5781 L 1490.8068 766.5781 C 1493.4141 766.5781 1495.8434 766.9119 1498.0818 767.635 C 1500.3203 768.3027 1502.2154 769.4531 1503.8307 770.9921 C 1505.446 772.5317 1506.7369 774.5908 1507.6336 777.0945 C 1508.5875 779.5988 1509.0135 782.7149 1509.0135 786.4058 C 1509.0135 789.6701 1508.5366 792.5451 1507.6336 795.1048 L 1507.6526 795.1048 Z M 2319.0481 920.2994 C 2337.4838 920.2994 2352.4346 935.1065 2352.4346 953.3679 C 2352.4346 971.6294 2337.4838 986.4364 2319.0481 986.4364 C 2300.6124 986.4364 2285.6616 971.6294 2285.6616 953.3679 C 2285.6616 935.1065 2300.6124 920.2994 2319.0481 920.2994 Z M 2324.2627 937.1643 L 2310.6474 926.3802 L 2309.4582 926.6924 L 2319.9384 939.7729 L 2299.1307 932.8654 L 2298.145 933.9313 L 2316.746 944.4025 L 2291.1688 946.552 L 2290.9081 948.077 L 2317.5282 950.9431 L 2295.2896 969.0386 L 2296.3071 970.4167 L 2322.6666 956.105 L 2317.471 981.2008 L 2319.0672 981.2008 L 2329.2485 957.5753 L 2335.4107 976.0383 L 2336.4854 975.2116 L 2334.1642 956.7117 L 2343.5697 967.2936 L 2344.142 966.2278 L 2337.1531 953.1473 L 2347.0737 956.6194 L 2347.1881 955.5358 L 2338.9146 948.9406 L 2346.6667 947.1949 L 2346.5204 946.0744 L 2337.2612 943.9249 L 2342.0498 936.8705 L 2341.4902 936.0985 L 2334.037 939.7182 L 2334.851 929.8524 L 2334.037 929.4486 L 2329.4138 937.3666 L 2323.9639 925.4619 L 2322.9464 925.4619 L 2324.2818 937.1275 L 2324.2627 937.1643 Z M 2160.5276 1207.7787 L 2129.8346 1205.7248 L 2157.9459 1216.9559 C 2159.224 1214.0879 2160.1058 1211.0058 2160.5276 1207.7787 Z M 2154.2267 1223.2945 C 2148.143 1231.4346 2138.4105 1236.7073 2127.4382 1236.7073 C 2109.0083 1236.7073 2094.0676 1221.8298 2094.0676 1203.4773 C 2094.0676 1185.1247 2109.0083 1170.2473 2127.4382 1170.2473 C 2138.4297 1170.2473 2148.1814 1175.5398 2154.2586 1183.7061 L 2126.3838 1198.565 L 2144.3216 1180.2163 L 2134.3782 1180.2163 L 2122.1661 1197.0978 L 2122.1661 1180.2163 L 2114.0887 1180.2163 L 2114.0887 1226.7383 L 2122.1661 1226.7383 L 2122.1661 1209.8843 L 2134.3782 1226.7383 L 2144.3216 1226.7383 L 2126.8503 1208.966 L 2154.2267 1223.2945 Z M 2157.9459 1189.9981 L 2130.0327 1201.1499 L 2160.5276 1199.1753 C 2160.1058 1195.9481 2159.224 1192.8661 2157.9459 1189.9981 Z M 2142.6617 607.7856 C 2140.9306 606.689 2138.6653 606.447 2136.6574 607.3582 C 2135.4926 607.8789 2134.5916 608.7155 2133.9674 609.7008 C 2134.2312 609.3288 2134.553 609.1242 2135.0228 608.9382 C 2136.2777 608.4182 2138.8326 609.3101 2140.2034 611.56 C 2141.1237 611.058 2142.0761 610.5374 2143.0736 610.0354 C 2143.5048 609.8121 2143.9167 609.6075 2144.3672 609.3848 C 2143.9167 608.7342 2143.2796 608.1762 2142.6811 607.7856 L 2142.6617 607.7856 Z M 2145.6993 603.6211 C 2144.6696 604.0858 2143.8588 604.8297 2143.3568 605.7223 C 2143.6013 605.3317 2143.8781 605.0897 2144.2384 604.9224 C 2145.6285 604.2718 2147.7458 605.2757 2148.8913 607.3023 C 2148.8527 607.3023 2148.8205 607.3396 2148.7819 607.3582 C 2150.0369 606.8003 2151.2982 606.2797 2152.5145 605.815 C 2151.221 603.4911 2148.2349 602.5245 2145.6993 603.6398 L 2145.6993 603.6211 Z M 2152.3086 586.4241 C 2133.652 586.4241 2118.5221 601.4086 2118.5221 619.8889 C 2118.5221 638.3691 2133.652 653.3536 2152.3086 653.3536 C 2170.9652 653.3536 2186.0951 638.3691 2186.0951 619.8889 C 2186.0951 601.4086 2170.9652 586.4241 2152.3086 586.4241 Z M 2172.6384 622.3241 C 2169.6137 625.2245 2165.2247 627.6044 2160.2886 629.0543 L 2157.8624 629.7609 L 2160.0634 630.9509 C 2162.5411 632.2895 2165.7653 634.7807 2167.9276 636.8072 C 2165.7653 639.1311 2162.4059 641.5482 2158.2936 642.9982 C 2158.2936 642.9982 2158.107 642.6822 2157.6951 641.9942 C 2153.512 635.208 2148.3121 629.9843 2142.4751 625.4292 C 2142.4751 625.4292 2146.0983 625.7638 2147.8423 625.7638 C 2158.9887 625.7638 2170.386 621.8407 2176.0171 617.0817 C 2175.676 618.7549 2174.5305 620.5022 2172.6384 622.306 L 2172.6384 622.3241 Z M 2176.9888 614.4785 C 2172.3939 620.1862 2154.0011 627.2138 2139.6177 623.7746 C 2139.1158 623.6446 2138.794 624.2953 2139.2445 624.5926 C 2149.0973 630.9135 2154.3551 638.4058 2157.1352 643.2955 C 2150.0755 645.5267 2140.6925 644.9501 2133.2015 638.7964 C 2133.9674 636.0266 2135.2094 633.5347 2136.844 631.4155 C 2132.6545 630.2069 2129.7457 628.069 2129.0313 625.1686 C 2128.51 623.012 2129.3338 620.7255 2131.0392 618.5129 C 2129.0313 613.4006 2130.3313 608.0275 2134.405 605.7777 C 2136.1297 604.8297 2138.1183 604.5697 2140.1068 604.9044 C 2140.7247 603.6958 2141.6449 602.7105 2142.8677 602.0226 C 2146.3557 600.0887 2151.1052 601.4833 2154.2071 605.1084 C 2165.0509 601.0373 2174.4983 601.6506 2177.0854 606.4843 C 2179.2606 610.5561 2177.1433 614.2925 2177.0854 614.3672 L 2177.0274 614.4418 L 2176.9888 614.4785 Z M 2332.7756 608.1116 C 2331.7062 606.9773 2330.4488 606.1458 2328.9322 605.6545 C 2327.4739 605.1625 2325.8276 604.9169 2324.0258 604.9169 L 2322.1916 604.9169 L 2322.1916 634.691 L 2323.4489 634.691 L 2323.4489 634.7474 C 2325.3415 634.7474 2327.0785 634.4071 2328.634 633.7642 C 2330.1896 633.1219 2331.4988 632.1574 2332.6071 630.9286 C 2333.7284 629.6621 2334.5515 628.093 2335.1673 626.1842 C 2335.7506 624.2748 2336.0876 622.0627 2336.0876 619.5298 C 2336.0876 616.7888 2335.7895 614.4821 2335.2062 612.6297 C 2334.6293 610.7773 2333.7997 609.2458 2332.7368 608.1304 L 2332.7756 608.1116 Z M 2319.0481 585.8617 C 2300.4336 585.8617 2285.345 601.0981 2285.345 619.8889 C 2285.345 638.6796 2300.4336 653.916 2319.0481 653.916 C 2337.6626 653.916 2352.7512 638.6796 2352.7512 619.8889 C 2352.7512 601.0981 2337.6626 585.8617 2319.0481 585.8617 Z M 2308.8075 640.2864 L 2301.7688 640.2864 L 2301.7688 599.4537 L 2308.8075 599.4537 L 2308.8075 640.2864 Z M 2341.7783 628.5279 C 2340.8061 631.0802 2339.4968 633.2353 2337.8117 634.993 C 2336.1071 636.7514 2334.0849 638.0743 2331.7451 638.9629 C 2329.4183 639.8515 2326.7998 640.3428 2324.0258 640.3428 L 2315.1528 640.3428 L 2315.1528 599.4537 L 2324.6091 599.4537 C 2327.2665 599.4537 2329.7424 599.794 2332.0238 600.5309 C 2334.3052 601.2115 2336.2367 602.384 2337.883 603.9525 C 2339.5292 605.5216 2340.8449 607.6203 2341.7588 610.172 C 2342.731 612.7243 2343.1653 615.9002 2343.1653 619.662 C 2343.1653 622.9889 2342.6792 625.9191 2341.7588 628.5279 L 2341.7783 628.5279 Z M 2077.8052 703.2586 C 2077.8052 721.9775 2062.6299 737.1554 2043.9215 737.1554 C 2025.2065 737.1554 2010.0312 721.9775 2010.0312 703.2586 C 2010.0312 684.5397 2025.2065 669.3618 2043.9215 669.3618 C 2047.5719 669.3618 2051.0919 669.9459 2054.4034 671.0188 L 2046.6854 694.7844 L 2024.1309 694.7844 L 2021.3866 703.2586 L 2043.9345 703.2586 L 2037.3311 723.5967 L 2046.6462 723.5967 L 2053.2561 703.2586 L 2077.8248 703.2586 L 2077.8052 703.2586 Z M 2076.7297 694.7844 L 2055.9874 694.7844 L 2062.4604 674.8791 C 2069.4288 679.437 2074.6046 686.4986 2076.7297 694.7844 Z M 1807.7155 691.336 C 1806.6328 690.1878 1805.3599 689.346 1803.8246 688.8487 C 1802.3483 688.3507 1800.6817 688.102 1798.8577 688.102 L 1797.0008 688.102 L 1797.0008 718.2433 L 1798.2737 718.2433 L 1798.2737 718.3004 C 1800.1896 718.3004 1801.9481 717.9559 1803.5228 717.3051 C 1805.0975 716.6548 1806.4229 715.6785 1807.5449 714.4345 C 1808.68 713.1524 1809.5133 711.5639 1810.1366 709.6316 C 1810.7271 707.6986 1811.0683 705.4593 1811.0683 702.8951 C 1811.0683 700.1203 1810.7665 697.7852 1810.176 695.9099 C 1809.592 694.0347 1808.7521 692.4843 1807.6761 691.3551 L 1807.7155 691.336 Z M 1793.8186 668.8117 C 1774.9745 668.8117 1759.6998 684.2361 1759.6998 703.2586 C 1759.6998 722.2812 1774.9745 737.7055 1793.8186 737.7055 C 1812.6627 737.7055 1827.9374 722.2812 1827.9374 703.2586 C 1827.9374 684.2361 1812.6627 668.8117 1793.8186 668.8117 Z M 1783.4517 723.9077 L 1776.3261 723.9077 L 1776.3261 682.5714 L 1783.4517 682.5714 L 1783.4517 723.9077 Z M 1816.8291 712.0042 C 1815.8449 714.588 1814.5195 716.7697 1812.8136 718.5491 C 1811.088 720.3292 1809.0408 721.6683 1806.6722 722.5679 C 1804.3167 723.4674 1801.6659 723.9648 1798.8577 723.9648 L 1789.8753 723.9648 L 1789.8753 682.5714 L 1799.4482 682.5714 C 1802.1383 682.5714 1804.6448 682.9159 1806.9543 683.6619 C 1809.2639 684.3509 1811.2192 685.5378 1812.8858 687.1257 C 1814.5523 688.7141 1815.8843 690.8387 1816.8094 693.4219 C 1817.7936 696.0057 1818.2332 699.2208 1818.2332 703.029 C 1818.2332 706.3969 1817.7411 709.3632 1816.8094 712.0042 L 1816.8291 712.0042 Z M 1565.1181 957.3867 C 1569.4223 961.9796 1573.9496 965.7498 1578.011 967.9504 C 1582.3874 970.3237 1585.0776 970.2469 1585.7206 969.596 C 1586.2717 969.0219 1586.3701 966.7254 1584.3755 962.0564 C 1582.7089 958.0376 1579.5267 953.1954 1575.7933 948.775 C 1576.3379 948.2777 1564.416 957.9608 1565.1377 957.3867 L 1565.1181 957.3867 Z M 1568.7202 918.921 C 1549.8761 918.921 1534.6014 934.3454 1534.6014 953.3679 C 1534.6014 972.3905 1549.8761 987.8148 1568.7202 987.8148 C 1587.5643 987.8148 1602.839 972.3905 1602.839 953.3679 C 1602.839 934.3454 1587.5643 918.921 1568.7202 918.921 Z M 1587.8661 971.4909 C 1587.7874 971.6628 1587.6168 971.8164 1587.4659 971.9883 L 1587.3937 972.065 L 1587.0853 972.4095 C 1576.9875 981.9969 1561.0041 981.3467 1551.6214 970.9358 C 1542.7112 961.023 1542.8818 945.5219 1551.7002 935.781 C 1558.2943 928.3175 1569.2714 925.6188 1578.5031 929.0635 C 1580.7209 929.8102 1582.8008 930.9584 1584.697 932.3363 C 1586.0421 933.312 1587.315 934.4602 1588.5091 935.781 C 1588.5091 935.781 1589.8542 937.2547 1577.683 947.1675 L 1577.9323 947.4929 C 1586.4423 957.5015 1590.7269 967.7398 1587.8661 971.5099 L 1587.8661 971.4909 Z M 1603.0748 624.3358 L 1571.3431 622.2124 L 1600.4057 633.8236 C 1601.727 630.8585 1602.6387 627.6721 1603.0748 624.3358 Z M 1596.5606 640.3767 C 1590.2711 648.7923 1580.2092 654.2434 1568.8656 654.2434 C 1549.812 654.2434 1534.3657 638.8625 1534.3657 619.8889 C 1534.3657 600.9152 1549.812 585.5343 1568.8656 585.5343 C 1580.229 585.5343 1590.3107 591.0059 1596.5936 599.4486 L 1567.7755 614.8103 L 1586.3203 595.8407 L 1576.0404 595.8407 L 1563.4151 613.2934 L 1563.4151 595.8407 L 1555.0643 595.8407 L 1555.0643 643.937 L 1563.4151 643.937 L 1563.4151 626.5127 L 1576.0404 643.937 L 1586.3203 643.937 L 1568.2577 625.5633 L 1596.5606 640.3767 Z M 1600.4057 605.9535 L 1571.5479 617.4827 L 1603.0748 615.4413 C 1602.6387 612.1049 1601.727 608.9185 1600.4057 605.9535 Z M 1634.3163 624.5401 L 1633.5222 624.5401 L 1633.5222 629.1913 L 1634.3163 629.1913 C 1635.4346 629.1913 1635.9375 628.0723 1635.9375 626.8561 C 1635.9375 625.4857 1635.4346 624.5401 1634.3163 624.5401 Z M 1673.6884 605.2596 C 1672.8017 605.2596 1672.2988 606.321 1672.2988 610.8564 C 1672.2988 615.3918 1672.8017 616.4532 1673.6884 616.4532 C 1674.5751 616.4532 1675.078 615.3918 1675.078 610.8564 C 1675.078 606.321 1674.5751 605.2596 1673.6884 605.2596 Z M 1653.7112 625.0999 C 1653.6913 625.3698 1653.5921 626.1805 1653.4597 627.0685 L 1652.7252 632.1637 L 1654.717 632.1637 L 1653.9825 627.0685 C 1653.8634 626.3353 1653.7509 625.3698 1653.731 625.0999 L 1653.7112 625.0999 Z M 1640.7614 607.923 C 1640.6423 607.1892 1640.5298 606.2436 1640.5099 605.9544 C 1640.4901 606.2244 1640.3908 607.035 1640.2585 607.923 L 1639.524 613.0183 L 1641.5157 613.0183 L 1640.7812 607.923 L 1640.7614 607.923 Z M 1652.09 585.1488 C 1632.9068 585.1488 1617.3499 600.7044 1617.3499 619.8889 C 1617.3499 639.0733 1632.9068 654.629 1652.09 654.629 C 1671.2731 654.629 1686.8301 639.0733 1686.8301 619.8889 C 1686.8301 600.7044 1671.2731 585.1488 1652.09 585.1488 Z M 1663.0546 602.3256 C 1665.9265 602.3256 1667.1242 604.545 1667.7065 606.5718 L 1664.6758 607.749 C 1663.981 605.8386 1663.5906 605.2596 1663.0348 605.2596 C 1661.9892 605.2596 1661.5856 606.6492 1661.5856 610.8181 C 1661.5856 614.9869 1662.0289 616.3957 1663.0745 616.3957 C 1664.0339 616.3957 1664.4971 614.6395 1664.4971 613.095 L 1664.4971 612.8826 L 1662.7436 612.8826 L 1662.7436 609.795 L 1667.7396 609.795 L 1667.7396 619.0974 L 1665.139 619.0974 L 1664.9273 617.727 C 1664.3052 618.8467 1663.4781 619.3674 1662.3201 619.3674 C 1659.4813 619.3674 1657.8006 616.0099 1657.8006 610.8564 C 1657.8006 605.703 1659.3688 602.3448 1663.0745 602.3448 L 1663.0546 602.3256 Z M 1646.9749 602.6538 L 1650.9518 602.6538 L 1653.1487 610.4508 C 1653.3671 611.1846 1653.5788 612.0919 1653.6516 612.3618 C 1653.6318 612.0528 1653.6119 611.2813 1653.6119 610.374 L 1653.6119 602.6538 L 1656.9734 602.6538 L 1656.9734 619.0783 L 1653.0958 619.0783 L 1650.7996 610.8948 C 1650.5879 610.1616 1650.3695 609.2544 1650.2967 608.9844 C 1650.3166 609.2928 1650.3364 610.065 1650.3364 610.9722 L 1650.3364 619.0974 L 1646.9749 619.0974 L 1646.9749 602.6538 Z M 1643.0972 602.6538 L 1646.1676 619.0783 L 1642.3826 619.0783 L 1641.9392 616.125 L 1639.0608 616.125 L 1638.6174 619.0783 L 1635.1037 619.0783 L 1638.1542 602.6538 L 1643.0972 602.6538 Z M 1630.4717 602.6538 L 1631.4378 606.9 C 1631.6297 607.6332 1631.8084 608.5596 1631.8282 608.8494 C 1631.8415 608.5788 1632.04 607.7874 1632.2517 606.9 L 1633.2906 602.6538 L 1637.0359 602.6538 L 1633.5619 613.3848 L 1633.5619 619.0783 L 1629.9159 619.0783 L 1629.9159 613.3657 L 1626.4418 602.6538 L 1630.4717 602.6538 Z M 1634.8523 631.9513 L 1633.5421 631.9513 L 1633.5421 638.2237 L 1629.896 638.2237 L 1629.896 621.7992 L 1635.1236 621.7992 C 1637.6513 621.7992 1639.4843 623.9994 1639.4843 626.8944 C 1639.4843 629.7895 1637.6315 631.9513 1634.8523 631.9513 Z M 1647.5903 638.2237 L 1640.1989 638.2237 L 1640.1989 621.7992 L 1643.8516 621.7992 L 1643.8516 635.1169 L 1647.5903 635.1169 L 1647.5903 638.2237 Z M 1655.564 638.2237 L 1655.1206 635.2711 L 1652.2422 635.2711 L 1651.7988 638.2237 L 1648.2851 638.2237 L 1651.3356 621.7992 L 1656.2588 621.7992 L 1659.3291 638.2237 L 1655.5441 638.2237 L 1655.564 638.2237 Z M 1664.4773 632.5303 L 1664.4773 638.2237 L 1660.8312 638.2237 L 1660.8312 632.5111 L 1657.3572 621.7992 L 1661.3738 621.7992 L 1662.3399 626.0647 C 1662.5318 626.7985 1662.7039 627.7249 1662.7237 628.0141 C 1662.7436 627.7441 1662.9355 626.9527 1663.1472 626.0647 L 1664.1928 621.7992 L 1667.9381 621.7992 L 1664.4641 632.5303 L 1664.4773 632.5303 Z M 1673.6884 619.3873 C 1670.4063 619.3873 1668.5138 616.569 1668.5138 610.8564 C 1668.5138 605.1438 1670.4063 602.3256 1673.6884 602.3256 C 1676.9705 602.3256 1678.8564 605.1438 1678.8564 610.8564 C 1678.8564 616.569 1676.9705 619.3873 1673.6884 619.3873 Z M 1967.7954 1291.4982 L 1967.0013 1291.4982 L 1967.0013 1296.1495 L 1967.7954 1296.1495 C 1968.9137 1296.1495 1969.4166 1295.0305 1969.4166 1293.8143 C 1969.4166 1292.4438 1968.9137 1291.4982 1967.7954 1291.4982 Z M 2007.1675 1272.2178 C 2006.2808 1272.2178 2005.7779 1273.2792 2005.7779 1277.8146 C 2005.7779 1282.35 2006.2808 1283.4114 2007.1675 1283.4114 C 2008.0542 1283.4114 2008.5571 1282.35 2008.5571 1277.8146 C 2008.5571 1273.2792 2008.0542 1272.2178 2007.1675 1272.2178 Z M 1987.1903 1292.0581 C 1987.1704 1292.328 1987.0712 1293.1386 1986.9388 1294.0267 L 1986.2043 1299.1219 L 1988.1961 1299.1219 L 1987.4616 1294.0267 C 1987.3425 1293.2935 1987.23 1292.328 1987.2101 1292.0581 L 1987.1903 1292.0581 Z M 1974.2405 1274.8812 C 1974.1214 1274.1474 1974.0089 1273.2018 1973.9891 1272.9126 C 1973.9692 1273.1826 1973.87 1273.9932 1973.7376 1274.8812 L 1973.0031 1279.9764 L 1974.9949 1279.9764 L 1974.2604 1274.8812 L 1974.2405 1274.8812 Z M 1985.5691 1252.1069 C 1966.3859 1252.1069 1950.829 1267.6626 1950.829 1286.847 C 1950.829 1306.0315 1966.3859 1321.5871 1985.5691 1321.5871 C 2004.7522 1321.5871 2020.3092 1306.0315 2020.3092 1286.847 C 2020.3092 1267.6626 2004.7522 1252.1069 1985.5691 1252.1069 Z M 1996.5337 1269.2838 C 1999.4056 1269.2838 2000.6033 1271.5032 2001.1856 1273.53 L 1998.1549 1274.7072 C 1997.4601 1272.7968 1997.0697 1272.2178 1996.5139 1272.2178 C 1995.4684 1272.2178 1995.0647 1273.6074 1995.0647 1277.7762 C 1995.0647 1281.9451 1995.5081 1283.3538 1996.5536 1283.3538 C 1997.5131 1283.3538 1997.9763 1281.5977 1997.9763 1280.0532 L 1997.9763 1279.8408 L 1996.2227 1279.8408 L 1996.2227 1276.7532 L 2001.2187 1276.7532 L 2001.2187 1286.0556 L 1998.6181 1286.0556 L 1998.4064 1284.6852 C 1997.7844 1285.8048 1996.9572 1286.3256 1995.7992 1286.3256 C 1992.9605 1286.3256 1991.2797 1282.9681 1991.2797 1277.8146 C 1991.2797 1272.6612 1992.848 1269.303 1996.5536 1269.303 L 1996.5337 1269.2838 Z M 1980.454 1269.612 L 1984.4309 1269.612 L 1986.6278 1277.409 C 1986.8462 1278.1428 1987.058 1279.05 1987.1307 1279.32 C 1987.1109 1279.011 1987.091 1278.2394 1987.091 1277.3322 L 1987.091 1269.612 L 1990.4526 1269.612 L 1990.4526 1286.0364 L 1986.5749 1286.0364 L 1984.2787 1277.853 C 1984.067 1277.1198 1983.8486 1276.2126 1983.7758 1275.9426 C 1983.7957 1276.251 1983.8155 1277.0232 1983.8155 1277.9304 L 1983.8155 1286.0556 L 1980.454 1286.0556 L 1980.454 1269.612 Z M 1976.5764 1269.612 L 1979.6467 1286.0364 L 1975.8617 1286.0364 L 1975.4184 1283.0832 L 1972.5399 1283.0832 L 1972.0966 1286.0364 L 1968.5828 1286.0364 L 1971.6334 1269.612 L 1976.5764 1269.612 Z M 1963.9508 1269.612 L 1964.9169 1273.8582 C 1965.1088 1274.5914 1965.2875 1275.5178 1965.3073 1275.8076 C 1965.3206 1275.537 1965.5191 1274.7456 1965.7308 1273.8582 L 1966.7697 1269.612 L 1970.515 1269.612 L 1967.041 1280.343 L 1967.041 1286.0364 L 1963.395 1286.0364 L 1963.395 1280.3238 L 1959.921 1269.612 L 1963.9508 1269.612 Z M 1968.3314 1298.9095 L 1967.0212 1298.9095 L 1967.0212 1305.1819 L 1963.3751 1305.1819 L 1963.3751 1288.7574 L 1968.6027 1288.7574 C 1971.1304 1288.7574 1972.9634 1290.9576 1972.9634 1293.8526 C 1972.9634 1296.7476 1971.1106 1298.9095 1968.3314 1298.9095 Z M 1981.0694 1305.1819 L 1973.6781 1305.1819 L 1973.6781 1288.7574 L 1977.3307 1288.7574 L 1977.3307 1302.0751 L 1981.0694 1302.0751 L 1981.0694 1305.1819 Z M 1989.0431 1305.1819 L 1988.5998 1302.2293 L 1985.7213 1302.2293 L 1985.2779 1305.1819 L 1981.7642 1305.1819 L 1984.8147 1288.7574 L 1989.7379 1288.7574 L 1992.8083 1305.1819 L 1989.0233 1305.1819 L 1989.0431 1305.1819 Z M 1997.9564 1299.4885 L 1997.9564 1305.1819 L 1994.3104 1305.1819 L 1994.3104 1299.4693 L 1990.8364 1288.7574 L 1994.853 1288.7574 L 1995.8191 1293.0228 C 1996.011 1293.7567 1996.183 1294.6831 1996.2029 1294.9723 C 1996.2227 1294.7023 1996.4146 1293.9109 1996.6264 1293.0228 L 1997.6719 1288.7574 L 2001.4172 1288.7574 L 1997.9432 1299.4885 L 1997.9564 1299.4885 Z M 2007.1675 1286.3455 C 2003.8854 1286.3455 2001.9929 1283.5272 2001.9929 1277.8146 C 2001.9929 1272.102 2003.8854 1269.2838 2007.1675 1269.2838 C 2010.4496 1269.2838 2012.3355 1272.102 2012.3355 1277.8146 C 2012.3355 1283.5272 2010.4496 1286.3455 2007.1675 1286.3455 Z M 1543.7094 835.0957 C 1562.9802 835.0957 1578.6119 850.7116 1578.6119 869.9982 C 1578.6119 889.2847 1562.9959 904.9007 1543.7094 904.9007 C 1524.4228 904.9007 1508.8068 889.2847 1508.8068 869.9982 C 1508.8068 850.7116 1524.4228 835.0957 1543.7094 835.0957 Z M 1545.2125 848.1011 C 1534.0899 848.1011 1528.2199 853.8444 1528.2199 862.2616 C 1528.22 869.0014 1531.4477 872.9884 1537.1751 877.0863 L 1527.2074 891.9114 L 1535.4504 891.9114 L 1546.5257 875.2987 L 1542.6649 872.704 C 1537.9976 869.5712 1535.7353 867.1187 1535.7353 861.8185 C 1535.7353 857.1511 1539.0103 854.0185 1545.2599 854.0185 L 1548.6771 854.0185 L 1548.6771 891.8954 L 1556.2873 891.8954 L 1556.2873 848.1011 L 1545.2125 848.1011 Z M 1616.4953 1069.6491 C 1619.8393 1070.7154 1623.3894 1071.3078 1627.0791 1071.3078 C 1627.3849 1071.3078 1627.7107 1071.3078 1628.0231 1071.3078 L 1630.4563 1049.6436 L 1621.8537 1052.8626 L 1616.4953 1069.6684 L 1616.4953 1069.6491 Z M 1638.68 1046.543 L 1636.0075 1070.1424 C 1646.6511 1067.299 1655.2737 1059.518 1659.2692 1049.4063 C 1660.6719 1045.8323 1661.5163 1041.981 1661.6492 1037.9523 L 1638.68 1046.5629 L 1638.68 1046.543 Z M 1609.3553 1066.4101 L 1612.5597 1056.3383 L 1601.8429 1060.367 C 1604.0501 1062.7171 1606.5697 1064.7707 1609.3553 1066.4301 L 1609.3553 1066.4101 Z M 1627.9832 1002.1875 L 1627.0791 1002.1875 C 1607.9858 1002.1875 1592.509 1017.6503 1592.509 1036.7277 C 1592.509 1042.9882 1594.1777 1048.8532 1597.0829 1053.929 L 1615.5181 1047.017 L 1629.7849 1002.2666 C 1629.1932 1002.2267 1628.5749 1002.1875 1627.9633 1002.1676 L 1627.9832 1002.1875 Z M 1631.4203 1041.0722 L 1634.6047 1012.8517 L 1624.832 1043.5413 L 1631.4203 1041.0722 Z M 1659.2692 1024.0883 C 1656.231 1016.3666 1650.4937 1010.0077 1643.234 1006.1764 L 1639.6374 1037.9915 L 1660.9977 1029.9932 C 1660.5922 1027.9595 1660.0138 1025.9844 1659.2692 1024.1083 L 1659.2692 1024.0883 Z M 2235.6785 584.8912 C 2255.0019 584.8912 2270.6762 600.5497 2270.6762 619.8889 C 2270.6762 639.228 2255.0176 654.8866 2235.6785 654.8866 C 2216.3393 654.8866 2200.6808 639.228 2200.6808 619.8889 C 2200.6808 600.5497 2216.3393 584.8912 2235.6785 584.8912 Z M 2237.1857 597.9321 C 2226.0328 597.9321 2220.1468 603.6911 2220.1468 612.1311 C 2220.1468 618.8894 2223.3833 622.8873 2229.1264 626.9963 L 2219.1315 641.8619 L 2227.397 641.8619 L 2238.5025 625.2038 L 2234.6312 622.6021 C 2229.9511 619.4607 2227.6827 617.0015 2227.6827 611.6869 C 2227.6827 607.0068 2230.9666 603.8656 2237.2332 603.8656 L 2240.6598 603.8656 L 2240.6598 641.8458 L 2248.2908 641.8458 L 2248.2908 597.9321 L 2237.1857 597.9321 Z M 2166.4861 1107.9441 C 2165.3816 1106.7727 2164.083 1105.9139 2162.5166 1105.4065 C 2161.0105 1104.8984 2159.3103 1104.6447 2157.4494 1104.6447 L 2155.5551 1104.6447 L 2155.5551 1135.3947 L 2156.8537 1135.3947 L 2156.8537 1135.453 C 2158.8083 1135.453 2160.6022 1135.1015 2162.2087 1134.4375 C 2163.8152 1133.7742 2165.1674 1132.7781 2166.312 1131.509 C 2167.4701 1130.201 2168.3202 1128.5804 2168.9561 1126.6091 C 2169.5585 1124.6371 2169.9066 1122.3525 2169.9066 1119.7366 C 2169.9066 1116.9058 2169.5987 1114.5235 2168.9962 1112.6104 C 2168.4005 1110.6973 2167.5437 1109.1155 2166.4459 1107.9635 L 2166.4861 1107.9441 Z M 2152.3086 1084.965 C 2133.084 1084.965 2117.5008 1100.7008 2117.5008 1120.1074 C 2117.5008 1139.5141 2133.084 1155.2499 2152.3086 1155.2499 C 2171.5332 1155.2499 2187.1164 1139.5141 2187.1164 1120.1074 C 2187.1164 1100.7008 2171.5332 1084.965 2152.3086 1084.965 Z M 2141.7324 1141.1735 L 2134.4629 1141.1735 L 2134.4629 1099.0025 L 2141.7324 1099.0025 L 2141.7324 1141.1735 Z M 2175.7838 1129.0296 C 2174.7797 1131.6656 2173.4275 1133.8913 2171.6872 1135.7067 C 2169.9267 1137.5227 2167.8382 1138.8889 2165.4218 1139.8066 C 2163.0187 1140.7243 2160.3144 1141.2317 2157.4494 1141.2317 L 2148.2856 1141.2317 L 2148.2856 1099.0025 L 2158.0519 1099.0025 C 2160.7963 1099.0025 2163.3534 1099.354 2165.7096 1100.115 C 2168.0658 1100.8179 2170.0606 1102.0288 2171.7608 1103.6487 C 2173.461 1105.2693 2174.8198 1107.4367 2175.7637 1110.0721 C 2176.7677 1112.7081 2177.2162 1115.9881 2177.2162 1119.8731 C 2177.2162 1123.3091 2176.7142 1126.3353 2175.7637 1129.0296 L 2175.7838 1129.0296 Z M 2245.654 1041.2664 L 2213.3386 1039.104 L 2242.9358 1050.9287 C 2244.2814 1047.9091 2245.2099 1044.6641 2245.654 1041.2664 Z M 2239.02 1057.6024 C 2232.6148 1066.1727 2222.3678 1071.7242 2210.8155 1071.7242 C 2191.4115 1071.7242 2175.681 1056.0603 2175.681 1036.7377 C 2175.681 1017.415 2191.4115 1001.7512 2210.8155 1001.7512 C 2222.388 1001.7512 2232.6551 1007.3235 2239.0536 1015.9214 L 2209.7054 1031.5657 L 2228.5913 1012.2471 L 2218.1223 1012.2471 L 2205.2648 1030.0209 L 2205.2648 1012.2471 L 2196.7604 1012.2471 L 2196.7604 1061.2282 L 2205.2648 1061.2282 L 2205.2648 1043.4833 L 2218.1223 1061.2282 L 2228.5913 1061.2282 L 2210.1965 1042.5165 L 2239.02 1057.6024 Z M 2242.9358 1022.5459 L 2213.5471 1034.2873 L 2245.654 1032.2083 C 2245.2099 1028.8105 2244.2814 1025.5655 2242.9358 1022.5459 Z M 2308.8912 773.8853 C 2307.0686 772.7307 2304.6835 772.4759 2302.5695 773.4354 C 2301.3431 773.9835 2300.3945 774.8644 2299.7372 775.9017 C 2300.015 775.5101 2300.3538 775.2946 2300.8484 775.0988 C 2302.1697 774.5513 2304.8597 775.4904 2306.3029 777.8592 C 2307.2718 777.3307 2308.2747 776.7826 2309.3249 776.2541 C 2309.7789 776.019 2310.2125 775.8035 2310.6868 775.569 C 2310.2125 774.884 2309.5417 774.2966 2308.9116 773.8853 L 2308.8912 773.8853 Z M 2312.0894 769.5007 C 2311.0053 769.9899 2310.1515 770.7732 2309.623 771.713 C 2309.8805 771.3017 2310.1719 771.0469 2310.5513 770.8707 C 2312.0149 770.1857 2314.2441 771.2427 2315.4502 773.3764 C 2315.4095 773.3764 2315.3756 773.4157 2315.335 773.4354 C 2316.6563 772.8479 2317.9843 772.2997 2319.2649 771.8105 C 2317.903 769.3638 2314.759 768.3461 2312.0894 769.5203 L 2312.0894 769.5007 Z M 2319.0481 751.3945 C 2299.4052 751.3945 2283.4754 767.1712 2283.4754 786.6284 C 2283.4754 806.0857 2299.4052 821.8623 2319.0481 821.8623 C 2338.691 821.8623 2354.6208 806.0857 2354.6208 786.6284 C 2354.6208 767.1712 2338.691 751.3945 2319.0481 751.3945 Z M 2340.4527 789.1924 C 2337.2681 792.2462 2332.647 794.7519 2327.45 796.2784 L 2324.8956 797.0224 L 2327.2129 798.2753 C 2329.8215 799.6846 2333.2162 802.3075 2335.4928 804.4412 C 2333.2162 806.8879 2329.6792 809.4329 2325.3495 810.9595 C 2325.3495 810.9595 2325.153 810.6268 2324.7194 809.9024 C 2320.3152 802.7574 2314.8404 797.2575 2308.6948 792.4617 C 2308.6948 792.4617 2312.5095 792.814 2314.3457 792.814 C 2326.0813 792.814 2338.0812 788.6835 2344.01 783.6728 C 2343.6508 785.4345 2342.4448 787.2741 2340.4527 789.1734 L 2340.4527 789.1924 Z M 2345.0331 780.932 C 2340.1952 786.9415 2320.8301 794.3406 2305.6863 790.7196 C 2305.1578 790.5827 2304.819 791.2678 2305.2933 791.5808 C 2315.667 798.236 2321.2028 806.1243 2324.1299 811.2725 C 2316.6969 813.6216 2306.8179 813.0145 2298.9309 806.5356 C 2299.7372 803.6193 2301.0449 800.9957 2302.766 798.7645 C 2298.355 797.492 2295.2923 795.2411 2294.5402 792.1872 C 2293.9914 789.9167 2294.8587 787.5093 2296.6542 785.1798 C 2294.5402 779.7971 2295.9089 774.14 2300.198 771.7712 C 2302.0139 770.7732 2304.1076 770.4994 2306.2013 770.8518 C 2306.8517 769.5793 2307.8207 768.5419 2309.1081 767.8176 C 2312.7805 765.7815 2317.781 767.2498 2321.0469 771.0666 C 2332.4641 766.7802 2342.4109 767.4259 2345.1347 772.5152 C 2347.4249 776.8022 2345.1957 780.7362 2345.1347 780.8148 L 2345.0737 780.8934 L 2345.0331 780.932 Z M 1902.1993 1251.567 C 1921.868 1251.567 1937.8186 1267.3643 1937.8186 1286.847 C 1937.8186 1306.3298 1921.868 1322.1271 1902.1993 1322.1271 C 1882.5307 1322.1271 1866.58 1306.3298 1866.58 1286.847 C 1866.58 1267.3643 1882.5307 1251.567 1902.1993 1251.567 Z M 1907.7627 1269.5598 L 1893.2368 1258.0544 L 1891.9681 1258.3876 L 1903.1492 1272.3429 L 1880.9499 1264.9734 L 1879.8983 1266.1105 L 1899.7433 1277.2821 L 1872.4555 1279.5753 L 1872.1774 1281.2022 L 1900.5778 1284.2601 L 1876.852 1303.5657 L 1877.9375 1305.036 L 1906.0598 1289.7672 L 1900.5168 1316.5413 L 1902.2197 1316.5413 L 1913.0819 1291.3358 L 1919.6562 1311.0336 L 1920.8028 1310.1516 L 1918.3264 1290.4144 L 1928.3609 1301.704 L 1928.9715 1300.5669 L 1921.5152 1286.6116 L 1932.0992 1290.316 L 1932.2213 1289.1599 L 1923.3945 1282.1236 L 1931.665 1280.2612 L 1931.5089 1279.0658 L 1921.6305 1276.7726 L 1926.7393 1269.2464 L 1926.1423 1268.4227 L 1918.1907 1272.2845 L 1919.0591 1261.7588 L 1918.1907 1261.328 L 1913.2583 1269.7756 L 1907.4439 1257.0747 L 1906.3583 1257.0747 L 1907.7831 1269.5205 L 1907.7627 1269.5598 Z M 1543.7094 667.9419 C 1563.3984 667.9419 1579.3656 683.7556 1579.3656 703.2586 C 1579.3656 722.7616 1563.3984 738.5753 1543.7094 738.5753 C 1524.0203 738.5753 1508.0531 722.7616 1508.0531 703.2586 C 1508.0531 683.7556 1524.0203 667.9419 1543.7094 667.9419 Z M 1549.2785 685.9534 L 1534.7376 674.4361 L 1533.4675 674.7696 L 1544.6602 688.7394 L 1522.4378 681.3623 L 1521.3851 682.5005 L 1541.2508 693.6837 L 1513.9347 695.9793 L 1513.6562 697.6079 L 1542.0861 700.6689 L 1518.3357 719.9946 L 1519.4223 721.4664 L 1547.5738 706.1817 L 1542.025 732.9837 L 1543.7297 732.9837 L 1554.6032 707.752 L 1561.1843 727.4702 L 1562.3321 726.5873 L 1559.8532 706.8297 L 1569.898 718.131 L 1570.5093 716.9927 L 1563.0452 703.0229 L 1573.6402 706.7312 L 1573.7625 705.5739 L 1564.9265 698.5302 L 1573.2056 696.6659 L 1573.0494 695.4692 L 1563.1607 693.1737 L 1568.2748 685.6397 L 1567.6772 684.8151 L 1559.7173 688.681 L 1560.5867 678.1444 L 1559.7173 677.7131 L 1554.7798 686.1694 L 1548.9593 673.4554 L 1547.8726 673.4554 L 1549.2989 685.914 L 1549.2785 685.9534 Z M 1829.1873 1203.4773 C 1829.1873 1223.0202 1813.3439 1238.8664 1793.8118 1238.8664 C 1774.2729 1238.8664 1758.4295 1223.0202 1758.4295 1203.4773 C 1758.4295 1183.9343 1774.2729 1168.0882 1793.8118 1168.0882 C 1797.6229 1168.0882 1801.298 1168.698 1804.7552 1169.8182 L 1796.6974 1194.63 L 1773.15 1194.63 L 1770.2848 1203.4773 L 1793.8254 1203.4773 L 1786.9313 1224.7108 L 1796.6565 1224.7108 L 1803.5574 1203.4773 L 1829.2077 1203.4773 L 1829.1873 1203.4773 Z M 1828.0644 1194.63 L 1806.409 1194.63 L 1813.1669 1173.8484 C 1820.4421 1178.6069 1825.8457 1185.9794 1828.0644 1194.63 Z M 2294.0374 834.1259 C 2313.8436 834.1259 2329.9096 850.1757 2329.9096 869.9982 C 2329.9096 889.8206 2313.8598 905.8705 2294.0374 905.8705 C 2274.2149 905.8705 2258.1651 889.8206 2258.1651 869.9982 C 2258.1651 850.1757 2274.2149 834.1259 2294.0374 834.1259 Z M 2295.5823 847.4927 C 2284.1506 847.4927 2278.1176 853.3956 2278.1176 862.0466 C 2278.1176 868.9737 2281.435 873.0715 2287.3215 877.2832 L 2277.0768 892.5203 L 2285.5489 892.5203 L 2296.9319 875.446 L 2292.9639 872.7792 C 2288.1669 869.5593 2285.8417 867.0387 2285.8417 861.5912 C 2285.8418 856.7941 2289.2077 853.5745 2295.631 853.5745 L 2299.1432 853.5745 L 2299.1432 892.5038 L 2306.9648 892.5038 L 2306.9648 847.4927 L 2295.5823 847.4927 Z M 2127.2976 667.5991 C 2147.1778 667.5991 2163.3 683.5663 2163.3 703.2586 C 2163.3 722.9509 2147.1778 738.9181 2127.2976 738.9181 C 2107.4174 738.9181 2091.2952 722.9509 2091.2952 703.2586 C 2091.2952 683.5663 2107.4174 667.5991 2127.2976 667.5991 Z M 2132.9208 685.7855 L 2118.2387 674.1563 L 2116.9564 674.4931 L 2128.2577 688.5984 L 2105.8196 681.1497 L 2104.7567 682.2991 L 2124.8152 693.5908 L 2097.2339 695.9086 L 2096.9528 697.5531 L 2125.6586 700.6438 L 2101.6776 720.1571 L 2102.7749 721.6431 L 2131.1996 706.2101 L 2125.5969 733.2722 L 2127.3182 733.2722 L 2138.2972 707.7956 L 2144.9422 727.7052 L 2146.1011 726.8138 L 2143.5981 706.8643 L 2153.7405 718.2754 L 2154.3577 717.126 L 2146.8212 703.0206 L 2157.519 706.7649 L 2157.6425 705.5964 L 2148.7207 698.4843 L 2157.0801 696.6019 L 2156.9224 695.3936 L 2146.9378 693.0758 L 2152.1015 685.4686 L 2151.4981 684.6361 L 2143.461 688.5395 L 2144.3387 677.9006 L 2143.461 677.4651 L 2138.4755 686.0035 L 2132.5985 673.1661 L 2131.5013 673.1661 L 2132.9414 685.7457 L 2132.9208 685.7855 Z M 2048.646 1188.3961 C 2045.9304 1190.7565 2041.905 1190.7565 2039.1962 1188.3961 C 2032.4004 1182.4958 2023.1289 1191.8564 2028.9716 1198.7168 C 2031.31 1201.457 2031.31 1205.5174 2028.9716 1208.2577 C 2023.1289 1215.1181 2032.4004 1224.4787 2039.1962 1218.5784 C 2041.905 1216.218 2045.9304 1216.218 2048.646 1218.5784 C 2055.435 1224.4787 2064.7065 1215.1181 2058.8638 1208.2577 C 2056.5254 1205.5174 2056.5254 1201.457 2058.8638 1198.7168 C 2064.7065 1191.8564 2055.435 1182.4958 2048.646 1188.3961 Z M 2043.928 1210.2574 C 2040.2249 1210.2574 2037.2144 1207.2174 2037.2144 1203.4773 C 2037.2144 1199.7372 2040.2249 1196.6972 2043.928 1196.6972 C 2047.6311 1196.6972 2050.6416 1199.7372 2050.6416 1203.4773 C 2050.6416 1207.2174 2047.6311 1210.2574 2043.928 1210.2574 Z M 2043.928 1167.4749 C 2024.233 1167.4749 2008.2685 1183.5958 2008.2685 1203.4773 C 2008.2685 1223.3588 2024.233 1239.4797 2043.928 1239.4797 C 2063.623 1239.4797 2079.5875 1223.3588 2079.5875 1203.4773 C 2079.5875 1183.5958 2063.623 1167.4749 2043.928 1167.4749 Z M 2066.2769 1221.0986 C 2065.0631 1223.1188 2063.383 1224.8188 2061.3806 1226.0388 C 2057.9312 1228.1393 2053.2612 1228.1393 2043.928 1228.1393 C 2034.5948 1228.1393 2029.9248 1228.1393 2026.4754 1226.0388 C 2024.473 1224.8188 2022.7929 1223.1188 2021.5791 1221.0986 C 2019.5012 1217.6183 2019.5012 1212.8983 2019.5012 1203.4773 C 2019.5012 1194.057 2019.5012 1189.3363 2021.5791 1185.856 C 2022.7929 1183.8358 2024.473 1182.1358 2026.4754 1180.9158 C 2029.9248 1178.8153 2034.5948 1178.816 2043.928 1178.816 C 2053.2612 1178.816 2057.9312 1178.8153 2061.3806 1180.9158 C 2063.383 1182.1358 2065.0631 1183.8358 2066.2769 1185.856 C 2068.3547 1189.3363 2068.3547 1194.057 2068.3547 1203.4773 C 2068.3547 1212.8983 2068.3547 1217.6183 2066.2769 1221.0986 Z M 1746.9923 1085.8064 C 1761.3182 1090.6208 1771.6376 1104.1584 1771.6376 1120.1068 C 1771.6376 1140.0875 1755.4399 1156.2852 1735.4592 1156.2852 C 1734.9416 1156.2852 1734.4268 1156.2738 1733.9143 1156.2522 L 1750.4898 1114.3215 L 1751.8134 1114.7915 L 1748.6967 1138.9168 L 1757.0231 1141.9482 L 1757.0231 1103.0917 L 1750.0203 1100.4869 L 1725.1691 1127.5584 L 1723.8454 1127.0885 L 1746.9923 1085.8064 Z M 1735.4598 1083.9291 C 1735.9912 1083.9291 1736.519 1083.9411 1737.0447 1083.9638 L 1720.4294 1125.8506 L 1719.1058 1125.3808 L 1722.2224 1101.2981 L 1713.8961 1098.2667 L 1713.8961 1137.1226 L 1720.8988 1139.7273 L 1745.7499 1112.6132 L 1747.0737 1113.0832 L 1723.9023 1154.3999 C 1709.5892 1149.5783 1699.2815 1136.0469 1699.2815 1120.1074 C 1699.2815 1100.1268 1715.4793 1083.9291 1735.4598 1083.9291 Z M 2247.2317 919.0051 C 2261.5834 923.8282 2271.9214 937.3902 2271.9214 953.3673 C 2271.9214 973.384 2255.6946 989.6109 2235.6779 989.6109 C 2235.1593 989.6109 2234.6436 989.5995 2234.1301 989.5779 L 2250.7355 947.5716 L 2252.0615 948.0424 L 2248.9391 972.2112 L 2257.2806 975.248 L 2257.2806 936.3215 L 2250.2652 933.7121 L 2225.3692 960.8323 L 2224.0431 960.3616 L 2247.2317 919.0051 Z M 2235.6785 917.1244 C 2236.2108 917.1244 2236.7396 917.1364 2237.2662 917.1592 L 2220.621 959.1215 L 2219.2949 958.6508 L 2222.4172 934.5246 L 2214.0759 931.4878 L 2214.0759 970.4138 L 2221.0912 973.0232 L 2245.9871 945.8602 L 2247.3133 946.331 L 2224.1001 987.7222 C 2209.7612 982.8919 2199.4349 969.3361 2199.4349 953.3679 C 2199.4349 933.3513 2215.6619 917.1244 2235.6785 917.1244 Z M 1699.4486 737.465 C 1702.9242 738.5733 1706.614 739.1889 1710.4489 739.1889 C 1710.7667 739.1889 1711.1053 739.1889 1711.43 739.1889 L 1713.959 716.6724 L 1705.0178 720.018 L 1699.4486 737.485 L 1699.4486 737.465 Z M 1722.5062 713.4497 L 1719.7285 737.9777 C 1730.7909 735.0224 1739.7528 726.9353 1743.9055 716.4257 C 1745.3634 712.711 1746.241 708.7083 1746.3792 704.521 L 1722.5062 713.4704 L 1722.5062 713.4497 Z M 1692.0277 734.0986 L 1695.3581 723.6304 L 1684.2197 727.8177 C 1686.5137 730.2602 1689.1325 732.3946 1692.0277 734.1193 L 1692.0277 734.0986 Z M 1711.3886 667.349 L 1710.4489 667.349 C 1690.6043 667.349 1674.5185 683.4202 1674.5185 703.2482 C 1674.5185 709.7551 1676.2529 715.8508 1679.2724 721.1263 L 1698.4329 713.9423 L 1713.2611 667.4312 C 1712.6461 667.3898 1712.0035 667.349 1711.3678 667.3283 L 1711.3886 667.349 Z M 1714.9609 707.7637 L 1718.2706 678.4328 L 1708.1134 710.33 L 1714.9609 707.7637 Z M 1743.9055 690.1116 C 1740.7478 682.086 1734.7847 675.4769 1727.2394 671.4948 L 1723.5012 704.5618 L 1745.702 696.2487 C 1745.2805 694.1351 1744.6794 692.0822 1743.9055 690.1323 L 1743.9055 690.1116 Z M 1550.0527 791.5135 L 1549.2187 791.5135 L 1549.2187 796.3986 L 1550.0527 796.3986 C 1551.2272 796.3986 1551.7554 795.2234 1551.7554 793.946 C 1551.7554 792.5067 1551.2272 791.5135 1550.0527 791.5135 Z M 1591.4048 771.2635 C 1590.4735 771.2635 1589.9453 772.3783 1589.9453 777.1418 C 1589.9453 781.9052 1590.4735 783.02 1591.4048 783.02 C 1592.3361 783.02 1592.8643 781.9052 1592.8643 777.1418 C 1592.8643 772.3783 1592.3361 771.2635 1591.4048 771.2635 Z M 1570.4229 792.1015 C 1570.4021 792.385 1570.2978 793.2364 1570.1589 794.1691 L 1569.3874 799.5205 L 1571.4793 799.5205 L 1570.7079 794.1691 C 1570.5828 793.399 1570.4646 792.385 1570.4438 792.1015 L 1570.4229 792.1015 Z M 1556.8219 774.0609 C 1556.6968 773.2901 1556.5787 772.297 1556.5578 771.9933 C 1556.537 772.2768 1556.4327 773.1282 1556.2937 774.0609 L 1555.5223 779.4123 L 1557.6142 779.4123 L 1556.8428 774.0609 L 1556.8219 774.0609 Z M 1568.7202 750.1413 C 1548.5724 750.1413 1532.2331 766.4792 1532.2331 786.6284 C 1532.2331 806.7777 1548.5724 823.1156 1568.7202 823.1156 C 1588.8681 823.1156 1605.2073 806.7777 1605.2073 786.6284 C 1605.2073 766.4792 1588.8681 750.1413 1568.7202 750.1413 Z M 1580.2362 768.1819 C 1583.2525 768.1819 1584.5105 770.5129 1585.122 772.6417 L 1581.939 773.8781 C 1581.2092 771.8716 1580.7992 771.2635 1580.2154 771.2635 C 1579.1173 771.2635 1578.6934 772.723 1578.6934 777.1015 C 1578.6934 781.4799 1579.159 782.9595 1580.2571 782.9595 C 1581.2648 782.9595 1581.7513 781.115 1581.7513 779.4929 L 1581.7513 779.2698 L 1579.9096 779.2698 L 1579.9096 776.027 L 1585.1568 776.027 L 1585.1568 785.7972 L 1582.4255 785.7972 L 1582.2031 784.3579 C 1581.5498 785.5338 1580.681 786.0808 1579.4648 786.0808 C 1576.4833 786.0808 1574.718 782.5544 1574.718 777.1418 C 1574.718 771.7292 1576.3651 768.2021 1580.2571 768.2021 L 1580.2362 768.1819 Z M 1563.3479 768.5266 L 1567.5248 768.5266 L 1569.8322 776.7157 C 1570.0616 777.4865 1570.2839 778.4393 1570.3604 778.7229 C 1570.3395 778.3983 1570.3187 777.5879 1570.3187 776.6351 L 1570.3187 768.5266 L 1573.8493 768.5266 L 1573.8493 785.7771 L 1569.7766 785.7771 L 1567.365 777.1821 C 1567.1426 776.412 1566.9132 775.4592 1566.8368 775.1756 C 1566.8576 775.4995 1566.8785 776.3106 1566.8785 777.2634 L 1566.8785 785.7972 L 1563.3479 785.7972 L 1563.3479 768.5266 Z M 1559.2753 768.5266 L 1562.5 785.7771 L 1558.5247 785.7771 L 1558.059 782.6753 L 1555.0358 782.6753 L 1554.5702 785.7771 L 1550.8797 785.7771 L 1554.0837 768.5266 L 1559.2753 768.5266 Z M 1546.0148 768.5266 L 1547.0295 772.9864 C 1547.231 773.7565 1547.4187 774.7294 1547.4395 775.0338 C 1547.4534 774.7496 1547.6619 773.9184 1547.8843 772.9864 L 1548.9755 768.5266 L 1552.9091 768.5266 L 1549.2604 779.7973 L 1549.2604 785.7771 L 1545.431 785.7771 L 1545.431 779.7772 L 1541.7823 768.5266 L 1546.0148 768.5266 Z M 1550.6156 799.2974 L 1549.2396 799.2974 L 1549.2396 805.8853 L 1545.4101 805.8853 L 1545.4101 788.6349 L 1550.9006 788.6349 C 1553.5555 788.6349 1555.4806 790.9457 1555.4806 793.9863 C 1555.4806 797.0269 1553.5346 799.2974 1550.6156 799.2974 Z M 1563.9943 805.8853 L 1556.2312 805.8853 L 1556.2312 788.6349 L 1560.0676 788.6349 L 1560.0676 802.6223 L 1563.9943 802.6223 L 1563.9943 805.8853 Z M 1572.3689 805.8853 L 1571.9033 802.7842 L 1568.8801 802.7842 L 1568.4144 805.8853 L 1564.724 805.8853 L 1567.9279 788.6349 L 1573.0987 788.6349 L 1576.3234 805.8853 L 1572.3481 805.8853 L 1572.3689 805.8853 Z M 1581.7305 799.9056 L 1581.7305 805.8853 L 1577.9011 805.8853 L 1577.9011 799.8854 L 1574.2524 788.6349 L 1578.471 788.6349 L 1579.4857 793.1148 C 1579.6872 793.8855 1579.8679 794.8585 1579.8888 795.1622 C 1579.9096 794.8787 1580.1112 794.0475 1580.3335 793.1148 L 1581.4316 788.6349 L 1585.3653 788.6349 L 1581.7166 799.9056 L 1581.7305 799.9056 Z M 1591.4048 786.1016 C 1587.9576 786.1016 1585.9699 783.1416 1585.9699 777.1418 C 1585.9699 771.1419 1587.9576 768.1819 1591.4048 768.1819 C 1594.852 768.1819 1596.8327 771.1419 1596.8327 777.1418 C 1596.8327 783.1416 1594.852 786.1016 1591.4048 786.1016 Z M 2294.0374 667.0515 C 2274.0399 667.0515 2257.8303 683.264 2257.8303 703.2586 C 2257.8303 723.2533 2274.0399 739.4657 2294.0374 739.4657 C 2314.0348 739.4657 2330.2444 723.2533 2330.2444 703.2586 C 2330.2444 683.264 2314.0348 667.0515 2294.0374 667.0515 Z M 2317.1681 718.5463 C 2317.1681 719.3506 2317.0497 720.1757 2316.7294 720.9193 C 2316.4022 721.6636 2315.9844 722.3676 2315.3995 722.9107 C 2314.8355 723.474 2314.1532 723.9168 2313.3872 724.2183 C 2312.6422 724.54 2311.8206 724.721 2310.992 724.721 L 2277.0618 724.721 C 2276.2332 724.721 2275.4325 724.54 2274.6666 724.2183 C 2273.9215 723.8966 2273.2183 723.474 2272.6543 722.9107 C 2272.0903 722.3481 2271.589 721.6636 2271.3244 720.9193 C 2271.0876 720.1757 2270.8857 719.3506 2270.8857 718.5463 L 2270.8857 693.1408 C 2270.8857 692.1347 2271.1294 691.1292 2271.5681 690.2644 C 2272.0137 689.3997 2272.6961 688.6351 2273.5177 688.0718 L 2288.7664 677.4311 C 2290.2774 676.3045 2292.1434 675.7412 2294.0374 675.7412 C 2295.9313 675.7412 2297.7973 676.3045 2299.3083 677.4311 L 2314.4943 688.0718 C 2315.316 688.6351 2316.0053 689.3795 2316.444 690.2644 C 2316.8896 691.1494 2317.1263 692.1347 2317.1263 693.1408 L 2317.1263 718.5463 L 2317.1681 718.5463 Z M 2287.9796 697.2844 C 2286.5314 697.2239 2285.1666 697.7273 2284.1013 698.652 C 2283.036 699.5975 2282.4093 700.9051 2282.3536 702.3534 L 2282.3536 703.0372 C 2282.3536 703.6611 2282.9106 704.1638 2283.5373 704.1638 C 2283.5373 704.1638 2283.5582 704.1436 2283.6 704.1032 C 2284.2823 704.0433 2284.7837 703.48 2284.721 702.7963 L 2284.721 702.414 C 2284.7837 701.6697 2285.1666 700.9051 2285.7306 700.4024 C 2286.2946 699.8997 2287.0605 699.6581 2287.8613 699.6581 C 2289.4906 699.7786 2290.7578 701.167 2290.6812 702.7761 C 2290.6186 703.3993 2291.1199 703.9626 2291.8023 704.0231 C 2292.4289 704.0231 2292.9929 703.5803 2293.0486 702.8965 C 2293.2297 699.9596 2290.918 697.4453 2287.9657 697.2642 L 2287.9796 697.2844 Z M 2300.854 697.2844 C 2297.8391 697.164 2295.3255 699.4165 2295.1445 702.3534 L 2295.1445 703.0372 C 2295.1445 703.6611 2295.7084 704.1638 2296.3281 704.1638 C 2296.3281 704.1638 2296.3908 704.1638 2296.4535 704.1032 C 2297.1358 704.0433 2297.6372 703.48 2297.5745 702.7963 L 2297.5745 702.414 C 2297.6998 700.7847 2299.0855 699.5975 2300.7148 699.6581 C 2301.5434 699.7187 2302.2814 700.1002 2302.7897 700.6635 C 2303.291 701.2268 2303.6113 701.9712 2303.5347 702.7963 C 2303.4721 703.4194 2303.9734 703.9827 2304.6558 704.0433 C 2305.3451 704.0433 2305.8464 703.6005 2305.9021 702.9167 C 2305.9648 701.4684 2305.4635 700.1002 2304.5165 699.0342 C 2303.5696 697.9682 2302.2675 697.345 2300.8192 697.2844 L 2300.854 697.2844 Z"/>
</svg>