<svg xmlns="http://www.w3.org/2000/svg" viewBox="1161 291 1540 1406">
<path fill="#7A28B8" d="M 2546.9443 694.3153 C 2545.3339 695.715 2542.9468 695.715 2541.3405 694.3153 C 2537.3105 690.8164 2531.8124 696.3673 2535.2772 700.4356 C 2536.6639 702.0606 2536.6639 704.4684 2535.2772 706.0934 C 2531.8124 710.1617 2537.3105 715.7126 2541.3405 712.2137 C 2542.9468 710.814 2545.3339 710.814 2546.9443 712.2137 C 2550.9703 715.7126 2556.4683 710.1617 2553.0036 706.0934 C 2551.6169 704.4684 2551.6169 702.0606 2553.0036 700.4356 C 2556.4683 696.3673 2550.9703 690.8164 2546.9443 694.3153 Z M 2544.1465 707.2793 C 2541.9505 707.2793 2540.1653 705.4765 2540.1653 703.2586 C 2540.1653 701.0407 2541.9505 699.2379 2544.1465 699.2379 C 2546.3425 699.2379 2548.1277 701.0407 2548.1277 703.2586 C 2548.1277 705.4765 2546.3425 707.2793 2544.1465 707.2793 Z M 2544.1465 681.9088 C 2532.4671 681.9088 2523.0001 691.4687 2523.0001 703.2586 C 2523.0001 715.0486 2532.4671 724.6084 2544.1465 724.6084 C 2555.8258 724.6084 2565.2929 715.0486 2565.2929 703.2586 C 2565.2929 691.4687 2555.8258 681.9088 2544.1465 681.9088 Z M 2557.3996 713.7082 C 2556.6798 714.9062 2555.6835 715.9143 2554.496 716.6378 C 2552.4505 717.8834 2549.6812 717.8834 2544.1465 717.8834 C 2538.6118 717.8834 2535.8424 717.8834 2533.7969 716.6378 C 2532.6095 715.9143 2531.6132 714.9062 2530.8934 713.7082 C 2529.6612 711.6444 2529.6612 708.8453 2529.6612 703.2586 C 2529.6612 697.6723 2529.6612 694.8728 2530.8934 692.809 C 2531.6132 691.611 2532.6095 690.6029 2533.7969 689.8794 C 2535.8424 688.6338 2538.6118 688.6342 2544.1465 688.6342 C 2549.6812 688.6342 2552.4505 688.6338 2554.496 689.8794 C 2555.6835 690.6029 2556.6798 691.611 2557.3996 692.809 C 2558.6318 694.8728 2558.6318 697.6723 2558.6318 703.2586 C 2558.6318 708.8453 2558.6318 711.6444 2557.3996 713.7082 Z M 2402.418 431.9375 C 2414.2435 431.9375 2423.8337 441.4355 2423.8337 453.1493 C 2423.8337 464.8631 2414.2435 474.3611 2402.418 474.3611 C 2390.5924 474.3611 2381.0022 464.8631 2381.0022 453.1493 C 2381.0022 441.4355 2390.5924 431.9375 2402.418 431.9375 Z M 2405.7629 442.7555 L 2397.0294 435.8381 L 2396.2665 436.0383 L 2402.9891 444.4288 L 2389.6419 439.998 L 2389.0097 440.6817 L 2400.9413 447.3985 L 2384.5348 448.7772 L 2384.3675 449.7554 L 2401.443 451.5939 L 2387.1781 463.2013 L 2387.8308 464.0852 L 2404.739 454.905 L 2401.4063 471.0027 L 2402.4302 471.0027 L 2408.961 455.8481 L 2412.9137 467.6912 L 2413.6031 467.1609 L 2412.1142 455.2942 L 2418.1473 462.0819 L 2418.5145 461.3983 L 2414.0314 453.0078 L 2420.395 455.235 L 2420.4684 454.5399 L 2415.1614 450.3094 L 2420.1339 449.1897 L 2420.0401 448.4709 L 2414.1008 447.0921 L 2417.1724 442.5671 L 2416.8134 442.0719 L 2412.0326 444.3937 L 2412.5548 438.0653 L 2412.0326 437.8063 L 2409.0671 442.8853 L 2405.5712 435.249 L 2404.9185 435.249 L 2405.7751 442.7319 L 2405.7629 442.7555 Z M 1877.1884 1515.5405 C 1865.3628 1515.5405 1855.7726 1525.1299 1855.7726 1536.9563 C 1855.7726 1548.7827 1865.3628 1558.3721 1877.1884 1558.3721 C 1889.0139 1558.3721 1898.6041 1548.7827 1898.6041 1536.9563 C 1898.6041 1525.1299 1889.0139 1515.5405 1877.1884 1515.5405 Z M 1888.3735 1528.5683 L 1893.24 1528.5683 L 1892.5384 1530.4125 L 1887.6719 1530.4125 L 1888.3735 1528.5683 Z M 1866.3622 1543.9403 L 1870.3231 1533.839 L 1867.6594 1533.839 L 1863.5435 1544.2613 L 1859.9252 1544.6896 L 1865.2771 1530.9954 L 1874.8795 1530.9954 L 1869.9682 1543.5356 L 1866.3499 1543.9403 L 1866.3622 1543.9403 Z M 1877.58 1542.7622 C 1876.344 1543.2737 1874.4145 1543.3929 1873.3825 1542.4171 C 1872.2403 1541.3463 1872.4075 1539.4071 1872.8114 1537.9675 L 1876.1196 1537.9675 C 1875.9768 1538.4909 1875.5689 1539.9186 1876.2257 1540.1805 C 1877.0823 1540.5256 1877.9512 1538.8005 1878.2367 1538.2531 C 1878.3061 1538.1221 1878.3672 1537.9557 1878.3672 1537.9439 L 1876.5479 1537.9439 L 1877.4739 1535.5881 L 1879.2687 1535.5881 C 1879.436 1535.148 1879.8072 1533.6962 1879.1627 1533.5893 C 1878.3795 1533.4702 1877.735 1534.5528 1877.3434 1535.1362 L 1874.0596 1535.1362 C 1874.0596 1535.1362 1874.0351 1535.1121 1874.0351 1535.1003 C 1874.0351 1535.0766 1874.0963 1534.9812 1874.1086 1534.9338 C 1875.2834 1532.2567 1877.3801 1530.4006 1880.2681 1530.6625 C 1883.5315 1530.9599 1883.1603 1534.3627 1882.2914 1536.849 C 1881.447 1539.2643 1879.9255 1541.7746 1877.5677 1542.7504 L 1877.58 1542.7622 Z M 1890.4416 1541.2158 L 1888.2634 1541.4773 L 1888.3001 1539.99 L 1888.088 1539.99 C 1887.2558 1541.073 1886.134 1542.0961 1884.6941 1542.1793 C 1882.1364 1542.3339 1881.6143 1540.3114 1882.3893 1538.2531 L 1885.2203 1530.9954 L 1888.6713 1530.9954 C 1888.6713 1530.9954 1886.8724 1535.469 1886.2319 1537.2182 C 1885.979 1537.908 1885.5058 1539.2052 1886.7418 1539.1338 C 1887.7412 1539.0742 1888.2634 1537.9198 1888.5856 1537.1109 L 1890.976 1530.9954 L 1894.427 1530.9954 L 1890.4416 1541.2158 Z M 1960.5581 515.1149 C 1972.491 515.1149 1982.1682 524.699 1982.1682 536.5191 C 1982.1682 548.3392 1972.491 557.9233 1960.5581 557.9233 C 1948.6252 557.9233 1938.9481 548.3392 1938.9481 536.5191 C 1938.9481 524.699 1948.6252 515.1149 1960.5581 515.1149 Z M 1963.9334 526.031 L 1955.1206 519.0508 L 1954.3509 519.2529 L 1961.1344 527.7195 L 1947.6662 523.2485 L 1947.0282 523.9384 L 1959.068 530.7161 L 1942.5127 532.1074 L 1942.3439 533.0944 L 1959.5743 534.9496 L 1945.18 546.6622 L 1945.8386 547.5542 L 1962.9002 538.2907 L 1959.5373 554.5345 L 1960.5705 554.5345 L 1967.1605 539.2424 L 1971.1491 551.1929 L 1971.8447 550.6578 L 1970.3423 538.6834 L 1976.4302 545.5328 L 1976.8006 544.8429 L 1972.2769 536.3763 L 1978.6982 538.6237 L 1978.7723 537.9223 L 1973.4171 533.6534 L 1978.4348 532.5235 L 1978.3401 531.7982 L 1972.3469 530.407 L 1975.4464 525.8409 L 1975.0842 525.3412 L 1970.26 527.6841 L 1970.7869 521.2982 L 1970.26 521.0368 L 1967.2675 526.1619 L 1963.7399 518.4564 L 1963.0813 518.4564 L 1963.9457 526.0072 L 1963.9334 526.031 Z M 1590.373 1289.6498 L 1570.3733 1288.3115 L 1588.6907 1295.6297 C 1589.5235 1293.7609 1590.0982 1291.7527 1590.373 1289.6498 Z M 1586.2673 1299.76 C 1582.3032 1305.0641 1575.9614 1308.4998 1568.8118 1308.4998 C 1556.8029 1308.4998 1547.0674 1298.8056 1547.0674 1286.847 C 1547.0674 1274.8885 1556.8029 1265.1943 1568.8118 1265.1943 C 1575.9739 1265.1943 1582.3282 1268.6429 1586.2881 1273.9641 L 1568.1248 1283.6462 L 1579.8131 1271.6901 L 1573.3339 1271.6901 L 1565.3765 1282.6901 L 1565.3765 1271.6901 L 1560.1132 1271.6901 L 1560.1132 1302.004 L 1565.3765 1302.004 L 1565.3765 1291.0219 L 1573.3339 1302.004 L 1579.8131 1302.004 L 1568.4287 1290.4235 L 1586.2673 1299.76 Z M 1588.6907 1278.0639 L 1570.5024 1285.3305 L 1590.373 1284.0438 C 1590.0982 1281.941 1589.5235 1279.9327 1588.6907 1278.0639 Z M 1898.8894 536.5191 C 1898.8894 548.51 1889.1684 558.2327 1877.1842 558.2327 C 1865.1958 558.2327 1855.4748 548.51 1855.4748 536.5191 C 1855.4748 524.5282 1865.1958 514.8055 1877.1842 514.8055 C 1879.5226 514.8055 1881.7774 515.1797 1883.8987 515.867 L 1878.9547 531.0907 L 1864.5068 531.0907 L 1862.7488 536.5191 L 1877.1925 536.5191 L 1872.9626 549.5472 L 1878.9296 549.5472 L 1883.1638 536.5191 L 1898.9019 536.5191 L 1898.8894 536.5191 Z M 1898.2004 531.0907 L 1884.9134 531.0907 L 1889.0598 518.3398 C 1893.5236 521.2595 1896.8391 525.783 1898.2004 531.0907 Z M 2463.6497 1027.5545 C 2461.9962 1028.9918 2459.545 1028.9918 2457.8956 1027.5545 C 2453.7575 1023.9617 2448.112 1029.6616 2451.6697 1033.8389 C 2453.0936 1035.5075 2453.0936 1037.9799 2451.6697 1039.6485 C 2448.112 1043.8259 2453.7575 1049.5257 2457.8956 1045.9329 C 2459.545 1044.4957 2461.9962 1044.4957 2463.6497 1045.9329 C 2467.7837 1049.5257 2473.4292 1043.8259 2469.8715 1039.6485 C 2468.4476 1037.9799 2468.4476 1035.5075 2469.8715 1033.8389 C 2473.4292 1029.6616 2467.7837 1023.9617 2463.6497 1027.5545 Z M 2460.7769 1040.8662 C 2458.522 1040.8662 2456.6889 1039.0151 2456.6889 1036.7377 C 2456.6889 1034.4603 2458.522 1032.6092 2460.7769 1032.6092 C 2463.0317 1032.6092 2464.8649 1034.4603 2464.8649 1036.7377 C 2464.8649 1039.0151 2463.0317 1040.8662 2460.7769 1040.8662 Z M 2460.7769 1014.8153 C 2448.7843 1014.8153 2439.0633 1024.6315 2439.0633 1036.7377 C 2439.0633 1048.8438 2448.7843 1058.66 2460.7769 1058.66 C 2472.7694 1058.66 2482.4904 1048.8438 2482.4904 1036.7377 C 2482.4904 1024.6315 2472.7694 1014.8153 2460.7769 1014.8153 Z M 2474.3854 1047.4675 C 2473.6463 1048.6977 2472.6233 1049.7328 2471.404 1050.4757 C 2469.3036 1051.7547 2466.46 1051.7547 2460.7769 1051.7547 C 2455.0937 1051.7547 2452.2501 1051.7547 2450.1497 1050.4757 C 2448.9304 1049.7328 2447.9074 1048.6977 2447.1683 1047.4675 C 2445.9031 1045.3484 2445.9031 1042.4742 2445.9031 1036.7377 C 2445.9031 1031.0015 2445.9031 1028.127 2447.1683 1026.0078 C 2447.9074 1024.7777 2448.9304 1023.7425 2450.1497 1022.9997 C 2452.2501 1021.7207 2455.0937 1021.7211 2460.7769 1021.7211 C 2466.46 1021.7211 2469.3036 1021.7207 2471.404 1022.9997 C 2472.6233 1023.7425 2473.6463 1024.7777 2474.3854 1026.0078 C 2475.6506 1028.127 2475.6506 1031.0015 2475.6506 1036.7377 C 2475.6506 1042.4742 2475.6506 1045.3484 2474.3854 1047.4675 Z M 1982.3194 1536.9563 C 1982.3194 1548.9805 1972.5714 1558.7301 1960.5539 1558.7301 C 1948.5323 1558.7301 1938.7843 1548.9805 1938.7843 1536.9563 C 1938.7843 1524.9321 1948.5323 1515.1825 1960.5539 1515.1825 C 1962.8988 1515.1825 1965.1599 1515.5576 1967.2871 1516.2469 L 1962.3293 1531.5128 L 1947.8414 1531.5128 L 1946.0785 1536.9563 L 1960.5623 1536.9563 L 1956.3206 1550.0206 L 1962.3042 1550.0206 L 1966.5501 1536.9563 L 1982.3319 1536.9563 L 1982.3194 1536.9563 Z M 1981.6285 1531.5128 L 1968.3046 1531.5128 L 1972.4625 1518.7266 C 1976.9387 1521.6543 1980.2634 1526.1904 1981.6285 1531.5128 Z M 1374.6338 539.1252 C 1377.425 542.1036 1380.3608 544.5484 1382.9945 545.9754 C 1385.8325 547.5144 1387.577 547.4646 1387.994 547.0425 C 1388.3514 546.6702 1388.4152 545.1811 1387.1217 542.1533 C 1386.041 539.5473 1383.9774 536.4072 1381.5564 533.5407 C 1381.9096 533.2182 1374.1786 539.4975 1374.6466 539.1252 L 1374.6338 539.1252 Z M 1376.9697 514.1813 C 1364.7499 514.1813 1354.8447 524.1835 1354.8447 536.5191 C 1354.8447 548.8547 1364.7499 558.8569 1376.9697 558.8569 C 1389.1896 558.8569 1399.0948 548.8547 1399.0948 536.5191 C 1399.0948 524.1835 1389.1896 514.1813 1376.9697 514.1813 Z M 1389.3853 548.2713 C 1389.3342 548.3828 1389.2236 548.4824 1389.1257 548.5939 L 1389.0789 548.6436 L 1388.879 548.867 C 1382.3308 555.0842 1371.9661 554.6625 1365.8817 547.9114 C 1360.1036 541.4832 1360.2143 531.4312 1365.9327 525.1145 C 1370.2088 520.2746 1377.3271 518.5246 1383.3137 520.7584 C 1384.7518 521.2426 1386.1006 521.9872 1387.3302 522.8807 C 1388.2024 523.5134 1389.0279 524.258 1389.8023 525.1145 C 1389.8023 525.1145 1390.6745 526.0701 1382.7818 532.4983 L 1382.9435 532.7093 C 1388.462 539.1996 1391.2404 545.8389 1389.3853 548.2837 L 1389.3853 548.2713 Z M 1340.736 789.4923 L 1320.3001 788.1248 L 1339.0171 795.6027 C 1339.868 793.6931 1340.4552 791.641 1340.736 789.4923 Z M 1336.5408 799.823 C 1332.4902 805.2428 1326.0101 808.7535 1318.7046 808.7535 C 1306.4337 808.7535 1296.4859 798.8478 1296.4859 786.6284 C 1296.4859 774.409 1306.4337 764.5034 1318.7046 764.5034 C 1326.0229 764.5034 1332.5157 768.0272 1336.562 773.4644 L 1318.0025 783.3577 L 1329.9458 771.1409 L 1323.3253 771.1409 L 1315.1943 782.3808 L 1315.1943 771.1409 L 1309.8163 771.1409 L 1309.8163 802.116 L 1315.1943 802.116 L 1315.1943 790.8943 L 1323.3253 802.116 L 1329.9458 802.116 L 1318.3131 790.2829 L 1336.5408 799.823 Z M 1339.0171 777.6537 L 1320.432 785.0788 L 1340.736 783.7641 C 1340.4552 781.6154 1339.868 779.5633 1339.0171 777.6537 Z M 1735.4598 430.7441 C 1747.9507 430.7441 1758.0805 440.7765 1758.0805 453.1493 C 1758.0805 465.5222 1747.9507 475.5545 1735.4598 475.5545 C 1722.969 475.5545 1712.8392 465.5222 1712.8392 453.1493 C 1712.8392 440.7765 1722.969 430.7441 1735.4598 430.7441 Z M 1738.993 442.1708 L 1729.7681 434.8641 L 1728.9623 435.0757 L 1736.0631 443.9382 L 1721.965 439.2581 L 1721.2972 439.9802 L 1733.9001 447.0749 L 1716.5705 448.5313 L 1716.3939 449.5645 L 1734.4301 451.5064 L 1719.3626 463.7668 L 1720.052 464.7005 L 1737.9115 455.0038 L 1734.3913 472.0072 L 1735.4728 472.0072 L 1742.371 456 L 1746.5461 468.5094 L 1747.2743 467.9492 L 1745.7016 455.4148 L 1752.0741 462.5845 L 1752.4619 461.8624 L 1747.7267 452.9998 L 1754.4482 455.3524 L 1754.5258 454.6182 L 1748.9202 450.1496 L 1754.1725 448.9669 L 1754.0734 448.2077 L 1747.7999 446.7514 L 1751.0444 441.9717 L 1750.6652 441.4486 L 1745.6154 443.9012 L 1746.1669 437.2167 L 1745.6154 436.9431 L 1742.483 442.3078 L 1738.7905 434.2419 L 1738.1011 434.2419 L 1739.0059 442.1458 L 1738.993 442.1708 Z M 2062.4802 1445.4832 C 2061.3212 1444.749 2059.8045 1444.587 2058.4602 1445.1971 C 2057.6804 1445.5457 2057.0771 1446.1058 2056.6592 1446.7655 C 2056.8359 1446.5164 2057.0513 1446.3794 2057.3658 1446.2549 C 2058.206 1445.9067 2059.9166 1446.5039 2060.8343 1448.0102 C 2061.4505 1447.6742 2062.0882 1447.3256 2062.756 1446.9895 C 2063.0447 1446.84 2063.3204 1446.703 2063.622 1446.5539 C 2063.3204 1446.1183 2062.8939 1445.7447 2062.4932 1445.4832 L 2062.4802 1445.4832 Z M 2064.5139 1442.695 C 2063.8246 1443.0061 2063.2817 1443.5042 2062.9456 1444.1018 C 2063.1093 1443.8403 2063.2946 1443.6783 2063.5359 1443.5663 C 2064.4665 1443.1307 2065.8841 1443.8028 2066.6511 1445.1596 C 2066.6252 1445.1596 2066.6037 1445.1846 2066.5778 1445.1971 C 2067.418 1444.8235 2068.2625 1444.475 2069.0768 1444.1639 C 2068.2108 1442.608 2066.2116 1441.9608 2064.5139 1442.7075 L 2064.5139 1442.695 Z M 2068.939 1431.1814 C 2056.4481 1431.1814 2046.3184 1441.2137 2046.3184 1453.5865 C 2046.3184 1465.9594 2056.4481 1475.9917 2068.939 1475.9917 C 2081.4299 1475.9917 2091.5596 1465.9594 2091.5596 1453.5865 C 2091.5596 1441.2137 2081.4299 1431.1814 2068.939 1431.1814 Z M 2082.5501 1455.217 C 2080.525 1457.1589 2077.5865 1458.7522 2074.2817 1459.723 L 2072.6574 1460.1961 L 2074.1309 1460.9928 C 2075.7898 1461.889 2077.9484 1463.5569 2079.3962 1464.9137 C 2077.9484 1466.4695 2075.6993 1468.0879 2072.946 1469.0586 C 2072.946 1469.0586 2072.8211 1468.8471 2072.5453 1468.3865 C 2069.7447 1463.8429 2066.2633 1460.3456 2062.3553 1457.2959 C 2062.3553 1457.2959 2064.7811 1457.5199 2065.9487 1457.5199 C 2073.4114 1457.5199 2081.0421 1454.8934 2084.8122 1451.7071 C 2084.5838 1452.8274 2083.8169 1453.9972 2082.5501 1455.2049 L 2082.5501 1455.217 Z M 2085.4628 1449.9642 C 2082.3864 1453.7856 2070.0721 1458.4907 2060.4422 1456.1881 C 2060.1062 1456.1011 2059.8907 1456.5367 2060.1923 1456.7358 C 2066.7889 1460.9678 2070.3091 1465.9839 2072.1705 1469.2577 C 2067.4439 1470.7515 2061.1618 1470.3654 2056.1465 1466.2455 C 2056.6592 1464.391 2057.4908 1462.7227 2058.5852 1461.3038 C 2055.7802 1460.4947 2053.8327 1459.0633 2053.3544 1457.1214 C 2053.0054 1455.6776 2053.5569 1454.1467 2054.6988 1452.6654 C 2053.3544 1449.2425 2054.2248 1445.6452 2056.9522 1444.1389 C 2058.1069 1443.5042 2059.4383 1443.3301 2060.7697 1443.5542 C 2061.1833 1442.745 2061.7995 1442.0854 2062.6181 1441.6248 C 2064.9534 1440.33 2068.1332 1441.2637 2070.21 1443.6908 C 2077.4702 1440.9651 2083.7953 1441.3757 2085.5274 1444.612 C 2086.9838 1447.3381 2085.5662 1449.8397 2085.5274 1449.8897 L 2085.4886 1449.9397 L 2085.4628 1449.9642 Z M 1485.3505 430.5275 C 1472.8563 430.5275 1462.7287 440.6569 1462.7287 453.1493 C 1462.7287 465.6418 1472.8563 475.7711 1485.3505 475.7711 C 1497.8446 475.7711 1507.9722 465.6418 1507.9722 453.1493 C 1507.9722 440.6569 1497.8446 430.5275 1485.3505 430.5275 Z M 1499.8023 462.7009 C 1499.8023 463.2034 1499.7283 463.7189 1499.5282 464.1835 C 1499.3238 464.6486 1499.0627 465.0884 1498.6973 465.4277 C 1498.3449 465.7797 1497.9186 466.0564 1497.4401 466.2447 C 1496.9746 466.4457 1496.4612 466.5588 1495.9435 466.5588 L 1474.7443 466.5588 C 1474.2266 466.5588 1473.7263 466.4457 1473.2478 466.2447 C 1472.7823 466.0437 1472.3429 465.7797 1471.9906 465.4277 C 1471.6382 465.0762 1471.325 464.6486 1471.1596 464.1835 C 1471.0117 463.7189 1470.8856 463.2034 1470.8856 462.7009 L 1470.8856 446.8278 C 1470.8856 446.1992 1471.0378 445.571 1471.3119 445.0307 C 1471.5903 444.4904 1472.0167 444.0127 1472.53 443.6608 L 1482.0573 437.0126 C 1483.0013 436.3087 1484.1672 435.9568 1485.3505 435.9568 C 1486.5338 435.9568 1487.6996 436.3087 1488.6437 437.0126 L 1498.1318 443.6608 C 1498.6451 444.0127 1499.0758 444.4778 1499.3499 445.0307 C 1499.6283 445.5836 1499.7762 446.1992 1499.7762 446.8278 L 1499.7762 462.7009 L 1499.8023 462.7009 Z M 1481.5657 449.4167 C 1480.6608 449.3789 1479.8081 449.6934 1479.1425 450.2711 C 1478.4769 450.8619 1478.0854 451.6789 1478.0506 452.5838 L 1478.0506 453.011 C 1478.0506 453.4008 1478.3986 453.7149 1478.7901 453.7149 C 1478.7901 453.7149 1478.8032 453.7023 1478.8293 453.677 C 1479.2556 453.6396 1479.5689 453.2877 1479.5297 452.8605 L 1479.5297 452.6216 C 1479.5689 452.1566 1479.8081 451.6789 1480.1605 451.3648 C 1480.5129 451.0507 1480.9914 450.8998 1481.4917 450.8998 C 1482.5097 450.975 1483.3015 451.8425 1483.2536 452.8478 C 1483.2144 453.2372 1483.5277 453.5891 1483.954 453.627 C 1484.3455 453.627 1484.6979 453.3503 1484.7327 452.9231 C 1484.8458 451.0881 1483.4015 449.5172 1481.557 449.4041 L 1481.5657 449.4167 Z M 1489.6094 449.4167 C 1487.7258 449.3415 1486.1553 450.7488 1486.0422 452.5838 L 1486.0422 453.011 C 1486.0422 453.4008 1486.3945 453.7149 1486.7817 453.7149 C 1486.7817 453.7149 1486.8209 453.7149 1486.86 453.677 C 1487.2864 453.6396 1487.5996 453.2877 1487.5604 452.8605 L 1487.5604 452.6216 C 1487.6387 451.6036 1488.5045 450.8619 1489.5224 450.8998 C 1490.0401 450.9376 1490.5013 451.176 1490.8188 451.5279 C 1491.1321 451.8799 1491.3322 452.3449 1491.2843 452.8605 C 1491.2452 453.2498 1491.5584 453.6018 1491.9847 453.6396 C 1492.4154 453.6396 1492.7286 453.3629 1492.7634 452.9357 C 1492.8026 452.0308 1492.4894 451.176 1491.8977 450.51 C 1491.3061 449.8439 1490.4926 449.4546 1489.5877 449.4167 L 1489.6094 449.4167 Z M 2395.4922 1141.6438 C 2397.6804 1142.3416 2400.0035 1142.7292 2402.418 1142.7292 C 2402.6181 1142.7292 2402.8313 1142.7292 2403.0357 1142.7292 L 2404.6279 1128.5527 L 2398.9986 1130.6592 L 2395.4922 1141.6564 L 2395.4922 1141.6438 Z M 2410.0093 1126.5237 L 2408.2605 1141.9666 C 2415.2254 1140.1059 2420.8678 1135.0143 2423.4823 1128.3974 C 2424.4003 1126.0587 2424.9527 1123.5385 2425.0398 1120.9022 L 2410.0093 1126.5368 L 2410.0093 1126.5237 Z M 2390.82 1139.5243 L 2392.9168 1132.9335 L 2385.9041 1135.5698 C 2387.3484 1137.1077 2388.9972 1138.4515 2390.82 1139.5374 L 2390.82 1139.5243 Z M 2403.0096 1097.4987 L 2402.418 1097.4987 C 2389.9238 1097.4987 2379.7962 1107.6172 2379.7962 1120.1009 C 2379.7962 1124.1976 2380.8881 1128.0355 2382.7892 1131.357 L 2394.8527 1126.8339 L 2404.1886 1097.5505 C 2403.8014 1097.5244 2403.3968 1097.4987 2402.9966 1097.4856 L 2403.0096 1097.4987 Z M 2405.2587 1122.9438 L 2407.3426 1104.4771 L 2400.9476 1124.5596 L 2405.2587 1122.9438 Z M 2423.4823 1111.83 C 2421.4942 1106.7771 2417.7399 1102.616 2412.9893 1100.1089 L 2410.6358 1120.9279 L 2424.6134 1115.694 C 2424.348 1114.3632 2423.9696 1113.0707 2423.4823 1111.8431 L 2423.4823 1111.83 Z M 2508.4495 953.3679 C 2508.4495 965.8897 2498.2981 976.0429 2485.7832 976.0429 C 2473.264 976.0429 2463.1126 965.8897 2463.1126 953.3679 C 2463.1126 940.8461 2473.264 930.693 2485.7832 930.693 C 2488.2252 930.693 2490.5799 931.0837 2492.795 931.8014 L 2487.6321 947.6992 L 2472.5446 947.6992 L 2470.7088 953.3679 L 2485.792 953.3679 L 2481.3747 966.9729 L 2487.606 966.9729 L 2492.0276 953.3679 L 2508.4625 953.3679 L 2508.4495 953.3679 Z M 2507.73 947.6992 L 2493.8546 947.6992 L 2498.1847 934.3838 C 2502.8461 937.4327 2506.3084 942.1565 2507.73 947.6992 Z M 2460.7769 513.2608 C 2447.9338 513.2608 2437.5185 523.6752 2437.5185 536.5191 C 2437.5185 549.363 2447.9338 559.7775 2460.7769 559.7775 C 2473.6199 559.7775 2484.0352 549.363 2484.0352 536.5191 C 2484.0352 523.6752 2473.6199 513.2608 2460.7769 513.2608 Z M 2472.9244 527.4094 L 2478.2095 527.4094 L 2477.4476 529.4122 L 2472.1624 529.4122 L 2472.9244 527.4094 Z M 2449.0192 544.104 L 2453.3209 533.1336 L 2450.428 533.1336 L 2445.958 544.4526 L 2442.0284 544.9178 L 2447.8408 530.0453 L 2458.2694 530.0453 L 2452.9355 543.6645 L 2449.0059 544.104 L 2449.0192 544.104 Z M 2461.2022 542.8246 C 2459.8598 543.3801 2457.7643 543.5095 2456.6435 542.4498 C 2455.4031 541.2868 2455.5847 539.1807 2456.0233 537.6173 L 2459.6162 537.6173 C 2459.4611 538.1857 2459.0181 539.7363 2459.7313 540.0207 C 2460.6617 540.3955 2461.6053 538.522 2461.9154 537.9275 C 2461.9907 537.7852 2462.0572 537.6045 2462.0572 537.5916 L 2460.0813 537.5916 L 2461.087 535.0332 L 2463.0362 535.0332 C 2463.2179 534.5552 2463.621 532.9785 2462.9211 532.8624 C 2462.0705 532.7331 2461.3705 533.9089 2460.9452 534.5424 L 2457.3789 534.5424 C 2457.3789 534.5424 2457.3523 534.5162 2457.3523 534.5034 C 2457.3523 534.4777 2457.4188 534.374 2457.4321 534.3226 C 2458.708 531.4151 2460.9851 529.3994 2464.1216 529.6838 C 2467.6658 530.0068 2467.2626 533.7024 2466.319 536.4026 C 2465.4019 539.0257 2463.7495 541.752 2461.1889 542.8117 L 2461.2022 542.8246 Z M 2475.1705 541.1451 L 2472.8047 541.4291 L 2472.8446 539.8138 L 2472.6142 539.8138 C 2471.7105 540.99 2470.4922 542.1011 2468.9284 542.1915 C 2466.1506 542.3594 2465.5836 540.1629 2466.4253 537.9275 L 2469.4998 530.0453 L 2473.2478 530.0453 C 2473.2478 530.0453 2471.2941 534.9039 2470.5985 536.8035 C 2470.3239 537.5527 2469.81 538.9615 2471.1523 538.8839 C 2472.2377 538.8192 2472.8047 537.5655 2473.1547 536.687 L 2475.7508 530.0453 L 2479.4987 530.0453 L 2475.1705 541.1451 Z M 2152.3086 429.5424 C 2139.3945 429.5424 2128.9265 440.1129 2128.9265 453.1493 C 2128.9265 466.1857 2139.3945 476.7562 2152.3086 476.7562 C 2165.2227 476.7562 2175.6907 466.1857 2175.6907 453.1493 C 2175.6907 440.1129 2165.2227 429.5424 2152.3086 429.5424 Z M 2163.4196 469.1103 L 2141.346 469.1103 L 2141.346 437.1884 L 2152.3626 445.8968 L 2163.4286 437.2144 L 2163.4286 452.7298 L 2144.8893 452.7033 C 2144.8803 452.9263 2144.8668 453.1363 2144.8668 453.3724 L 2144.8668 453.6215 C 2144.8668 458.5528 2148.0594 461.8313 2152.3626 461.8313 C 2154.5164 461.8313 2156.5578 460.7692 2157.8663 458.382 C 2159.3232 460.7692 2161.2702 461.8313 2163.4151 461.8313 L 2163.4196 469.1233 L 2163.4196 469.1103 Z M 2156.0362 455.1822 C 2155.8699 457.9233 2154.5434 459.1297 2152.3715 459.1297 C 2150.2042 459.1297 2148.5135 457.6477 2148.1628 455.1822 L 2156.0362 455.1822 Z M 2163.3881 459.1297 C 2161.2208 459.1297 2159.8943 457.9098 2159.7279 455.1822 L 2167.6868 455.1822 C 2167.3361 457.6477 2165.4925 459.1297 2163.3881 459.1297 Z M 2319.0481 428.9793 C 2305.826 428.9793 2295.1083 439.802 2295.1083 453.1493 C 2295.1083 466.4967 2305.826 477.3193 2319.0481 477.3193 C 2332.2702 477.3193 2342.9879 466.4967 2342.9879 453.1493 C 2342.9879 439.802 2332.2702 428.9793 2319.0481 428.9793 Z M 2330.4241 469.491 L 2307.824 469.491 L 2307.824 436.8077 L 2319.1033 445.7238 L 2330.4333 436.8344 L 2330.4333 452.7198 L 2311.4518 452.6926 C 2311.4426 452.921 2311.4288 453.136 2311.4288 453.3777 L 2311.4288 453.6327 C 2311.4288 458.6817 2314.6975 462.0384 2319.1033 462.0384 C 2321.3086 462.0384 2323.3987 460.9509 2324.7384 458.5068 C 2326.23 460.9509 2328.2235 462.0384 2330.4195 462.0384 L 2330.4241 469.5043 L 2330.4241 469.491 Z M 2322.8647 455.2307 C 2322.6943 458.0372 2321.3362 459.2724 2319.1125 459.2724 C 2316.8935 459.2724 2315.1625 457.755 2314.8034 455.2307 L 2322.8647 455.2307 Z M 2330.3919 459.2724 C 2328.1728 459.2724 2326.8147 458.0234 2326.6444 455.2307 L 2334.7931 455.2307 C 2334.434 457.755 2332.5465 459.2724 2330.3919 459.2724 Z M 1822.0029 1443.443 C 1820.1764 1445.0305 1817.4689 1445.0305 1815.647 1443.443 C 1811.0761 1439.4744 1804.8402 1445.7704 1808.7699 1450.3846 C 1810.3428 1452.2277 1810.3428 1454.9587 1808.7699 1456.8019 C 1804.8402 1461.4161 1811.0761 1467.712 1815.647 1463.7435 C 1817.4689 1462.1559 1820.1764 1462.1559 1822.0029 1463.7435 C 1826.5692 1467.712 1832.8052 1461.4161 1828.8754 1456.8019 C 1827.3026 1454.9587 1827.3026 1452.2277 1828.8754 1450.3846 C 1832.8052 1445.7704 1826.5692 1439.4744 1822.0029 1443.443 Z M 1818.8296 1458.1468 C 1816.3389 1458.1468 1814.314 1456.1022 1814.314 1453.5865 C 1814.314 1451.0709 1816.3389 1449.0263 1818.8296 1449.0263 C 1821.3203 1449.0263 1823.3451 1451.0709 1823.3451 1453.5865 C 1823.3451 1456.1022 1821.3203 1458.1468 1818.8296 1458.1468 Z M 1818.8296 1429.3714 C 1805.5828 1429.3714 1794.8451 1440.2143 1794.8451 1453.5865 C 1794.8451 1466.9588 1805.5828 1477.8017 1818.8296 1477.8017 C 1832.0764 1477.8017 1842.8141 1466.9588 1842.8141 1453.5865 C 1842.8141 1440.2143 1832.0764 1429.3714 1818.8296 1429.3714 Z M 1833.8614 1465.4386 C 1833.045 1466.7974 1831.915 1467.9408 1830.5682 1468.7614 C 1828.2481 1470.1741 1825.1071 1470.1741 1818.8296 1470.1741 C 1812.5521 1470.1741 1809.4111 1470.1741 1807.091 1468.7614 C 1805.7442 1467.9408 1804.6142 1466.7974 1803.7978 1465.4386 C 1802.4002 1463.0978 1802.4002 1459.9231 1802.4002 1453.5865 C 1802.4002 1447.2505 1802.4002 1444.0753 1803.7978 1441.7345 C 1804.6142 1440.3757 1805.7442 1439.2323 1807.091 1438.4117 C 1809.4111 1436.999 1812.5521 1436.9994 1818.8296 1436.9994 C 1825.1071 1436.9994 1828.2481 1436.999 1830.5682 1438.4117 C 1831.915 1439.2323 1833.045 1440.3757 1833.8614 1441.7345 C 1835.259 1444.0753 1835.259 1447.2505 1835.259 1453.5865 C 1835.259 1459.9231 1835.259 1463.0978 1833.8614 1465.4386 Z M 1652.09 428.7562 C 1638.6203 428.7562 1627.6969 439.6788 1627.6969 453.1493 C 1627.6969 466.6199 1638.6203 477.5424 1652.09 477.5424 C 1665.5596 477.5424 1676.4831 466.6199 1676.4831 453.1493 C 1676.4831 439.6788 1665.5596 428.7562 1652.09 428.7562 Z M 1664.8301 443.5951 L 1670.3732 443.5951 L 1669.574 445.6957 L 1664.031 445.6957 L 1664.8301 443.5951 Z M 1639.7587 461.1043 L 1644.2702 449.5986 L 1641.2362 449.5986 L 1636.5481 461.4699 L 1632.4268 461.9578 L 1638.5228 446.3597 L 1649.4602 446.3597 L 1643.866 460.6433 L 1639.7447 461.1043 L 1639.7587 461.1043 Z M 1652.536 459.7624 C 1651.1282 460.3451 1648.9305 460.4807 1647.755 459.3693 C 1646.454 458.1497 1646.6445 455.9408 1647.1045 454.3011 L 1650.8726 454.3011 C 1650.71 454.8973 1650.2454 456.5235 1650.9934 456.8218 C 1651.9692 457.2148 1652.9588 455.2499 1653.2841 454.6264 C 1653.3631 454.4772 1653.4327 454.2877 1653.4327 454.2742 L 1651.3605 454.2742 L 1652.4152 451.591 L 1654.4596 451.591 C 1654.6501 451.0896 1655.0729 449.436 1654.3388 449.3143 C 1653.4467 449.1786 1652.7126 450.4117 1652.2665 451.0761 L 1648.5262 451.0761 C 1648.5262 451.0761 1648.4984 451.0487 1648.4984 451.0353 C 1648.4984 451.0083 1648.5681 450.8996 1648.582 450.8457 C 1649.9201 447.7963 1652.3083 445.6822 1655.5979 445.9805 C 1659.315 446.3193 1658.8922 450.1952 1657.9025 453.0271 C 1656.9407 455.7782 1655.2076 458.6375 1652.5221 459.7489 L 1652.536 459.7624 Z M 1667.1858 458.001 L 1664.7047 458.2988 L 1664.7465 456.6048 L 1664.5049 456.6048 C 1663.557 457.8384 1662.2793 459.0037 1660.6392 459.0985 C 1657.7259 459.2745 1657.1312 456.9709 1658.014 454.6264 L 1661.2385 446.3597 L 1665.1693 446.3597 C 1665.1693 446.3597 1663.1203 451.4553 1662.3908 453.4476 C 1662.1028 454.2333 1661.5638 455.7108 1662.9716 455.6295 C 1664.11 455.5617 1664.7047 454.2468 1665.0717 453.3254 L 1667.7945 446.3597 L 1671.7253 446.3597 L 1667.1858 458.001 Z M 1578.5788 444.6913 C 1577.8108 443.8768 1576.9078 443.2796 1575.8186 442.9268 C 1574.7713 442.5735 1573.589 442.3971 1572.295 442.3971 L 1570.9777 442.3971 L 1570.9777 463.7796 L 1571.8807 463.7796 L 1571.8807 463.8201 C 1573.2399 463.8201 1574.4873 463.5758 1575.6045 463.114 C 1576.7216 462.6527 1577.6618 461.9601 1578.4578 461.0776 C 1579.263 460.1681 1579.8542 459.0412 1580.2964 457.6704 C 1580.7153 456.2991 1580.9573 454.7105 1580.9573 452.8915 C 1580.9573 450.923 1580.7432 449.2664 1580.3243 447.9361 C 1579.91 446.6058 1579.3142 445.5059 1578.5509 444.7048 L 1578.5788 444.6913 Z M 1568.7202 428.7123 C 1555.352 428.7123 1544.516 439.6545 1544.516 453.1493 C 1544.516 466.6441 1555.352 477.5863 1568.7202 477.5863 C 1582.0884 477.5863 1592.9245 466.6441 1592.9245 453.1493 C 1592.9245 439.6545 1582.0884 428.7123 1568.7202 428.7123 Z M 1561.3658 467.798 L 1556.3109 467.798 L 1556.3109 438.4736 L 1561.3658 438.4736 L 1561.3658 467.798 Z M 1585.0441 459.3535 C 1584.3459 461.1865 1583.4057 462.7342 1582.1955 463.9965 C 1580.9713 465.2594 1579.519 466.2094 1577.8387 466.8475 C 1576.1677 467.4857 1574.2872 467.8385 1572.295 467.8385 L 1565.9228 467.8385 L 1565.9228 438.4736 L 1572.7139 438.4736 C 1574.6223 438.4736 1576.4004 438.718 1578.0388 439.2472 C 1579.6773 439.736 1581.0644 440.578 1582.2467 441.7044 C 1583.4289 442.8313 1584.3738 444.3385 1585.0301 446.1711 C 1585.7283 448.0041 1586.0402 450.2848 1586.0402 452.9864 C 1586.0402 455.3756 1585.6911 457.48 1585.0301 459.3535 L 1585.0441 459.3535 Z M 2489.0071 609.5978 C 2487.154 611.2085 2484.4072 611.2085 2482.5588 609.5978 C 2477.9214 605.5716 2471.5948 611.959 2475.5817 616.6404 C 2477.1774 618.5103 2477.1774 621.281 2475.5817 623.1509 C 2471.5948 627.8322 2477.9214 634.2197 2482.5588 630.1935 C 2484.4072 628.5828 2487.154 628.5828 2489.0071 630.1935 C 2493.6397 634.2197 2499.9664 627.8322 2495.9795 623.1509 C 2494.3838 621.281 2494.3838 618.5103 2495.9795 616.6404 C 2499.9664 611.959 2493.6397 605.5716 2489.0071 609.5978 Z M 2485.7876 624.5154 C 2483.2607 624.5154 2481.2064 622.441 2481.2064 619.8889 C 2481.2064 617.3367 2483.2607 615.2623 2485.7876 615.2623 C 2488.3145 615.2623 2490.3688 617.3367 2490.3688 619.8889 C 2490.3688 622.441 2488.3145 624.5154 2485.7876 624.5154 Z M 2485.7876 595.3217 C 2472.3482 595.3217 2461.4544 606.3222 2461.4544 619.8889 C 2461.4544 633.4555 2472.3482 644.456 2485.7876 644.456 C 2499.227 644.456 2510.1208 633.4555 2510.1208 619.8889 C 2510.1208 606.3222 2499.227 595.3217 2485.7876 595.3217 Z M 2501.0379 631.9132 C 2500.2097 633.2918 2499.0632 634.4518 2497.6968 635.2843 C 2495.343 636.7176 2492.1563 636.7176 2485.7876 636.7176 C 2479.4189 636.7176 2476.2321 636.7176 2473.8784 635.2843 C 2472.512 634.4518 2471.3655 633.2918 2470.5372 631.9132 C 2469.1194 629.5384 2469.1194 626.3175 2469.1194 619.8889 C 2469.1194 613.4607 2469.1194 610.2393 2470.5372 607.8645 C 2471.3655 606.486 2472.512 605.3259 2473.8784 604.4934 C 2476.2321 603.0601 2479.4189 603.0606 2485.7876 603.0606 C 2492.1563 603.0606 2495.343 603.0601 2497.6968 604.4934 C 2499.0632 605.3259 2500.2097 606.486 2501.0379 607.8645 C 2502.4558 610.2393 2502.4558 613.4607 2502.4558 619.8889 C 2502.4558 626.3175 2502.4558 629.5384 2501.0379 631.9132 Z M 2260.1244 1286.847 C 2260.1244 1300.3546 2249.1738 1311.3071 2235.6738 1311.3071 C 2222.169 1311.3071 2211.2184 1300.3546 2211.2184 1286.847 C 2211.2184 1273.3395 2222.169 1262.387 2235.6738 1262.387 C 2238.3079 1262.387 2240.848 1262.8085 2243.2376 1263.5827 L 2237.6682 1280.732 L 2221.3929 1280.732 L 2219.4126 1286.847 L 2235.6832 1286.847 L 2230.9182 1301.5231 L 2237.64 1301.5231 L 2242.4097 1286.847 L 2260.1385 1286.847 L 2260.1244 1286.847 Z M 2259.3482 1280.732 L 2244.3806 1280.732 L 2249.0515 1266.3684 C 2254.0799 1269.6573 2257.8148 1274.753 2259.3482 1280.732 Z M 1702.9603 1393.5032 C 1705.3264 1394.2577 1707.8382 1394.6768 1710.4489 1394.6768 C 1710.6652 1394.6768 1710.8957 1394.6768 1711.1168 1394.6768 L 1712.8384 1379.3484 L 1706.7516 1381.626 L 1702.9603 1393.5168 L 1702.9603 1393.5032 Z M 1718.6571 1377.1545 L 1716.7661 1393.8522 C 1724.297 1391.8404 1730.3979 1386.335 1733.2249 1379.1805 C 1734.2174 1376.6517 1734.8148 1373.9267 1734.9089 1371.0762 L 1718.6571 1377.1686 L 1718.6571 1377.1545 Z M 1697.9084 1391.2115 L 1700.1756 1384.0852 L 1692.593 1386.9357 C 1694.1547 1388.5985 1695.9375 1390.0515 1697.9084 1391.2256 L 1697.9084 1391.2115 Z M 1711.0886 1345.7709 L 1710.4489 1345.7709 C 1696.9394 1345.7709 1685.9888 1356.7116 1685.9888 1370.2097 C 1685.9888 1374.6394 1687.1695 1378.7891 1689.2251 1382.3805 L 1702.2689 1377.4899 L 1712.3633 1345.8269 C 1711.9447 1345.7986 1711.5072 1345.7709 1711.0745 1345.7568 L 1711.0886 1345.7709 Z M 1713.5205 1373.2837 L 1715.7736 1353.3163 L 1708.859 1375.0307 L 1713.5205 1373.2837 Z M 1733.2249 1361.2668 C 1731.0752 1355.8033 1727.0158 1351.304 1721.8792 1348.5932 L 1719.3344 1371.1039 L 1734.4479 1365.4447 C 1734.161 1364.0058 1733.7517 1362.6083 1733.2249 1361.2809 L 1733.2249 1361.2668 Z M 2228.1644 476.5152 C 2230.5385 477.2722 2233.0589 477.6928 2235.6785 477.6928 C 2235.8956 477.6928 2236.1269 477.6928 2236.3487 477.6928 L 2238.0762 462.3121 L 2231.9686 464.5974 L 2228.1644 476.5289 L 2228.1644 476.5152 Z M 2243.9147 460.1107 L 2242.0173 476.8654 C 2249.5738 474.8467 2255.6955 469.3225 2258.5322 462.1436 C 2259.5281 459.6061 2260.1275 456.8719 2260.2219 454.0116 L 2243.9147 460.1249 L 2243.9147 460.1107 Z M 2223.0952 474.2156 L 2225.3702 467.065 L 2217.7617 469.9252 C 2219.3287 471.5937 2221.1176 473.0517 2223.0952 474.2298 L 2223.0952 474.2156 Z M 2236.3204 428.62 L 2235.6785 428.62 C 2222.1229 428.62 2211.135 439.598 2211.135 453.1422 C 2211.135 457.587 2212.3197 461.7509 2214.3823 465.3545 L 2227.4706 460.4472 L 2237.5995 428.6762 C 2237.1794 428.6479 2236.7404 428.62 2236.3062 428.6059 L 2236.3204 428.62 Z M 2238.7606 456.2267 L 2241.0214 436.1912 L 2234.0831 457.9797 L 2238.7606 456.2267 Z M 2258.5322 444.1688 C 2256.3752 438.6866 2252.3019 434.172 2247.1478 431.452 L 2244.5944 454.0395 L 2259.7594 448.361 C 2259.4715 446.9172 2259.0608 445.5149 2258.5322 444.1829 L 2258.5322 444.1688 Z M 1553.7061 1194.9008 C 1552.9273 1194.0748 1552.0116 1193.4692 1550.9072 1193.1115 C 1549.8452 1192.7532 1548.6464 1192.5743 1547.3342 1192.5743 L 1545.9985 1192.5743 L 1545.9985 1214.2566 L 1546.9142 1214.2566 L 1546.9142 1214.2977 C 1548.2924 1214.2977 1549.5573 1214.0499 1550.6901 1213.5816 C 1551.8229 1213.1139 1552.7763 1212.4116 1553.5834 1211.5167 C 1554.3999 1210.5944 1554.9993 1209.4517 1555.4477 1208.0617 C 1555.8725 1206.6712 1556.118 1205.0603 1556.118 1203.2158 C 1556.118 1201.2198 1555.9008 1199.54 1555.4761 1198.191 C 1555.056 1196.8421 1554.4518 1195.7268 1553.6778 1194.9145 L 1553.7061 1194.9008 Z M 1543.7094 1178.6978 C 1530.1538 1178.6978 1519.1659 1189.7934 1519.1659 1203.4773 C 1519.1659 1217.1612 1530.1538 1228.2567 1543.7094 1228.2567 C 1557.2649 1228.2567 1568.2528 1217.1612 1568.2528 1203.4773 C 1568.2528 1189.7934 1557.2649 1178.6978 1543.7094 1178.6978 Z M 1536.2519 1218.3313 L 1531.1261 1218.3313 L 1531.1261 1188.5959 L 1536.2519 1188.5959 L 1536.2519 1218.3313 Z M 1560.262 1209.7684 C 1559.554 1211.6271 1558.6006 1213.1965 1557.3734 1214.4765 C 1556.1321 1215.757 1554.6595 1216.7204 1552.9556 1217.3675 C 1551.2612 1218.0146 1549.3543 1218.3723 1547.3342 1218.3723 L 1540.8727 1218.3723 L 1540.8727 1188.5959 L 1547.759 1188.5959 C 1549.6942 1188.5959 1551.4972 1188.8437 1553.1586 1189.3804 C 1554.82 1189.876 1556.2265 1190.7298 1557.4254 1191.872 C 1558.6242 1193.0147 1559.5824 1194.543 1560.2479 1196.4012 C 1560.9559 1198.2599 1561.2721 1200.5727 1561.2721 1203.3121 C 1561.2721 1205.7348 1560.9181 1207.8687 1560.2479 1209.7684 L 1560.262 1209.7684 Z M 2036.2305 560.4554 C 2038.6625 561.231 2041.2445 561.6618 2043.928 561.6618 C 2044.1504 561.6618 2044.3873 561.6618 2044.6146 561.6618 L 2046.3842 545.9055 L 2040.1276 548.2467 L 2036.2305 560.4694 L 2036.2305 560.4554 Z M 2052.3653 543.6504 L 2050.4216 560.8142 C 2058.1626 558.7462 2064.4338 553.0872 2067.3397 545.7329 C 2068.3599 543.1336 2068.9739 540.3326 2069.0706 537.4025 L 2052.3653 543.6649 L 2052.3653 543.6504 Z M 2031.0375 558.0997 L 2033.3681 550.7745 L 2025.5738 553.7046 C 2027.1791 555.4138 2029.0116 556.9074 2031.0375 558.1142 L 2031.0375 558.0997 Z M 2044.5856 511.3909 L 2043.928 511.3909 C 2030.0415 511.3909 2018.7853 522.637 2018.7853 536.5119 C 2018.7853 541.0651 2019.9989 545.3306 2022.1119 549.0223 L 2035.5197 543.9952 L 2045.8959 511.4485 C 2045.4655 511.4195 2045.0159 511.3909 2044.5711 511.3764 L 2044.5856 511.3909 Z M 2047.0853 539.6716 L 2049.4013 519.147 L 2042.2937 541.4674 L 2047.0853 539.6716 Z M 2067.3397 527.3193 C 2065.13 521.7033 2060.9573 517.0785 2055.6773 514.292 L 2053.0615 537.431 L 2068.5968 531.6139 C 2068.3019 530.1348 2067.8812 528.6983 2067.3397 527.3338 L 2067.3397 527.3193 Z M 1477.6529 1144.0437 C 1480.085 1144.8193 1482.667 1145.2501 1485.3505 1145.2501 C 1485.5729 1145.2501 1485.8098 1145.2501 1486.0371 1145.2501 L 1487.8067 1129.4939 L 1481.5501 1131.835 L 1477.6529 1144.0577 L 1477.6529 1144.0437 Z M 1493.7878 1127.2388 L 1491.844 1144.4025 C 1499.5851 1142.3345 1505.8562 1136.6755 1508.7622 1129.3212 C 1509.7824 1126.7219 1510.3964 1123.9209 1510.4931 1120.9908 L 1493.7878 1127.2533 L 1493.7878 1127.2388 Z M 1472.46 1141.6881 L 1474.7905 1134.3628 L 1466.9963 1137.2929 C 1468.6016 1139.0021 1470.4341 1140.4957 1472.46 1141.7026 L 1472.46 1141.6881 Z M 1486.008 1094.9793 L 1485.3505 1094.9793 C 1471.464 1094.9793 1460.2078 1106.2253 1460.2078 1120.1002 C 1460.2078 1124.6534 1461.4214 1128.919 1463.5344 1132.6106 L 1476.9422 1127.5835 L 1487.3184 1095.0368 C 1486.888 1095.0078 1486.4384 1094.9793 1485.9935 1094.9648 L 1486.008 1094.9793 Z M 1488.5078 1123.2599 L 1490.8238 1102.7353 L 1483.7162 1125.0557 L 1488.5078 1123.2599 Z M 1508.7622 1110.9076 C 1506.5525 1105.2916 1502.3798 1100.6668 1497.0998 1097.8803 L 1494.484 1121.0193 L 1510.0193 1115.2022 C 1509.7243 1113.7231 1509.3037 1112.2866 1508.7622 1110.9221 L 1508.7622 1110.9076 Z M 2127.2976 1345.0741 C 2141.3146 1345.0741 2152.682 1356.3322 2152.682 1370.2168 C 2152.682 1384.1014 2141.3146 1395.3595 2127.2976 1395.3595 C 2113.2806 1395.3595 2101.9132 1384.1014 2101.9132 1370.2168 C 2101.9132 1356.3322 2113.2806 1345.0741 2127.2976 1345.0741 Z M 2131.2624 1357.8969 L 2120.9104 1349.6975 L 2120.0062 1349.9349 L 2127.9745 1359.8803 L 2112.154 1354.6283 L 2111.4045 1355.4387 L 2125.5473 1363.4002 L 2106.1004 1365.0345 L 2105.9022 1366.194 L 2126.142 1368.3732 L 2109.2336 1382.1315 L 2110.0072 1383.1793 L 2130.0488 1372.2978 L 2126.0985 1391.3787 L 2127.3121 1391.3787 L 2135.0532 1373.4157 L 2139.7384 1387.4535 L 2140.5555 1386.825 L 2138.7907 1372.7591 L 2145.9419 1380.8048 L 2146.377 1379.9944 L 2141.0632 1370.049 L 2148.606 1372.689 L 2148.6931 1371.8651 L 2142.4025 1366.8506 L 2148.2966 1365.5233 L 2148.1854 1364.6714 L 2141.1454 1363.0371 L 2144.7863 1357.6735 L 2144.3608 1357.0865 L 2138.694 1359.8387 L 2139.3129 1352.3375 L 2138.694 1352.0304 L 2135.1789 1358.0506 L 2131.0352 1348.9993 L 2130.2615 1348.9993 L 2131.2769 1357.8688 L 2131.2624 1357.8969 Z M 1401.9807 927.6786 C 1387.9274 927.6786 1376.536 939.1815 1376.536 953.3679 C 1376.536 967.5543 1387.9274 979.0573 1401.9807 979.0573 C 1416.034 979.0573 1427.4254 967.5543 1427.4254 953.3679 C 1427.4254 939.1815 1416.034 927.6786 1401.9807 927.6786 Z M 1414.0718 970.7369 L 1390.0511 970.7369 L 1390.0511 935.999 L 1402.0394 945.4757 L 1414.0816 936.0274 L 1414.0816 952.9114 L 1393.9069 952.8825 C 1393.8971 953.1252 1393.8824 953.3537 1393.8824 953.6106 L 1393.8824 953.8817 C 1393.8824 959.2481 1397.3566 962.8157 1402.0394 962.8157 C 1404.3833 962.8157 1406.6048 961.66 1408.0287 959.0622 C 1409.6141 961.66 1411.7329 962.8157 1414.0669 962.8157 L 1414.0718 970.7511 L 1414.0718 970.7369 Z M 1406.0372 955.5801 C 1405.8561 958.563 1404.4126 959.8759 1402.0492 959.8759 C 1399.6907 959.8759 1397.8508 958.2631 1397.4692 955.5801 L 1406.0372 955.5801 Z M 1414.0376 959.8759 C 1411.6791 959.8759 1410.2356 958.5484 1410.0545 955.5801 L 1418.7155 955.5801 C 1418.3338 958.2631 1416.3276 959.8759 1414.0376 959.8759 Z M 2489.1879 775.7593 C 2487.2307 777.4605 2484.3296 777.4605 2482.3774 775.7593 C 2477.4796 771.507 2470.7976 778.2532 2475.0084 783.1975 C 2476.6938 785.1724 2476.6938 788.0988 2475.0084 790.0737 C 2470.7976 795.018 2477.4796 801.7642 2482.3774 797.5119 C 2484.3296 795.8107 2487.2307 795.8107 2489.1879 797.5119 C 2494.0808 801.7642 2500.7628 795.018 2496.5519 790.0737 C 2494.8666 788.0988 2494.8666 785.1724 2496.5519 783.1975 C 2500.7628 778.2532 2494.0808 771.507 2489.1879 775.7593 Z M 2485.7876 791.5149 C 2483.1188 791.5149 2480.9491 789.3239 2480.9491 786.6284 C 2480.9491 783.9329 2483.1188 781.742 2485.7876 781.742 C 2488.4564 781.742 2490.6261 783.9329 2490.6261 786.6284 C 2490.6261 789.3239 2488.4564 791.5149 2485.7876 791.5149 Z M 2485.7876 760.6813 C 2471.5933 760.6813 2460.0876 772.2997 2460.0876 786.6284 C 2460.0876 800.9571 2471.5933 812.5755 2485.7876 812.5755 C 2499.9819 812.5755 2511.4876 800.9571 2511.4876 786.6284 C 2511.4876 772.2997 2499.9819 760.6813 2485.7876 760.6813 Z M 2501.8946 799.3282 C 2501.0198 800.7842 2499.8089 802.0093 2498.3658 802.8886 C 2495.8798 804.4024 2492.5141 804.4024 2485.7876 804.4024 C 2479.0611 804.4024 2475.6954 804.4024 2473.2094 802.8886 C 2471.7663 802.0093 2470.5554 800.7842 2469.6806 799.3282 C 2468.1831 796.8199 2468.1831 793.4181 2468.1831 786.6284 C 2468.1831 779.8392 2468.1831 776.4369 2469.6806 773.9287 C 2470.5554 772.4727 2471.7663 771.2475 2473.2094 770.3683 C 2475.6954 768.8544 2479.0611 768.8549 2485.7876 768.8549 C 2492.5141 768.8549 2495.8798 768.8544 2498.3658 770.3683 C 2499.8089 771.2475 2501.0198 772.4727 2501.8946 773.9287 C 2503.3921 776.4369 2503.3921 779.8392 2503.3921 786.6284 C 2503.3921 793.4181 2503.3921 796.8199 2501.8946 799.3282 Z M 1369.1016 894.465 C 1371.5876 895.2578 1374.2268 895.6981 1376.9697 895.6981 C 1377.1971 895.6981 1377.4392 895.6981 1377.6715 895.6981 L 1379.4804 879.5927 L 1373.0851 881.9857 L 1369.1016 894.4794 L 1369.1016 894.465 Z M 1385.594 877.2876 L 1383.6072 894.8317 C 1391.5199 892.7179 1397.93 886.9335 1400.9003 879.4162 C 1401.9432 876.7592 1402.5708 873.8962 1402.6697 870.9011 L 1385.594 877.3024 L 1385.594 877.2876 Z M 1363.7936 892.0571 L 1366.1757 884.5696 L 1358.2088 887.5646 C 1359.8496 889.3117 1361.7227 890.8384 1363.7936 892.072 L 1363.7936 892.0571 Z M 1377.6419 844.313 L 1376.9697 844.313 C 1362.7754 844.313 1351.2698 855.8083 1351.2698 869.9908 C 1351.2698 874.6449 1352.5103 879.005 1354.6701 882.7785 L 1368.3751 877.64 L 1378.9812 844.3718 C 1378.5414 844.3422 1378.0817 844.313 1377.6271 844.2982 L 1377.6419 844.313 Z M 1380.197 873.2205 L 1382.5644 852.241 L 1375.2992 875.0561 L 1380.197 873.2205 Z M 1400.9003 860.5945 C 1398.6417 854.854 1394.3765 850.1267 1388.9795 847.2784 L 1386.3057 870.9303 L 1402.1853 864.9842 C 1401.8839 863.4724 1401.4539 862.004 1400.9003 860.6093 L 1400.9003 860.5945 Z M 1804.3155 527.5135 C 1803.4978 526.6462 1802.5363 526.0103 1801.3766 525.6346 C 1800.2615 525.2585 1799.0026 525.0706 1797.6248 525.0706 L 1796.2223 525.0706 L 1796.2223 547.8377 L 1797.1838 547.8377 L 1797.1838 547.8808 C 1798.6309 547.8808 1799.9591 547.6206 1801.1486 547.129 C 1802.338 546.6379 1803.3392 545.9004 1804.1866 544.9607 C 1805.044 543.9923 1805.6735 542.7925 1806.1443 541.3329 C 1806.5903 539.8729 1806.848 538.1814 1806.848 536.2445 C 1806.848 534.1486 1806.6201 532.3848 1806.174 530.9683 C 1805.7329 529.5519 1805.0986 528.3808 1804.2858 527.5279 L 1804.3155 527.5135 Z M 1793.8186 510.4999 C 1779.5848 510.4999 1768.0472 522.1505 1768.0472 536.5191 C 1768.0472 550.8877 1779.5848 562.5383 1793.8186 562.5383 C 1808.0524 562.5383 1819.59 550.8877 1819.59 536.5191 C 1819.59 522.1505 1808.0524 510.4999 1793.8186 510.4999 Z M 1785.9881 552.1163 L 1780.6058 552.1163 L 1780.6058 520.8932 L 1785.9881 520.8932 L 1785.9881 552.1163 Z M 1811.1994 543.125 C 1810.456 545.0767 1809.4549 546.7246 1808.1663 548.0687 C 1806.8629 549.4132 1805.3166 550.4248 1803.5275 551.1042 C 1801.7483 551.7837 1799.746 552.1594 1797.6248 552.1594 L 1790.84 552.1594 L 1790.84 520.8932 L 1798.0709 520.8932 C 1800.1029 520.8932 1801.9961 521.1534 1803.7406 521.7169 C 1805.4851 522.2373 1806.962 523.1338 1808.2209 524.3332 C 1809.4797 525.533 1810.4858 527.1378 1811.1846 529.089 C 1811.928 531.0407 1812.26 533.4692 1812.26 536.3456 C 1812.26 538.8896 1811.8883 541.1302 1811.1846 543.125 L 1811.1994 543.125 Z M 2294.0374 1177.4262 C 2308.5608 1177.4262 2320.339 1189.0911 2320.339 1203.4773 C 2320.339 1217.8635 2308.5608 1229.5284 2294.0374 1229.5284 C 2279.5139 1229.5284 2267.7358 1217.8635 2267.7358 1203.4773 C 2267.7358 1189.0911 2279.5139 1177.4262 2294.0374 1177.4262 Z M 2298.1454 1190.7123 L 2287.4194 1182.2166 L 2286.4825 1182.4626 L 2294.7387 1192.7673 L 2278.3466 1187.3256 L 2277.57 1188.1653 L 2292.2238 1196.4144 L 2272.0743 1198.1078 L 2271.8689 1199.3091 L 2292.84 1201.567 L 2275.3206 1215.8225 L 2276.1222 1216.9081 L 2296.8879 1205.6335 L 2292.7949 1225.4038 L 2294.0524 1225.4038 L 2302.0731 1206.7918 L 2306.9276 1221.3368 L 2307.7743 1220.6856 L 2305.9457 1206.1115 L 2313.3553 1214.4478 L 2313.8061 1213.6082 L 2308.3003 1203.3035 L 2316.1157 1206.0388 L 2316.2058 1205.1851 L 2309.6881 1199.9895 L 2315.795 1198.6143 L 2315.6798 1197.7315 L 2308.3855 1196.0382 L 2312.1579 1190.4808 L 2311.717 1189.8726 L 2305.8455 1192.7242 L 2306.4868 1184.952 L 2305.8455 1184.6338 L 2302.2034 1190.8716 L 2297.91 1181.4932 L 2297.1084 1181.4932 L 2298.1604 1190.6832 L 2298.1454 1190.7123 Z M 1985.5691 1427.1989 C 1970.995 1427.1989 1959.1815 1439.0145 1959.1815 1453.5865 C 1959.1815 1468.1586 1970.995 1479.9742 1985.5691 1479.9742 C 2000.1432 1479.9742 2011.9567 1468.1586 2011.9567 1453.5865 C 2011.9567 1439.0145 2000.1432 1427.1989 1985.5691 1427.1989 Z M 2002.4267 1464.7282 C 2002.4267 1465.3143 2002.3404 1465.9157 2002.107 1466.4576 C 2001.8685 1467.0001 2001.564 1467.5131 2001.1378 1467.9089 C 2000.7267 1468.3195 2000.2294 1468.6422 1999.6712 1468.8619 C 1999.1283 1469.0964 1998.5295 1469.2283 1997.9256 1469.2283 L 1973.1974 1469.2283 C 1972.5935 1469.2283 1972.0099 1469.0964 1971.4517 1468.8619 C 1970.9087 1468.6275 1970.3962 1468.3195 1969.9852 1467.9089 C 1969.5741 1467.4989 1969.2088 1467.0001 1969.0159 1466.4576 C 1968.8434 1465.9157 1968.6962 1465.3143 1968.6962 1464.7282 L 1968.6962 1446.2127 C 1968.6962 1445.4795 1968.8739 1444.7467 1969.1935 1444.1164 C 1969.5183 1443.4862 1970.0156 1442.929 1970.6144 1442.5185 L 1981.7277 1434.7636 C 1982.8288 1433.9425 1984.1888 1433.532 1985.5691 1433.532 C 1986.9494 1433.532 1988.3093 1433.9425 1989.4105 1434.7636 L 2000.4781 1442.5185 C 2001.0769 1442.929 2001.5793 1443.4715 2001.899 1444.1164 C 2002.2237 1444.7614 2002.3963 1445.4795 2002.3963 1446.2127 L 2002.3963 1464.7282 L 2002.4267 1464.7282 Z M 1981.1542 1449.2326 C 1980.0987 1449.1884 1979.1041 1449.5553 1978.3277 1450.2292 C 1977.5513 1450.9184 1977.0946 1451.8714 1977.054 1452.9269 L 1977.054 1453.4252 C 1977.054 1453.8799 1977.46 1454.2462 1977.9167 1454.2462 C 1977.9167 1454.2462 1977.9319 1454.2315 1977.9624 1454.2021 C 1978.4597 1454.1584 1978.825 1453.7479 1978.7794 1453.2496 L 1978.7794 1452.971 C 1978.825 1452.4285 1979.1041 1451.8714 1979.5152 1451.505 C 1979.9262 1451.1386 1980.4844 1450.9625 1981.068 1450.9625 C 1982.2554 1451.0503 1983.179 1452.0622 1983.1232 1453.2349 C 1983.0775 1453.6891 1983.4429 1454.0996 1983.9402 1454.1437 C 1984.3969 1454.1437 1984.8079 1453.821 1984.8485 1453.3227 C 1984.9804 1451.1822 1983.2957 1449.3498 1981.1441 1449.2179 L 1981.1542 1449.2326 Z M 1990.5371 1449.2326 C 1988.3398 1449.1448 1986.5079 1450.7864 1986.3759 1452.9269 L 1986.3759 1453.4252 C 1986.3759 1453.8799 1986.787 1454.2462 1987.2386 1454.2462 C 1987.2386 1454.2462 1987.2843 1454.2462 1987.33 1454.2021 C 1987.8273 1454.1584 1988.1926 1453.7479 1988.147 1453.2496 L 1988.147 1452.971 C 1988.2383 1451.7836 1989.2481 1450.9184 1990.4356 1450.9625 C 1991.0394 1451.0067 1991.5773 1451.2847 1991.9478 1451.6953 C 1992.3132 1452.1058 1992.5466 1452.6483 1992.4908 1453.2496 C 1992.4451 1453.7038 1992.8105 1454.1143 1993.3078 1454.1584 C 1993.8101 1454.1584 1994.1755 1453.8357 1994.2161 1453.3374 C 1994.2618 1452.2819 1993.8964 1451.2847 1993.2063 1450.5078 C 1992.5161 1449.7309 1991.5672 1449.2767 1990.5117 1449.2326 L 1990.5371 1449.2326 Z M 1652.09 1260.4265 C 1666.8194 1260.4265 1678.7645 1272.2568 1678.7645 1286.847 C 1678.7645 1301.4373 1666.8194 1313.2675 1652.09 1313.2675 C 1637.3605 1313.2675 1625.4154 1301.4373 1625.4154 1286.847 C 1625.4154 1272.2568 1637.3605 1260.4265 1652.09 1260.4265 Z M 1656.2563 1273.901 L 1645.3781 1265.2849 L 1644.428 1265.5343 L 1652.8013 1275.9852 L 1636.1767 1270.4663 L 1635.3892 1271.3179 L 1650.2507 1279.684 L 1629.8154 1281.4014 L 1629.6071 1282.6198 L 1650.8756 1284.9097 L 1633.1078 1299.3673 L 1633.9208 1300.4683 L 1654.981 1289.0339 L 1650.8299 1309.0845 L 1652.1052 1309.0845 L 1660.2397 1290.2085 L 1665.163 1304.9598 L 1666.0217 1304.2993 L 1664.1672 1289.5186 L 1671.6818 1297.9731 L 1672.1391 1297.1216 L 1666.5552 1286.6707 L 1674.4813 1289.4449 L 1674.5728 1288.5791 L 1667.9626 1283.3097 L 1674.1562 1281.915 L 1674.0393 1281.0198 L 1666.6416 1279.3025 L 1670.4675 1273.6663 L 1670.0203 1273.0494 L 1664.0656 1275.9415 L 1664.7159 1268.059 L 1664.0656 1267.7364 L 1660.3718 1274.0626 L 1656.0175 1264.5512 L 1655.2045 1264.5512 L 1656.2715 1273.8715 L 1656.2563 1273.901 Z M 2453.1231 860.3955 C 2451.7496 859.5254 2449.9523 859.3334 2448.3593 860.0564 C 2447.4351 860.4695 2446.7203 861.1333 2446.225 861.915 C 2446.4343 861.6199 2446.6896 861.4575 2447.0624 861.3099 C 2448.058 860.8974 2450.0851 861.6051 2451.1726 863.3901 C 2451.9028 862.9918 2452.6585 862.5788 2453.4499 862.1805 C 2453.792 862.0033 2454.1187 861.841 2454.4762 861.6643 C 2454.1187 861.1481 2453.6133 860.7054 2453.1384 860.3955 L 2453.1231 860.3955 Z M 2455.5331 857.0914 C 2454.7161 857.4601 2454.0728 858.0503 2453.6745 858.7585 C 2453.8686 858.4486 2454.0881 858.2566 2454.374 858.1239 C 2455.4769 857.6076 2457.1568 858.4042 2458.0656 860.012 C 2458.035 860.012 2458.0094 860.0416 2457.9788 860.0564 C 2458.9745 859.6138 2459.9752 859.2007 2460.9402 858.832 C 2459.914 856.9883 2457.5448 856.2214 2455.5331 857.1062 L 2455.5331 857.0914 Z M 2460.7769 843.4474 C 2445.9748 843.4474 2433.9708 855.336 2433.9708 869.9982 C 2433.9708 884.6603 2445.9748 896.5489 2460.7769 896.5489 C 2475.5789 896.5489 2487.5829 884.6603 2487.5829 869.9982 C 2487.5829 855.336 2475.5789 843.4474 2460.7769 843.4474 Z M 2476.9064 871.9302 C 2474.5067 874.2315 2471.0244 876.1197 2467.1082 877.27 L 2465.1833 877.8306 L 2466.9295 878.7747 C 2468.8953 879.8368 2471.4533 881.8133 2473.1689 883.4211 C 2471.4533 885.2649 2468.788 887.1826 2465.5254 888.333 C 2465.5254 888.333 2465.3773 888.0823 2465.0505 887.5365 C 2461.7317 882.1523 2457.6061 878.0078 2452.975 874.3939 C 2452.975 874.3939 2455.8496 874.6594 2457.2334 874.6594 C 2466.0768 874.6594 2475.1194 871.5468 2479.587 867.771 C 2479.3164 869.0985 2478.4076 870.4848 2476.9064 871.916 L 2476.9064 871.9302 Z M 2480.358 865.7056 C 2476.7124 870.2341 2462.1197 875.8097 2450.708 873.0811 C 2450.3097 872.978 2450.0544 873.4942 2450.4118 873.7301 C 2458.229 878.7451 2462.4005 884.6894 2464.6063 888.5689 C 2459.0051 890.3391 2451.5607 889.8816 2445.6174 884.9993 C 2446.225 882.8018 2447.2104 880.8248 2448.5073 879.1434 C 2445.1834 878.1845 2442.8755 876.4883 2442.3088 874.1871 C 2441.8952 872.4761 2442.5487 870.6619 2443.9018 868.9065 C 2442.3088 864.8504 2443.3402 860.5875 2446.5722 858.8024 C 2447.9406 858.0503 2449.5183 857.844 2451.096 858.1096 C 2451.5862 857.1507 2452.3164 856.369 2453.2865 855.8231 C 2456.0539 854.2888 2459.822 855.3953 2462.2831 858.2714 C 2470.8866 855.0414 2478.3821 855.528 2480.4346 859.3631 C 2482.1604 862.5936 2480.4806 865.5581 2480.4346 865.6173 L 2480.3887 865.6765 L 2480.358 865.7056 Z M 1460.3396 1009.9325 C 1475.2835 1009.9325 1487.4025 1021.935 1487.4025 1036.7377 C 1487.4025 1051.5403 1475.2835 1063.5428 1460.3396 1063.5428 C 1445.3957 1063.5428 1433.2767 1051.5403 1433.2767 1036.7377 C 1433.2767 1021.935 1445.3957 1009.9325 1460.3396 1009.9325 Z M 1464.5666 1023.6032 L 1453.5301 1014.8616 L 1452.5661 1015.1147 L 1461.0613 1025.7177 L 1444.1947 1020.1185 L 1443.3957 1020.9824 L 1458.4735 1029.4704 L 1437.7408 1031.2127 L 1437.5295 1032.4488 L 1459.1076 1034.7721 L 1441.0811 1049.4402 L 1441.9059 1050.5573 L 1463.2727 1038.9563 L 1459.0612 1059.2988 L 1460.3551 1059.2988 L 1468.608 1040.1481 L 1473.603 1055.1141 L 1474.4742 1054.444 L 1472.5926 1039.4481 L 1480.2166 1048.0257 L 1480.6806 1047.1618 L 1475.0154 1036.5588 L 1483.057 1039.3733 L 1483.1497 1038.495 L 1476.4433 1033.1489 L 1482.727 1031.7339 L 1482.6085 1030.8256 L 1475.103 1029.0833 L 1478.9846 1023.365 L 1478.531 1022.7392 L 1472.4895 1025.6733 L 1473.1494 1017.6761 L 1472.4895 1017.3488 L 1468.742 1023.7671 L 1464.3243 1014.1172 L 1463.4995 1014.1172 L 1464.582 1023.5733 L 1464.5666 1023.6032 Z M 1401.9807 593.0525 C 1416.942 593.0525 1429.0751 605.069 1429.0751 619.8889 C 1429.0751 634.7087 1416.942 646.7252 1401.9807 646.7252 C 1387.0194 646.7252 1374.8863 634.7087 1374.8863 619.8889 C 1374.8863 605.069 1387.0194 593.0525 1401.9807 593.0525 Z M 1406.2126 606.739 L 1395.1632 597.9873 L 1394.1982 598.2407 L 1402.7032 608.856 L 1385.817 603.2503 L 1385.017 604.1153 L 1400.1125 612.6131 L 1379.3556 614.3575 L 1379.144 615.595 L 1400.7473 617.921 L 1382.6998 632.6062 L 1383.5255 633.7246 L 1404.9172 622.1101 L 1400.7008 642.4763 L 1401.9962 642.4763 L 1410.2587 623.3033 L 1415.2596 638.2867 L 1416.1317 637.6158 L 1414.248 622.6024 L 1421.8809 631.1901 L 1422.3454 630.3251 L 1416.6736 619.7098 L 1424.7245 622.5276 L 1424.8174 621.6482 L 1418.1032 616.2959 L 1424.3943 614.8792 L 1424.2756 613.9699 L 1416.7614 612.2255 L 1420.6475 606.5006 L 1420.1933 605.8741 L 1414.1448 608.8116 L 1414.8054 600.8051 L 1414.1448 600.4774 L 1410.3929 606.9031 L 1405.97 597.242 L 1405.1443 597.242 L 1406.2281 606.7091 L 1406.2126 606.739 Z M 1380.5204 691.9089 C 1378.4767 693.6852 1375.4473 693.6852 1373.4087 691.9089 C 1368.2943 687.4685 1361.3169 694.513 1365.7139 699.6759 C 1367.4738 701.7382 1367.4738 704.794 1365.7139 706.8562 C 1361.3169 712.0191 1368.2943 719.0637 1373.4087 714.6233 C 1375.4473 712.8469 1378.4767 712.8469 1380.5204 714.6233 C 1385.6296 719.0637 1392.6071 712.0191 1388.21 706.8562 C 1386.4502 704.794 1386.4502 701.7382 1388.21 699.6759 C 1392.6071 694.513 1385.6296 687.4685 1380.5204 691.9089 Z M 1376.9697 708.3611 C 1374.1829 708.3611 1371.9173 706.0733 1371.9173 703.2586 C 1371.9173 700.4439 1374.1829 698.1561 1376.9697 698.1561 C 1379.7566 698.1561 1382.0222 700.4439 1382.0222 703.2586 C 1382.0222 706.0733 1379.7566 708.3611 1376.9697 708.3611 Z M 1376.9697 676.1642 C 1362.1478 676.1642 1350.1333 688.2963 1350.1333 703.2586 C 1350.1333 718.2209 1362.1478 730.353 1376.9697 730.353 C 1391.7917 730.353 1403.8061 718.2209 1403.8061 703.2586 C 1403.8061 688.2963 1391.7917 676.1642 1376.9697 676.1642 Z M 1393.7889 716.5199 C 1392.8754 718.0403 1391.611 719.3197 1390.1041 720.2378 C 1387.5082 721.8185 1383.9936 721.8185 1376.9697 721.8185 C 1369.9458 721.8185 1366.4313 721.8185 1363.8354 720.2378 C 1362.3284 719.3197 1361.064 718.0403 1360.1505 716.5199 C 1358.5868 713.9008 1358.5868 710.3486 1358.5868 703.2586 C 1358.5868 696.1692 1358.5868 692.6164 1360.1505 689.9973 C 1361.064 688.4769 1362.3284 687.1975 1363.8354 686.2794 C 1366.4313 684.6987 1369.9458 684.6992 1376.9697 684.6992 C 1383.9936 684.6992 1387.5082 684.6987 1390.1041 686.2794 C 1391.611 687.1975 1392.8754 688.4769 1393.7889 689.9973 C 1395.3526 692.6164 1395.3526 696.1692 1395.3526 703.2586 C 1395.3526 710.3486 1395.3526 713.9008 1393.7889 716.5199 Z M 1452.5327 526.7242 C 1451.1317 525.8368 1449.2984 525.641 1447.6735 526.3784 C 1446.7309 526.7998 1446.0017 527.4768 1445.4965 528.2742 C 1445.7101 527.9731 1445.9705 527.8075 1446.3507 527.657 C 1447.3662 527.2362 1449.4339 527.958 1450.5432 529.7788 C 1451.2879 529.3726 1452.0587 528.9512 1452.866 528.545 C 1453.2149 528.3643 1453.5482 528.1987 1453.9128 528.0185 C 1453.5482 527.4919 1453.0326 527.0404 1452.5483 526.7242 L 1452.5327 526.7242 Z M 1454.9909 523.3541 C 1454.1576 523.7301 1453.5014 524.3322 1453.0951 525.0545 C 1453.293 524.7384 1453.517 524.5426 1453.8086 524.4072 C 1454.9336 523.8806 1456.6471 524.6931 1457.5741 526.3331 C 1457.5429 526.3331 1457.5168 526.3633 1457.4856 526.3784 C 1458.5011 525.9269 1459.5219 525.5055 1460.5063 525.1295 C 1459.4594 523.2489 1457.0429 522.4666 1454.9909 523.3692 L 1454.9909 523.3541 Z M 1460.3396 509.437 C 1445.2413 509.437 1432.9971 521.5635 1432.9971 536.5191 C 1432.9971 551.4747 1445.2413 563.6012 1460.3396 563.6012 C 1475.4379 563.6012 1487.6821 551.4747 1487.6821 536.5191 C 1487.6821 521.5635 1475.4379 509.437 1460.3396 509.437 Z M 1476.792 538.4898 C 1474.3442 540.8371 1470.7922 542.7631 1466.7976 543.9365 L 1464.8342 544.5083 L 1466.6154 545.4713 C 1468.6205 546.5546 1471.2297 548.5706 1472.9796 550.2107 C 1471.2297 552.0913 1468.5111 554.0475 1465.1831 555.2208 C 1465.1831 555.2208 1465.0321 554.9651 1464.6988 554.4084 C 1461.3135 548.9165 1457.1054 544.689 1452.3816 541.0028 C 1452.3816 541.0028 1455.3138 541.2736 1456.7252 541.2736 C 1465.7456 541.2736 1474.9691 538.0987 1479.5262 534.2473 C 1479.2502 535.6014 1478.3231 537.0154 1476.792 538.4753 L 1476.792 538.4898 Z M 1480.3126 532.1407 C 1476.5941 536.7597 1461.7093 542.447 1450.0692 539.6638 C 1449.663 539.5585 1449.4026 540.0851 1449.7672 540.3257 C 1457.7408 545.4411 1461.9958 551.5044 1464.2457 555.4615 C 1458.5324 557.2671 1450.939 556.8005 1444.8768 551.8205 C 1445.4965 549.5789 1446.5017 547.5623 1447.8245 545.8473 C 1444.4341 544.8692 1442.08 543.1391 1441.5019 540.7918 C 1441.0801 539.0466 1441.7467 537.1962 1443.1268 535.4056 C 1441.5019 531.2683 1442.554 526.9201 1445.8507 525.0993 C 1447.2465 524.3322 1448.8558 524.1218 1450.4651 524.3926 C 1450.965 523.4145 1451.7098 522.6171 1452.6993 522.0604 C 1455.5221 520.4954 1459.3657 521.624 1461.876 524.5577 C 1470.6516 521.263 1478.2971 521.7594 1480.3908 525.6712 C 1482.1511 528.9663 1480.4376 531.9901 1480.3908 532.0506 L 1480.3439 532.111 L 1480.3126 532.1407 Z"/>
</svg>