<svg width="364" height="348" viewBox="0 0 364 348" fill="none" xmlns="http://www.w3.org/2000/svg">
<path d="M250.241 173.161C250.241 186.985 239.035 198.191 225.211 198.191C211.387 198.191 200.181 186.985 200.181 173.161C200.181 159.337 211.387 148.131 225.211 148.131C239.035 148.131 250.241 159.337 250.241 173.161ZM197.082 173.161C197.082 187.141 185.749 198.474 171.769 198.474C157.789 198.474 146.457 187.141 146.457 173.161C146.457 159.181 157.789 147.849 171.769 147.849C185.749 147.849 197.082 159.181 197.082 173.161Z" fill="#FFAA00" style="fill:#FFAA00;fill:color(display-p3 1.0000 0.6667 0.0000);fill-opacity:1;"/>
<path d="M158.333 119.718C158.333 132.959 147.6 143.692 134.359 143.692C121.119 143.692 110.386 132.959 110.386 119.718C110.386 106.478 121.119 95.7449 134.359 95.7449C147.6 95.7449 158.333 106.478 158.333 119.718ZM142.332 173.161C142.332 186.418 131.584 197.165 118.327 197.165C105.069 197.165 94.3223 186.418 94.3223 173.161C94.3223 159.903 105.069 149.156 118.327 149.156C131.584 149.156 142.332 159.903 142.332 173.161ZM265.323 119.718C265.323 133.017 254.542 143.797 241.244 143.797C227.946 143.797 217.165 133.017 217.165 119.718C217.165 106.42 227.946 95.6396 241.244 95.6396C254.542 95.6396 265.323 106.42 265.323 119.718ZM212.262 226.603C212.262 240.112 201.311 251.063 187.802 251.063C174.293 251.063 163.341 240.112 163.341 226.603C163.341 213.094 174.293 202.142 187.802 202.142C201.311 202.142 212.262 213.094 212.262 226.603Z" fill="#FF6633" style="fill:#FF6633;fill:color(display-p3 1.0000 0.4000 0.2000);fill-opacity:1;"/>
<path d="M300.049 66.2764C300.049 78.0928 290.47 87.6721 278.653 87.6721C266.837 87.6721 257.258 78.0928 257.258 66.2764C257.258 54.46 266.837 44.8809 278.653 44.8809C290.47 44.8809 300.049 54.46 300.049 66.2764ZM262.954 226.603C262.954 238.593 253.234 248.313 241.244 248.313C229.254 248.313 219.534 238.593 219.534 226.603C219.534 214.613 229.254 204.892 241.244 204.892C253.234 204.892 262.954 214.613 262.954 226.603ZM156.326 226.603C156.326 238.735 146.492 248.57 134.36 248.57C122.228 248.57 112.393 238.735 112.393 226.603C112.393 214.471 122.228 204.636 134.36 204.636C146.492 204.636 156.326 214.471 156.326 226.603ZM300.725 173.161C300.725 185.351 290.843 195.232 278.653 195.232C266.464 195.232 256.582 185.351 256.582 173.161C256.582 160.971 266.464 151.089 278.653 151.089C290.843 151.089 300.725 160.971 300.725 173.161ZM316.906 119.719C316.906 131.99 306.958 141.939 294.686 141.939C282.414 141.939 272.466 131.99 272.466 119.719C272.466 107.447 282.414 97.4984 294.686 97.4984C306.958 97.4984 316.906 107.447 316.906 119.719ZM103.765 119.719C103.765 132.337 93.5356 142.566 80.9175 142.566C68.2994 142.566 58.0703 132.337 58.0703 119.719C58.0703 107.101 68.2994 96.8715 80.9175 96.8715C93.5356 96.8715 103.765 107.101 103.765 119.719ZM210.809 119.719C210.809 132.425 200.508 142.726 187.802 142.726C175.095 142.726 164.794 132.425 164.794 119.719C164.794 107.012 175.095 96.7112 187.802 96.7112C200.508 96.7112 210.809 107.012 210.809 119.719Z" fill="#D4547A" style="fill:#D4547A;fill:color(display-p3 0.8314 0.3294 0.4784);fill-opacity:1;"/>
<path d="M243.916 66.2766C243.916 76.6071 235.542 84.9817 225.211 84.9817C214.881 84.9817 206.506 76.6071 206.506 66.2766C206.506 55.946 214.881 47.5714 225.211 47.5714C235.542 47.5714 243.916 55.946 243.916 66.2766ZM84.0067 173.161C84.0067 183.722 75.4456 192.283 64.8848 192.283C54.324 192.283 45.7627 183.722 45.7627 173.161C45.7627 162.6 54.324 154.039 64.8848 154.039C75.4456 154.039 84.0067 162.6 84.0067 173.161ZM191.35 280.045C191.35 290.859 182.583 299.626 171.769 299.626C160.955 299.626 152.188 290.859 152.188 280.045C152.188 269.231 160.955 260.465 171.769 260.465C182.583 260.465 191.35 269.231 191.35 280.045ZM84.5737 66.2766C84.5737 77.1505 75.7587 85.9656 64.8848 85.9656C54.0109 85.9656 45.1958 77.1505 45.1958 66.2766C45.1958 55.4027 54.0109 46.5876 64.8848 46.5876C75.7587 46.5876 84.5737 55.4027 84.5737 66.2766ZM139.191 66.2766C139.191 77.7997 129.85 87.141 118.327 87.141C106.804 87.141 97.4624 77.7997 97.4624 66.2766C97.4624 54.7535 106.804 45.4121 118.327 45.4121C129.85 45.4121 139.191 54.7535 139.191 66.2766Z" fill="#9A35A0" style="fill:#9A35A0;fill:color(display-p3 0.6039 0.2078 0.6275);fill-opacity:1;"/>
<path d="M201.918 333.488C201.918 341.284 195.598 347.605 187.801 347.605C180.005 347.605 173.684 341.284 173.684 333.488C173.684 325.691 180.005 319.371 187.801 319.371C195.598 319.371 201.918 325.691 201.918 333.488ZM133.111 280.046C133.111 288.211 126.492 294.83 118.327 294.83C110.161 294.83 103.542 288.211 103.542 280.046C103.542 271.88 110.161 265.261 118.327 265.261C126.492 265.261 133.111 271.88 133.111 280.046ZM347.354 173.161C347.354 181.588 340.522 188.42 332.095 188.42C323.668 188.42 316.837 181.588 316.837 173.161C316.837 164.734 323.668 157.903 332.095 157.903C340.522 157.903 347.354 164.734 347.354 173.161ZM363.525 119.719C363.525 128.223 356.632 135.117 348.128 135.117C339.624 135.117 332.73 128.223 332.73 119.719C332.73 111.215 339.624 104.321 348.128 104.321C356.632 104.321 363.525 111.215 363.525 119.719ZM43.4674 119.719C43.4674 128.552 36.3073 135.712 27.4749 135.712C18.6425 135.712 11.4824 128.552 11.4824 119.719C11.4824 110.887 18.6425 103.727 27.4749 103.727C36.3073 103.727 43.4674 110.887 43.4674 119.719ZM310.703 226.603C310.703 235.449 303.531 242.62 294.686 242.62C285.84 242.62 278.669 235.449 278.669 226.603C278.669 217.757 285.84 210.587 294.686 210.587C303.531 210.587 310.703 217.757 310.703 226.603ZM348.303 66.2769C348.303 75.2281 341.046 82.4844 332.095 82.4844C323.144 82.4844 315.888 75.2281 315.888 66.2769C315.888 57.3257 323.144 50.0694 332.095 50.0694C341.046 50.0694 348.303 57.3257 348.303 66.2769ZM97.7413 226.603C97.7413 235.895 90.2088 243.428 80.917 243.428C71.6252 243.428 64.0927 235.895 64.0927 226.603C64.0927 217.312 71.6252 209.779 80.917 209.779C90.2088 209.779 97.7413 217.312 97.7413 226.603ZM188.676 66.2769C188.676 75.6142 181.106 83.1837 171.769 83.1837C162.431 83.1837 154.862 75.6142 154.862 66.2769C154.862 56.9396 162.431 49.3701 171.769 49.3701C181.106 49.3701 188.676 56.9396 188.676 66.2769ZM242.806 280.046C242.806 289.763 234.929 297.641 225.211 297.641C215.493 297.641 207.615 289.763 207.615 280.046C207.615 270.328 215.493 262.45 225.211 262.45C234.929 262.45 242.806 270.328 242.806 280.046Z" fill="#7A28B8" style="fill:#7A28B8;fill:color(display-p3 0.4784 0.1569 0.7216);fill-opacity:1;"/>
<path d="M35.9126 226.603C35.9126 231.263 32.135 235.04 27.4751 235.04C22.8152 235.04 19.0376 231.263 19.0376 226.603C19.0376 221.943 22.8152 218.165 27.4751 218.165C32.135 218.165 35.9126 221.943 35.9126 226.603ZM142.797 333.487C142.797 338.147 139.019 341.925 134.359 341.925C129.699 341.925 125.922 338.147 125.922 333.487C125.922 328.827 129.699 325.05 134.359 325.05C139.019 325.05 142.797 328.827 142.797 333.487ZM21.5408 173.161C21.5408 178.738 17.0195 183.259 11.4424 183.259C5.86518 183.259 1.34399 178.738 1.34399 173.161C1.34399 167.584 5.86518 163.062 11.4424 163.062C17.0195 163.062 21.5408 167.584 21.5408 173.161ZM22.8848 66.2765C22.8848 72.5959 17.7618 77.7189 11.4424 77.7189C5.12288 77.7189 0 72.5959 0 66.2765C0 59.9571 5.12288 54.8341 11.4424 54.8341C17.7618 54.8341 22.8848 59.9571 22.8848 66.2765ZM290.096 280.045C290.096 286.365 284.973 291.487 278.653 291.487C272.334 291.487 267.211 286.365 267.211 280.045C267.211 273.726 272.334 268.603 278.653 268.603C284.973 268.603 290.096 273.726 290.096 280.045ZM146.076 12.8344C146.076 19.305 140.83 24.5505 134.359 24.5505C127.889 24.5505 122.643 19.305 122.643 12.8344C122.643 6.36371 127.889 1.11823 134.359 1.11823C140.83 1.11823 146.076 6.36371 146.076 12.8344ZM253.273 12.8344C253.273 19.4781 247.888 24.864 241.244 24.864C234.6 24.864 229.214 19.4781 229.214 12.8344C229.214 6.19061 234.6 0.804688 241.244 0.804688C247.888 0.804688 253.273 6.19061 253.273 12.8344ZM307.322 12.8344C307.322 19.813 301.665 25.4702 294.686 25.4702C287.707 25.4702 282.05 19.813 282.05 12.8344C282.05 5.85581 287.707 0.198486 294.686 0.198486C301.665 0.198486 307.322 5.85581 307.322 12.8344ZM93.7516 12.8344C93.7516 19.9226 88.0054 25.6688 80.9172 25.6688C73.829 25.6688 68.0829 19.9226 68.0829 12.8344C68.0829 5.74611 73.829 0 80.9172 0C88.0054 0 93.7516 5.74611 93.7516 12.8344Z" fill="#5A0A90" style="fill:#5A0A90;fill:color(display-p3 0.3529 0.0392 0.5647);fill-opacity:1;"/>
</svg>
